<?xml version="1.0" encoding="utf-8" standalone="no"?>
<!DOCTYPE svg PUBLIC "-//W3C//DTD SVG 1.1//EN"
  "http://www.w3.org/Graphics/SVG/1.1/DTD/svg11.dtd">
<svg xmlns:xlink="http://www.w3.org/1999/xlink" width="864pt" height="432pt" viewBox="0 0 864 432" xmlns="http://www.w3.org/2000/svg" version="1.1">
 <metadata>
  <rdf:RDF xmlns:dc="http://purl.org/dc/elements/1.1/" xmlns:cc="http://creativecommons.org/ns#" xmlns:rdf="http://www.w3.org/1999/02/22-rdf-syntax-ns#">
   <cc:Work>
    <dc:type rdf:resource="http://purl.org/dc/dcmitype/StillImage"/>
    <dc:date>2025-11-29T01:44:05.556084</dc:date>
    <dc:format>image/svg+xml</dc:format>
    <dc:creator>
     <cc:Agent>
      <dc:title>Matplotlib v3.10.0, https://matplotlib.org/</dc:title>
     </cc:Agent>
    </dc:creator>
   </cc:Work>
  </rdf:RDF>
 </metadata>
 <defs>
  <style type="text/css">*{stroke-linejoin: round; stroke-linecap: butt}</style>
 </defs>
 <g id="figure_1">
  <g id="patch_1">
   <path d="M 0 432 
L 864 432 
L 864 0 
L 0 0 
z
" style="fill: #ffffff"/>
  </g>
  <g id="axes_1">
   <g id="patch_2">
    <path d="M 50.87 390.04 
L 853.2 390.04 
L 853.2 26.88 
L 50.87 26.88 
z
" style="fill: #ffffff"/>
   </g>
   <g id="FillBetweenPolyCollection_1">
    <path d="M 87.339545 253.960602 
L 87.339545 371.79991 
L 90.552721 312.481871 
L 93.765897 190.799547 
L 96.979073 243.308499 
L 100.192249 235.688776 
L 103.405425 186.619031 
L 106.6186 220.250145 
L 109.831776 373.532727 
L 113.044952 186.209437 
L 116.258128 169.118909 
L 119.471304 373.532727 
L 122.684479 275.469024 
L 125.897655 220.866892 
L 129.110831 373.532727 
L 132.324007 176.341875 
L 135.537183 198.423538 
L 138.750358 169.218518 
L 141.963534 239.571613 
L 145.17671 193.953637 
L 148.389886 373.532727 
L 151.603062 365.400742 
L 154.816237 246.357547 
L 158.029413 332.625534 
L 161.242589 218.118026 
L 164.455765 255.360127 
L 167.668941 236.564383 
L 170.882117 215.683857 
L 174.095292 373.532727 
L 177.308468 373.532727 
L 180.521644 161.840466 
L 183.73482 234.045122 
L 186.947996 364.299008 
L 190.161171 272.148314 
L 193.374347 235.498709 
L 196.587523 373.532727 
L 199.800699 214.13342 
L 203.013875 373.532727 
L 206.22705 237.728638 
L 209.440226 359.45362 
L 212.653402 310.432677 
L 215.866578 294.148928 
L 219.079754 186.964304 
L 222.29293 352.823347 
L 225.506105 272.622365 
L 228.719281 362.362431 
L 231.932457 218.782196 
L 235.145633 195.474356 
L 238.358809 184.069468 
L 241.571984 168.916469 
L 244.78516 220.256161 
L 247.998336 166.844489 
L 251.211512 234.281205 
L 254.424688 179.972296 
L 257.637863 373.532727 
L 260.851039 161.60673 
L 264.064215 341.064197 
L 267.277391 322.200276 
L 270.490567 174.215395 
L 273.703742 337.799829 
L 276.916918 373.532727 
L 280.130094 161.22658 
L 283.34327 310.459241 
L 286.556446 347.418231 
L 289.769622 373.532727 
L 292.982797 359.492704 
L 296.195973 373.532727 
L 299.409149 178.019069 
L 302.622325 360.982025 
L 305.835501 183.847284 
L 309.048676 187.466565 
L 312.261852 368.22677 
L 315.475028 228.882361 
L 318.688204 236.424361 
L 321.90138 191.992389 
L 325.114555 173.498198 
L 328.327731 373.532727 
L 331.540907 179.448628 
L 334.754083 177.178664 
L 337.967259 170.709639 
L 341.180435 262.079134 
L 344.39361 176.284804 
L 347.606786 283.111165 
L 350.819962 264.83172 
L 354.033138 279.414177 
L 357.246314 299.049332 
L 360.459489 230.448738 
L 363.672665 166.838456 
L 366.885841 187.225426 
L 370.099017 172.952559 
L 373.312193 215.194329 
L 376.525368 229.695945 
L 379.738544 183.711976 
L 382.95172 310.436044 
L 386.164896 373.532727 
L 389.378072 373.532727 
L 392.591247 373.532727 
L 395.804423 373.532727 
L 399.017599 169.940153 
L 402.230775 225.812627 
L 405.443951 275.723634 
L 408.657127 286.69233 
L 411.870302 172.134571 
L 415.083478 175.428649 
L 418.296654 292.836879 
L 421.50983 373.532727 
L 424.723006 233.067574 
L 427.936181 373.532727 
L 431.149357 364.581349 
L 434.362533 168.41479 
L 437.575709 373.532727 
L 440.788885 193.346453 
L 444.00206 373.532727 
L 447.215236 204.97625 
L 450.428412 230.568725 
L 453.641588 329.797934 
L 456.854764 177.184783 
L 460.06794 362.732607 
L 463.281115 261.03149 
L 466.494291 373.532727 
L 469.707467 187.791992 
L 472.920643 163.383688 
L 476.133819 176.441621 
L 479.346994 279.384956 
L 482.56017 260.757753 
L 485.773346 206.543398 
L 488.986522 176.442804 
L 492.199698 345.899499 
L 495.412873 373.532727 
L 498.626049 194.846589 
L 501.839225 188.125439 
L 505.052401 261.023058 
L 508.265577 182.22166 
L 511.478753 194.502756 
L 514.691928 167.22481 
L 517.905104 283.270364 
L 521.11828 286.6755 
L 524.331456 167.073545 
L 527.544632 232.853959 
L 530.757807 173.250667 
L 533.970983 207.779566 
L 537.184159 328.616077 
L 540.397335 373.532727 
L 543.610511 203.626762 
L 546.823686 173.38894 
L 550.036862 345.039599 
L 553.250038 373.532727 
L 556.463214 183.812767 
L 559.67639 373.532727 
L 562.889565 373.316036 
L 566.102741 186.456232 
L 569.315917 237.197378 
L 572.529093 250.430073 
L 575.742269 182.497659 
L 578.955445 174.752345 
L 582.16862 180.639911 
L 585.381796 168.068454 
L 588.594972 226.313261 
L 591.808148 219.953649 
L 595.021324 373.532727 
L 598.234499 373.532727 
L 601.447675 373.532727 
L 604.660851 245.174045 
L 607.874027 202.667793 
L 611.087203 373.532727 
L 614.300378 208.882002 
L 617.513554 373.532727 
L 620.72673 355.119953 
L 623.939906 372.186247 
L 627.153082 176.446078 
L 630.366258 373.532727 
L 633.579433 373.532727 
L 636.792609 340.051249 
L 640.005785 361.833905 
L 643.218961 173.138786 
L 646.432137 197.688295 
L 649.645312 315.708089 
L 652.858488 173.18578 
L 656.071664 274.538745 
L 659.28484 216.903607 
L 662.498016 368.02571 
L 665.711191 186.353418 
L 668.924367 173.354817 
L 672.137543 331.664645 
L 675.350719 373.532727 
L 678.563895 289.821594 
L 681.77707 229.298794 
L 684.990246 233.615801 
L 688.203422 373.532727 
L 691.416598 180.32511 
L 694.629774 215.846331 
L 697.84295 223.480142 
L 701.056125 181.365419 
L 704.269301 239.234104 
L 707.482477 373.532727 
L 710.695653 239.337672 
L 713.908829 175.636282 
L 717.122004 280.778028 
L 720.33518 373.532727 
L 723.548356 240.461823 
L 726.761532 183.721402 
L 729.974708 373.532727 
L 733.187883 292.918236 
L 736.401059 179.662894 
L 739.614235 339.713689 
L 742.827411 169.55589 
L 746.040587 264.939898 
L 749.253763 303.696445 
L 752.466938 321.307659 
L 755.680114 373.532727 
L 758.89329 190.501628 
L 762.106466 171.018338 
L 765.319642 168.750842 
L 768.532817 191.248251 
L 771.745993 323.262017 
L 774.959169 171.598341 
L 778.172345 176.306604 
L 781.385521 330.418743 
L 784.598696 361.619206 
L 787.811872 250.206467 
L 791.025048 373.532727 
L 794.238224 373.532727 
L 797.4514 350.06514 
L 800.664575 204.525181 
L 803.877751 216.041607 
L 807.090927 289.465001 
L 810.304103 170.043379 
L 813.517279 211.83845 
L 816.730455 363.682206 
L 816.730455 245.842894 
L 816.730455 245.842894 
L 813.517279 93.999143 
L 810.304103 52.204088 
L 807.090927 171.625694 
L 803.877751 98.202299 
L 800.664575 86.685874 
L 797.4514 232.225832 
L 794.238224 283.9436 
L 791.025048 271.073659 
L 787.811872 132.367159 
L 784.598696 243.779894 
L 781.385521 212.579435 
L 778.172345 58.467296 
L 774.959169 53.759033 
L 771.745993 205.422709 
L 768.532817 73.408944 
L 765.319642 50.911534 
L 762.106466 53.179031 
L 758.89329 72.662321 
L 755.680114 288.284139 
L 752.466938 203.468351 
L 749.253763 185.857137 
L 746.040587 147.10059 
L 742.827411 51.7166 
L 739.614235 221.874381 
L 736.401059 61.823604 
L 733.187883 175.078937 
L 729.974708 267.377974 
L 726.761532 65.882077 
L 723.548356 122.622515 
L 720.33518 264.290305 
L 717.122004 162.93872 
L 713.908829 57.796974 
L 710.695653 121.498364 
L 707.482477 259.598734 
L 704.269301 121.394796 
L 701.056125 63.526111 
L 697.84295 105.640834 
L 694.629774 98.007023 
L 691.416598 62.485803 
L 688.203422 286.012693 
L 684.990246 115.776494 
L 681.77707 111.459486 
L 678.563895 171.982278 
L 675.350719 287.016574 
L 672.137543 213.825338 
L 668.924367 55.515527 
L 665.711191 68.51411 
L 662.498016 250.186398 
L 659.28484 99.064299 
L 656.071664 156.699437 
L 652.858488 55.346472 
L 649.645312 197.868781 
L 646.432137 79.848987 
L 643.218961 55.299479 
L 640.005785 243.994597 
L 636.792609 222.211942 
L 633.579433 295.332567 
L 630.366258 273.067239 
L 627.153082 58.60677 
L 623.939906 254.346939 
L 620.72673 237.280645 
L 617.513554 285.336517 
L 614.300378 91.042694 
L 611.087203 261.71698 
L 607.874027 84.828485 
L 604.660851 127.334737 
L 601.447675 285.020491 
L 598.234499 300.95823 
L 595.021324 278.121709 
L 591.808148 102.114341 
L 588.594972 108.473953 
L 585.381796 50.229146 
L 582.16862 62.800603 
L 578.955445 56.913037 
L 575.742269 64.658351 
L 572.529093 132.590766 
L 569.315917 119.35807 
L 566.102741 68.616907 
L 562.889565 255.476729 
L 559.67639 287.356465 
L 556.463214 65.97346 
L 553.250038 293.909143 
L 550.036862 227.2003 
L 546.823686 55.549633 
L 543.610511 85.787455 
L 540.397335 268.301775 
L 537.184159 210.77677 
L 533.970983 89.940258 
L 530.757807 55.411359 
L 527.544632 115.014652 
L 524.331456 49.234255 
L 521.11828 168.836192 
L 517.905104 165.431057 
L 514.691928 49.385485 
L 511.478753 76.663448 
L 508.265577 64.382353 
L 505.052401 143.18375 
L 501.839225 70.286132 
L 498.626049 77.007281 
L 495.412873 294.413222 
L 492.199698 228.060192 
L 488.986522 58.603479 
L 485.773346 88.70409 
L 482.56017 142.918446 
L 479.346994 161.545648 
L 476.133819 58.602314 
L 472.920643 45.544397 
L 469.707467 69.952684 
L 466.494291 265.250997 
L 463.281115 143.192182 
L 460.06794 244.893299 
L 456.854764 59.345475 
L 453.641588 211.958626 
L 450.428412 112.729417 
L 447.215236 87.136943 
L 444.00206 289.975421 
L 440.788885 75.507146 
L 437.575709 293.538248 
L 434.362533 50.575482 
L 431.149357 246.742041 
L 427.936181 272.515061 
L 424.723006 115.228266 
L 421.50983 282.567273 
L 418.296654 174.997563 
L 415.083478 57.589358 
L 411.870302 54.295263 
L 408.657127 168.853022 
L 405.443951 157.884327 
L 402.230775 107.97332 
L 399.017599 52.100846 
L 395.804423 281.108424 
L 392.591247 267.686991 
L 389.378072 273.07951 
L 386.164896 281.689678 
L 382.95172 192.596745 
L 379.738544 65.872685 
L 376.525368 111.856637 
L 373.312193 97.355022 
L 370.099017 55.113251 
L 366.885841 69.386119 
L 363.672665 48.999148 
L 360.459489 112.60943 
L 357.246314 181.210024 
L 354.033138 161.57487 
L 350.819962 146.992412 
L 347.606786 165.271857 
L 344.39361 58.445496 
L 341.180435 144.239826 
L 337.967259 52.870331 
L 334.754083 59.339339 
L 331.540907 61.609304 
L 328.327731 274.285583 
L 325.114555 55.658874 
L 321.90138 74.153064 
L 318.688204 118.585054 
L 315.475028 111.043054 
L 312.261852 250.387467 
L 309.048676 69.627258 
L 305.835501 66.007977 
L 302.622325 243.142718 
L 299.409149 60.179744 
L 296.195973 277.808485 
L 292.982797 241.653396 
L 289.769622 276.414249 
L 286.556446 229.578923 
L 283.34327 192.619934 
L 280.130094 43.387273 
L 276.916918 284.067049 
L 273.703742 219.960521 
L 270.490567 56.376087 
L 267.277391 204.360977 
L 264.064215 223.22488 
L 260.851039 43.767405 
L 257.637863 294.354745 
L 254.424688 62.132989 
L 251.211512 116.441897 
L 247.998336 49.005181 
L 244.78516 102.416853 
L 241.571984 51.077161 
L 238.358809 66.230161 
L 235.145633 77.635066 
L 231.932457 100.942888 
L 228.719281 244.523124 
L 225.506105 154.783058 
L 222.29293 234.984039 
L 219.079754 69.124996 
L 215.866578 176.309621 
L 212.653402 192.593369 
L 209.440226 241.614312 
L 206.22705 119.88933 
L 203.013875 286.779016 
L 199.800699 96.294112 
L 196.587523 285.254278 
L 193.374347 117.659402 
L 190.161171 154.309006 
L 186.947996 246.459701 
L 183.73482 116.205814 
L 180.521644 44.001175 
L 177.308468 257.960316 
L 174.095292 288.895677 
L 170.882117 97.84455 
L 167.668941 118.725076 
L 164.455765 137.520819 
L 161.242589 100.278718 
L 158.029413 214.786227 
L 154.816237 128.518239 
L 151.603062 247.561434 
L 148.389886 267.925105 
L 145.17671 76.11433 
L 141.963534 121.732305 
L 138.750358 51.379211 
L 135.537183 80.58423 
L 132.324007 58.502568 
L 129.110831 281.878458 
L 125.897655 103.027585 
L 122.684479 157.629717 
L 119.471304 295.075712 
L 116.258128 51.279601 
L 113.044952 68.370112 
L 109.831776 277.237447 
L 106.6186 102.410838 
L 103.405425 68.779723 
L 100.192249 117.849468 
L 96.979073 125.469191 
L 93.765897 72.960223 
L 90.552721 194.642572 
L 87.339545 253.960602 
z
" clip-path="url(#pba5415ed45)" style="fill: #1f77b4; fill-opacity: 0.2"/>
   </g>
   <g id="matplotlib.axis_1">
    <g id="xtick_1">
     <g id="line2d_1">
      <defs>
       <path id="ma4f7ff5937" d="M 0 0 
L 0 3.5 
" style="stroke: #000000; stroke-width: 0.8"/>
      </defs>
      <g>
       <use xlink:href="#ma4f7ff5937" x="87.339545" y="390.04" style="stroke: #000000; stroke-width: 0.8"/>
      </g>
     </g>
     <g id="text_1">
      <!-- 0 -->
      <g transform="translate(84.158295 404.638438) scale(0.1 -0.1)">
       <defs>
        <path id="DejaVuSans-30" d="M 2034 4250 
Q 1547 4250 1301 3770 
Q 1056 3291 1056 2328 
Q 1056 1369 1301 889 
Q 1547 409 2034 409 
Q 2525 409 2770 889 
Q 3016 1369 3016 2328 
Q 3016 3291 2770 3770 
Q 2525 4250 2034 4250 
z
M 2034 4750 
Q 2819 4750 3233 4129 
Q 3647 3509 3647 2328 
Q 3647 1150 3233 529 
Q 2819 -91 2034 -91 
Q 1250 -91 836 529 
Q 422 1150 422 2328 
Q 422 3509 836 4129 
Q 1250 4750 2034 4750 
z
" transform="scale(0.015625)"/>
       </defs>
       <use xlink:href="#DejaVuSans-30"/>
      </g>
     </g>
    </g>
    <g id="xtick_2">
     <g id="line2d_2">
      <g>
       <use xlink:href="#ma4f7ff5937" x="247.998336" y="390.04" style="stroke: #000000; stroke-width: 0.8"/>
      </g>
     </g>
     <g id="text_2">
      <!-- 50 -->
      <g transform="translate(241.635836 404.638438) scale(0.1 -0.1)">
       <defs>
        <path id="DejaVuSans-35" d="M 691 4666 
L 3169 4666 
L 3169 4134 
L 1269 4134 
L 1269 2991 
Q 1406 3038 1543 3061 
Q 1681 3084 1819 3084 
Q 2600 3084 3056 2656 
Q 3513 2228 3513 1497 
Q 3513 744 3044 326 
Q 2575 -91 1722 -91 
Q 1428 -91 1123 -41 
Q 819 9 494 109 
L 494 744 
Q 775 591 1075 516 
Q 1375 441 1709 441 
Q 2250 441 2565 725 
Q 2881 1009 2881 1497 
Q 2881 1984 2565 2268 
Q 2250 2553 1709 2553 
Q 1456 2553 1204 2497 
Q 953 2441 691 2322 
L 691 4666 
z
" transform="scale(0.015625)"/>
       </defs>
       <use xlink:href="#DejaVuSans-35"/>
       <use xlink:href="#DejaVuSans-30" transform="translate(63.623047 0)"/>
      </g>
     </g>
    </g>
    <g id="xtick_3">
     <g id="line2d_3">
      <g>
       <use xlink:href="#ma4f7ff5937" x="408.657127" y="390.04" style="stroke: #000000; stroke-width: 0.8"/>
      </g>
     </g>
     <g id="text_3">
      <!-- 100 -->
      <g transform="translate(399.113377 404.638438) scale(0.1 -0.1)">
       <defs>
        <path id="DejaVuSans-31" d="M 794 531 
L 1825 531 
L 1825 4091 
L 703 3866 
L 703 4441 
L 1819 4666 
L 2450 4666 
L 2450 531 
L 3481 531 
L 3481 0 
L 794 0 
L 794 531 
z
" transform="scale(0.015625)"/>
       </defs>
       <use xlink:href="#DejaVuSans-31"/>
       <use xlink:href="#DejaVuSans-30" transform="translate(63.623047 0)"/>
       <use xlink:href="#DejaVuSans-30" transform="translate(127.246094 0)"/>
      </g>
     </g>
    </g>
    <g id="xtick_4">
     <g id="line2d_4">
      <g>
       <use xlink:href="#ma4f7ff5937" x="569.315917" y="390.04" style="stroke: #000000; stroke-width: 0.8"/>
      </g>
     </g>
     <g id="text_4">
      <!-- 150 -->
      <g transform="translate(559.772167 404.638438) scale(0.1 -0.1)">
       <use xlink:href="#DejaVuSans-31"/>
       <use xlink:href="#DejaVuSans-35" transform="translate(63.623047 0)"/>
       <use xlink:href="#DejaVuSans-30" transform="translate(127.246094 0)"/>
      </g>
     </g>
    </g>
    <g id="xtick_5">
     <g id="line2d_5">
      <g>
       <use xlink:href="#ma4f7ff5937" x="729.974708" y="390.04" style="stroke: #000000; stroke-width: 0.8"/>
      </g>
     </g>
     <g id="text_5">
      <!-- 200 -->
      <g transform="translate(720.430958 404.638438) scale(0.1 -0.1)">
       <defs>
        <path id="DejaVuSans-32" d="M 1228 531 
L 3431 531 
L 3431 0 
L 469 0 
L 469 531 
Q 828 903 1448 1529 
Q 2069 2156 2228 2338 
Q 2531 2678 2651 2914 
Q 2772 3150 2772 3378 
Q 2772 3750 2511 3984 
Q 2250 4219 1831 4219 
Q 1534 4219 1204 4116 
Q 875 4013 500 3803 
L 500 4441 
Q 881 4594 1212 4672 
Q 1544 4750 1819 4750 
Q 2544 4750 2975 4387 
Q 3406 4025 3406 3419 
Q 3406 3131 3298 2873 
Q 3191 2616 2906 2266 
Q 2828 2175 2409 1742 
Q 1991 1309 1228 531 
z
" transform="scale(0.015625)"/>
       </defs>
       <use xlink:href="#DejaVuSans-32"/>
       <use xlink:href="#DejaVuSans-30" transform="translate(63.623047 0)"/>
       <use xlink:href="#DejaVuSans-30" transform="translate(127.246094 0)"/>
      </g>
     </g>
    </g>
    <g id="text_6">
     <!-- Engine (sorted) -->
     <g transform="translate(413.477188 418.316562) scale(0.1 -0.1)">
      <defs>
       <path id="DejaVuSans-45" d="M 628 4666 
L 3578 4666 
L 3578 4134 
L 1259 4134 
L 1259 2753 
L 3481 2753 
L 3481 2222 
L 1259 2222 
L 1259 531 
L 3634 531 
L 3634 0 
L 628 0 
L 628 4666 
z
" transform="scale(0.015625)"/>
       <path id="DejaVuSans-6e" d="M 3513 2113 
L 3513 0 
L 2938 0 
L 2938 2094 
Q 2938 2591 2744 2837 
Q 2550 3084 2163 3084 
Q 1697 3084 1428 2787 
Q 1159 2491 1159 1978 
L 1159 0 
L 581 0 
L 581 3500 
L 1159 3500 
L 1159 2956 
Q 1366 3272 1645 3428 
Q 1925 3584 2291 3584 
Q 2894 3584 3203 3211 
Q 3513 2838 3513 2113 
z
" transform="scale(0.015625)"/>
       <path id="DejaVuSans-67" d="M 2906 1791 
Q 2906 2416 2648 2759 
Q 2391 3103 1925 3103 
Q 1463 3103 1205 2759 
Q 947 2416 947 1791 
Q 947 1169 1205 825 
Q 1463 481 1925 481 
Q 2391 481 2648 825 
Q 2906 1169 2906 1791 
z
M 3481 434 
Q 3481 -459 3084 -895 
Q 2688 -1331 1869 -1331 
Q 1566 -1331 1297 -1286 
Q 1028 -1241 775 -1147 
L 775 -588 
Q 1028 -725 1275 -790 
Q 1522 -856 1778 -856 
Q 2344 -856 2625 -561 
Q 2906 -266 2906 331 
L 2906 616 
Q 2728 306 2450 153 
Q 2172 0 1784 0 
Q 1141 0 747 490 
Q 353 981 353 1791 
Q 353 2603 747 3093 
Q 1141 3584 1784 3584 
Q 2172 3584 2450 3431 
Q 2728 3278 2906 2969 
L 2906 3500 
L 3481 3500 
L 3481 434 
z
" transform="scale(0.015625)"/>
       <path id="DejaVuSans-69" d="M 603 3500 
L 1178 3500 
L 1178 0 
L 603 0 
L 603 3500 
z
M 603 4863 
L 1178 4863 
L 1178 4134 
L 603 4134 
L 603 4863 
z
" transform="scale(0.015625)"/>
       <path id="DejaVuSans-65" d="M 3597 1894 
L 3597 1613 
L 953 1613 
Q 991 1019 1311 708 
Q 1631 397 2203 397 
Q 2534 397 2845 478 
Q 3156 559 3463 722 
L 3463 178 
Q 3153 47 2828 -22 
Q 2503 -91 2169 -91 
Q 1331 -91 842 396 
Q 353 884 353 1716 
Q 353 2575 817 3079 
Q 1281 3584 2069 3584 
Q 2775 3584 3186 3129 
Q 3597 2675 3597 1894 
z
M 3022 2063 
Q 3016 2534 2758 2815 
Q 2500 3097 2075 3097 
Q 1594 3097 1305 2825 
Q 1016 2553 972 2059 
L 3022 2063 
z
" transform="scale(0.015625)"/>
       <path id="DejaVuSans-20" transform="scale(0.015625)"/>
       <path id="DejaVuSans-28" d="M 1984 4856 
Q 1566 4138 1362 3434 
Q 1159 2731 1159 2009 
Q 1159 1288 1364 580 
Q 1569 -128 1984 -844 
L 1484 -844 
Q 1016 -109 783 600 
Q 550 1309 550 2009 
Q 550 2706 781 3412 
Q 1013 4119 1484 4856 
L 1984 4856 
z
" transform="scale(0.015625)"/>
       <path id="DejaVuSans-73" d="M 2834 3397 
L 2834 2853 
Q 2591 2978 2328 3040 
Q 2066 3103 1784 3103 
Q 1356 3103 1142 2972 
Q 928 2841 928 2578 
Q 928 2378 1081 2264 
Q 1234 2150 1697 2047 
L 1894 2003 
Q 2506 1872 2764 1633 
Q 3022 1394 3022 966 
Q 3022 478 2636 193 
Q 2250 -91 1575 -91 
Q 1294 -91 989 -36 
Q 684 19 347 128 
L 347 722 
Q 666 556 975 473 
Q 1284 391 1588 391 
Q 1994 391 2212 530 
Q 2431 669 2431 922 
Q 2431 1156 2273 1281 
Q 2116 1406 1581 1522 
L 1381 1569 
Q 847 1681 609 1914 
Q 372 2147 372 2553 
Q 372 3047 722 3315 
Q 1072 3584 1716 3584 
Q 2034 3584 2315 3537 
Q 2597 3491 2834 3397 
z
" transform="scale(0.015625)"/>
       <path id="DejaVuSans-6f" d="M 1959 3097 
Q 1497 3097 1228 2736 
Q 959 2375 959 1747 
Q 959 1119 1226 758 
Q 1494 397 1959 397 
Q 2419 397 2687 759 
Q 2956 1122 2956 1747 
Q 2956 2369 2687 2733 
Q 2419 3097 1959 3097 
z
M 1959 3584 
Q 2709 3584 3137 3096 
Q 3566 2609 3566 1747 
Q 3566 888 3137 398 
Q 2709 -91 1959 -91 
Q 1206 -91 779 398 
Q 353 888 353 1747 
Q 353 2609 779 3096 
Q 1206 3584 1959 3584 
z
" transform="scale(0.015625)"/>
       <path id="DejaVuSans-72" d="M 2631 2963 
Q 2534 3019 2420 3045 
Q 2306 3072 2169 3072 
Q 1681 3072 1420 2755 
Q 1159 2438 1159 1844 
L 1159 0 
L 581 0 
L 581 3500 
L 1159 3500 
L 1159 2956 
Q 1341 3275 1631 3429 
Q 1922 3584 2338 3584 
Q 2397 3584 2469 3576 
Q 2541 3569 2628 3553 
L 2631 2963 
z
" transform="scale(0.015625)"/>
       <path id="DejaVuSans-74" d="M 1172 4494 
L 1172 3500 
L 2356 3500 
L 2356 3053 
L 1172 3053 
L 1172 1153 
Q 1172 725 1289 603 
Q 1406 481 1766 481 
L 2356 481 
L 2356 0 
L 1766 0 
Q 1100 0 847 248 
Q 594 497 594 1153 
L 594 3053 
L 172 3053 
L 172 3500 
L 594 3500 
L 594 4494 
L 1172 4494 
z
" transform="scale(0.015625)"/>
       <path id="DejaVuSans-64" d="M 2906 2969 
L 2906 4863 
L 3481 4863 
L 3481 0 
L 2906 0 
L 2906 525 
Q 2725 213 2448 61 
Q 2172 -91 1784 -91 
Q 1150 -91 751 415 
Q 353 922 353 1747 
Q 353 2572 751 3078 
Q 1150 3584 1784 3584 
Q 2172 3584 2448 3432 
Q 2725 3281 2906 2969 
z
M 947 1747 
Q 947 1113 1208 752 
Q 1469 391 1925 391 
Q 2381 391 2643 752 
Q 2906 1113 2906 1747 
Q 2906 2381 2643 2742 
Q 2381 3103 1925 3103 
Q 1469 3103 1208 2742 
Q 947 2381 947 1747 
z
" transform="scale(0.015625)"/>
       <path id="DejaVuSans-29" d="M 513 4856 
L 1013 4856 
Q 1481 4119 1714 3412 
Q 1947 2706 1947 2009 
Q 1947 1309 1714 600 
Q 1481 -109 1013 -844 
L 513 -844 
Q 928 -128 1133 580 
Q 1338 1288 1338 2009 
Q 1338 2731 1133 3434 
Q 928 4138 513 4856 
z
" transform="scale(0.015625)"/>
      </defs>
      <use xlink:href="#DejaVuSans-45"/>
      <use xlink:href="#DejaVuSans-6e" transform="translate(63.183594 0)"/>
      <use xlink:href="#DejaVuSans-67" transform="translate(126.5625 0)"/>
      <use xlink:href="#DejaVuSans-69" transform="translate(190.039062 0)"/>
      <use xlink:href="#DejaVuSans-6e" transform="translate(217.822266 0)"/>
      <use xlink:href="#DejaVuSans-65" transform="translate(281.201172 0)"/>
      <use xlink:href="#DejaVuSans-20" transform="translate(342.724609 0)"/>
      <use xlink:href="#DejaVuSans-28" transform="translate(374.511719 0)"/>
      <use xlink:href="#DejaVuSans-73" transform="translate(413.525391 0)"/>
      <use xlink:href="#DejaVuSans-6f" transform="translate(465.625 0)"/>
      <use xlink:href="#DejaVuSans-72" transform="translate(526.806641 0)"/>
      <use xlink:href="#DejaVuSans-74" transform="translate(567.919922 0)"/>
      <use xlink:href="#DejaVuSans-65" transform="translate(607.128906 0)"/>
      <use xlink:href="#DejaVuSans-64" transform="translate(668.652344 0)"/>
      <use xlink:href="#DejaVuSans-29" transform="translate(732.128906 0)"/>
     </g>
    </g>
   </g>
   <g id="matplotlib.axis_2">
    <g id="ytick_1">
     <g id="line2d_6">
      <defs>
       <path id="m6ace7f0e19" d="M 0 0 
L -3.5 0 
" style="stroke: #000000; stroke-width: 0.8"/>
      </defs>
      <g>
       <use xlink:href="#m6ace7f0e19" x="50.87" y="373.532727" style="stroke: #000000; stroke-width: 0.8"/>
      </g>
     </g>
     <g id="text_7">
      <!-- 0 -->
      <g transform="translate(37.5075 377.331946) scale(0.1 -0.1)">
       <use xlink:href="#DejaVuSans-30"/>
      </g>
     </g>
    </g>
    <g id="ytick_2">
     <g id="line2d_7">
      <g>
       <use xlink:href="#m6ace7f0e19" x="50.87" y="328.605092" style="stroke: #000000; stroke-width: 0.8"/>
      </g>
     </g>
     <g id="text_8">
      <!-- 20 -->
      <g transform="translate(31.145 332.40431) scale(0.1 -0.1)">
       <use xlink:href="#DejaVuSans-32"/>
       <use xlink:href="#DejaVuSans-30" transform="translate(63.623047 0)"/>
      </g>
     </g>
    </g>
    <g id="ytick_3">
     <g id="line2d_8">
      <g>
       <use xlink:href="#m6ace7f0e19" x="50.87" y="283.677456" style="stroke: #000000; stroke-width: 0.8"/>
      </g>
     </g>
     <g id="text_9">
      <!-- 40 -->
      <g transform="translate(31.145 287.476675) scale(0.1 -0.1)">
       <defs>
        <path id="DejaVuSans-34" d="M 2419 4116 
L 825 1625 
L 2419 1625 
L 2419 4116 
z
M 2253 4666 
L 3047 4666 
L 3047 1625 
L 3713 1625 
L 3713 1100 
L 3047 1100 
L 3047 0 
L 2419 0 
L 2419 1100 
L 313 1100 
L 313 1709 
L 2253 4666 
z
" transform="scale(0.015625)"/>
       </defs>
       <use xlink:href="#DejaVuSans-34"/>
       <use xlink:href="#DejaVuSans-30" transform="translate(63.623047 0)"/>
      </g>
     </g>
    </g>
    <g id="ytick_4">
     <g id="line2d_9">
      <g>
       <use xlink:href="#m6ace7f0e19" x="50.87" y="238.74982" style="stroke: #000000; stroke-width: 0.8"/>
      </g>
     </g>
     <g id="text_10">
      <!-- 60 -->
      <g transform="translate(31.145 242.549039) scale(0.1 -0.1)">
       <defs>
        <path id="DejaVuSans-36" d="M 2113 2584 
Q 1688 2584 1439 2293 
Q 1191 2003 1191 1497 
Q 1191 994 1439 701 
Q 1688 409 2113 409 
Q 2538 409 2786 701 
Q 3034 994 3034 1497 
Q 3034 2003 2786 2293 
Q 2538 2584 2113 2584 
z
M 3366 4563 
L 3366 3988 
Q 3128 4100 2886 4159 
Q 2644 4219 2406 4219 
Q 1781 4219 1451 3797 
Q 1122 3375 1075 2522 
Q 1259 2794 1537 2939 
Q 1816 3084 2150 3084 
Q 2853 3084 3261 2657 
Q 3669 2231 3669 1497 
Q 3669 778 3244 343 
Q 2819 -91 2113 -91 
Q 1303 -91 875 529 
Q 447 1150 447 2328 
Q 447 3434 972 4092 
Q 1497 4750 2381 4750 
Q 2619 4750 2861 4703 
Q 3103 4656 3366 4563 
z
" transform="scale(0.015625)"/>
       </defs>
       <use xlink:href="#DejaVuSans-36"/>
       <use xlink:href="#DejaVuSans-30" transform="translate(63.623047 0)"/>
      </g>
     </g>
    </g>
    <g id="ytick_5">
     <g id="line2d_10">
      <g>
       <use xlink:href="#m6ace7f0e19" x="50.87" y="193.822185" style="stroke: #000000; stroke-width: 0.8"/>
      </g>
     </g>
     <g id="text_11">
      <!-- 80 -->
      <g transform="translate(31.145 197.621403) scale(0.1 -0.1)">
       <defs>
        <path id="DejaVuSans-38" d="M 2034 2216 
Q 1584 2216 1326 1975 
Q 1069 1734 1069 1313 
Q 1069 891 1326 650 
Q 1584 409 2034 409 
Q 2484 409 2743 651 
Q 3003 894 3003 1313 
Q 3003 1734 2745 1975 
Q 2488 2216 2034 2216 
z
M 1403 2484 
Q 997 2584 770 2862 
Q 544 3141 544 3541 
Q 544 4100 942 4425 
Q 1341 4750 2034 4750 
Q 2731 4750 3128 4425 
Q 3525 4100 3525 3541 
Q 3525 3141 3298 2862 
Q 3072 2584 2669 2484 
Q 3125 2378 3379 2068 
Q 3634 1759 3634 1313 
Q 3634 634 3220 271 
Q 2806 -91 2034 -91 
Q 1263 -91 848 271 
Q 434 634 434 1313 
Q 434 1759 690 2068 
Q 947 2378 1403 2484 
z
M 1172 3481 
Q 1172 3119 1398 2916 
Q 1625 2713 2034 2713 
Q 2441 2713 2670 2916 
Q 2900 3119 2900 3481 
Q 2900 3844 2670 4047 
Q 2441 4250 2034 4250 
Q 1625 4250 1398 4047 
Q 1172 3844 1172 3481 
z
" transform="scale(0.015625)"/>
       </defs>
       <use xlink:href="#DejaVuSans-38"/>
       <use xlink:href="#DejaVuSans-30" transform="translate(63.623047 0)"/>
      </g>
     </g>
    </g>
    <g id="ytick_6">
     <g id="line2d_11">
      <g>
       <use xlink:href="#m6ace7f0e19" x="50.87" y="148.894549" style="stroke: #000000; stroke-width: 0.8"/>
      </g>
     </g>
     <g id="text_12">
      <!-- 100 -->
      <g transform="translate(24.7825 152.693768) scale(0.1 -0.1)">
       <use xlink:href="#DejaVuSans-31"/>
       <use xlink:href="#DejaVuSans-30" transform="translate(63.623047 0)"/>
       <use xlink:href="#DejaVuSans-30" transform="translate(127.246094 0)"/>
      </g>
     </g>
    </g>
    <g id="ytick_7">
     <g id="line2d_12">
      <g>
       <use xlink:href="#m6ace7f0e19" x="50.87" y="103.966913" style="stroke: #000000; stroke-width: 0.8"/>
      </g>
     </g>
     <g id="text_13">
      <!-- 120 -->
      <g transform="translate(24.7825 107.766132) scale(0.1 -0.1)">
       <use xlink:href="#DejaVuSans-31"/>
       <use xlink:href="#DejaVuSans-32" transform="translate(63.623047 0)"/>
       <use xlink:href="#DejaVuSans-30" transform="translate(127.246094 0)"/>
      </g>
     </g>
    </g>
    <g id="ytick_8">
     <g id="line2d_13">
      <g>
       <use xlink:href="#m6ace7f0e19" x="50.87" y="59.039278" style="stroke: #000000; stroke-width: 0.8"/>
      </g>
     </g>
     <g id="text_14">
      <!-- 140 -->
      <g transform="translate(24.7825 62.838497) scale(0.1 -0.1)">
       <use xlink:href="#DejaVuSans-31"/>
       <use xlink:href="#DejaVuSans-34" transform="translate(63.623047 0)"/>
       <use xlink:href="#DejaVuSans-30" transform="translate(127.246094 0)"/>
      </g>
     </g>
    </g>
    <g id="text_15">
     <!-- RUL -->
     <g transform="translate(18.702813 218.379531) rotate(-90) scale(0.1 -0.1)">
      <defs>
       <path id="DejaVuSans-52" d="M 2841 2188 
Q 3044 2119 3236 1894 
Q 3428 1669 3622 1275 
L 4263 0 
L 3584 0 
L 2988 1197 
Q 2756 1666 2539 1819 
Q 2322 1972 1947 1972 
L 1259 1972 
L 1259 0 
L 628 0 
L 628 4666 
L 2053 4666 
Q 2853 4666 3247 4331 
Q 3641 3997 3641 3322 
Q 3641 2881 3436 2590 
Q 3231 2300 2841 2188 
z
M 1259 4147 
L 1259 2491 
L 2053 2491 
Q 2509 2491 2742 2702 
Q 2975 2913 2975 3322 
Q 2975 3731 2742 3939 
Q 2509 4147 2053 4147 
L 1259 4147 
z
" transform="scale(0.015625)"/>
       <path id="DejaVuSans-55" d="M 556 4666 
L 1191 4666 
L 1191 1831 
Q 1191 1081 1462 751 
Q 1734 422 2344 422 
Q 2950 422 3222 751 
Q 3494 1081 3494 1831 
L 3494 4666 
L 4128 4666 
L 4128 1753 
Q 4128 841 3676 375 
Q 3225 -91 2344 -91 
Q 1459 -91 1007 375 
Q 556 841 556 1753 
L 556 4666 
z
" transform="scale(0.015625)"/>
       <path id="DejaVuSans-4c" d="M 628 4666 
L 1259 4666 
L 1259 531 
L 3531 531 
L 3531 0 
L 628 0 
L 628 4666 
z
" transform="scale(0.015625)"/>
      </defs>
      <use xlink:href="#DejaVuSans-52"/>
      <use xlink:href="#DejaVuSans-55" transform="translate(69.482422 0)"/>
      <use xlink:href="#DejaVuSans-4c" transform="translate(142.675781 0)"/>
     </g>
    </g>
   </g>
   <g id="line2d_14">
    <path d="M 87.339545 324.112328 
L 90.552721 285.923838 
L 93.765897 133.169877 
L 96.979073 205.054094 
L 100.192249 92.735005 
L 103.405425 198.314948 
L 106.6186 162.37284 
L 109.831776 342.083382 
L 113.044952 151.140931 
L 116.258128 92.735005 
L 119.471304 357.808055 
L 122.684479 214.039621 
L 125.897655 137.66264 
L 129.110831 346.576146 
L 132.324007 92.735005 
L 135.537183 92.735005 
L 138.750358 139.909022 
L 141.963534 189.329421 
L 145.17671 169.111985 
L 148.389886 348.822528 
L 151.603062 315.126801 
L 154.816237 92.735005 
L 158.029413 285.923838 
L 161.242589 166.865603 
L 164.455765 202.807712 
L 167.668941 229.764293 
L 170.882117 108.459677 
L 174.095292 360.054437 
L 177.308468 324.112328 
L 180.521644 92.735005 
L 183.73482 92.735005 
L 186.947996 292.662983 
L 190.161171 209.546857 
L 193.374347 173.604749 
L 196.587523 348.822528 
L 199.800699 92.735005 
L 203.013875 351.068909 
L 206.22705 155.633694 
L 209.440226 306.141274 
L 212.653402 279.184692 
L 215.866578 238.74982 
L 219.079754 182.590276 
L 222.29293 297.155747 
L 225.506105 272.445547 
L 228.719281 319.619565 
L 231.932457 180.343894 
L 235.145633 106.213295 
L 238.358809 92.735005 
L 247.998336 92.735005 
L 251.211512 223.025148 
L 254.424688 155.633694 
L 257.637863 355.561673 
L 260.851039 92.735005 
L 264.064215 258.967256 
L 267.277391 299.402128 
L 270.490567 92.735005 
L 273.703742 270.199165 
L 276.916918 346.576146 
L 280.130094 92.735005 
L 283.34327 270.199165 
L 286.556446 270.199165 
L 289.769622 346.576146 
L 292.982797 299.402128 
L 296.195973 339.837001 
L 299.409149 92.735005 
L 302.622325 321.865946 
L 305.835501 173.604749 
L 309.048676 94.981386 
L 312.261852 317.373183 
L 315.475028 207.300475 
L 318.688204 198.314948 
L 321.90138 117.445204 
L 325.114555 157.880076 
L 328.327731 351.068909 
L 331.540907 92.735005 
L 334.754083 92.735005 
L 337.967259 115.198822 
L 341.180435 216.286003 
L 344.39361 162.37284 
L 347.606786 247.735347 
L 350.819962 180.343894 
L 354.033138 157.880076 
L 357.246314 261.213638 
L 360.459489 209.546857 
L 363.672665 92.735005 
L 370.099017 92.735005 
L 373.312193 214.039621 
L 376.525368 137.66264 
L 379.738544 119.691586 
L 382.95172 290.416601 
L 386.164896 357.808055 
L 389.378072 344.329764 
L 392.591247 324.112328 
L 395.804423 353.315291 
L 399.017599 103.966913 
L 402.230775 148.894549 
L 405.443951 133.169877 
L 408.657127 281.431074 
L 411.870302 92.735005 
L 415.083478 92.735005 
L 418.296654 240.996202 
L 421.50983 333.097855 
L 424.723006 225.27153 
L 427.936181 344.329764 
L 431.149357 342.083382 
L 434.362533 92.735005 
L 437.575709 344.329764 
L 440.788885 205.054094 
L 444.00206 355.561673 
L 447.215236 128.677113 
L 450.428412 92.735005 
L 453.641588 281.431074 
L 456.854764 92.735005 
L 460.06794 321.865946 
L 463.281115 180.343894 
L 466.494291 339.837001 
L 469.707467 92.735005 
L 472.920643 92.735005 
L 476.133819 103.966913 
L 479.346994 92.735005 
L 482.56017 146.648167 
L 485.773346 112.952441 
L 488.986522 92.735005 
L 492.199698 292.662983 
L 495.412873 357.808055 
L 498.626049 99.47415 
L 501.839225 92.735005 
L 505.052401 175.85113 
L 508.265577 92.735005 
L 511.478753 92.735005 
L 514.691928 130.923495 
L 517.905104 254.474493 
L 521.11828 240.996202 
L 524.331456 148.894549 
L 527.544632 247.735347 
L 530.757807 92.735005 
L 533.970983 202.807712 
L 537.184159 245.488966 
L 540.397335 303.894892 
L 543.610511 175.85113 
L 546.823686 92.735005 
L 550.036862 297.155747 
L 553.250038 357.808055 
L 556.463214 92.735005 
L 559.67639 360.054437 
L 562.889565 324.112328 
L 566.102741 187.083039 
L 569.315917 189.329421 
L 572.529093 184.836658 
L 575.742269 160.126458 
L 578.955445 124.184349 
L 582.16862 211.793239 
L 585.381796 128.677113 
L 588.594972 178.097512 
L 591.808148 92.735005 
L 595.021324 346.576146 
L 598.234499 355.561673 
L 601.447675 351.068909 
L 604.660851 97.227768 
L 607.874027 142.155404 
L 611.087203 346.576146 
L 614.300378 135.416258 
L 617.513554 346.576146 
L 620.72673 301.64851 
L 623.939906 290.416601 
L 627.153082 112.952441 
L 630.366258 339.837001 
L 633.579433 351.068909 
L 636.792609 270.199165 
L 640.005785 319.619565 
L 643.218961 92.735005 
L 646.432137 247.735347 
L 649.645312 276.938311 
L 652.858488 92.735005 
L 656.071664 214.039621 
L 659.28484 139.909022 
L 662.498016 339.837001 
L 665.711191 92.735005 
L 668.924367 173.604749 
L 672.137543 292.662983 
L 675.350719 348.822528 
L 678.563895 166.865603 
L 681.77707 157.880076 
L 684.990246 240.996202 
L 688.203422 344.329764 
L 691.416598 92.735005 
L 694.629774 92.735005 
L 697.84295 128.677113 
L 701.056125 112.952441 
L 704.269301 169.111985 
L 707.482477 348.822528 
L 710.695653 175.85113 
L 713.908829 130.923495 
L 717.122004 202.807712 
L 720.33518 342.083382 
L 723.548356 173.604749 
L 726.761532 92.735005 
L 729.974708 335.344237 
L 733.187883 225.27153 
L 736.401059 92.735005 
L 739.614235 281.431074 
L 742.827411 92.735005 
L 746.040587 209.546857 
L 749.253763 285.923838 
L 752.466938 243.242584 
L 755.680114 342.083382 
L 758.89329 175.85113 
L 762.106466 92.735005 
L 765.319642 92.735005 
L 768.532817 153.387313 
L 771.745993 299.402128 
L 774.959169 92.735005 
L 778.172345 126.430731 
L 781.385521 220.778766 
L 784.598696 319.619565 
L 787.811872 205.054094 
L 791.025048 333.097855 
L 794.238224 337.590619 
L 797.4514 153.387313 
L 800.664575 191.575803 
L 803.877751 108.459677 
L 807.090927 294.909365 
L 810.304103 92.735005 
L 813.517279 121.937968 
L 816.730455 315.126801 
L 816.730455 315.126801 
" clip-path="url(#pba5415ed45)" style="fill: none; stroke: #1f77b4; stroke-width: 1.5; stroke-linecap: square"/>
   </g>
   <g id="line2d_15">
    <path d="M 87.339545 312.880256 
L 90.552721 253.562217 
L 93.765897 131.879894 
L 96.979073 184.388845 
L 100.192249 176.769122 
L 103.405425 127.699377 
L 106.6186 161.330491 
L 109.831776 336.1571 
L 113.044952 127.289783 
L 116.258128 110.199255 
L 119.471304 353.995365 
L 122.684479 216.54937 
L 125.897655 161.947239 
L 129.110831 340.798108 
L 132.324007 117.422221 
L 135.537183 139.503884 
L 138.750358 110.298864 
L 141.963534 180.651959 
L 145.17671 135.033983 
L 148.389886 326.844759 
L 151.603062 306.481088 
L 154.816237 187.437893 
L 158.029413 273.705881 
L 161.242589 159.198372 
L 164.455765 196.440473 
L 167.668941 177.644729 
L 170.882117 156.764203 
L 174.095292 347.815326 
L 177.308468 316.87997 
L 180.521644 102.920812 
L 183.73482 175.125468 
L 186.947996 305.379355 
L 190.161171 213.22866 
L 193.374347 176.579055 
L 196.587523 344.173932 
L 199.800699 155.213766 
L 203.013875 345.698674 
L 206.22705 178.808984 
L 209.440226 300.533966 
L 212.653402 251.513023 
L 215.866578 235.229274 
L 219.079754 128.04465 
L 222.29293 293.903693 
L 225.506105 213.702711 
L 228.719281 303.442778 
L 231.932457 159.862542 
L 235.145633 136.554703 
L 238.358809 125.149814 
L 241.571984 109.996815 
L 244.78516 161.336507 
L 247.998336 107.924835 
L 251.211512 175.361551 
L 254.424688 121.052643 
L 257.637863 353.274403 
L 260.851039 102.687076 
L 264.064215 282.144543 
L 267.277391 263.280622 
L 270.490567 115.295741 
L 273.703742 278.880175 
L 276.916918 342.986699 
L 280.130094 102.306927 
L 283.34327 251.539588 
L 286.556446 288.498577 
L 289.769622 335.333907 
L 292.982797 300.57305 
L 296.195973 336.728139 
L 299.409149 119.099415 
L 302.622325 302.062372 
L 305.835501 124.927631 
L 309.048676 128.546912 
L 312.261852 309.307116 
L 315.475028 169.962708 
L 318.688204 177.504708 
L 321.90138 133.072735 
L 325.114555 114.578545 
L 328.327731 333.205237 
L 331.540907 120.528975 
L 334.754083 118.25901 
L 337.967259 111.789985 
L 341.180435 203.15948 
L 344.39361 117.36515 
L 347.606786 224.191511 
L 350.819962 205.912066 
L 354.033138 220.494524 
L 357.246314 240.129678 
L 360.459489 171.529084 
L 363.672665 107.918802 
L 366.885841 128.305772 
L 370.099017 114.032905 
L 373.312193 156.274676 
L 376.525368 170.776291 
L 379.738544 124.792322 
L 382.95172 251.516391 
L 386.164896 340.609336 
L 389.378072 331.999164 
L 392.591247 326.606644 
L 395.804423 340.028078 
L 399.017599 111.020499 
L 402.230775 166.892974 
L 405.443951 216.80398 
L 408.657127 227.772676 
L 411.870302 113.214917 
L 415.083478 116.508995 
L 418.296654 233.917225 
L 421.50983 341.486931 
L 424.723006 174.14792 
L 427.936181 331.434719 
L 431.149357 305.661695 
L 434.362533 109.495136 
L 437.575709 352.457898 
L 440.788885 134.426799 
L 444.00206 348.895071 
L 447.215236 146.056597 
L 450.428412 171.649071 
L 453.641588 270.87828 
L 456.854764 118.265129 
L 460.06794 303.812953 
L 463.281115 202.111836 
L 466.494291 324.170655 
L 469.707467 128.872338 
L 472.920643 104.464034 
L 476.133819 117.521968 
L 479.346994 220.465302 
L 482.56017 201.838099 
L 485.773346 147.623744 
L 488.986522 117.52315 
L 492.199698 286.979846 
L 495.412873 353.332875 
L 498.626049 135.926935 
L 501.839225 129.205785 
L 505.052401 202.103404 
L 508.265577 123.302006 
L 511.478753 135.583102 
L 514.691928 108.305156 
L 517.905104 224.350711 
L 521.11828 227.755846 
L 524.331456 108.153891 
L 527.544632 173.934306 
L 530.757807 114.331013 
L 533.970983 148.859912 
L 537.184159 269.696424 
L 540.397335 327.221434 
L 543.610511 144.707108 
L 546.823686 114.469286 
L 550.036862 286.119945 
L 553.250038 352.828795 
L 556.463214 124.893114 
L 559.67639 346.276123 
L 562.889565 314.396382 
L 566.102741 127.536578 
L 569.315917 178.277724 
L 572.529093 191.510419 
L 575.742269 123.578005 
L 578.955445 115.832691 
L 582.16862 121.720257 
L 585.381796 109.1488 
L 588.594972 167.393607 
L 591.808148 161.033995 
L 595.021324 337.041367 
L 598.234499 359.877883 
L 601.447675 343.940147 
L 604.660851 186.254391 
L 607.874027 143.748139 
L 611.087203 320.636634 
L 614.300378 149.962348 
L 617.513554 344.256169 
L 620.72673 296.200299 
L 623.939906 313.266593 
L 627.153082 117.526424 
L 630.366258 331.986893 
L 633.579433 354.252216 
L 636.792609 281.131595 
L 640.005785 302.914251 
L 643.218961 114.219132 
L 646.432137 138.768641 
L 649.645312 256.788435 
L 652.858488 114.266126 
L 656.071664 215.619091 
L 659.28484 157.983953 
L 662.498016 309.106056 
L 665.711191 127.433764 
L 668.924367 114.435164 
L 672.137543 272.744992 
L 675.350719 345.936225 
L 678.563895 230.90194 
L 681.77707 170.37914 
L 684.990246 174.696148 
L 688.203422 344.932346 
L 691.416598 121.405456 
L 694.629774 156.926677 
L 697.84295 164.560488 
L 701.056125 122.445765 
L 704.269301 180.31445 
L 707.482477 318.518388 
L 710.695653 180.418018 
L 713.908829 116.716628 
L 717.122004 221.858374 
L 720.33518 323.209959 
L 723.548356 181.542169 
L 726.761532 124.801748 
L 729.974708 326.297628 
L 733.187883 233.998582 
L 736.401059 120.743241 
L 739.614235 280.794035 
L 742.827411 110.636236 
L 746.040587 206.020244 
L 749.253763 244.776791 
L 752.466938 262.388005 
L 755.680114 347.203789 
L 758.89329 131.581974 
L 762.106466 112.098685 
L 765.319642 109.831188 
L 768.532817 132.328597 
L 771.745993 264.342363 
L 774.959169 112.678687 
L 778.172345 117.38695 
L 781.385521 271.499089 
L 784.598696 302.699552 
L 787.811872 191.286813 
L 791.025048 329.993313 
L 794.238224 342.86325 
L 797.4514 291.145486 
L 800.664575 145.605528 
L 803.877751 157.121953 
L 807.090927 230.545348 
L 810.304103 111.123725 
L 813.517279 152.918797 
L 816.730455 304.762552 
L 816.730455 304.762552 
" clip-path="url(#pba5415ed45)" style="fill: none; stroke-dasharray: 5.55,2.4; stroke-dashoffset: 0; stroke: #ff7f0e; stroke-width: 1.5"/>
    <defs>
     <path id="mba0f6d5d81" d="M 0 1.5 
C 0.397805 1.5 0.77937 1.341951 1.06066 1.06066 
C 1.341951 0.77937 1.5 0.397805 1.5 0 
C 1.5 -0.397805 1.341951 -0.77937 1.06066 -1.06066 
C 0.77937 -1.341951 0.397805 -1.5 0 -1.5 
C -0.397805 -1.5 -0.77937 -1.341951 -1.06066 -1.06066 
C -1.341951 -0.77937 -1.5 -0.397805 -1.5 0 
C -1.5 0.397805 -1.341951 0.77937 -1.06066 1.06066 
C -0.77937 1.341951 -0.397805 1.5 0 1.5 
z
" style="stroke: #ff7f0e"/>
    </defs>
    <g clip-path="url(#pba5415ed45)">
     <use xlink:href="#mba0f6d5d81" x="87.339545" y="312.880256" style="fill: #ff7f0e; stroke: #ff7f0e"/>
     <use xlink:href="#mba0f6d5d81" x="90.552721" y="253.562217" style="fill: #ff7f0e; stroke: #ff7f0e"/>
     <use xlink:href="#mba0f6d5d81" x="93.765897" y="131.879894" style="fill: #ff7f0e; stroke: #ff7f0e"/>
     <use xlink:href="#mba0f6d5d81" x="96.979073" y="184.388845" style="fill: #ff7f0e; stroke: #ff7f0e"/>
     <use xlink:href="#mba0f6d5d81" x="100.192249" y="176.769122" style="fill: #ff7f0e; stroke: #ff7f0e"/>
     <use xlink:href="#mba0f6d5d81" x="103.405425" y="127.699377" style="fill: #ff7f0e; stroke: #ff7f0e"/>
     <use xlink:href="#mba0f6d5d81" x="106.6186" y="161.330491" style="fill: #ff7f0e; stroke: #ff7f0e"/>
     <use xlink:href="#mba0f6d5d81" x="109.831776" y="336.1571" style="fill: #ff7f0e; stroke: #ff7f0e"/>
     <use xlink:href="#mba0f6d5d81" x="113.044952" y="127.289783" style="fill: #ff7f0e; stroke: #ff7f0e"/>
     <use xlink:href="#mba0f6d5d81" x="116.258128" y="110.199255" style="fill: #ff7f0e; stroke: #ff7f0e"/>
     <use xlink:href="#mba0f6d5d81" x="119.471304" y="353.995365" style="fill: #ff7f0e; stroke: #ff7f0e"/>
     <use xlink:href="#mba0f6d5d81" x="122.684479" y="216.54937" style="fill: #ff7f0e; stroke: #ff7f0e"/>
     <use xlink:href="#mba0f6d5d81" x="125.897655" y="161.947239" style="fill: #ff7f0e; stroke: #ff7f0e"/>
     <use xlink:href="#mba0f6d5d81" x="129.110831" y="340.798108" style="fill: #ff7f0e; stroke: #ff7f0e"/>
     <use xlink:href="#mba0f6d5d81" x="132.324007" y="117.422221" style="fill: #ff7f0e; stroke: #ff7f0e"/>
     <use xlink:href="#mba0f6d5d81" x="135.537183" y="139.503884" style="fill: #ff7f0e; stroke: #ff7f0e"/>
     <use xlink:href="#mba0f6d5d81" x="138.750358" y="110.298864" style="fill: #ff7f0e; stroke: #ff7f0e"/>
     <use xlink:href="#mba0f6d5d81" x="141.963534" y="180.651959" style="fill: #ff7f0e; stroke: #ff7f0e"/>
     <use xlink:href="#mba0f6d5d81" x="145.17671" y="135.033983" style="fill: #ff7f0e; stroke: #ff7f0e"/>
     <use xlink:href="#mba0f6d5d81" x="148.389886" y="326.844759" style="fill: #ff7f0e; stroke: #ff7f0e"/>
     <use xlink:href="#mba0f6d5d81" x="151.603062" y="306.481088" style="fill: #ff7f0e; stroke: #ff7f0e"/>
     <use xlink:href="#mba0f6d5d81" x="154.816237" y="187.437893" style="fill: #ff7f0e; stroke: #ff7f0e"/>
     <use xlink:href="#mba0f6d5d81" x="158.029413" y="273.705881" style="fill: #ff7f0e; stroke: #ff7f0e"/>
     <use xlink:href="#mba0f6d5d81" x="161.242589" y="159.198372" style="fill: #ff7f0e; stroke: #ff7f0e"/>
     <use xlink:href="#mba0f6d5d81" x="164.455765" y="196.440473" style="fill: #ff7f0e; stroke: #ff7f0e"/>
     <use xlink:href="#mba0f6d5d81" x="167.668941" y="177.644729" style="fill: #ff7f0e; stroke: #ff7f0e"/>
     <use xlink:href="#mba0f6d5d81" x="170.882117" y="156.764203" style="fill: #ff7f0e; stroke: #ff7f0e"/>
     <use xlink:href="#mba0f6d5d81" x="174.095292" y="347.815326" style="fill: #ff7f0e; stroke: #ff7f0e"/>
     <use xlink:href="#mba0f6d5d81" x="177.308468" y="316.87997" style="fill: #ff7f0e; stroke: #ff7f0e"/>
     <use xlink:href="#mba0f6d5d81" x="180.521644" y="102.920812" style="fill: #ff7f0e; stroke: #ff7f0e"/>
     <use xlink:href="#mba0f6d5d81" x="183.73482" y="175.125468" style="fill: #ff7f0e; stroke: #ff7f0e"/>
     <use xlink:href="#mba0f6d5d81" x="186.947996" y="305.379355" style="fill: #ff7f0e; stroke: #ff7f0e"/>
     <use xlink:href="#mba0f6d5d81" x="190.161171" y="213.22866" style="fill: #ff7f0e; stroke: #ff7f0e"/>
     <use xlink:href="#mba0f6d5d81" x="193.374347" y="176.579055" style="fill: #ff7f0e; stroke: #ff7f0e"/>
     <use xlink:href="#mba0f6d5d81" x="196.587523" y="344.173932" style="fill: #ff7f0e; stroke: #ff7f0e"/>
     <use xlink:href="#mba0f6d5d81" x="199.800699" y="155.213766" style="fill: #ff7f0e; stroke: #ff7f0e"/>
     <use xlink:href="#mba0f6d5d81" x="203.013875" y="345.698674" style="fill: #ff7f0e; stroke: #ff7f0e"/>
     <use xlink:href="#mba0f6d5d81" x="206.22705" y="178.808984" style="fill: #ff7f0e; stroke: #ff7f0e"/>
     <use xlink:href="#mba0f6d5d81" x="209.440226" y="300.533966" style="fill: #ff7f0e; stroke: #ff7f0e"/>
     <use xlink:href="#mba0f6d5d81" x="212.653402" y="251.513023" style="fill: #ff7f0e; stroke: #ff7f0e"/>
     <use xlink:href="#mba0f6d5d81" x="215.866578" y="235.229274" style="fill: #ff7f0e; stroke: #ff7f0e"/>
     <use xlink:href="#mba0f6d5d81" x="219.079754" y="128.04465" style="fill: #ff7f0e; stroke: #ff7f0e"/>
     <use xlink:href="#mba0f6d5d81" x="222.29293" y="293.903693" style="fill: #ff7f0e; stroke: #ff7f0e"/>
     <use xlink:href="#mba0f6d5d81" x="225.506105" y="213.702711" style="fill: #ff7f0e; stroke: #ff7f0e"/>
     <use xlink:href="#mba0f6d5d81" x="228.719281" y="303.442778" style="fill: #ff7f0e; stroke: #ff7f0e"/>
     <use xlink:href="#mba0f6d5d81" x="231.932457" y="159.862542" style="fill: #ff7f0e; stroke: #ff7f0e"/>
     <use xlink:href="#mba0f6d5d81" x="235.145633" y="136.554703" style="fill: #ff7f0e; stroke: #ff7f0e"/>
     <use xlink:href="#mba0f6d5d81" x="238.358809" y="125.149814" style="fill: #ff7f0e; stroke: #ff7f0e"/>
     <use xlink:href="#mba0f6d5d81" x="241.571984" y="109.996815" style="fill: #ff7f0e; stroke: #ff7f0e"/>
     <use xlink:href="#mba0f6d5d81" x="244.78516" y="161.336507" style="fill: #ff7f0e; stroke: #ff7f0e"/>
     <use xlink:href="#mba0f6d5d81" x="247.998336" y="107.924835" style="fill: #ff7f0e; stroke: #ff7f0e"/>
     <use xlink:href="#mba0f6d5d81" x="251.211512" y="175.361551" style="fill: #ff7f0e; stroke: #ff7f0e"/>
     <use xlink:href="#mba0f6d5d81" x="254.424688" y="121.052643" style="fill: #ff7f0e; stroke: #ff7f0e"/>
     <use xlink:href="#mba0f6d5d81" x="257.637863" y="353.274403" style="fill: #ff7f0e; stroke: #ff7f0e"/>
     <use xlink:href="#mba0f6d5d81" x="260.851039" y="102.687076" style="fill: #ff7f0e; stroke: #ff7f0e"/>
     <use xlink:href="#mba0f6d5d81" x="264.064215" y="282.144543" style="fill: #ff7f0e; stroke: #ff7f0e"/>
     <use xlink:href="#mba0f6d5d81" x="267.277391" y="263.280622" style="fill: #ff7f0e; stroke: #ff7f0e"/>
     <use xlink:href="#mba0f6d5d81" x="270.490567" y="115.295741" style="fill: #ff7f0e; stroke: #ff7f0e"/>
     <use xlink:href="#mba0f6d5d81" x="273.703742" y="278.880175" style="fill: #ff7f0e; stroke: #ff7f0e"/>
     <use xlink:href="#mba0f6d5d81" x="276.916918" y="342.986699" style="fill: #ff7f0e; stroke: #ff7f0e"/>
     <use xlink:href="#mba0f6d5d81" x="280.130094" y="102.306927" style="fill: #ff7f0e; stroke: #ff7f0e"/>
     <use xlink:href="#mba0f6d5d81" x="283.34327" y="251.539588" style="fill: #ff7f0e; stroke: #ff7f0e"/>
     <use xlink:href="#mba0f6d5d81" x="286.556446" y="288.498577" style="fill: #ff7f0e; stroke: #ff7f0e"/>
     <use xlink:href="#mba0f6d5d81" x="289.769622" y="335.333907" style="fill: #ff7f0e; stroke: #ff7f0e"/>
     <use xlink:href="#mba0f6d5d81" x="292.982797" y="300.57305" style="fill: #ff7f0e; stroke: #ff7f0e"/>
     <use xlink:href="#mba0f6d5d81" x="296.195973" y="336.728139" style="fill: #ff7f0e; stroke: #ff7f0e"/>
     <use xlink:href="#mba0f6d5d81" x="299.409149" y="119.099415" style="fill: #ff7f0e; stroke: #ff7f0e"/>
     <use xlink:href="#mba0f6d5d81" x="302.622325" y="302.062372" style="fill: #ff7f0e; stroke: #ff7f0e"/>
     <use xlink:href="#mba0f6d5d81" x="305.835501" y="124.927631" style="fill: #ff7f0e; stroke: #ff7f0e"/>
     <use xlink:href="#mba0f6d5d81" x="309.048676" y="128.546912" style="fill: #ff7f0e; stroke: #ff7f0e"/>
     <use xlink:href="#mba0f6d5d81" x="312.261852" y="309.307116" style="fill: #ff7f0e; stroke: #ff7f0e"/>
     <use xlink:href="#mba0f6d5d81" x="315.475028" y="169.962708" style="fill: #ff7f0e; stroke: #ff7f0e"/>
     <use xlink:href="#mba0f6d5d81" x="318.688204" y="177.504708" style="fill: #ff7f0e; stroke: #ff7f0e"/>
     <use xlink:href="#mba0f6d5d81" x="321.90138" y="133.072735" style="fill: #ff7f0e; stroke: #ff7f0e"/>
     <use xlink:href="#mba0f6d5d81" x="325.114555" y="114.578545" style="fill: #ff7f0e; stroke: #ff7f0e"/>
     <use xlink:href="#mba0f6d5d81" x="328.327731" y="333.205237" style="fill: #ff7f0e; stroke: #ff7f0e"/>
     <use xlink:href="#mba0f6d5d81" x="331.540907" y="120.528975" style="fill: #ff7f0e; stroke: #ff7f0e"/>
     <use xlink:href="#mba0f6d5d81" x="334.754083" y="118.25901" style="fill: #ff7f0e; stroke: #ff7f0e"/>
     <use xlink:href="#mba0f6d5d81" x="337.967259" y="111.789985" style="fill: #ff7f0e; stroke: #ff7f0e"/>
     <use xlink:href="#mba0f6d5d81" x="341.180435" y="203.15948" style="fill: #ff7f0e; stroke: #ff7f0e"/>
     <use xlink:href="#mba0f6d5d81" x="344.39361" y="117.36515" style="fill: #ff7f0e; stroke: #ff7f0e"/>
     <use xlink:href="#mba0f6d5d81" x="347.606786" y="224.191511" style="fill: #ff7f0e; stroke: #ff7f0e"/>
     <use xlink:href="#mba0f6d5d81" x="350.819962" y="205.912066" style="fill: #ff7f0e; stroke: #ff7f0e"/>
     <use xlink:href="#mba0f6d5d81" x="354.033138" y="220.494524" style="fill: #ff7f0e; stroke: #ff7f0e"/>
     <use xlink:href="#mba0f6d5d81" x="357.246314" y="240.129678" style="fill: #ff7f0e; stroke: #ff7f0e"/>
     <use xlink:href="#mba0f6d5d81" x="360.459489" y="171.529084" style="fill: #ff7f0e; stroke: #ff7f0e"/>
     <use xlink:href="#mba0f6d5d81" x="363.672665" y="107.918802" style="fill: #ff7f0e; stroke: #ff7f0e"/>
     <use xlink:href="#mba0f6d5d81" x="366.885841" y="128.305772" style="fill: #ff7f0e; stroke: #ff7f0e"/>
     <use xlink:href="#mba0f6d5d81" x="370.099017" y="114.032905" style="fill: #ff7f0e; stroke: #ff7f0e"/>
     <use xlink:href="#mba0f6d5d81" x="373.312193" y="156.274676" style="fill: #ff7f0e; stroke: #ff7f0e"/>
     <use xlink:href="#mba0f6d5d81" x="376.525368" y="170.776291" style="fill: #ff7f0e; stroke: #ff7f0e"/>
     <use xlink:href="#mba0f6d5d81" x="379.738544" y="124.792322" style="fill: #ff7f0e; stroke: #ff7f0e"/>
     <use xlink:href="#mba0f6d5d81" x="382.95172" y="251.516391" style="fill: #ff7f0e; stroke: #ff7f0e"/>
     <use xlink:href="#mba0f6d5d81" x="386.164896" y="340.609336" style="fill: #ff7f0e; stroke: #ff7f0e"/>
     <use xlink:href="#mba0f6d5d81" x="389.378072" y="331.999164" style="fill: #ff7f0e; stroke: #ff7f0e"/>
     <use xlink:href="#mba0f6d5d81" x="392.591247" y="326.606644" style="fill: #ff7f0e; stroke: #ff7f0e"/>
     <use xlink:href="#mba0f6d5d81" x="395.804423" y="340.028078" style="fill: #ff7f0e; stroke: #ff7f0e"/>
     <use xlink:href="#mba0f6d5d81" x="399.017599" y="111.020499" style="fill: #ff7f0e; stroke: #ff7f0e"/>
     <use xlink:href="#mba0f6d5d81" x="402.230775" y="166.892974" style="fill: #ff7f0e; stroke: #ff7f0e"/>
     <use xlink:href="#mba0f6d5d81" x="405.443951" y="216.80398" style="fill: #ff7f0e; stroke: #ff7f0e"/>
     <use xlink:href="#mba0f6d5d81" x="408.657127" y="227.772676" style="fill: #ff7f0e; stroke: #ff7f0e"/>
     <use xlink:href="#mba0f6d5d81" x="411.870302" y="113.214917" style="fill: #ff7f0e; stroke: #ff7f0e"/>
     <use xlink:href="#mba0f6d5d81" x="415.083478" y="116.508995" style="fill: #ff7f0e; stroke: #ff7f0e"/>
     <use xlink:href="#mba0f6d5d81" x="418.296654" y="233.917225" style="fill: #ff7f0e; stroke: #ff7f0e"/>
     <use xlink:href="#mba0f6d5d81" x="421.50983" y="341.486931" style="fill: #ff7f0e; stroke: #ff7f0e"/>
     <use xlink:href="#mba0f6d5d81" x="424.723006" y="174.14792" style="fill: #ff7f0e; stroke: #ff7f0e"/>
     <use xlink:href="#mba0f6d5d81" x="427.936181" y="331.434719" style="fill: #ff7f0e; stroke: #ff7f0e"/>
     <use xlink:href="#mba0f6d5d81" x="431.149357" y="305.661695" style="fill: #ff7f0e; stroke: #ff7f0e"/>
     <use xlink:href="#mba0f6d5d81" x="434.362533" y="109.495136" style="fill: #ff7f0e; stroke: #ff7f0e"/>
     <use xlink:href="#mba0f6d5d81" x="437.575709" y="352.457898" style="fill: #ff7f0e; stroke: #ff7f0e"/>
     <use xlink:href="#mba0f6d5d81" x="440.788885" y="134.426799" style="fill: #ff7f0e; stroke: #ff7f0e"/>
     <use xlink:href="#mba0f6d5d81" x="444.00206" y="348.895071" style="fill: #ff7f0e; stroke: #ff7f0e"/>
     <use xlink:href="#mba0f6d5d81" x="447.215236" y="146.056597" style="fill: #ff7f0e; stroke: #ff7f0e"/>
     <use xlink:href="#mba0f6d5d81" x="450.428412" y="171.649071" style="fill: #ff7f0e; stroke: #ff7f0e"/>
     <use xlink:href="#mba0f6d5d81" x="453.641588" y="270.87828" style="fill: #ff7f0e; stroke: #ff7f0e"/>
     <use xlink:href="#mba0f6d5d81" x="456.854764" y="118.265129" style="fill: #ff7f0e; stroke: #ff7f0e"/>
     <use xlink:href="#mba0f6d5d81" x="460.06794" y="303.812953" style="fill: #ff7f0e; stroke: #ff7f0e"/>
     <use xlink:href="#mba0f6d5d81" x="463.281115" y="202.111836" style="fill: #ff7f0e; stroke: #ff7f0e"/>
     <use xlink:href="#mba0f6d5d81" x="466.494291" y="324.170655" style="fill: #ff7f0e; stroke: #ff7f0e"/>
     <use xlink:href="#mba0f6d5d81" x="469.707467" y="128.872338" style="fill: #ff7f0e; stroke: #ff7f0e"/>
     <use xlink:href="#mba0f6d5d81" x="472.920643" y="104.464034" style="fill: #ff7f0e; stroke: #ff7f0e"/>
     <use xlink:href="#mba0f6d5d81" x="476.133819" y="117.521968" style="fill: #ff7f0e; stroke: #ff7f0e"/>
     <use xlink:href="#mba0f6d5d81" x="479.346994" y="220.465302" style="fill: #ff7f0e; stroke: #ff7f0e"/>
     <use xlink:href="#mba0f6d5d81" x="482.56017" y="201.838099" style="fill: #ff7f0e; stroke: #ff7f0e"/>
     <use xlink:href="#mba0f6d5d81" x="485.773346" y="147.623744" style="fill: #ff7f0e; stroke: #ff7f0e"/>
     <use xlink:href="#mba0f6d5d81" x="488.986522" y="117.52315" style="fill: #ff7f0e; stroke: #ff7f0e"/>
     <use xlink:href="#mba0f6d5d81" x="492.199698" y="286.979846" style="fill: #ff7f0e; stroke: #ff7f0e"/>
     <use xlink:href="#mba0f6d5d81" x="495.412873" y="353.332875" style="fill: #ff7f0e; stroke: #ff7f0e"/>
     <use xlink:href="#mba0f6d5d81" x="498.626049" y="135.926935" style="fill: #ff7f0e; stroke: #ff7f0e"/>
     <use xlink:href="#mba0f6d5d81" x="501.839225" y="129.205785" style="fill: #ff7f0e; stroke: #ff7f0e"/>
     <use xlink:href="#mba0f6d5d81" x="505.052401" y="202.103404" style="fill: #ff7f0e; stroke: #ff7f0e"/>
     <use xlink:href="#mba0f6d5d81" x="508.265577" y="123.302006" style="fill: #ff7f0e; stroke: #ff7f0e"/>
     <use xlink:href="#mba0f6d5d81" x="511.478753" y="135.583102" style="fill: #ff7f0e; stroke: #ff7f0e"/>
     <use xlink:href="#mba0f6d5d81" x="514.691928" y="108.305156" style="fill: #ff7f0e; stroke: #ff7f0e"/>
     <use xlink:href="#mba0f6d5d81" x="517.905104" y="224.350711" style="fill: #ff7f0e; stroke: #ff7f0e"/>
     <use xlink:href="#mba0f6d5d81" x="521.11828" y="227.755846" style="fill: #ff7f0e; stroke: #ff7f0e"/>
     <use xlink:href="#mba0f6d5d81" x="524.331456" y="108.153891" style="fill: #ff7f0e; stroke: #ff7f0e"/>
     <use xlink:href="#mba0f6d5d81" x="527.544632" y="173.934306" style="fill: #ff7f0e; stroke: #ff7f0e"/>
     <use xlink:href="#mba0f6d5d81" x="530.757807" y="114.331013" style="fill: #ff7f0e; stroke: #ff7f0e"/>
     <use xlink:href="#mba0f6d5d81" x="533.970983" y="148.859912" style="fill: #ff7f0e; stroke: #ff7f0e"/>
     <use xlink:href="#mba0f6d5d81" x="537.184159" y="269.696424" style="fill: #ff7f0e; stroke: #ff7f0e"/>
     <use xlink:href="#mba0f6d5d81" x="540.397335" y="327.221434" style="fill: #ff7f0e; stroke: #ff7f0e"/>
     <use xlink:href="#mba0f6d5d81" x="543.610511" y="144.707108" style="fill: #ff7f0e; stroke: #ff7f0e"/>
     <use xlink:href="#mba0f6d5d81" x="546.823686" y="114.469286" style="fill: #ff7f0e; stroke: #ff7f0e"/>
     <use xlink:href="#mba0f6d5d81" x="550.036862" y="286.119945" style="fill: #ff7f0e; stroke: #ff7f0e"/>
     <use xlink:href="#mba0f6d5d81" x="553.250038" y="352.828795" style="fill: #ff7f0e; stroke: #ff7f0e"/>
     <use xlink:href="#mba0f6d5d81" x="556.463214" y="124.893114" style="fill: #ff7f0e; stroke: #ff7f0e"/>
     <use xlink:href="#mba0f6d5d81" x="559.67639" y="346.276123" style="fill: #ff7f0e; stroke: #ff7f0e"/>
     <use xlink:href="#mba0f6d5d81" x="562.889565" y="314.396382" style="fill: #ff7f0e; stroke: #ff7f0e"/>
     <use xlink:href="#mba0f6d5d81" x="566.102741" y="127.536578" style="fill: #ff7f0e; stroke: #ff7f0e"/>
     <use xlink:href="#mba0f6d5d81" x="569.315917" y="178.277724" style="fill: #ff7f0e; stroke: #ff7f0e"/>
     <use xlink:href="#mba0f6d5d81" x="572.529093" y="191.510419" style="fill: #ff7f0e; stroke: #ff7f0e"/>
     <use xlink:href="#mba0f6d5d81" x="575.742269" y="123.578005" style="fill: #ff7f0e; stroke: #ff7f0e"/>
     <use xlink:href="#mba0f6d5d81" x="578.955445" y="115.832691" style="fill: #ff7f0e; stroke: #ff7f0e"/>
     <use xlink:href="#mba0f6d5d81" x="582.16862" y="121.720257" style="fill: #ff7f0e; stroke: #ff7f0e"/>
     <use xlink:href="#mba0f6d5d81" x="585.381796" y="109.1488" style="fill: #ff7f0e; stroke: #ff7f0e"/>
     <use xlink:href="#mba0f6d5d81" x="588.594972" y="167.393607" style="fill: #ff7f0e; stroke: #ff7f0e"/>
     <use xlink:href="#mba0f6d5d81" x="591.808148" y="161.033995" style="fill: #ff7f0e; stroke: #ff7f0e"/>
     <use xlink:href="#mba0f6d5d81" x="595.021324" y="337.041367" style="fill: #ff7f0e; stroke: #ff7f0e"/>
     <use xlink:href="#mba0f6d5d81" x="598.234499" y="359.877883" style="fill: #ff7f0e; stroke: #ff7f0e"/>
     <use xlink:href="#mba0f6d5d81" x="601.447675" y="343.940147" style="fill: #ff7f0e; stroke: #ff7f0e"/>
     <use xlink:href="#mba0f6d5d81" x="604.660851" y="186.254391" style="fill: #ff7f0e; stroke: #ff7f0e"/>
     <use xlink:href="#mba0f6d5d81" x="607.874027" y="143.748139" style="fill: #ff7f0e; stroke: #ff7f0e"/>
     <use xlink:href="#mba0f6d5d81" x="611.087203" y="320.636634" style="fill: #ff7f0e; stroke: #ff7f0e"/>
     <use xlink:href="#mba0f6d5d81" x="614.300378" y="149.962348" style="fill: #ff7f0e; stroke: #ff7f0e"/>
     <use xlink:href="#mba0f6d5d81" x="617.513554" y="344.256169" style="fill: #ff7f0e; stroke: #ff7f0e"/>
     <use xlink:href="#mba0f6d5d81" x="620.72673" y="296.200299" style="fill: #ff7f0e; stroke: #ff7f0e"/>
     <use xlink:href="#mba0f6d5d81" x="623.939906" y="313.266593" style="fill: #ff7f0e; stroke: #ff7f0e"/>
     <use xlink:href="#mba0f6d5d81" x="627.153082" y="117.526424" style="fill: #ff7f0e; stroke: #ff7f0e"/>
     <use xlink:href="#mba0f6d5d81" x="630.366258" y="331.986893" style="fill: #ff7f0e; stroke: #ff7f0e"/>
     <use xlink:href="#mba0f6d5d81" x="633.579433" y="354.252216" style="fill: #ff7f0e; stroke: #ff7f0e"/>
     <use xlink:href="#mba0f6d5d81" x="636.792609" y="281.131595" style="fill: #ff7f0e; stroke: #ff7f0e"/>
     <use xlink:href="#mba0f6d5d81" x="640.005785" y="302.914251" style="fill: #ff7f0e; stroke: #ff7f0e"/>
     <use xlink:href="#mba0f6d5d81" x="643.218961" y="114.219132" style="fill: #ff7f0e; stroke: #ff7f0e"/>
     <use xlink:href="#mba0f6d5d81" x="646.432137" y="138.768641" style="fill: #ff7f0e; stroke: #ff7f0e"/>
     <use xlink:href="#mba0f6d5d81" x="649.645312" y="256.788435" style="fill: #ff7f0e; stroke: #ff7f0e"/>
     <use xlink:href="#mba0f6d5d81" x="652.858488" y="114.266126" style="fill: #ff7f0e; stroke: #ff7f0e"/>
     <use xlink:href="#mba0f6d5d81" x="656.071664" y="215.619091" style="fill: #ff7f0e; stroke: #ff7f0e"/>
     <use xlink:href="#mba0f6d5d81" x="659.28484" y="157.983953" style="fill: #ff7f0e; stroke: #ff7f0e"/>
     <use xlink:href="#mba0f6d5d81" x="662.498016" y="309.106056" style="fill: #ff7f0e; stroke: #ff7f0e"/>
     <use xlink:href="#mba0f6d5d81" x="665.711191" y="127.433764" style="fill: #ff7f0e; stroke: #ff7f0e"/>
     <use xlink:href="#mba0f6d5d81" x="668.924367" y="114.435164" style="fill: #ff7f0e; stroke: #ff7f0e"/>
     <use xlink:href="#mba0f6d5d81" x="672.137543" y="272.744992" style="fill: #ff7f0e; stroke: #ff7f0e"/>
     <use xlink:href="#mba0f6d5d81" x="675.350719" y="345.936225" style="fill: #ff7f0e; stroke: #ff7f0e"/>
     <use xlink:href="#mba0f6d5d81" x="678.563895" y="230.90194" style="fill: #ff7f0e; stroke: #ff7f0e"/>
     <use xlink:href="#mba0f6d5d81" x="681.77707" y="170.37914" style="fill: #ff7f0e; stroke: #ff7f0e"/>
     <use xlink:href="#mba0f6d5d81" x="684.990246" y="174.696148" style="fill: #ff7f0e; stroke: #ff7f0e"/>
     <use xlink:href="#mba0f6d5d81" x="688.203422" y="344.932346" style="fill: #ff7f0e; stroke: #ff7f0e"/>
     <use xlink:href="#mba0f6d5d81" x="691.416598" y="121.405456" style="fill: #ff7f0e; stroke: #ff7f0e"/>
     <use xlink:href="#mba0f6d5d81" x="694.629774" y="156.926677" style="fill: #ff7f0e; stroke: #ff7f0e"/>
     <use xlink:href="#mba0f6d5d81" x="697.84295" y="164.560488" style="fill: #ff7f0e; stroke: #ff7f0e"/>
     <use xlink:href="#mba0f6d5d81" x="701.056125" y="122.445765" style="fill: #ff7f0e; stroke: #ff7f0e"/>
     <use xlink:href="#mba0f6d5d81" x="704.269301" y="180.31445" style="fill: #ff7f0e; stroke: #ff7f0e"/>
     <use xlink:href="#mba0f6d5d81" x="707.482477" y="318.518388" style="fill: #ff7f0e; stroke: #ff7f0e"/>
     <use xlink:href="#mba0f6d5d81" x="710.695653" y="180.418018" style="fill: #ff7f0e; stroke: #ff7f0e"/>
     <use xlink:href="#mba0f6d5d81" x="713.908829" y="116.716628" style="fill: #ff7f0e; stroke: #ff7f0e"/>
     <use xlink:href="#mba0f6d5d81" x="717.122004" y="221.858374" style="fill: #ff7f0e; stroke: #ff7f0e"/>
     <use xlink:href="#mba0f6d5d81" x="720.33518" y="323.209959" style="fill: #ff7f0e; stroke: #ff7f0e"/>
     <use xlink:href="#mba0f6d5d81" x="723.548356" y="181.542169" style="fill: #ff7f0e; stroke: #ff7f0e"/>
     <use xlink:href="#mba0f6d5d81" x="726.761532" y="124.801748" style="fill: #ff7f0e; stroke: #ff7f0e"/>
     <use xlink:href="#mba0f6d5d81" x="729.974708" y="326.297628" style="fill: #ff7f0e; stroke: #ff7f0e"/>
     <use xlink:href="#mba0f6d5d81" x="733.187883" y="233.998582" style="fill: #ff7f0e; stroke: #ff7f0e"/>
     <use xlink:href="#mba0f6d5d81" x="736.401059" y="120.743241" style="fill: #ff7f0e; stroke: #ff7f0e"/>
     <use xlink:href="#mba0f6d5d81" x="739.614235" y="280.794035" style="fill: #ff7f0e; stroke: #ff7f0e"/>
     <use xlink:href="#mba0f6d5d81" x="742.827411" y="110.636236" style="fill: #ff7f0e; stroke: #ff7f0e"/>
     <use xlink:href="#mba0f6d5d81" x="746.040587" y="206.020244" style="fill: #ff7f0e; stroke: #ff7f0e"/>
     <use xlink:href="#mba0f6d5d81" x="749.253763" y="244.776791" style="fill: #ff7f0e; stroke: #ff7f0e"/>
     <use xlink:href="#mba0f6d5d81" x="752.466938" y="262.388005" style="fill: #ff7f0e; stroke: #ff7f0e"/>
     <use xlink:href="#mba0f6d5d81" x="755.680114" y="347.203789" style="fill: #ff7f0e; stroke: #ff7f0e"/>
     <use xlink:href="#mba0f6d5d81" x="758.89329" y="131.581974" style="fill: #ff7f0e; stroke: #ff7f0e"/>
     <use xlink:href="#mba0f6d5d81" x="762.106466" y="112.098685" style="fill: #ff7f0e; stroke: #ff7f0e"/>
     <use xlink:href="#mba0f6d5d81" x="765.319642" y="109.831188" style="fill: #ff7f0e; stroke: #ff7f0e"/>
     <use xlink:href="#mba0f6d5d81" x="768.532817" y="132.328597" style="fill: #ff7f0e; stroke: #ff7f0e"/>
     <use xlink:href="#mba0f6d5d81" x="771.745993" y="264.342363" style="fill: #ff7f0e; stroke: #ff7f0e"/>
     <use xlink:href="#mba0f6d5d81" x="774.959169" y="112.678687" style="fill: #ff7f0e; stroke: #ff7f0e"/>
     <use xlink:href="#mba0f6d5d81" x="778.172345" y="117.38695" style="fill: #ff7f0e; stroke: #ff7f0e"/>
     <use xlink:href="#mba0f6d5d81" x="781.385521" y="271.499089" style="fill: #ff7f0e; stroke: #ff7f0e"/>
     <use xlink:href="#mba0f6d5d81" x="784.598696" y="302.699552" style="fill: #ff7f0e; stroke: #ff7f0e"/>
     <use xlink:href="#mba0f6d5d81" x="787.811872" y="191.286813" style="fill: #ff7f0e; stroke: #ff7f0e"/>
     <use xlink:href="#mba0f6d5d81" x="791.025048" y="329.993313" style="fill: #ff7f0e; stroke: #ff7f0e"/>
     <use xlink:href="#mba0f6d5d81" x="794.238224" y="342.86325" style="fill: #ff7f0e; stroke: #ff7f0e"/>
     <use xlink:href="#mba0f6d5d81" x="797.4514" y="291.145486" style="fill: #ff7f0e; stroke: #ff7f0e"/>
     <use xlink:href="#mba0f6d5d81" x="800.664575" y="145.605528" style="fill: #ff7f0e; stroke: #ff7f0e"/>
     <use xlink:href="#mba0f6d5d81" x="803.877751" y="157.121953" style="fill: #ff7f0e; stroke: #ff7f0e"/>
     <use xlink:href="#mba0f6d5d81" x="807.090927" y="230.545348" style="fill: #ff7f0e; stroke: #ff7f0e"/>
     <use xlink:href="#mba0f6d5d81" x="810.304103" y="111.123725" style="fill: #ff7f0e; stroke: #ff7f0e"/>
     <use xlink:href="#mba0f6d5d81" x="813.517279" y="152.918797" style="fill: #ff7f0e; stroke: #ff7f0e"/>
     <use xlink:href="#mba0f6d5d81" x="816.730455" y="304.762552" style="fill: #ff7f0e; stroke: #ff7f0e"/>
    </g>
   </g>
   <g id="patch_3">
    <path d="M 50.87 390.04 
L 50.87 26.88 
" style="fill: none; stroke: #000000; stroke-width: 0.8; stroke-linejoin: miter; stroke-linecap: square"/>
   </g>
   <g id="patch_4">
    <path d="M 853.2 390.04 
L 853.2 26.88 
" style="fill: none; stroke: #000000; stroke-width: 0.8; stroke-linejoin: miter; stroke-linecap: square"/>
   </g>
   <g id="patch_5">
    <path d="M 50.87 390.04 
L 853.2 390.04 
" style="fill: none; stroke: #000000; stroke-width: 0.8; stroke-linejoin: miter; stroke-linecap: square"/>
   </g>
   <g id="patch_6">
    <path d="M 50.87 26.88 
L 853.2 26.88 
" style="fill: none; stroke: #000000; stroke-width: 0.8; stroke-linejoin: miter; stroke-linecap: square"/>
   </g>
   <g id="text_16">
    <!-- Final-Engine RUL with Prediction Bands – FD004 -->
    <g transform="translate(308.545938 20.88) scale(0.12 -0.12)">
     <defs>
      <path id="DejaVuSans-46" d="M 628 4666 
L 3309 4666 
L 3309 4134 
L 1259 4134 
L 1259 2759 
L 3109 2759 
L 3109 2228 
L 1259 2228 
L 1259 0 
L 628 0 
L 628 4666 
z
" transform="scale(0.015625)"/>
      <path id="DejaVuSans-61" d="M 2194 1759 
Q 1497 1759 1228 1600 
Q 959 1441 959 1056 
Q 959 750 1161 570 
Q 1363 391 1709 391 
Q 2188 391 2477 730 
Q 2766 1069 2766 1631 
L 2766 1759 
L 2194 1759 
z
M 3341 1997 
L 3341 0 
L 2766 0 
L 2766 531 
Q 2569 213 2275 61 
Q 1981 -91 1556 -91 
Q 1019 -91 701 211 
Q 384 513 384 1019 
Q 384 1609 779 1909 
Q 1175 2209 1959 2209 
L 2766 2209 
L 2766 2266 
Q 2766 2663 2505 2880 
Q 2244 3097 1772 3097 
Q 1472 3097 1187 3025 
Q 903 2953 641 2809 
L 641 3341 
Q 956 3463 1253 3523 
Q 1550 3584 1831 3584 
Q 2591 3584 2966 3190 
Q 3341 2797 3341 1997 
z
" transform="scale(0.015625)"/>
      <path id="DejaVuSans-6c" d="M 603 4863 
L 1178 4863 
L 1178 0 
L 603 0 
L 603 4863 
z
" transform="scale(0.015625)"/>
      <path id="DejaVuSans-2d" d="M 313 2009 
L 1997 2009 
L 1997 1497 
L 313 1497 
L 313 2009 
z
" transform="scale(0.015625)"/>
      <path id="DejaVuSans-77" d="M 269 3500 
L 844 3500 
L 1563 769 
L 2278 3500 
L 2956 3500 
L 3675 769 
L 4391 3500 
L 4966 3500 
L 4050 0 
L 3372 0 
L 2619 2869 
L 1863 0 
L 1184 0 
L 269 3500 
z
" transform="scale(0.015625)"/>
      <path id="DejaVuSans-68" d="M 3513 2113 
L 3513 0 
L 2938 0 
L 2938 2094 
Q 2938 2591 2744 2837 
Q 2550 3084 2163 3084 
Q 1697 3084 1428 2787 
Q 1159 2491 1159 1978 
L 1159 0 
L 581 0 
L 581 4863 
L 1159 4863 
L 1159 2956 
Q 1366 3272 1645 3428 
Q 1925 3584 2291 3584 
Q 2894 3584 3203 3211 
Q 3513 2838 3513 2113 
z
" transform="scale(0.015625)"/>
      <path id="DejaVuSans-50" d="M 1259 4147 
L 1259 2394 
L 2053 2394 
Q 2494 2394 2734 2622 
Q 2975 2850 2975 3272 
Q 2975 3691 2734 3919 
Q 2494 4147 2053 4147 
L 1259 4147 
z
M 628 4666 
L 2053 4666 
Q 2838 4666 3239 4311 
Q 3641 3956 3641 3272 
Q 3641 2581 3239 2228 
Q 2838 1875 2053 1875 
L 1259 1875 
L 1259 0 
L 628 0 
L 628 4666 
z
" transform="scale(0.015625)"/>
      <path id="DejaVuSans-63" d="M 3122 3366 
L 3122 2828 
Q 2878 2963 2633 3030 
Q 2388 3097 2138 3097 
Q 1578 3097 1268 2742 
Q 959 2388 959 1747 
Q 959 1106 1268 751 
Q 1578 397 2138 397 
Q 2388 397 2633 464 
Q 2878 531 3122 666 
L 3122 134 
Q 2881 22 2623 -34 
Q 2366 -91 2075 -91 
Q 1284 -91 818 406 
Q 353 903 353 1747 
Q 353 2603 823 3093 
Q 1294 3584 2113 3584 
Q 2378 3584 2631 3529 
Q 2884 3475 3122 3366 
z
" transform="scale(0.015625)"/>
      <path id="DejaVuSans-42" d="M 1259 2228 
L 1259 519 
L 2272 519 
Q 2781 519 3026 730 
Q 3272 941 3272 1375 
Q 3272 1813 3026 2020 
Q 2781 2228 2272 2228 
L 1259 2228 
z
M 1259 4147 
L 1259 2741 
L 2194 2741 
Q 2656 2741 2882 2914 
Q 3109 3088 3109 3444 
Q 3109 3797 2882 3972 
Q 2656 4147 2194 4147 
L 1259 4147 
z
M 628 4666 
L 2241 4666 
Q 2963 4666 3353 4366 
Q 3744 4066 3744 3513 
Q 3744 3084 3544 2831 
Q 3344 2578 2956 2516 
Q 3422 2416 3680 2098 
Q 3938 1781 3938 1306 
Q 3938 681 3513 340 
Q 3088 0 2303 0 
L 628 0 
L 628 4666 
z
" transform="scale(0.015625)"/>
      <path id="DejaVuSans-2013" d="M 313 1978 
L 2888 1978 
L 2888 1528 
L 313 1528 
L 313 1978 
z
" transform="scale(0.015625)"/>
      <path id="DejaVuSans-44" d="M 1259 4147 
L 1259 519 
L 2022 519 
Q 2988 519 3436 956 
Q 3884 1394 3884 2338 
Q 3884 3275 3436 3711 
Q 2988 4147 2022 4147 
L 1259 4147 
z
M 628 4666 
L 1925 4666 
Q 3281 4666 3915 4102 
Q 4550 3538 4550 2338 
Q 4550 1131 3912 565 
Q 3275 0 1925 0 
L 628 0 
L 628 4666 
z
" transform="scale(0.015625)"/>
     </defs>
     <use xlink:href="#DejaVuSans-46"/>
     <use xlink:href="#DejaVuSans-69" transform="translate(50.269531 0)"/>
     <use xlink:href="#DejaVuSans-6e" transform="translate(78.052734 0)"/>
     <use xlink:href="#DejaVuSans-61" transform="translate(141.431641 0)"/>
     <use xlink:href="#DejaVuSans-6c" transform="translate(202.710938 0)"/>
     <use xlink:href="#DejaVuSans-2d" transform="translate(230.494141 0)"/>
     <use xlink:href="#DejaVuSans-45" transform="translate(266.578125 0)"/>
     <use xlink:href="#DejaVuSans-6e" transform="translate(329.761719 0)"/>
     <use xlink:href="#DejaVuSans-67" transform="translate(393.140625 0)"/>
     <use xlink:href="#DejaVuSans-69" transform="translate(456.617188 0)"/>
     <use xlink:href="#DejaVuSans-6e" transform="translate(484.400391 0)"/>
     <use xlink:href="#DejaVuSans-65" transform="translate(547.779297 0)"/>
     <use xlink:href="#DejaVuSans-20" transform="translate(609.302734 0)"/>
     <use xlink:href="#DejaVuSans-52" transform="translate(641.089844 0)"/>
     <use xlink:href="#DejaVuSans-55" transform="translate(710.572266 0)"/>
     <use xlink:href="#DejaVuSans-4c" transform="translate(783.765625 0)"/>
     <use xlink:href="#DejaVuSans-20" transform="translate(839.478516 0)"/>
     <use xlink:href="#DejaVuSans-77" transform="translate(871.265625 0)"/>
     <use xlink:href="#DejaVuSans-69" transform="translate(953.052734 0)"/>
     <use xlink:href="#DejaVuSans-74" transform="translate(980.835938 0)"/>
     <use xlink:href="#DejaVuSans-68" transform="translate(1020.044922 0)"/>
     <use xlink:href="#DejaVuSans-20" transform="translate(1083.423828 0)"/>
     <use xlink:href="#DejaVuSans-50" transform="translate(1115.210938 0)"/>
     <use xlink:href="#DejaVuSans-72" transform="translate(1173.763672 0)"/>
     <use xlink:href="#DejaVuSans-65" transform="translate(1212.626953 0)"/>
     <use xlink:href="#DejaVuSans-64" transform="translate(1274.150391 0)"/>
     <use xlink:href="#DejaVuSans-69" transform="translate(1337.626953 0)"/>
     <use xlink:href="#DejaVuSans-63" transform="translate(1365.410156 0)"/>
     <use xlink:href="#DejaVuSans-74" transform="translate(1420.390625 0)"/>
     <use xlink:href="#DejaVuSans-69" transform="translate(1459.599609 0)"/>
     <use xlink:href="#DejaVuSans-6f" transform="translate(1487.382812 0)"/>
     <use xlink:href="#DejaVuSans-6e" transform="translate(1548.564453 0)"/>
     <use xlink:href="#DejaVuSans-20" transform="translate(1611.943359 0)"/>
     <use xlink:href="#DejaVuSans-42" transform="translate(1643.730469 0)"/>
     <use xlink:href="#DejaVuSans-61" transform="translate(1712.333984 0)"/>
     <use xlink:href="#DejaVuSans-6e" transform="translate(1773.613281 0)"/>
     <use xlink:href="#DejaVuSans-64" transform="translate(1836.992188 0)"/>
     <use xlink:href="#DejaVuSans-73" transform="translate(1900.46875 0)"/>
     <use xlink:href="#DejaVuSans-20" transform="translate(1952.568359 0)"/>
     <use xlink:href="#DejaVuSans-2013" transform="translate(1984.355469 0)"/>
     <use xlink:href="#DejaVuSans-20" transform="translate(2034.355469 0)"/>
     <use xlink:href="#DejaVuSans-46" transform="translate(2066.142578 0)"/>
     <use xlink:href="#DejaVuSans-44" transform="translate(2123.662109 0)"/>
     <use xlink:href="#DejaVuSans-30" transform="translate(2200.664062 0)"/>
     <use xlink:href="#DejaVuSans-30" transform="translate(2264.287109 0)"/>
     <use xlink:href="#DejaVuSans-34" transform="translate(2327.910156 0)"/>
    </g>
   </g>
   <g id="legend_1">
    <g id="patch_7">
     <path d="M 57.87 78.914375 
L 202.390312 78.914375 
Q 204.390312 78.914375 204.390312 76.914375 
L 204.390312 33.88 
Q 204.390312 31.88 202.390312 31.88 
L 57.87 31.88 
Q 55.87 31.88 55.87 33.88 
L 55.87 76.914375 
Q 55.87 78.914375 57.87 78.914375 
z
" style="fill: #ffffff; opacity: 0.8; stroke: #cccccc; stroke-linejoin: miter"/>
    </g>
    <g id="patch_8">
     <path d="M 59.87 43.478437 
L 79.87 43.478437 
L 79.87 36.478437 
L 59.87 36.478437 
z
" style="fill: #1f77b4; fill-opacity: 0.2"/>
    </g>
    <g id="text_17">
     <!-- Prediction Band (lo–hi) -->
     <g transform="translate(87.87 43.478437) scale(0.1 -0.1)">
      <use xlink:href="#DejaVuSans-50"/>
      <use xlink:href="#DejaVuSans-72" transform="translate(58.552734 0)"/>
      <use xlink:href="#DejaVuSans-65" transform="translate(97.416016 0)"/>
      <use xlink:href="#DejaVuSans-64" transform="translate(158.939453 0)"/>
      <use xlink:href="#DejaVuSans-69" transform="translate(222.416016 0)"/>
      <use xlink:href="#DejaVuSans-63" transform="translate(250.199219 0)"/>
      <use xlink:href="#DejaVuSans-74" transform="translate(305.179688 0)"/>
      <use xlink:href="#DejaVuSans-69" transform="translate(344.388672 0)"/>
      <use xlink:href="#DejaVuSans-6f" transform="translate(372.171875 0)"/>
      <use xlink:href="#DejaVuSans-6e" transform="translate(433.353516 0)"/>
      <use xlink:href="#DejaVuSans-20" transform="translate(496.732422 0)"/>
      <use xlink:href="#DejaVuSans-42" transform="translate(528.519531 0)"/>
      <use xlink:href="#DejaVuSans-61" transform="translate(597.123047 0)"/>
      <use xlink:href="#DejaVuSans-6e" transform="translate(658.402344 0)"/>
      <use xlink:href="#DejaVuSans-64" transform="translate(721.78125 0)"/>
      <use xlink:href="#DejaVuSans-20" transform="translate(785.257812 0)"/>
      <use xlink:href="#DejaVuSans-28" transform="translate(817.044922 0)"/>
      <use xlink:href="#DejaVuSans-6c" transform="translate(856.058594 0)"/>
      <use xlink:href="#DejaVuSans-6f" transform="translate(883.841797 0)"/>
      <use xlink:href="#DejaVuSans-2013" transform="translate(945.023438 0)"/>
      <use xlink:href="#DejaVuSans-68" transform="translate(995.023438 0)"/>
      <use xlink:href="#DejaVuSans-69" transform="translate(1058.402344 0)"/>
      <use xlink:href="#DejaVuSans-29" transform="translate(1086.185547 0)"/>
     </g>
    </g>
    <g id="line2d_16">
     <path d="M 59.87 54.656563 
L 69.87 54.656563 
L 79.87 54.656563 
" style="fill: none; stroke: #1f77b4; stroke-width: 1.5; stroke-linecap: square"/>
    </g>
    <g id="text_18">
     <!-- RUL Actual -->
     <g transform="translate(87.87 58.156563) scale(0.1 -0.1)">
      <defs>
       <path id="DejaVuSans-41" d="M 2188 4044 
L 1331 1722 
L 3047 1722 
L 2188 4044 
z
M 1831 4666 
L 2547 4666 
L 4325 0 
L 3669 0 
L 3244 1197 
L 1141 1197 
L 716 0 
L 50 0 
L 1831 4666 
z
" transform="scale(0.015625)"/>
       <path id="DejaVuSans-75" d="M 544 1381 
L 544 3500 
L 1119 3500 
L 1119 1403 
Q 1119 906 1312 657 
Q 1506 409 1894 409 
Q 2359 409 2629 706 
Q 2900 1003 2900 1516 
L 2900 3500 
L 3475 3500 
L 3475 0 
L 2900 0 
L 2900 538 
Q 2691 219 2414 64 
Q 2138 -91 1772 -91 
Q 1169 -91 856 284 
Q 544 659 544 1381 
z
M 1991 3584 
L 1991 3584 
z
" transform="scale(0.015625)"/>
      </defs>
      <use xlink:href="#DejaVuSans-52"/>
      <use xlink:href="#DejaVuSans-55" transform="translate(69.482422 0)"/>
      <use xlink:href="#DejaVuSans-4c" transform="translate(142.675781 0)"/>
      <use xlink:href="#DejaVuSans-20" transform="translate(198.388672 0)"/>
      <use xlink:href="#DejaVuSans-41" transform="translate(230.175781 0)"/>
      <use xlink:href="#DejaVuSans-63" transform="translate(296.833984 0)"/>
      <use xlink:href="#DejaVuSans-74" transform="translate(351.814453 0)"/>
      <use xlink:href="#DejaVuSans-75" transform="translate(391.023438 0)"/>
      <use xlink:href="#DejaVuSans-61" transform="translate(454.402344 0)"/>
      <use xlink:href="#DejaVuSans-6c" transform="translate(515.681641 0)"/>
     </g>
    </g>
    <g id="line2d_17">
     <path d="M 59.87 69.334687 
L 69.87 69.334687 
L 79.87 69.334687 
" style="fill: none; stroke-dasharray: 5.55,2.4; stroke-dashoffset: 0; stroke: #ff7f0e; stroke-width: 1.5"/>
     <g>
      <use xlink:href="#mba0f6d5d81" x="69.87" y="69.334687" style="fill: #ff7f0e; stroke: #ff7f0e"/>
     </g>
    </g>
    <g id="text_19">
     <!-- RUL Prediction -->
     <g transform="translate(87.87 72.834687) scale(0.1 -0.1)">
      <use xlink:href="#DejaVuSans-52"/>
      <use xlink:href="#DejaVuSans-55" transform="translate(69.482422 0)"/>
      <use xlink:href="#DejaVuSans-4c" transform="translate(142.675781 0)"/>
      <use xlink:href="#DejaVuSans-20" transform="translate(198.388672 0)"/>
      <use xlink:href="#DejaVuSans-50" transform="translate(230.175781 0)"/>
      <use xlink:href="#DejaVuSans-72" transform="translate(288.728516 0)"/>
      <use xlink:href="#DejaVuSans-65" transform="translate(327.591797 0)"/>
      <use xlink:href="#DejaVuSans-64" transform="translate(389.115234 0)"/>
      <use xlink:href="#DejaVuSans-69" transform="translate(452.591797 0)"/>
      <use xlink:href="#DejaVuSans-63" transform="translate(480.375 0)"/>
      <use xlink:href="#DejaVuSans-74" transform="translate(535.355469 0)"/>
      <use xlink:href="#DejaVuSans-69" transform="translate(574.564453 0)"/>
      <use xlink:href="#DejaVuSans-6f" transform="translate(602.347656 0)"/>
      <use xlink:href="#DejaVuSans-6e" transform="translate(663.529297 0)"/>
     </g>
    </g>
   </g>
  </g>
 </g>
 <defs>
  <clipPath id="pba5415ed45">
   <rect x="50.87" y="26.88" width="802.33" height="363.16"/>
  </clipPath>
 </defs>
</svg>
