<?xml version="1.0" encoding="utf-8" standalone="no"?>
<!DOCTYPE svg PUBLIC "-//W3C//DTD SVG 1.1//EN"
  "http://www.w3.org/Graphics/SVG/1.1/DTD/svg11.dtd">
<svg xmlns:xlink="http://www.w3.org/1999/xlink" width="864pt" height="432pt" viewBox="0 0 864 432" xmlns="http://www.w3.org/2000/svg" version="1.1">
 <metadata>
  <rdf:RDF xmlns:dc="http://purl.org/dc/elements/1.1/" xmlns:cc="http://creativecommons.org/ns#" xmlns:rdf="http://www.w3.org/1999/02/22-rdf-syntax-ns#">
   <cc:Work>
    <dc:type rdf:resource="http://purl.org/dc/dcmitype/StillImage"/>
    <dc:date>2025-10-29T21:52:58.144029</dc:date>
    <dc:format>image/svg+xml</dc:format>
    <dc:creator>
     <cc:Agent>
      <dc:title>Matplotlib v3.10.7, https://matplotlib.org/</dc:title>
     </cc:Agent>
    </dc:creator>
   </cc:Work>
  </rdf:RDF>
 </metadata>
 <defs>
  <style type="text/css">*{stroke-linejoin: round; stroke-linecap: butt}</style>
 </defs>
 <g id="figure_1">
  <g id="patch_1">
   <path d="M 0 432 
L 864 432 
L 864 0 
L 0 0 
z
" style="fill: #ffffff"/>
  </g>
  <g id="axes_1">
   <g id="patch_2">
    <path d="M 50.87 390.04 
L 853.2 390.04 
L 853.2 26.88 
L 50.87 26.88 
z
" style="fill: #ffffff"/>
   </g>
   <g id="FillBetweenPolyCollection_1">
    <path d="M 87.339545 274.925961 
L 87.339545 373.532727 
L 90.456601 186.142828 
L 93.573656 161.861908 
L 96.690711 231.161897 
L 99.807766 373.532727 
L 102.924821 158.187097 
L 106.041876 373.532727 
L 109.158932 237.900145 
L 112.275987 373.532727 
L 115.393042 201.237927 
L 118.510097 373.532727 
L 121.627152 160.770327 
L 124.744207 359.056747 
L 127.861263 373.532727 
L 130.978318 331.286228 
L 134.095373 248.502106 
L 137.212428 266.311269 
L 140.329483 360.077433 
L 143.446538 289.929684 
L 146.563594 199.79042 
L 149.680649 373.532727 
L 152.797704 267.571062 
L 155.914759 217.627909 
L 159.031814 161.122462 
L 162.148869 153.248929 
L 165.265925 210.817665 
L 168.38298 266.341745 
L 171.500035 189.276759 
L 174.61709 373.532727 
L 177.734145 244.948641 
L 180.8512 147.246335 
L 183.968256 220.251471 
L 187.085311 224.501447 
L 190.202366 267.926832 
L 193.319421 291.715749 
L 196.436476 331.42164 
L 199.553531 327.588237 
L 202.670587 349.385411 
L 205.787642 359.97476 
L 208.904697 373.532727 
L 212.021752 373.532727 
L 215.138807 157.843298 
L 218.255862 176.540059 
L 221.372918 373.532727 
L 224.489973 198.443619 
L 227.607028 373.532727 
L 230.724083 295.551336 
L 233.841138 268.963122 
L 236.958193 197.544611 
L 240.075249 168.600016 
L 243.192304 146.828076 
L 246.309359 159.036932 
L 249.426414 362.174881 
L 252.543469 218.649766 
L 255.660524 191.680383 
L 258.77758 332.689113 
L 261.894635 323.720958 
L 265.01169 373.532727 
L 268.128745 373.532727 
L 271.2458 163.725735 
L 274.362855 224.563168 
L 277.479911 304.628883 
L 280.596966 170.434591 
L 283.714021 373.532727 
L 286.831076 150.232464 
L 289.948131 196.816558 
L 293.065186 252.740724 
L 296.182242 169.36543 
L 299.299297 243.625449 
L 302.416352 333.550848 
L 305.533407 246.962052 
L 308.650462 294.796635 
L 311.767517 201.380714 
L 314.884573 373.532727 
L 318.001628 172.381213 
L 321.118683 198.410837 
L 324.235738 373.532727 
L 327.352793 319.911819 
L 330.469848 176.543554 
L 333.586904 373.532727 
L 336.703959 219.912163 
L 339.821014 185.197721 
L 342.938069 373.532727 
L 346.055124 373.532727 
L 349.172179 223.914468 
L 352.289235 168.04582 
L 355.40629 184.642809 
L 358.523345 176.982486 
L 361.6404 306.796204 
L 364.757455 371.998082 
L 367.87451 184.627413 
L 370.991566 373.532727 
L 374.108621 373.532727 
L 377.225676 373.532727 
L 380.342731 373.532727 
L 383.459786 177.534602 
L 386.576841 152.529806 
L 389.693897 194.073626 
L 392.810952 290.109089 
L 395.928007 188.055864 
L 399.045062 338.054296 
L 402.162117 272.036975 
L 405.279172 373.532727 
L 408.396228 214.780775 
L 411.513283 189.013973 
L 414.630338 281.031874 
L 417.747393 373.532727 
L 420.864448 156.119514 
L 423.981503 178.812674 
L 427.098559 182.895276 
L 430.215614 373.532727 
L 433.332669 212.848551 
L 436.449724 171.6241 
L 439.566779 373.532727 
L 442.683834 164.143645 
L 445.80089 199.22663 
L 448.917945 268.938693 
L 452.035 208.151884 
L 455.152055 259.241699 
L 458.26911 154.365656 
L 461.386166 168.842601 
L 464.503221 311.159994 
L 467.620276 295.622546 
L 470.737331 373.532727 
L 473.854386 155.216067 
L 476.971441 198.315704 
L 480.088497 242.170357 
L 483.205552 373.532727 
L 486.322607 278.738665 
L 489.439662 302.515324 
L 492.556717 170.597596 
L 495.673772 331.990908 
L 498.790828 234.148078 
L 501.907883 327.888943 
L 505.024938 184.668916 
L 508.141993 373.532727 
L 511.259048 165.466103 
L 514.376103 373.532727 
L 517.493159 159.463667 
L 520.610214 355.07362 
L 523.727269 214.258488 
L 526.844324 281.160585 
L 529.961379 205.072615 
L 533.078434 157.413698 
L 536.19549 168.728176 
L 539.312545 149.484525 
L 542.4296 155.646069 
L 545.546655 373.532727 
L 548.66371 373.532727 
L 551.780765 323.206046 
L 554.897821 373.532727 
L 558.014876 306.906016 
L 561.131931 193.675201 
L 564.248986 373.532727 
L 567.366041 166.931033 
L 570.483096 207.046586 
L 573.600152 211.547937 
L 576.717207 169.538937 
L 579.834262 186.452377 
L 582.951317 355.870392 
L 586.068372 173.410357 
L 589.185427 373.532727 
L 592.302483 196.41815 
L 595.419538 151.739368 
L 598.536593 364.180254 
L 601.653648 373.532727 
L 604.770703 164.692441 
L 607.887758 331.168308 
L 611.004814 222.743237 
L 614.121869 287.765448 
L 617.238924 373.532727 
L 620.355979 276.463761 
L 623.473034 145.776966 
L 626.590089 373.532727 
L 629.707145 373.532727 
L 632.8242 159.899803 
L 635.941255 155.020174 
L 639.05831 304.745694 
L 642.175365 373.532727 
L 645.29242 175.563479 
L 648.409476 373.532727 
L 651.526531 332.187656 
L 654.643586 155.99892 
L 657.760641 282.43801 
L 660.877696 159.355899 
L 663.994751 154.411317 
L 667.111807 325.971005 
L 670.228862 157.810306 
L 673.345917 161.117307 
L 676.462972 210.591838 
L 679.580027 152.771307 
L 682.697082 306.402724 
L 685.814138 167.124514 
L 688.931193 373.532727 
L 692.048248 347.551658 
L 695.165303 373.532727 
L 698.282358 373.532727 
L 701.399413 271.024362 
L 704.516469 193.603205 
L 707.633524 180.276975 
L 710.750579 163.029766 
L 713.867634 217.48888 
L 716.984689 223.144319 
L 720.101744 152.314971 
L 723.2188 197.233175 
L 726.335855 275.153675 
L 729.45291 373.532727 
L 732.569965 234.569483 
L 735.68702 373.532727 
L 738.804075 205.073436 
L 741.921131 172.251935 
L 745.038186 373.532727 
L 748.155241 254.06575 
L 751.272296 222.220881 
L 754.389351 157.336651 
L 757.506406 373.532727 
L 760.623462 285.54752 
L 763.740517 149.764576 
L 766.857572 174.862705 
L 769.974627 170.00838 
L 773.091682 373.532727 
L 776.208737 373.532727 
L 779.325793 171.211293 
L 782.442848 153.354913 
L 785.559903 283.582042 
L 788.676958 373.532727 
L 791.794013 163.495522 
L 794.911068 373.532727 
L 798.028124 336.92033 
L 801.145179 319.677246 
L 804.262234 163.117438 
L 807.379289 175.517224 
L 810.496344 299.773353 
L 813.613399 164.270809 
L 816.730455 261.712041 
L 816.730455 159.322365 
L 816.730455 159.322365 
L 813.613399 61.881133 
L 810.496344 197.383668 
L 807.379289 73.127565 
L 804.262234 60.727761 
L 801.145179 217.28757 
L 798.028124 234.530654 
L 794.911068 290.157958 
L 791.794013 61.105846 
L 788.676958 284.836304 
L 785.559903 181.192357 
L 782.442848 50.965255 
L 779.325793 68.821634 
L 776.208737 288.916024 
L 773.091682 285.770236 
L 769.974627 67.618704 
L 766.857572 72.473029 
L 763.740517 47.374882 
L 760.623462 183.157853 
L 757.506406 278.247588 
L 754.389351 54.946993 
L 751.272296 119.831205 
L 748.155241 151.676074 
L 745.038186 289.967107 
L 741.921131 69.862259 
L 738.804075 102.68376 
L 735.68702 292.055468 
L 732.569965 132.179807 
L 729.45291 294.10569 
L 726.335855 172.763999 
L 723.2188 94.843499 
L 720.101744 49.925294 
L 716.984689 120.754643 
L 713.867634 115.099204 
L 710.750579 60.640073 
L 707.633524 77.887281 
L 704.516469 91.213529 
L 701.399413 168.634686 
L 698.282358 296.639195 
L 695.165303 296.783773 
L 692.048248 245.161982 
L 688.931193 289.618808 
L 685.814138 64.734838 
L 682.697082 204.013048 
L 679.580027 50.381631 
L 676.462972 108.202162 
L 673.345917 58.727631 
L 670.228862 55.42063 
L 667.111807 223.581329 
L 663.994751 52.021641 
L 660.877696 56.966241 
L 657.760641 180.048334 
L 654.643586 53.609262 
L 651.526531 229.79798 
L 648.409476 275.342648 
L 645.29242 73.173803 
L 642.175365 283.203922 
L 639.05831 202.356017 
L 635.941255 52.630498 
L 632.8242 57.510126 
L 629.707145 297.217043 
L 626.590089 288.352383 
L 623.473034 43.387273 
L 620.355979 174.074085 
L 617.238924 286.962026 
L 614.121869 185.375772 
L 611.004814 120.353561 
L 607.887758 228.778631 
L 604.770703 62.302765 
L 601.653648 294.267314 
L 598.536593 261.790573 
L 595.419538 49.349674 
L 592.302483 94.028474 
L 589.185427 281.500872 
L 586.068372 71.020663 
L 582.951317 253.480712 
L 579.834262 84.062701 
L 576.717207 67.149261 
L 573.600152 109.158261 
L 570.483096 104.65691 
L 567.366041 64.541357 
L 564.248986 290.240054 
L 561.131931 91.285525 
L 558.014876 204.51634 
L 554.897821 273.996144 
L 551.780765 220.816361 
L 548.66371 297.000618 
L 545.546655 272.522634 
L 542.4296 53.256411 
L 539.312545 47.094866 
L 536.19549 66.3385 
L 533.078434 55.024022 
L 529.961379 102.682939 
L 526.844324 178.770909 
L 523.727269 111.868812 
L 520.610214 252.683948 
L 517.493159 57.07399 
L 514.376103 283.697681 
L 511.259048 63.076409 
L 508.141993 294.197354 
L 505.024938 82.27924 
L 501.907883 225.499258 
L 498.790828 131.758402 
L 495.673772 229.601231 
L 492.556717 68.207919 
L 489.439662 200.125639 
L 486.322607 176.348989 
L 483.205552 298.407217 
L 480.088497 139.780681 
L 476.971441 95.926028 
L 473.854386 52.826391 
L 470.737331 295.767106 
L 467.620276 193.232879 
L 464.503221 208.770317 
L 461.386166 66.452925 
L 458.26911 51.975997 
L 455.152055 156.852023 
L 452.035 105.762208 
L 448.917945 166.549016 
L 445.80089 96.836954 
L 442.683834 61.753986 
L 439.566779 292.890789 
L 436.449724 69.234424 
L 433.332669 110.458875 
L 430.215614 277.674729 
L 427.098559 80.5056 
L 423.981503 76.422998 
L 420.864448 53.729838 
L 417.747393 300.312555 
L 414.630338 178.64219 
L 411.513283 86.624297 
L 408.396228 112.391099 
L 405.279172 286.766667 
L 402.162117 169.647298 
L 399.045062 235.66462 
L 395.928007 85.666188 
L 392.810952 187.719405 
L 389.693897 91.68395 
L 386.576841 50.14013 
L 383.459786 75.144926 
L 380.342731 296.828106 
L 377.225676 294.69688 
L 374.108621 281.538303 
L 370.991566 294.001374 
L 367.87451 82.237737 
L 364.757455 269.608405 
L 361.6404 204.406528 
L 358.523345 74.592792 
L 355.40629 82.253133 
L 352.289235 65.656144 
L 349.172179 121.524792 
L 346.055124 298.036262 
L 342.938069 287.753049 
L 339.821014 82.808045 
L 336.703959 117.522486 
L 333.586904 273.788282 
L 330.469848 74.153895 
L 327.352793 217.522152 
L 324.235738 279.634616 
L 321.118683 96.021161 
L 318.001628 69.991537 
L 314.884573 287.413855 
L 311.767517 98.991038 
L 308.650462 192.40695 
L 305.533407 144.572376 
L 302.416352 231.161172 
L 299.299297 141.235773 
L 296.182242 66.975736 
L 293.065186 150.351048 
L 289.948131 94.426882 
L 286.831076 47.842788 
L 283.714021 281.328588 
L 280.596966 68.044914 
L 277.479911 202.239216 
L 274.362855 122.173492 
L 271.2458 61.336059 
L 268.128745 290.223348 
L 265.01169 287.417822 
L 261.894635 221.331274 
L 258.77758 230.299437 
L 255.660524 89.290706 
L 252.543469 116.260089 
L 249.426414 259.7852 
L 246.309359 56.647256 
L 243.192304 44.438417 
L 240.075249 66.21034 
L 236.958193 95.154935 
L 233.841138 166.573446 
L 230.724083 193.161651 
L 227.607028 282.609054 
L 224.489973 96.053943 
L 221.372918 272.340232 
L 218.255862 74.1504 
L 215.138807 55.453622 
L 212.021752 274.332875 
L 208.904697 288.803748 
L 205.787642 257.585088 
L 202.670587 246.995735 
L 199.553531 225.198552 
L 196.436476 229.031964 
L 193.319421 189.326073 
L 190.202366 165.537156 
L 187.085311 122.111771 
L 183.968256 117.861795 
L 180.8512 44.856659 
L 177.734145 142.558964 
L 174.61709 277.981587 
L 171.500035 86.887083 
L 168.38298 163.952069 
L 165.265925 108.427989 
L 162.148869 50.859253 
L 159.031814 58.732803 
L 155.914759 115.238233 
L 152.797704 165.181386 
L 149.680649 277.809216 
L 146.563594 97.400744 
L 143.446538 187.540008 
L 140.329483 257.687752 
L 137.212428 163.921593 
L 134.095373 146.11243 
L 130.978318 228.896551 
L 127.861263 294.430651 
L 124.744207 256.667067 
L 121.627152 58.380651 
L 118.510097 297.983418 
L 115.393042 98.848251 
L 112.275987 288.404134 
L 109.158932 135.510469 
L 106.041876 296.567374 
L 102.924821 55.797421 
L 99.807766 278.854908 
L 96.690711 128.772221 
L 93.573656 59.472232 
L 90.456601 83.753152 
L 87.339545 274.925961 
z
" clip-path="url(#p5df2638768)" style="fill: #1f77b4; fill-opacity: 0.2"/>
   </g>
   <g id="matplotlib.axis_1">
    <g id="xtick_1">
     <g id="line2d_1">
      <defs>
       <path id="m90f9a2001b" d="M 0 0 
L 0 3.5 
" style="stroke: #000000; stroke-width: 0.8"/>
      </defs>
      <g>
       <use xlink:href="#m90f9a2001b" x="87.339545" y="390.04" style="stroke: #000000; stroke-width: 0.8"/>
      </g>
     </g>
     <g id="text_1">
      <!-- 0 -->
      <g transform="translate(84.158295 404.638438) scale(0.1 -0.1)">
       <defs>
        <path id="DejaVuSans-30" d="M 2034 4250 
Q 1547 4250 1301 3770 
Q 1056 3291 1056 2328 
Q 1056 1369 1301 889 
Q 1547 409 2034 409 
Q 2525 409 2770 889 
Q 3016 1369 3016 2328 
Q 3016 3291 2770 3770 
Q 2525 4250 2034 4250 
z
M 2034 4750 
Q 2819 4750 3233 4129 
Q 3647 3509 3647 2328 
Q 3647 1150 3233 529 
Q 2819 -91 2034 -91 
Q 1250 -91 836 529 
Q 422 1150 422 2328 
Q 422 3509 836 4129 
Q 1250 4750 2034 4750 
z
" transform="scale(0.015625)"/>
       </defs>
       <use xlink:href="#DejaVuSans-30"/>
      </g>
     </g>
    </g>
    <g id="xtick_2">
     <g id="line2d_2">
      <g>
       <use xlink:href="#m90f9a2001b" x="243.192304" y="390.04" style="stroke: #000000; stroke-width: 0.8"/>
      </g>
     </g>
     <g id="text_2">
      <!-- 50 -->
      <g transform="translate(236.829804 404.638438) scale(0.1 -0.1)">
       <defs>
        <path id="DejaVuSans-35" d="M 691 4666 
L 3169 4666 
L 3169 4134 
L 1269 4134 
L 1269 2991 
Q 1406 3038 1543 3061 
Q 1681 3084 1819 3084 
Q 2600 3084 3056 2656 
Q 3513 2228 3513 1497 
Q 3513 744 3044 326 
Q 2575 -91 1722 -91 
Q 1428 -91 1123 -41 
Q 819 9 494 109 
L 494 744 
Q 775 591 1075 516 
Q 1375 441 1709 441 
Q 2250 441 2565 725 
Q 2881 1009 2881 1497 
Q 2881 1984 2565 2268 
Q 2250 2553 1709 2553 
Q 1456 2553 1204 2497 
Q 953 2441 691 2322 
L 691 4666 
z
" transform="scale(0.015625)"/>
       </defs>
       <use xlink:href="#DejaVuSans-35"/>
       <use xlink:href="#DejaVuSans-30" transform="translate(63.623047 0)"/>
      </g>
     </g>
    </g>
    <g id="xtick_3">
     <g id="line2d_3">
      <g>
       <use xlink:href="#m90f9a2001b" x="399.045062" y="390.04" style="stroke: #000000; stroke-width: 0.8"/>
      </g>
     </g>
     <g id="text_3">
      <!-- 100 -->
      <g transform="translate(389.501312 404.638438) scale(0.1 -0.1)">
       <defs>
        <path id="DejaVuSans-31" d="M 794 531 
L 1825 531 
L 1825 4091 
L 703 3866 
L 703 4441 
L 1819 4666 
L 2450 4666 
L 2450 531 
L 3481 531 
L 3481 0 
L 794 0 
L 794 531 
z
" transform="scale(0.015625)"/>
       </defs>
       <use xlink:href="#DejaVuSans-31"/>
       <use xlink:href="#DejaVuSans-30" transform="translate(63.623047 0)"/>
       <use xlink:href="#DejaVuSans-30" transform="translate(127.246094 0)"/>
      </g>
     </g>
    </g>
    <g id="xtick_4">
     <g id="line2d_4">
      <g>
       <use xlink:href="#m90f9a2001b" x="554.897821" y="390.04" style="stroke: #000000; stroke-width: 0.8"/>
      </g>
     </g>
     <g id="text_4">
      <!-- 150 -->
      <g transform="translate(545.354071 404.638438) scale(0.1 -0.1)">
       <use xlink:href="#DejaVuSans-31"/>
       <use xlink:href="#DejaVuSans-35" transform="translate(63.623047 0)"/>
       <use xlink:href="#DejaVuSans-30" transform="translate(127.246094 0)"/>
      </g>
     </g>
    </g>
    <g id="xtick_5">
     <g id="line2d_5">
      <g>
       <use xlink:href="#m90f9a2001b" x="710.750579" y="390.04" style="stroke: #000000; stroke-width: 0.8"/>
      </g>
     </g>
     <g id="text_5">
      <!-- 200 -->
      <g transform="translate(701.206829 404.638438) scale(0.1 -0.1)">
       <defs>
        <path id="DejaVuSans-32" d="M 1228 531 
L 3431 531 
L 3431 0 
L 469 0 
L 469 531 
Q 828 903 1448 1529 
Q 2069 2156 2228 2338 
Q 2531 2678 2651 2914 
Q 2772 3150 2772 3378 
Q 2772 3750 2511 3984 
Q 2250 4219 1831 4219 
Q 1534 4219 1204 4116 
Q 875 4013 500 3803 
L 500 4441 
Q 881 4594 1212 4672 
Q 1544 4750 1819 4750 
Q 2544 4750 2975 4387 
Q 3406 4025 3406 3419 
Q 3406 3131 3298 2873 
Q 3191 2616 2906 2266 
Q 2828 2175 2409 1742 
Q 1991 1309 1228 531 
z
" transform="scale(0.015625)"/>
       </defs>
       <use xlink:href="#DejaVuSans-32"/>
       <use xlink:href="#DejaVuSans-30" transform="translate(63.623047 0)"/>
       <use xlink:href="#DejaVuSans-30" transform="translate(127.246094 0)"/>
      </g>
     </g>
    </g>
    <g id="text_6">
     <!-- Engine (sorted) -->
     <g transform="translate(413.477188 418.316562) scale(0.1 -0.1)">
      <defs>
       <path id="DejaVuSans-45" d="M 628 4666 
L 3578 4666 
L 3578 4134 
L 1259 4134 
L 1259 2753 
L 3481 2753 
L 3481 2222 
L 1259 2222 
L 1259 531 
L 3634 531 
L 3634 0 
L 628 0 
L 628 4666 
z
" transform="scale(0.015625)"/>
       <path id="DejaVuSans-6e" d="M 3513 2113 
L 3513 0 
L 2938 0 
L 2938 2094 
Q 2938 2591 2744 2837 
Q 2550 3084 2163 3084 
Q 1697 3084 1428 2787 
Q 1159 2491 1159 1978 
L 1159 0 
L 581 0 
L 581 3500 
L 1159 3500 
L 1159 2956 
Q 1366 3272 1645 3428 
Q 1925 3584 2291 3584 
Q 2894 3584 3203 3211 
Q 3513 2838 3513 2113 
z
" transform="scale(0.015625)"/>
       <path id="DejaVuSans-67" d="M 2906 1791 
Q 2906 2416 2648 2759 
Q 2391 3103 1925 3103 
Q 1463 3103 1205 2759 
Q 947 2416 947 1791 
Q 947 1169 1205 825 
Q 1463 481 1925 481 
Q 2391 481 2648 825 
Q 2906 1169 2906 1791 
z
M 3481 434 
Q 3481 -459 3084 -895 
Q 2688 -1331 1869 -1331 
Q 1566 -1331 1297 -1286 
Q 1028 -1241 775 -1147 
L 775 -588 
Q 1028 -725 1275 -790 
Q 1522 -856 1778 -856 
Q 2344 -856 2625 -561 
Q 2906 -266 2906 331 
L 2906 616 
Q 2728 306 2450 153 
Q 2172 0 1784 0 
Q 1141 0 747 490 
Q 353 981 353 1791 
Q 353 2603 747 3093 
Q 1141 3584 1784 3584 
Q 2172 3584 2450 3431 
Q 2728 3278 2906 2969 
L 2906 3500 
L 3481 3500 
L 3481 434 
z
" transform="scale(0.015625)"/>
       <path id="DejaVuSans-69" d="M 603 3500 
L 1178 3500 
L 1178 0 
L 603 0 
L 603 3500 
z
M 603 4863 
L 1178 4863 
L 1178 4134 
L 603 4134 
L 603 4863 
z
" transform="scale(0.015625)"/>
       <path id="DejaVuSans-65" d="M 3597 1894 
L 3597 1613 
L 953 1613 
Q 991 1019 1311 708 
Q 1631 397 2203 397 
Q 2534 397 2845 478 
Q 3156 559 3463 722 
L 3463 178 
Q 3153 47 2828 -22 
Q 2503 -91 2169 -91 
Q 1331 -91 842 396 
Q 353 884 353 1716 
Q 353 2575 817 3079 
Q 1281 3584 2069 3584 
Q 2775 3584 3186 3129 
Q 3597 2675 3597 1894 
z
M 3022 2063 
Q 3016 2534 2758 2815 
Q 2500 3097 2075 3097 
Q 1594 3097 1305 2825 
Q 1016 2553 972 2059 
L 3022 2063 
z
" transform="scale(0.015625)"/>
       <path id="DejaVuSans-20" transform="scale(0.015625)"/>
       <path id="DejaVuSans-28" d="M 1984 4856 
Q 1566 4138 1362 3434 
Q 1159 2731 1159 2009 
Q 1159 1288 1364 580 
Q 1569 -128 1984 -844 
L 1484 -844 
Q 1016 -109 783 600 
Q 550 1309 550 2009 
Q 550 2706 781 3412 
Q 1013 4119 1484 4856 
L 1984 4856 
z
" transform="scale(0.015625)"/>
       <path id="DejaVuSans-73" d="M 2834 3397 
L 2834 2853 
Q 2591 2978 2328 3040 
Q 2066 3103 1784 3103 
Q 1356 3103 1142 2972 
Q 928 2841 928 2578 
Q 928 2378 1081 2264 
Q 1234 2150 1697 2047 
L 1894 2003 
Q 2506 1872 2764 1633 
Q 3022 1394 3022 966 
Q 3022 478 2636 193 
Q 2250 -91 1575 -91 
Q 1294 -91 989 -36 
Q 684 19 347 128 
L 347 722 
Q 666 556 975 473 
Q 1284 391 1588 391 
Q 1994 391 2212 530 
Q 2431 669 2431 922 
Q 2431 1156 2273 1281 
Q 2116 1406 1581 1522 
L 1381 1569 
Q 847 1681 609 1914 
Q 372 2147 372 2553 
Q 372 3047 722 3315 
Q 1072 3584 1716 3584 
Q 2034 3584 2315 3537 
Q 2597 3491 2834 3397 
z
" transform="scale(0.015625)"/>
       <path id="DejaVuSans-6f" d="M 1959 3097 
Q 1497 3097 1228 2736 
Q 959 2375 959 1747 
Q 959 1119 1226 758 
Q 1494 397 1959 397 
Q 2419 397 2687 759 
Q 2956 1122 2956 1747 
Q 2956 2369 2687 2733 
Q 2419 3097 1959 3097 
z
M 1959 3584 
Q 2709 3584 3137 3096 
Q 3566 2609 3566 1747 
Q 3566 888 3137 398 
Q 2709 -91 1959 -91 
Q 1206 -91 779 398 
Q 353 888 353 1747 
Q 353 2609 779 3096 
Q 1206 3584 1959 3584 
z
" transform="scale(0.015625)"/>
       <path id="DejaVuSans-72" d="M 2631 2963 
Q 2534 3019 2420 3045 
Q 2306 3072 2169 3072 
Q 1681 3072 1420 2755 
Q 1159 2438 1159 1844 
L 1159 0 
L 581 0 
L 581 3500 
L 1159 3500 
L 1159 2956 
Q 1341 3275 1631 3429 
Q 1922 3584 2338 3584 
Q 2397 3584 2469 3576 
Q 2541 3569 2628 3553 
L 2631 2963 
z
" transform="scale(0.015625)"/>
       <path id="DejaVuSans-74" d="M 1172 4494 
L 1172 3500 
L 2356 3500 
L 2356 3053 
L 1172 3053 
L 1172 1153 
Q 1172 725 1289 603 
Q 1406 481 1766 481 
L 2356 481 
L 2356 0 
L 1766 0 
Q 1100 0 847 248 
Q 594 497 594 1153 
L 594 3053 
L 172 3053 
L 172 3500 
L 594 3500 
L 594 4494 
L 1172 4494 
z
" transform="scale(0.015625)"/>
       <path id="DejaVuSans-64" d="M 2906 2969 
L 2906 4863 
L 3481 4863 
L 3481 0 
L 2906 0 
L 2906 525 
Q 2725 213 2448 61 
Q 2172 -91 1784 -91 
Q 1150 -91 751 415 
Q 353 922 353 1747 
Q 353 2572 751 3078 
Q 1150 3584 1784 3584 
Q 2172 3584 2448 3432 
Q 2725 3281 2906 2969 
z
M 947 1747 
Q 947 1113 1208 752 
Q 1469 391 1925 391 
Q 2381 391 2643 752 
Q 2906 1113 2906 1747 
Q 2906 2381 2643 2742 
Q 2381 3103 1925 3103 
Q 1469 3103 1208 2742 
Q 947 2381 947 1747 
z
" transform="scale(0.015625)"/>
       <path id="DejaVuSans-29" d="M 513 4856 
L 1013 4856 
Q 1481 4119 1714 3412 
Q 1947 2706 1947 2009 
Q 1947 1309 1714 600 
Q 1481 -109 1013 -844 
L 513 -844 
Q 928 -128 1133 580 
Q 1338 1288 1338 2009 
Q 1338 2731 1133 3434 
Q 928 4138 513 4856 
z
" transform="scale(0.015625)"/>
      </defs>
      <use xlink:href="#DejaVuSans-45"/>
      <use xlink:href="#DejaVuSans-6e" transform="translate(63.183594 0)"/>
      <use xlink:href="#DejaVuSans-67" transform="translate(126.5625 0)"/>
      <use xlink:href="#DejaVuSans-69" transform="translate(190.039062 0)"/>
      <use xlink:href="#DejaVuSans-6e" transform="translate(217.822266 0)"/>
      <use xlink:href="#DejaVuSans-65" transform="translate(281.201172 0)"/>
      <use xlink:href="#DejaVuSans-20" transform="translate(342.724609 0)"/>
      <use xlink:href="#DejaVuSans-28" transform="translate(374.511719 0)"/>
      <use xlink:href="#DejaVuSans-73" transform="translate(413.525391 0)"/>
      <use xlink:href="#DejaVuSans-6f" transform="translate(465.625 0)"/>
      <use xlink:href="#DejaVuSans-72" transform="translate(526.806641 0)"/>
      <use xlink:href="#DejaVuSans-74" transform="translate(567.919922 0)"/>
      <use xlink:href="#DejaVuSans-65" transform="translate(607.128906 0)"/>
      <use xlink:href="#DejaVuSans-64" transform="translate(668.652344 0)"/>
      <use xlink:href="#DejaVuSans-29" transform="translate(732.128906 0)"/>
     </g>
    </g>
   </g>
   <g id="matplotlib.axis_2">
    <g id="ytick_1">
     <g id="line2d_6">
      <defs>
       <path id="ma4fdf49267" d="M 0 0 
L -3.5 0 
" style="stroke: #000000; stroke-width: 0.8"/>
      </defs>
      <g>
       <use xlink:href="#ma4fdf49267" x="50.87" y="373.532727" style="stroke: #000000; stroke-width: 0.8"/>
      </g>
     </g>
     <g id="text_7">
      <!-- 0 -->
      <g transform="translate(37.5075 377.331946) scale(0.1 -0.1)">
       <use xlink:href="#DejaVuSans-30"/>
      </g>
     </g>
    </g>
    <g id="ytick_2">
     <g id="line2d_7">
      <g>
       <use xlink:href="#ma4fdf49267" x="50.87" y="327.723588" style="stroke: #000000; stroke-width: 0.8"/>
      </g>
     </g>
     <g id="text_8">
      <!-- 20 -->
      <g transform="translate(31.145 331.522806) scale(0.1 -0.1)">
       <use xlink:href="#DejaVuSans-32"/>
       <use xlink:href="#DejaVuSans-30" transform="translate(63.623047 0)"/>
      </g>
     </g>
    </g>
    <g id="ytick_3">
     <g id="line2d_8">
      <g>
       <use xlink:href="#ma4fdf49267" x="50.87" y="281.914448" style="stroke: #000000; stroke-width: 0.8"/>
      </g>
     </g>
     <g id="text_9">
      <!-- 40 -->
      <g transform="translate(31.145 285.713667) scale(0.1 -0.1)">
       <defs>
        <path id="DejaVuSans-34" d="M 2419 4116 
L 825 1625 
L 2419 1625 
L 2419 4116 
z
M 2253 4666 
L 3047 4666 
L 3047 1625 
L 3713 1625 
L 3713 1100 
L 3047 1100 
L 3047 0 
L 2419 0 
L 2419 1100 
L 313 1100 
L 313 1709 
L 2253 4666 
z
" transform="scale(0.015625)"/>
       </defs>
       <use xlink:href="#DejaVuSans-34"/>
       <use xlink:href="#DejaVuSans-30" transform="translate(63.623047 0)"/>
      </g>
     </g>
    </g>
    <g id="ytick_4">
     <g id="line2d_9">
      <g>
       <use xlink:href="#ma4fdf49267" x="50.87" y="236.105308" style="stroke: #000000; stroke-width: 0.8"/>
      </g>
     </g>
     <g id="text_10">
      <!-- 60 -->
      <g transform="translate(31.145 239.904527) scale(0.1 -0.1)">
       <defs>
        <path id="DejaVuSans-36" d="M 2113 2584 
Q 1688 2584 1439 2293 
Q 1191 2003 1191 1497 
Q 1191 994 1439 701 
Q 1688 409 2113 409 
Q 2538 409 2786 701 
Q 3034 994 3034 1497 
Q 3034 2003 2786 2293 
Q 2538 2584 2113 2584 
z
M 3366 4563 
L 3366 3988 
Q 3128 4100 2886 4159 
Q 2644 4219 2406 4219 
Q 1781 4219 1451 3797 
Q 1122 3375 1075 2522 
Q 1259 2794 1537 2939 
Q 1816 3084 2150 3084 
Q 2853 3084 3261 2657 
Q 3669 2231 3669 1497 
Q 3669 778 3244 343 
Q 2819 -91 2113 -91 
Q 1303 -91 875 529 
Q 447 1150 447 2328 
Q 447 3434 972 4092 
Q 1497 4750 2381 4750 
Q 2619 4750 2861 4703 
Q 3103 4656 3366 4563 
z
" transform="scale(0.015625)"/>
       </defs>
       <use xlink:href="#DejaVuSans-36"/>
       <use xlink:href="#DejaVuSans-30" transform="translate(63.623047 0)"/>
      </g>
     </g>
    </g>
    <g id="ytick_5">
     <g id="line2d_10">
      <g>
       <use xlink:href="#ma4fdf49267" x="50.87" y="190.296169" style="stroke: #000000; stroke-width: 0.8"/>
      </g>
     </g>
     <g id="text_11">
      <!-- 80 -->
      <g transform="translate(31.145 194.095387) scale(0.1 -0.1)">
       <defs>
        <path id="DejaVuSans-38" d="M 2034 2216 
Q 1584 2216 1326 1975 
Q 1069 1734 1069 1313 
Q 1069 891 1326 650 
Q 1584 409 2034 409 
Q 2484 409 2743 651 
Q 3003 894 3003 1313 
Q 3003 1734 2745 1975 
Q 2488 2216 2034 2216 
z
M 1403 2484 
Q 997 2584 770 2862 
Q 544 3141 544 3541 
Q 544 4100 942 4425 
Q 1341 4750 2034 4750 
Q 2731 4750 3128 4425 
Q 3525 4100 3525 3541 
Q 3525 3141 3298 2862 
Q 3072 2584 2669 2484 
Q 3125 2378 3379 2068 
Q 3634 1759 3634 1313 
Q 3634 634 3220 271 
Q 2806 -91 2034 -91 
Q 1263 -91 848 271 
Q 434 634 434 1313 
Q 434 1759 690 2068 
Q 947 2378 1403 2484 
z
M 1172 3481 
Q 1172 3119 1398 2916 
Q 1625 2713 2034 2713 
Q 2441 2713 2670 2916 
Q 2900 3119 2900 3481 
Q 2900 3844 2670 4047 
Q 2441 4250 2034 4250 
Q 1625 4250 1398 4047 
Q 1172 3844 1172 3481 
z
" transform="scale(0.015625)"/>
       </defs>
       <use xlink:href="#DejaVuSans-38"/>
       <use xlink:href="#DejaVuSans-30" transform="translate(63.623047 0)"/>
      </g>
     </g>
    </g>
    <g id="ytick_6">
     <g id="line2d_11">
      <g>
       <use xlink:href="#ma4fdf49267" x="50.87" y="144.487029" style="stroke: #000000; stroke-width: 0.8"/>
      </g>
     </g>
     <g id="text_12">
      <!-- 100 -->
      <g transform="translate(24.7825 148.286248) scale(0.1 -0.1)">
       <use xlink:href="#DejaVuSans-31"/>
       <use xlink:href="#DejaVuSans-30" transform="translate(63.623047 0)"/>
       <use xlink:href="#DejaVuSans-30" transform="translate(127.246094 0)"/>
      </g>
     </g>
    </g>
    <g id="ytick_7">
     <g id="line2d_12">
      <g>
       <use xlink:href="#ma4fdf49267" x="50.87" y="98.677889" style="stroke: #000000; stroke-width: 0.8"/>
      </g>
     </g>
     <g id="text_13">
      <!-- 120 -->
      <g transform="translate(24.7825 102.477108) scale(0.1 -0.1)">
       <use xlink:href="#DejaVuSans-31"/>
       <use xlink:href="#DejaVuSans-32" transform="translate(63.623047 0)"/>
       <use xlink:href="#DejaVuSans-30" transform="translate(127.246094 0)"/>
      </g>
     </g>
    </g>
    <g id="ytick_8">
     <g id="line2d_13">
      <g>
       <use xlink:href="#ma4fdf49267" x="50.87" y="52.86875" style="stroke: #000000; stroke-width: 0.8"/>
      </g>
     </g>
     <g id="text_14">
      <!-- 140 -->
      <g transform="translate(24.7825 56.667968) scale(0.1 -0.1)">
       <use xlink:href="#DejaVuSans-31"/>
       <use xlink:href="#DejaVuSans-34" transform="translate(63.623047 0)"/>
       <use xlink:href="#DejaVuSans-30" transform="translate(127.246094 0)"/>
      </g>
     </g>
    </g>
    <g id="text_15">
     <!-- RUL -->
     <g transform="translate(18.702813 218.379531) rotate(-90) scale(0.1 -0.1)">
      <defs>
       <path id="DejaVuSans-52" d="M 2841 2188 
Q 3044 2119 3236 1894 
Q 3428 1669 3622 1275 
L 4263 0 
L 3584 0 
L 2988 1197 
Q 2756 1666 2539 1819 
Q 2322 1972 1947 1972 
L 1259 1972 
L 1259 0 
L 628 0 
L 628 4666 
L 2053 4666 
Q 2853 4666 3247 4331 
Q 3641 3997 3641 3322 
Q 3641 2881 3436 2590 
Q 3231 2300 2841 2188 
z
M 1259 4147 
L 1259 2491 
L 2053 2491 
Q 2509 2491 2742 2702 
Q 2975 2913 2975 3322 
Q 2975 3731 2742 3939 
Q 2509 4147 2053 4147 
L 1259 4147 
z
" transform="scale(0.015625)"/>
       <path id="DejaVuSans-55" d="M 556 4666 
L 1191 4666 
L 1191 1831 
Q 1191 1081 1462 751 
Q 1734 422 2344 422 
Q 2950 422 3222 751 
Q 3494 1081 3494 1831 
L 3494 4666 
L 4128 4666 
L 4128 1753 
Q 4128 841 3676 375 
Q 3225 -91 2344 -91 
Q 1459 -91 1007 375 
Q 556 841 556 1753 
L 556 4666 
z
" transform="scale(0.015625)"/>
       <path id="DejaVuSans-4c" d="M 628 4666 
L 1259 4666 
L 1259 531 
L 3531 531 
L 3531 0 
L 628 0 
L 628 4666 
z
" transform="scale(0.015625)"/>
      </defs>
      <use xlink:href="#DejaVuSans-52"/>
      <use xlink:href="#DejaVuSans-55" transform="translate(69.482422 0)"/>
      <use xlink:href="#DejaVuSans-4c" transform="translate(142.675781 0)"/>
     </g>
    </g>
   </g>
   <g id="line2d_14">
    <path d="M 87.339545 332.304502 
L 90.456601 192.586626 
L 93.573656 130.744287 
L 96.690711 121.582459 
L 99.807766 339.175873 
L 102.924821 87.225604 
L 106.041876 359.789985 
L 109.158932 167.391599 
L 112.275987 348.3377 
L 115.393042 192.586626 
L 118.510097 359.789985 
L 121.627152 206.329368 
L 124.744207 304.819018 
L 127.861263 348.3377 
L 130.978318 288.785819 
L 134.095373 220.072109 
L 137.212428 217.781652 
L 140.329483 323.142674 
L 143.446538 249.84805 
L 146.563594 151.3584 
L 149.680649 350.628157 
L 152.797704 197.16754 
L 155.914759 171.972513 
L 159.031814 87.225604 
L 162.148869 87.225604 
L 165.265925 183.424798 
L 168.38298 194.877083 
L 171.500035 201.748454 
L 174.61709 348.3377 
L 177.734145 252.138507 
L 180.8512 87.225604 
L 183.968256 229.233937 
L 187.085311 144.487029 
L 190.202366 247.557593 
L 193.319421 263.590792 
L 196.436476 288.785819 
L 199.553531 272.75262 
L 202.670587 311.690389 
L 205.787642 332.304502 
L 208.904697 359.789985 
L 212.021752 339.175873 
L 215.138807 117.001545 
L 218.255862 87.225604 
L 221.372918 343.756786 
L 224.489973 94.096975 
L 227.607028 343.756786 
L 230.724083 252.138507 
L 233.841138 254.428964 
L 236.958193 130.744287 
L 240.075249 137.615658 
L 243.192304 87.225604 
L 246.309359 91.806518 
L 249.426414 313.980846 
L 252.543469 206.329368 
L 255.660524 87.225604 
L 258.77758 284.204905 
L 261.894635 284.204905 
L 265.01169 341.46633 
L 268.128745 348.3377 
L 271.2458 96.387432 
L 274.362855 176.553427 
L 277.479911 245.267136 
L 280.596966 110.130174 
L 283.714021 334.594959 
L 286.831076 87.225604 
L 289.948131 135.325201 
L 293.065186 194.877083 
L 296.182242 176.553427 
L 299.299297 149.067943 
L 302.416352 291.076276 
L 305.533407 158.229771 
L 308.650462 254.428964 
L 311.767517 165.101142 
L 314.884573 339.175873 
L 318.001628 87.225604 
L 321.118683 204.038911 
L 324.235738 334.594959 
L 327.352793 265.881249 
L 330.469848 87.225604 
L 333.586904 325.433131 
L 336.703959 192.586626 
L 339.821014 151.3584 
L 342.938069 355.209071 
L 346.055124 352.918614 
L 349.172179 206.329368 
L 352.289235 87.225604 
L 355.40629 151.3584 
L 361.6404 261.300335 
L 364.757455 302.528561 
L 367.87451 151.3584 
L 370.991566 352.918614 
L 374.108621 341.46633 
L 377.225676 355.209071 
L 380.342731 355.209071 
L 383.459786 130.744287 
L 386.576841 107.839717 
L 389.693897 98.677889 
L 392.810952 233.814851 
L 395.928007 87.225604 
L 399.045062 293.366733 
L 402.162117 190.296169 
L 405.279172 352.918614 
L 408.396228 259.009878 
L 411.513283 194.877083 
L 414.630338 165.101142 
L 417.747393 357.499528 
L 420.864448 87.225604 
L 423.981503 87.225604 
L 427.098559 130.744287 
L 430.215614 339.175873 
L 433.332669 220.072109 
L 436.449724 87.225604 
L 439.566779 357.499528 
L 442.683834 87.225604 
L 445.80089 89.516061 
L 448.917945 185.715255 
L 452.035 126.163373 
L 455.152055 192.586626 
L 458.26911 96.387432 
L 461.386166 98.677889 
L 464.503221 284.204905 
L 467.620276 286.495362 
L 470.737331 352.918614 
L 473.854386 87.225604 
L 476.971441 174.26297 
L 480.088497 171.972513 
L 483.205552 357.499528 
L 486.322607 256.719421 
L 489.439662 247.557593 
L 492.556717 87.225604 
L 495.673772 265.881249 
L 498.790828 188.005712 
L 501.907883 275.043077 
L 505.024938 149.067943 
L 508.141993 350.628157 
L 511.259048 162.810685 
L 514.376103 348.3377 
L 517.493159 87.225604 
L 520.610214 295.65719 
L 523.727269 110.130174 
L 526.844324 238.395765 
L 529.961379 146.777486 
L 533.078434 137.615658 
L 536.19549 126.163373 
L 539.312545 183.424798 
L 542.4296 87.225604 
L 545.546655 339.175873 
L 548.66371 352.918614 
L 551.780765 277.333534 
L 554.897821 343.756786 
L 558.014876 279.623991 
L 561.131931 171.972513 
L 564.248986 341.46633 
L 567.366041 87.225604 
L 570.483096 153.648857 
L 573.600152 185.715255 
L 576.717207 87.225604 
L 579.834262 87.225604 
L 582.951317 291.076276 
L 586.068372 128.45383 
L 589.185427 341.46633 
L 592.302483 155.939314 
L 595.419538 87.225604 
L 598.536593 320.852217 
L 601.653648 359.789985 
L 604.770703 87.225604 
L 607.887758 293.366733 
L 611.004814 151.3584 
L 614.121869 217.781652 
L 617.238924 341.46633 
L 620.355979 220.072109 
L 623.473034 87.225604 
L 626.590089 330.014045 
L 629.707145 350.628157 
L 632.8242 87.225604 
L 635.941255 87.225604 
L 639.05831 275.043077 
L 642.175365 346.047243 
L 645.29242 87.225604 
L 648.409476 343.756786 
L 651.526531 288.785819 
L 654.643586 94.096975 
L 657.760641 190.296169 
L 660.877696 160.520228 
L 663.994751 87.225604 
L 667.111807 300.238104 
L 670.228862 137.615658 
L 673.345917 87.225604 
L 676.462972 217.781652 
L 679.580027 87.225604 
L 682.697082 263.590792 
L 685.814138 178.843884 
L 688.931193 355.209071 
L 692.048248 320.852217 
L 695.165303 355.209071 
L 698.282358 359.789985 
L 701.399413 242.976679 
L 704.516469 183.424798 
L 707.633524 87.225604 
L 710.750579 142.196572 
L 713.867634 188.005712 
L 716.984689 206.329368 
L 720.101744 96.387432 
L 723.2188 87.225604 
L 726.335855 201.748454 
L 729.45291 348.3377 
L 732.569965 126.163373 
L 735.68702 341.46633 
L 738.804075 233.814851 
L 741.921131 178.843884 
L 745.038186 355.209071 
L 748.155241 142.196572 
L 751.272296 169.682056 
L 754.389351 87.225604 
L 757.506406 346.047243 
L 760.623462 231.524394 
L 763.740517 87.225604 
L 766.857572 142.196572 
L 769.974627 96.387432 
L 773.091682 334.594959 
L 776.208737 336.885416 
L 779.325793 87.225604 
L 782.442848 87.225604 
L 785.559903 245.267136 
L 788.676958 320.852217 
L 791.794013 181.134341 
L 794.911068 346.047243 
L 798.028124 275.043077 
L 801.145179 263.590792 
L 804.262234 94.096975 
L 807.379289 87.225604 
L 810.496344 245.267136 
L 813.613399 87.225604 
L 816.730455 256.719421 
L 816.730455 256.719421 
" clip-path="url(#p5df2638768)" style="fill: none; stroke: #1f77b4; stroke-width: 1.5; stroke-linecap: square"/>
   </g>
   <g id="line2d_15">
    <path d="M 87.339545 326.120795 
L 90.456601 134.94799 
L 93.573656 110.66707 
L 96.690711 179.967059 
L 99.807766 330.049741 
L 102.924821 106.992259 
L 106.041876 347.762212 
L 109.158932 186.705307 
L 112.275987 339.598972 
L 115.393042 150.043089 
L 118.510097 349.178256 
L 121.627152 109.575489 
L 124.744207 307.861909 
L 127.861263 345.625485 
L 130.978318 280.091389 
L 134.095373 197.307268 
L 137.212428 215.116431 
L 140.329483 308.882595 
L 143.446538 238.734846 
L 146.563594 148.595582 
L 149.680649 329.004058 
L 152.797704 216.376224 
L 155.914759 166.433071 
L 159.031814 109.927624 
L 162.148869 102.054091 
L 168.38298 215.146907 
L 171.500035 138.081921 
L 174.61709 329.176421 
L 177.734145 193.753802 
L 180.8512 96.051497 
L 183.968256 169.056633 
L 187.085311 173.306609 
L 190.202366 216.731994 
L 193.319421 240.520911 
L 196.436476 280.226802 
L 199.553531 276.393398 
L 202.670587 298.190573 
L 205.787642 308.779921 
L 208.904697 339.998584 
L 212.021752 325.527713 
L 215.138807 106.64846 
L 218.255862 125.34522 
L 221.372918 323.53507 
L 224.489973 147.248781 
L 227.607028 333.803892 
L 230.724083 244.356498 
L 233.841138 217.768284 
L 236.958193 146.349773 
L 240.075249 117.405178 
L 243.192304 95.633237 
L 246.309359 107.842094 
L 249.426414 310.980042 
L 252.543469 167.454928 
L 255.660524 140.485544 
L 258.77758 281.494275 
L 261.894635 272.52612 
L 265.01169 338.612664 
L 268.128745 341.418186 
L 271.2458 112.530897 
L 274.362855 173.36833 
L 277.479911 253.434045 
L 280.596966 119.239753 
L 283.714021 332.52343 
L 286.831076 99.037626 
L 289.948131 145.62172 
L 293.065186 201.545886 
L 296.182242 118.170592 
L 299.299297 192.430611 
L 302.416352 282.35601 
L 305.533407 195.767214 
L 308.650462 243.601797 
L 311.767517 150.185876 
L 314.884573 338.608693 
L 318.001628 121.186375 
L 321.118683 147.215999 
L 324.235738 330.829458 
L 327.352793 268.716981 
L 330.469848 125.348715 
L 333.586904 324.983115 
L 336.703959 168.717325 
L 339.821014 134.002883 
L 342.938069 338.94789 
L 346.055124 349.231095 
L 349.172179 172.71963 
L 352.289235 116.850982 
L 355.40629 133.447971 
L 358.523345 125.787647 
L 361.6404 255.601366 
L 364.757455 320.803244 
L 367.87451 133.432575 
L 370.991566 345.196212 
L 374.108621 332.733137 
L 377.225676 345.891718 
L 380.342731 348.022949 
L 383.459786 126.339764 
L 386.576841 101.334968 
L 389.693897 142.878788 
L 392.810952 238.914251 
L 395.928007 136.861026 
L 399.045062 286.859458 
L 402.162117 220.842136 
L 405.279172 337.961503 
L 408.396228 163.585937 
L 411.513283 137.819135 
L 414.630338 229.837036 
L 417.747393 351.507391 
L 420.864448 104.924676 
L 423.981503 127.617836 
L 427.098559 131.700438 
L 430.215614 328.869563 
L 433.332669 161.653713 
L 436.449724 120.429262 
L 439.566779 344.085623 
L 442.683834 112.948807 
L 445.80089 148.031792 
L 448.917945 217.743854 
L 452.035 156.957046 
L 455.152055 208.046861 
L 458.26911 103.170818 
L 461.386166 117.647763 
L 464.503221 259.965156 
L 467.620276 244.427708 
L 470.737331 346.961949 
L 473.854386 104.021229 
L 480.088497 190.975519 
L 483.205552 349.602052 
L 486.322607 227.543827 
L 489.439662 251.320486 
L 492.556717 119.402757 
L 495.673772 280.79607 
L 498.790828 182.95324 
L 501.907883 276.694105 
L 505.024938 133.474078 
L 508.141993 345.392192 
L 511.259048 114.271265 
L 514.376103 334.892519 
L 517.493159 108.268828 
L 520.610214 303.878782 
L 523.727269 163.06365 
L 526.844324 229.965747 
L 529.961379 153.877777 
L 533.078434 106.21886 
L 536.19549 117.533338 
L 539.312545 98.289687 
L 542.4296 104.451231 
L 545.546655 323.717477 
L 548.66371 348.19546 
L 551.780765 272.011208 
L 554.897821 325.190982 
L 558.014876 255.711178 
L 561.131931 142.480363 
L 564.248986 341.434888 
L 567.366041 115.736195 
L 570.483096 155.851748 
L 573.600152 160.353099 
L 576.717207 118.344099 
L 579.834262 135.257539 
L 582.951317 304.675554 
L 586.068372 122.215519 
L 589.185427 332.695714 
L 592.302483 145.223312 
L 595.419538 100.54453 
L 598.536593 312.985416 
L 601.653648 345.462157 
L 604.770703 113.497603 
L 607.887758 279.97347 
L 611.004814 171.548399 
L 614.121869 236.57061 
L 617.238924 338.156867 
L 620.355979 225.268923 
L 623.473034 94.582128 
L 626.590089 339.547219 
L 629.707145 348.411877 
L 632.8242 108.704965 
L 635.941255 103.825336 
L 639.05831 253.550855 
L 642.175365 334.39876 
L 645.29242 124.368641 
L 648.409476 326.537481 
L 651.526531 280.992818 
L 654.643586 104.804082 
L 657.760641 231.243172 
L 660.877696 108.161061 
L 663.994751 103.216479 
L 667.111807 274.776167 
L 670.228862 106.615468 
L 673.345917 109.922469 
L 676.462972 159.397 
L 679.580027 101.576469 
L 682.697082 255.207886 
L 685.814138 115.929676 
L 688.931193 340.81365 
L 692.048248 296.35682 
L 695.165303 347.978606 
L 698.282358 347.834033 
L 701.399413 219.829524 
L 704.516469 142.408367 
L 707.633524 129.082137 
L 710.750579 111.834928 
L 713.867634 166.294042 
L 716.984689 171.949481 
L 720.101744 101.120132 
L 723.2188 146.038337 
L 726.335855 223.958837 
L 729.45291 345.300532 
L 732.569965 183.374645 
L 735.68702 343.250306 
L 738.804075 153.878598 
L 741.921131 121.057097 
L 745.038186 341.161945 
L 748.155241 202.870912 
L 751.272296 171.026043 
L 754.389351 106.141813 
L 757.506406 329.442422 
L 760.623462 234.352682 
L 763.740517 98.569738 
L 766.857572 123.667867 
L 769.974627 118.813542 
L 773.091682 336.965074 
L 776.208737 340.110857 
L 779.325793 120.016455 
L 782.442848 102.160075 
L 785.559903 232.387204 
L 788.676958 336.031138 
L 791.794013 112.300684 
L 794.911068 341.3528 
L 798.028124 285.725492 
L 801.145179 268.482408 
L 804.262234 111.922599 
L 807.379289 124.322385 
L 810.496344 248.578515 
L 813.613399 113.075971 
L 816.730455 210.517203 
L 816.730455 210.517203 
" clip-path="url(#p5df2638768)" style="fill: none; stroke-dasharray: 5.55,2.4; stroke-dashoffset: 0; stroke: #ff7f0e; stroke-width: 1.5"/>
    <defs>
     <path id="m0403be39af" d="M 0 1.5 
C 0.397805 1.5 0.77937 1.341951 1.06066 1.06066 
C 1.341951 0.77937 1.5 0.397805 1.5 0 
C 1.5 -0.397805 1.341951 -0.77937 1.06066 -1.06066 
C 0.77937 -1.341951 0.397805 -1.5 0 -1.5 
C -0.397805 -1.5 -0.77937 -1.341951 -1.06066 -1.06066 
C -1.341951 -0.77937 -1.5 -0.397805 -1.5 0 
C -1.5 0.397805 -1.341951 0.77937 -1.06066 1.06066 
C -0.77937 1.341951 -0.397805 1.5 0 1.5 
z
" style="stroke: #ff7f0e"/>
    </defs>
    <g clip-path="url(#p5df2638768)">
     <use xlink:href="#m0403be39af" x="87.339545" y="326.120795" style="fill: #ff7f0e; stroke: #ff7f0e"/>
     <use xlink:href="#m0403be39af" x="90.456601" y="134.94799" style="fill: #ff7f0e; stroke: #ff7f0e"/>
     <use xlink:href="#m0403be39af" x="93.573656" y="110.66707" style="fill: #ff7f0e; stroke: #ff7f0e"/>
     <use xlink:href="#m0403be39af" x="96.690711" y="179.967059" style="fill: #ff7f0e; stroke: #ff7f0e"/>
     <use xlink:href="#m0403be39af" x="99.807766" y="330.049741" style="fill: #ff7f0e; stroke: #ff7f0e"/>
     <use xlink:href="#m0403be39af" x="102.924821" y="106.992259" style="fill: #ff7f0e; stroke: #ff7f0e"/>
     <use xlink:href="#m0403be39af" x="106.041876" y="347.762212" style="fill: #ff7f0e; stroke: #ff7f0e"/>
     <use xlink:href="#m0403be39af" x="109.158932" y="186.705307" style="fill: #ff7f0e; stroke: #ff7f0e"/>
     <use xlink:href="#m0403be39af" x="112.275987" y="339.598972" style="fill: #ff7f0e; stroke: #ff7f0e"/>
     <use xlink:href="#m0403be39af" x="115.393042" y="150.043089" style="fill: #ff7f0e; stroke: #ff7f0e"/>
     <use xlink:href="#m0403be39af" x="118.510097" y="349.178256" style="fill: #ff7f0e; stroke: #ff7f0e"/>
     <use xlink:href="#m0403be39af" x="121.627152" y="109.575489" style="fill: #ff7f0e; stroke: #ff7f0e"/>
     <use xlink:href="#m0403be39af" x="124.744207" y="307.861909" style="fill: #ff7f0e; stroke: #ff7f0e"/>
     <use xlink:href="#m0403be39af" x="127.861263" y="345.625485" style="fill: #ff7f0e; stroke: #ff7f0e"/>
     <use xlink:href="#m0403be39af" x="130.978318" y="280.091389" style="fill: #ff7f0e; stroke: #ff7f0e"/>
     <use xlink:href="#m0403be39af" x="134.095373" y="197.307268" style="fill: #ff7f0e; stroke: #ff7f0e"/>
     <use xlink:href="#m0403be39af" x="137.212428" y="215.116431" style="fill: #ff7f0e; stroke: #ff7f0e"/>
     <use xlink:href="#m0403be39af" x="140.329483" y="308.882595" style="fill: #ff7f0e; stroke: #ff7f0e"/>
     <use xlink:href="#m0403be39af" x="143.446538" y="238.734846" style="fill: #ff7f0e; stroke: #ff7f0e"/>
     <use xlink:href="#m0403be39af" x="146.563594" y="148.595582" style="fill: #ff7f0e; stroke: #ff7f0e"/>
     <use xlink:href="#m0403be39af" x="149.680649" y="329.004058" style="fill: #ff7f0e; stroke: #ff7f0e"/>
     <use xlink:href="#m0403be39af" x="152.797704" y="216.376224" style="fill: #ff7f0e; stroke: #ff7f0e"/>
     <use xlink:href="#m0403be39af" x="155.914759" y="166.433071" style="fill: #ff7f0e; stroke: #ff7f0e"/>
     <use xlink:href="#m0403be39af" x="159.031814" y="109.927624" style="fill: #ff7f0e; stroke: #ff7f0e"/>
     <use xlink:href="#m0403be39af" x="162.148869" y="102.054091" style="fill: #ff7f0e; stroke: #ff7f0e"/>
     <use xlink:href="#m0403be39af" x="165.265925" y="159.622827" style="fill: #ff7f0e; stroke: #ff7f0e"/>
     <use xlink:href="#m0403be39af" x="168.38298" y="215.146907" style="fill: #ff7f0e; stroke: #ff7f0e"/>
     <use xlink:href="#m0403be39af" x="171.500035" y="138.081921" style="fill: #ff7f0e; stroke: #ff7f0e"/>
     <use xlink:href="#m0403be39af" x="174.61709" y="329.176421" style="fill: #ff7f0e; stroke: #ff7f0e"/>
     <use xlink:href="#m0403be39af" x="177.734145" y="193.753802" style="fill: #ff7f0e; stroke: #ff7f0e"/>
     <use xlink:href="#m0403be39af" x="180.8512" y="96.051497" style="fill: #ff7f0e; stroke: #ff7f0e"/>
     <use xlink:href="#m0403be39af" x="183.968256" y="169.056633" style="fill: #ff7f0e; stroke: #ff7f0e"/>
     <use xlink:href="#m0403be39af" x="187.085311" y="173.306609" style="fill: #ff7f0e; stroke: #ff7f0e"/>
     <use xlink:href="#m0403be39af" x="190.202366" y="216.731994" style="fill: #ff7f0e; stroke: #ff7f0e"/>
     <use xlink:href="#m0403be39af" x="193.319421" y="240.520911" style="fill: #ff7f0e; stroke: #ff7f0e"/>
     <use xlink:href="#m0403be39af" x="196.436476" y="280.226802" style="fill: #ff7f0e; stroke: #ff7f0e"/>
     <use xlink:href="#m0403be39af" x="199.553531" y="276.393398" style="fill: #ff7f0e; stroke: #ff7f0e"/>
     <use xlink:href="#m0403be39af" x="202.670587" y="298.190573" style="fill: #ff7f0e; stroke: #ff7f0e"/>
     <use xlink:href="#m0403be39af" x="205.787642" y="308.779921" style="fill: #ff7f0e; stroke: #ff7f0e"/>
     <use xlink:href="#m0403be39af" x="208.904697" y="339.998584" style="fill: #ff7f0e; stroke: #ff7f0e"/>
     <use xlink:href="#m0403be39af" x="212.021752" y="325.527713" style="fill: #ff7f0e; stroke: #ff7f0e"/>
     <use xlink:href="#m0403be39af" x="215.138807" y="106.64846" style="fill: #ff7f0e; stroke: #ff7f0e"/>
     <use xlink:href="#m0403be39af" x="218.255862" y="125.34522" style="fill: #ff7f0e; stroke: #ff7f0e"/>
     <use xlink:href="#m0403be39af" x="221.372918" y="323.53507" style="fill: #ff7f0e; stroke: #ff7f0e"/>
     <use xlink:href="#m0403be39af" x="224.489973" y="147.248781" style="fill: #ff7f0e; stroke: #ff7f0e"/>
     <use xlink:href="#m0403be39af" x="227.607028" y="333.803892" style="fill: #ff7f0e; stroke: #ff7f0e"/>
     <use xlink:href="#m0403be39af" x="230.724083" y="244.356498" style="fill: #ff7f0e; stroke: #ff7f0e"/>
     <use xlink:href="#m0403be39af" x="233.841138" y="217.768284" style="fill: #ff7f0e; stroke: #ff7f0e"/>
     <use xlink:href="#m0403be39af" x="236.958193" y="146.349773" style="fill: #ff7f0e; stroke: #ff7f0e"/>
     <use xlink:href="#m0403be39af" x="240.075249" y="117.405178" style="fill: #ff7f0e; stroke: #ff7f0e"/>
     <use xlink:href="#m0403be39af" x="243.192304" y="95.633237" style="fill: #ff7f0e; stroke: #ff7f0e"/>
     <use xlink:href="#m0403be39af" x="246.309359" y="107.842094" style="fill: #ff7f0e; stroke: #ff7f0e"/>
     <use xlink:href="#m0403be39af" x="249.426414" y="310.980042" style="fill: #ff7f0e; stroke: #ff7f0e"/>
     <use xlink:href="#m0403be39af" x="252.543469" y="167.454928" style="fill: #ff7f0e; stroke: #ff7f0e"/>
     <use xlink:href="#m0403be39af" x="255.660524" y="140.485544" style="fill: #ff7f0e; stroke: #ff7f0e"/>
     <use xlink:href="#m0403be39af" x="258.77758" y="281.494275" style="fill: #ff7f0e; stroke: #ff7f0e"/>
     <use xlink:href="#m0403be39af" x="261.894635" y="272.52612" style="fill: #ff7f0e; stroke: #ff7f0e"/>
     <use xlink:href="#m0403be39af" x="265.01169" y="338.612664" style="fill: #ff7f0e; stroke: #ff7f0e"/>
     <use xlink:href="#m0403be39af" x="268.128745" y="341.418186" style="fill: #ff7f0e; stroke: #ff7f0e"/>
     <use xlink:href="#m0403be39af" x="271.2458" y="112.530897" style="fill: #ff7f0e; stroke: #ff7f0e"/>
     <use xlink:href="#m0403be39af" x="274.362855" y="173.36833" style="fill: #ff7f0e; stroke: #ff7f0e"/>
     <use xlink:href="#m0403be39af" x="277.479911" y="253.434045" style="fill: #ff7f0e; stroke: #ff7f0e"/>
     <use xlink:href="#m0403be39af" x="280.596966" y="119.239753" style="fill: #ff7f0e; stroke: #ff7f0e"/>
     <use xlink:href="#m0403be39af" x="283.714021" y="332.52343" style="fill: #ff7f0e; stroke: #ff7f0e"/>
     <use xlink:href="#m0403be39af" x="286.831076" y="99.037626" style="fill: #ff7f0e; stroke: #ff7f0e"/>
     <use xlink:href="#m0403be39af" x="289.948131" y="145.62172" style="fill: #ff7f0e; stroke: #ff7f0e"/>
     <use xlink:href="#m0403be39af" x="293.065186" y="201.545886" style="fill: #ff7f0e; stroke: #ff7f0e"/>
     <use xlink:href="#m0403be39af" x="296.182242" y="118.170592" style="fill: #ff7f0e; stroke: #ff7f0e"/>
     <use xlink:href="#m0403be39af" x="299.299297" y="192.430611" style="fill: #ff7f0e; stroke: #ff7f0e"/>
     <use xlink:href="#m0403be39af" x="302.416352" y="282.35601" style="fill: #ff7f0e; stroke: #ff7f0e"/>
     <use xlink:href="#m0403be39af" x="305.533407" y="195.767214" style="fill: #ff7f0e; stroke: #ff7f0e"/>
     <use xlink:href="#m0403be39af" x="308.650462" y="243.601797" style="fill: #ff7f0e; stroke: #ff7f0e"/>
     <use xlink:href="#m0403be39af" x="311.767517" y="150.185876" style="fill: #ff7f0e; stroke: #ff7f0e"/>
     <use xlink:href="#m0403be39af" x="314.884573" y="338.608693" style="fill: #ff7f0e; stroke: #ff7f0e"/>
     <use xlink:href="#m0403be39af" x="318.001628" y="121.186375" style="fill: #ff7f0e; stroke: #ff7f0e"/>
     <use xlink:href="#m0403be39af" x="321.118683" y="147.215999" style="fill: #ff7f0e; stroke: #ff7f0e"/>
     <use xlink:href="#m0403be39af" x="324.235738" y="330.829458" style="fill: #ff7f0e; stroke: #ff7f0e"/>
     <use xlink:href="#m0403be39af" x="327.352793" y="268.716981" style="fill: #ff7f0e; stroke: #ff7f0e"/>
     <use xlink:href="#m0403be39af" x="330.469848" y="125.348715" style="fill: #ff7f0e; stroke: #ff7f0e"/>
     <use xlink:href="#m0403be39af" x="333.586904" y="324.983115" style="fill: #ff7f0e; stroke: #ff7f0e"/>
     <use xlink:href="#m0403be39af" x="336.703959" y="168.717325" style="fill: #ff7f0e; stroke: #ff7f0e"/>
     <use xlink:href="#m0403be39af" x="339.821014" y="134.002883" style="fill: #ff7f0e; stroke: #ff7f0e"/>
     <use xlink:href="#m0403be39af" x="342.938069" y="338.94789" style="fill: #ff7f0e; stroke: #ff7f0e"/>
     <use xlink:href="#m0403be39af" x="346.055124" y="349.231095" style="fill: #ff7f0e; stroke: #ff7f0e"/>
     <use xlink:href="#m0403be39af" x="349.172179" y="172.71963" style="fill: #ff7f0e; stroke: #ff7f0e"/>
     <use xlink:href="#m0403be39af" x="352.289235" y="116.850982" style="fill: #ff7f0e; stroke: #ff7f0e"/>
     <use xlink:href="#m0403be39af" x="355.40629" y="133.447971" style="fill: #ff7f0e; stroke: #ff7f0e"/>
     <use xlink:href="#m0403be39af" x="358.523345" y="125.787647" style="fill: #ff7f0e; stroke: #ff7f0e"/>
     <use xlink:href="#m0403be39af" x="361.6404" y="255.601366" style="fill: #ff7f0e; stroke: #ff7f0e"/>
     <use xlink:href="#m0403be39af" x="364.757455" y="320.803244" style="fill: #ff7f0e; stroke: #ff7f0e"/>
     <use xlink:href="#m0403be39af" x="367.87451" y="133.432575" style="fill: #ff7f0e; stroke: #ff7f0e"/>
     <use xlink:href="#m0403be39af" x="370.991566" y="345.196212" style="fill: #ff7f0e; stroke: #ff7f0e"/>
     <use xlink:href="#m0403be39af" x="374.108621" y="332.733137" style="fill: #ff7f0e; stroke: #ff7f0e"/>
     <use xlink:href="#m0403be39af" x="377.225676" y="345.891718" style="fill: #ff7f0e; stroke: #ff7f0e"/>
     <use xlink:href="#m0403be39af" x="380.342731" y="348.022949" style="fill: #ff7f0e; stroke: #ff7f0e"/>
     <use xlink:href="#m0403be39af" x="383.459786" y="126.339764" style="fill: #ff7f0e; stroke: #ff7f0e"/>
     <use xlink:href="#m0403be39af" x="386.576841" y="101.334968" style="fill: #ff7f0e; stroke: #ff7f0e"/>
     <use xlink:href="#m0403be39af" x="389.693897" y="142.878788" style="fill: #ff7f0e; stroke: #ff7f0e"/>
     <use xlink:href="#m0403be39af" x="392.810952" y="238.914251" style="fill: #ff7f0e; stroke: #ff7f0e"/>
     <use xlink:href="#m0403be39af" x="395.928007" y="136.861026" style="fill: #ff7f0e; stroke: #ff7f0e"/>
     <use xlink:href="#m0403be39af" x="399.045062" y="286.859458" style="fill: #ff7f0e; stroke: #ff7f0e"/>
     <use xlink:href="#m0403be39af" x="402.162117" y="220.842136" style="fill: #ff7f0e; stroke: #ff7f0e"/>
     <use xlink:href="#m0403be39af" x="405.279172" y="337.961503" style="fill: #ff7f0e; stroke: #ff7f0e"/>
     <use xlink:href="#m0403be39af" x="408.396228" y="163.585937" style="fill: #ff7f0e; stroke: #ff7f0e"/>
     <use xlink:href="#m0403be39af" x="411.513283" y="137.819135" style="fill: #ff7f0e; stroke: #ff7f0e"/>
     <use xlink:href="#m0403be39af" x="414.630338" y="229.837036" style="fill: #ff7f0e; stroke: #ff7f0e"/>
     <use xlink:href="#m0403be39af" x="417.747393" y="351.507391" style="fill: #ff7f0e; stroke: #ff7f0e"/>
     <use xlink:href="#m0403be39af" x="420.864448" y="104.924676" style="fill: #ff7f0e; stroke: #ff7f0e"/>
     <use xlink:href="#m0403be39af" x="423.981503" y="127.617836" style="fill: #ff7f0e; stroke: #ff7f0e"/>
     <use xlink:href="#m0403be39af" x="427.098559" y="131.700438" style="fill: #ff7f0e; stroke: #ff7f0e"/>
     <use xlink:href="#m0403be39af" x="430.215614" y="328.869563" style="fill: #ff7f0e; stroke: #ff7f0e"/>
     <use xlink:href="#m0403be39af" x="433.332669" y="161.653713" style="fill: #ff7f0e; stroke: #ff7f0e"/>
     <use xlink:href="#m0403be39af" x="436.449724" y="120.429262" style="fill: #ff7f0e; stroke: #ff7f0e"/>
     <use xlink:href="#m0403be39af" x="439.566779" y="344.085623" style="fill: #ff7f0e; stroke: #ff7f0e"/>
     <use xlink:href="#m0403be39af" x="442.683834" y="112.948807" style="fill: #ff7f0e; stroke: #ff7f0e"/>
     <use xlink:href="#m0403be39af" x="445.80089" y="148.031792" style="fill: #ff7f0e; stroke: #ff7f0e"/>
     <use xlink:href="#m0403be39af" x="448.917945" y="217.743854" style="fill: #ff7f0e; stroke: #ff7f0e"/>
     <use xlink:href="#m0403be39af" x="452.035" y="156.957046" style="fill: #ff7f0e; stroke: #ff7f0e"/>
     <use xlink:href="#m0403be39af" x="455.152055" y="208.046861" style="fill: #ff7f0e; stroke: #ff7f0e"/>
     <use xlink:href="#m0403be39af" x="458.26911" y="103.170818" style="fill: #ff7f0e; stroke: #ff7f0e"/>
     <use xlink:href="#m0403be39af" x="461.386166" y="117.647763" style="fill: #ff7f0e; stroke: #ff7f0e"/>
     <use xlink:href="#m0403be39af" x="464.503221" y="259.965156" style="fill: #ff7f0e; stroke: #ff7f0e"/>
     <use xlink:href="#m0403be39af" x="467.620276" y="244.427708" style="fill: #ff7f0e; stroke: #ff7f0e"/>
     <use xlink:href="#m0403be39af" x="470.737331" y="346.961949" style="fill: #ff7f0e; stroke: #ff7f0e"/>
     <use xlink:href="#m0403be39af" x="473.854386" y="104.021229" style="fill: #ff7f0e; stroke: #ff7f0e"/>
     <use xlink:href="#m0403be39af" x="476.971441" y="147.120866" style="fill: #ff7f0e; stroke: #ff7f0e"/>
     <use xlink:href="#m0403be39af" x="480.088497" y="190.975519" style="fill: #ff7f0e; stroke: #ff7f0e"/>
     <use xlink:href="#m0403be39af" x="483.205552" y="349.602052" style="fill: #ff7f0e; stroke: #ff7f0e"/>
     <use xlink:href="#m0403be39af" x="486.322607" y="227.543827" style="fill: #ff7f0e; stroke: #ff7f0e"/>
     <use xlink:href="#m0403be39af" x="489.439662" y="251.320486" style="fill: #ff7f0e; stroke: #ff7f0e"/>
     <use xlink:href="#m0403be39af" x="492.556717" y="119.402757" style="fill: #ff7f0e; stroke: #ff7f0e"/>
     <use xlink:href="#m0403be39af" x="495.673772" y="280.79607" style="fill: #ff7f0e; stroke: #ff7f0e"/>
     <use xlink:href="#m0403be39af" x="498.790828" y="182.95324" style="fill: #ff7f0e; stroke: #ff7f0e"/>
     <use xlink:href="#m0403be39af" x="501.907883" y="276.694105" style="fill: #ff7f0e; stroke: #ff7f0e"/>
     <use xlink:href="#m0403be39af" x="505.024938" y="133.474078" style="fill: #ff7f0e; stroke: #ff7f0e"/>
     <use xlink:href="#m0403be39af" x="508.141993" y="345.392192" style="fill: #ff7f0e; stroke: #ff7f0e"/>
     <use xlink:href="#m0403be39af" x="511.259048" y="114.271265" style="fill: #ff7f0e; stroke: #ff7f0e"/>
     <use xlink:href="#m0403be39af" x="514.376103" y="334.892519" style="fill: #ff7f0e; stroke: #ff7f0e"/>
     <use xlink:href="#m0403be39af" x="517.493159" y="108.268828" style="fill: #ff7f0e; stroke: #ff7f0e"/>
     <use xlink:href="#m0403be39af" x="520.610214" y="303.878782" style="fill: #ff7f0e; stroke: #ff7f0e"/>
     <use xlink:href="#m0403be39af" x="523.727269" y="163.06365" style="fill: #ff7f0e; stroke: #ff7f0e"/>
     <use xlink:href="#m0403be39af" x="526.844324" y="229.965747" style="fill: #ff7f0e; stroke: #ff7f0e"/>
     <use xlink:href="#m0403be39af" x="529.961379" y="153.877777" style="fill: #ff7f0e; stroke: #ff7f0e"/>
     <use xlink:href="#m0403be39af" x="533.078434" y="106.21886" style="fill: #ff7f0e; stroke: #ff7f0e"/>
     <use xlink:href="#m0403be39af" x="536.19549" y="117.533338" style="fill: #ff7f0e; stroke: #ff7f0e"/>
     <use xlink:href="#m0403be39af" x="539.312545" y="98.289687" style="fill: #ff7f0e; stroke: #ff7f0e"/>
     <use xlink:href="#m0403be39af" x="542.4296" y="104.451231" style="fill: #ff7f0e; stroke: #ff7f0e"/>
     <use xlink:href="#m0403be39af" x="545.546655" y="323.717477" style="fill: #ff7f0e; stroke: #ff7f0e"/>
     <use xlink:href="#m0403be39af" x="548.66371" y="348.19546" style="fill: #ff7f0e; stroke: #ff7f0e"/>
     <use xlink:href="#m0403be39af" x="551.780765" y="272.011208" style="fill: #ff7f0e; stroke: #ff7f0e"/>
     <use xlink:href="#m0403be39af" x="554.897821" y="325.190982" style="fill: #ff7f0e; stroke: #ff7f0e"/>
     <use xlink:href="#m0403be39af" x="558.014876" y="255.711178" style="fill: #ff7f0e; stroke: #ff7f0e"/>
     <use xlink:href="#m0403be39af" x="561.131931" y="142.480363" style="fill: #ff7f0e; stroke: #ff7f0e"/>
     <use xlink:href="#m0403be39af" x="564.248986" y="341.434888" style="fill: #ff7f0e; stroke: #ff7f0e"/>
     <use xlink:href="#m0403be39af" x="567.366041" y="115.736195" style="fill: #ff7f0e; stroke: #ff7f0e"/>
     <use xlink:href="#m0403be39af" x="570.483096" y="155.851748" style="fill: #ff7f0e; stroke: #ff7f0e"/>
     <use xlink:href="#m0403be39af" x="573.600152" y="160.353099" style="fill: #ff7f0e; stroke: #ff7f0e"/>
     <use xlink:href="#m0403be39af" x="576.717207" y="118.344099" style="fill: #ff7f0e; stroke: #ff7f0e"/>
     <use xlink:href="#m0403be39af" x="579.834262" y="135.257539" style="fill: #ff7f0e; stroke: #ff7f0e"/>
     <use xlink:href="#m0403be39af" x="582.951317" y="304.675554" style="fill: #ff7f0e; stroke: #ff7f0e"/>
     <use xlink:href="#m0403be39af" x="586.068372" y="122.215519" style="fill: #ff7f0e; stroke: #ff7f0e"/>
     <use xlink:href="#m0403be39af" x="589.185427" y="332.695714" style="fill: #ff7f0e; stroke: #ff7f0e"/>
     <use xlink:href="#m0403be39af" x="592.302483" y="145.223312" style="fill: #ff7f0e; stroke: #ff7f0e"/>
     <use xlink:href="#m0403be39af" x="595.419538" y="100.54453" style="fill: #ff7f0e; stroke: #ff7f0e"/>
     <use xlink:href="#m0403be39af" x="598.536593" y="312.985416" style="fill: #ff7f0e; stroke: #ff7f0e"/>
     <use xlink:href="#m0403be39af" x="601.653648" y="345.462157" style="fill: #ff7f0e; stroke: #ff7f0e"/>
     <use xlink:href="#m0403be39af" x="604.770703" y="113.497603" style="fill: #ff7f0e; stroke: #ff7f0e"/>
     <use xlink:href="#m0403be39af" x="607.887758" y="279.97347" style="fill: #ff7f0e; stroke: #ff7f0e"/>
     <use xlink:href="#m0403be39af" x="611.004814" y="171.548399" style="fill: #ff7f0e; stroke: #ff7f0e"/>
     <use xlink:href="#m0403be39af" x="614.121869" y="236.57061" style="fill: #ff7f0e; stroke: #ff7f0e"/>
     <use xlink:href="#m0403be39af" x="617.238924" y="338.156867" style="fill: #ff7f0e; stroke: #ff7f0e"/>
     <use xlink:href="#m0403be39af" x="620.355979" y="225.268923" style="fill: #ff7f0e; stroke: #ff7f0e"/>
     <use xlink:href="#m0403be39af" x="623.473034" y="94.582128" style="fill: #ff7f0e; stroke: #ff7f0e"/>
     <use xlink:href="#m0403be39af" x="626.590089" y="339.547219" style="fill: #ff7f0e; stroke: #ff7f0e"/>
     <use xlink:href="#m0403be39af" x="629.707145" y="348.411877" style="fill: #ff7f0e; stroke: #ff7f0e"/>
     <use xlink:href="#m0403be39af" x="632.8242" y="108.704965" style="fill: #ff7f0e; stroke: #ff7f0e"/>
     <use xlink:href="#m0403be39af" x="635.941255" y="103.825336" style="fill: #ff7f0e; stroke: #ff7f0e"/>
     <use xlink:href="#m0403be39af" x="639.05831" y="253.550855" style="fill: #ff7f0e; stroke: #ff7f0e"/>
     <use xlink:href="#m0403be39af" x="642.175365" y="334.39876" style="fill: #ff7f0e; stroke: #ff7f0e"/>
     <use xlink:href="#m0403be39af" x="645.29242" y="124.368641" style="fill: #ff7f0e; stroke: #ff7f0e"/>
     <use xlink:href="#m0403be39af" x="648.409476" y="326.537481" style="fill: #ff7f0e; stroke: #ff7f0e"/>
     <use xlink:href="#m0403be39af" x="651.526531" y="280.992818" style="fill: #ff7f0e; stroke: #ff7f0e"/>
     <use xlink:href="#m0403be39af" x="654.643586" y="104.804082" style="fill: #ff7f0e; stroke: #ff7f0e"/>
     <use xlink:href="#m0403be39af" x="657.760641" y="231.243172" style="fill: #ff7f0e; stroke: #ff7f0e"/>
     <use xlink:href="#m0403be39af" x="660.877696" y="108.161061" style="fill: #ff7f0e; stroke: #ff7f0e"/>
     <use xlink:href="#m0403be39af" x="663.994751" y="103.216479" style="fill: #ff7f0e; stroke: #ff7f0e"/>
     <use xlink:href="#m0403be39af" x="667.111807" y="274.776167" style="fill: #ff7f0e; stroke: #ff7f0e"/>
     <use xlink:href="#m0403be39af" x="670.228862" y="106.615468" style="fill: #ff7f0e; stroke: #ff7f0e"/>
     <use xlink:href="#m0403be39af" x="673.345917" y="109.922469" style="fill: #ff7f0e; stroke: #ff7f0e"/>
     <use xlink:href="#m0403be39af" x="676.462972" y="159.397" style="fill: #ff7f0e; stroke: #ff7f0e"/>
     <use xlink:href="#m0403be39af" x="679.580027" y="101.576469" style="fill: #ff7f0e; stroke: #ff7f0e"/>
     <use xlink:href="#m0403be39af" x="682.697082" y="255.207886" style="fill: #ff7f0e; stroke: #ff7f0e"/>
     <use xlink:href="#m0403be39af" x="685.814138" y="115.929676" style="fill: #ff7f0e; stroke: #ff7f0e"/>
     <use xlink:href="#m0403be39af" x="688.931193" y="340.81365" style="fill: #ff7f0e; stroke: #ff7f0e"/>
     <use xlink:href="#m0403be39af" x="692.048248" y="296.35682" style="fill: #ff7f0e; stroke: #ff7f0e"/>
     <use xlink:href="#m0403be39af" x="695.165303" y="347.978606" style="fill: #ff7f0e; stroke: #ff7f0e"/>
     <use xlink:href="#m0403be39af" x="698.282358" y="347.834033" style="fill: #ff7f0e; stroke: #ff7f0e"/>
     <use xlink:href="#m0403be39af" x="701.399413" y="219.829524" style="fill: #ff7f0e; stroke: #ff7f0e"/>
     <use xlink:href="#m0403be39af" x="704.516469" y="142.408367" style="fill: #ff7f0e; stroke: #ff7f0e"/>
     <use xlink:href="#m0403be39af" x="707.633524" y="129.082137" style="fill: #ff7f0e; stroke: #ff7f0e"/>
     <use xlink:href="#m0403be39af" x="710.750579" y="111.834928" style="fill: #ff7f0e; stroke: #ff7f0e"/>
     <use xlink:href="#m0403be39af" x="713.867634" y="166.294042" style="fill: #ff7f0e; stroke: #ff7f0e"/>
     <use xlink:href="#m0403be39af" x="716.984689" y="171.949481" style="fill: #ff7f0e; stroke: #ff7f0e"/>
     <use xlink:href="#m0403be39af" x="720.101744" y="101.120132" style="fill: #ff7f0e; stroke: #ff7f0e"/>
     <use xlink:href="#m0403be39af" x="723.2188" y="146.038337" style="fill: #ff7f0e; stroke: #ff7f0e"/>
     <use xlink:href="#m0403be39af" x="726.335855" y="223.958837" style="fill: #ff7f0e; stroke: #ff7f0e"/>
     <use xlink:href="#m0403be39af" x="729.45291" y="345.300532" style="fill: #ff7f0e; stroke: #ff7f0e"/>
     <use xlink:href="#m0403be39af" x="732.569965" y="183.374645" style="fill: #ff7f0e; stroke: #ff7f0e"/>
     <use xlink:href="#m0403be39af" x="735.68702" y="343.250306" style="fill: #ff7f0e; stroke: #ff7f0e"/>
     <use xlink:href="#m0403be39af" x="738.804075" y="153.878598" style="fill: #ff7f0e; stroke: #ff7f0e"/>
     <use xlink:href="#m0403be39af" x="741.921131" y="121.057097" style="fill: #ff7f0e; stroke: #ff7f0e"/>
     <use xlink:href="#m0403be39af" x="745.038186" y="341.161945" style="fill: #ff7f0e; stroke: #ff7f0e"/>
     <use xlink:href="#m0403be39af" x="748.155241" y="202.870912" style="fill: #ff7f0e; stroke: #ff7f0e"/>
     <use xlink:href="#m0403be39af" x="751.272296" y="171.026043" style="fill: #ff7f0e; stroke: #ff7f0e"/>
     <use xlink:href="#m0403be39af" x="754.389351" y="106.141813" style="fill: #ff7f0e; stroke: #ff7f0e"/>
     <use xlink:href="#m0403be39af" x="757.506406" y="329.442422" style="fill: #ff7f0e; stroke: #ff7f0e"/>
     <use xlink:href="#m0403be39af" x="760.623462" y="234.352682" style="fill: #ff7f0e; stroke: #ff7f0e"/>
     <use xlink:href="#m0403be39af" x="763.740517" y="98.569738" style="fill: #ff7f0e; stroke: #ff7f0e"/>
     <use xlink:href="#m0403be39af" x="766.857572" y="123.667867" style="fill: #ff7f0e; stroke: #ff7f0e"/>
     <use xlink:href="#m0403be39af" x="769.974627" y="118.813542" style="fill: #ff7f0e; stroke: #ff7f0e"/>
     <use xlink:href="#m0403be39af" x="773.091682" y="336.965074" style="fill: #ff7f0e; stroke: #ff7f0e"/>
     <use xlink:href="#m0403be39af" x="776.208737" y="340.110857" style="fill: #ff7f0e; stroke: #ff7f0e"/>
     <use xlink:href="#m0403be39af" x="779.325793" y="120.016455" style="fill: #ff7f0e; stroke: #ff7f0e"/>
     <use xlink:href="#m0403be39af" x="782.442848" y="102.160075" style="fill: #ff7f0e; stroke: #ff7f0e"/>
     <use xlink:href="#m0403be39af" x="785.559903" y="232.387204" style="fill: #ff7f0e; stroke: #ff7f0e"/>
     <use xlink:href="#m0403be39af" x="788.676958" y="336.031138" style="fill: #ff7f0e; stroke: #ff7f0e"/>
     <use xlink:href="#m0403be39af" x="791.794013" y="112.300684" style="fill: #ff7f0e; stroke: #ff7f0e"/>
     <use xlink:href="#m0403be39af" x="794.911068" y="341.3528" style="fill: #ff7f0e; stroke: #ff7f0e"/>
     <use xlink:href="#m0403be39af" x="798.028124" y="285.725492" style="fill: #ff7f0e; stroke: #ff7f0e"/>
     <use xlink:href="#m0403be39af" x="801.145179" y="268.482408" style="fill: #ff7f0e; stroke: #ff7f0e"/>
     <use xlink:href="#m0403be39af" x="804.262234" y="111.922599" style="fill: #ff7f0e; stroke: #ff7f0e"/>
     <use xlink:href="#m0403be39af" x="807.379289" y="124.322385" style="fill: #ff7f0e; stroke: #ff7f0e"/>
     <use xlink:href="#m0403be39af" x="810.496344" y="248.578515" style="fill: #ff7f0e; stroke: #ff7f0e"/>
     <use xlink:href="#m0403be39af" x="813.613399" y="113.075971" style="fill: #ff7f0e; stroke: #ff7f0e"/>
     <use xlink:href="#m0403be39af" x="816.730455" y="210.517203" style="fill: #ff7f0e; stroke: #ff7f0e"/>
    </g>
   </g>
   <g id="patch_3">
    <path d="M 50.87 390.04 
L 50.87 26.88 
" style="fill: none; stroke: #000000; stroke-width: 0.8; stroke-linejoin: miter; stroke-linecap: square"/>
   </g>
   <g id="patch_4">
    <path d="M 853.2 390.04 
L 853.2 26.88 
" style="fill: none; stroke: #000000; stroke-width: 0.8; stroke-linejoin: miter; stroke-linecap: square"/>
   </g>
   <g id="patch_5">
    <path d="M 50.87 390.04 
L 853.2 390.04 
" style="fill: none; stroke: #000000; stroke-width: 0.8; stroke-linejoin: miter; stroke-linecap: square"/>
   </g>
   <g id="patch_6">
    <path d="M 50.87 26.88 
L 853.2 26.88 
" style="fill: none; stroke: #000000; stroke-width: 0.8; stroke-linejoin: miter; stroke-linecap: square"/>
   </g>
   <g id="text_16">
    <!-- Final-Engine RUL with Prediction Bands  FD002 -->
    <g transform="translate(308.545938 20.88) scale(0.12 -0.12)">
     <defs>
      <path id="DejaVuSans-46" d="M 628 4666 
L 3309 4666 
L 3309 4134 
L 1259 4134 
L 1259 2759 
L 3109 2759 
L 3109 2228 
L 1259 2228 
L 1259 0 
L 628 0 
L 628 4666 
z
" transform="scale(0.015625)"/>
      <path id="DejaVuSans-61" d="M 2194 1759 
Q 1497 1759 1228 1600 
Q 959 1441 959 1056 
Q 959 750 1161 570 
Q 1363 391 1709 391 
Q 2188 391 2477 730 
Q 2766 1069 2766 1631 
L 2766 1759 
L 2194 1759 
z
M 3341 1997 
L 3341 0 
L 2766 0 
L 2766 531 
Q 2569 213 2275 61 
Q 1981 -91 1556 -91 
Q 1019 -91 701 211 
Q 384 513 384 1019 
Q 384 1609 779 1909 
Q 1175 2209 1959 2209 
L 2766 2209 
L 2766 2266 
Q 2766 2663 2505 2880 
Q 2244 3097 1772 3097 
Q 1472 3097 1187 3025 
Q 903 2953 641 2809 
L 641 3341 
Q 956 3463 1253 3523 
Q 1550 3584 1831 3584 
Q 2591 3584 2966 3190 
Q 3341 2797 3341 1997 
z
" transform="scale(0.015625)"/>
      <path id="DejaVuSans-6c" d="M 603 4863 
L 1178 4863 
L 1178 0 
L 603 0 
L 603 4863 
z
" transform="scale(0.015625)"/>
      <path id="DejaVuSans-2d" d="M 313 2009 
L 1997 2009 
L 1997 1497 
L 313 1497 
L 313 2009 
z
" transform="scale(0.015625)"/>
      <path id="DejaVuSans-77" d="M 269 3500 
L 844 3500 
L 1563 769 
L 2278 3500 
L 2956 3500 
L 3675 769 
L 4391 3500 
L 4966 3500 
L 4050 0 
L 3372 0 
L 2619 2869 
L 1863 0 
L 1184 0 
L 269 3500 
z
" transform="scale(0.015625)"/>
      <path id="DejaVuSans-68" d="M 3513 2113 
L 3513 0 
L 2938 0 
L 2938 2094 
Q 2938 2591 2744 2837 
Q 2550 3084 2163 3084 
Q 1697 3084 1428 2787 
Q 1159 2491 1159 1978 
L 1159 0 
L 581 0 
L 581 4863 
L 1159 4863 
L 1159 2956 
Q 1366 3272 1645 3428 
Q 1925 3584 2291 3584 
Q 2894 3584 3203 3211 
Q 3513 2838 3513 2113 
z
" transform="scale(0.015625)"/>
      <path id="DejaVuSans-50" d="M 1259 4147 
L 1259 2394 
L 2053 2394 
Q 2494 2394 2734 2622 
Q 2975 2850 2975 3272 
Q 2975 3691 2734 3919 
Q 2494 4147 2053 4147 
L 1259 4147 
z
M 628 4666 
L 2053 4666 
Q 2838 4666 3239 4311 
Q 3641 3956 3641 3272 
Q 3641 2581 3239 2228 
Q 2838 1875 2053 1875 
L 1259 1875 
L 1259 0 
L 628 0 
L 628 4666 
z
" transform="scale(0.015625)"/>
      <path id="DejaVuSans-63" d="M 3122 3366 
L 3122 2828 
Q 2878 2963 2633 3030 
Q 2388 3097 2138 3097 
Q 1578 3097 1268 2742 
Q 959 2388 959 1747 
Q 959 1106 1268 751 
Q 1578 397 2138 397 
Q 2388 397 2633 464 
Q 2878 531 3122 666 
L 3122 134 
Q 2881 22 2623 -34 
Q 2366 -91 2075 -91 
Q 1284 -91 818 406 
Q 353 903 353 1747 
Q 353 2603 823 3093 
Q 1294 3584 2113 3584 
Q 2378 3584 2631 3529 
Q 2884 3475 3122 3366 
z
" transform="scale(0.015625)"/>
      <path id="DejaVuSans-42" d="M 1259 2228 
L 1259 519 
L 2272 519 
Q 2781 519 3026 730 
Q 3272 941 3272 1375 
Q 3272 1813 3026 2020 
Q 2781 2228 2272 2228 
L 1259 2228 
z
M 1259 4147 
L 1259 2741 
L 2194 2741 
Q 2656 2741 2882 2914 
Q 3109 3088 3109 3444 
Q 3109 3797 2882 3972 
Q 2656 4147 2194 4147 
L 1259 4147 
z
M 628 4666 
L 2241 4666 
Q 2963 4666 3353 4366 
Q 3744 4066 3744 3513 
Q 3744 3084 3544 2831 
Q 3344 2578 2956 2516 
Q 3422 2416 3680 2098 
Q 3938 1781 3938 1306 
Q 3938 681 3513 340 
Q 3088 0 2303 0 
L 628 0 
L 628 4666 
z
" transform="scale(0.015625)"/>
      <path id="DejaVuSans-2013" d="M 313 1978 
L 2888 1978 
L 2888 1528 
L 313 1528 
L 313 1978 
z
" transform="scale(0.015625)"/>
      <path id="DejaVuSans-44" d="M 1259 4147 
L 1259 519 
L 2022 519 
Q 2988 519 3436 956 
Q 3884 1394 3884 2338 
Q 3884 3275 3436 3711 
Q 2988 4147 2022 4147 
L 1259 4147 
z
M 628 4666 
L 1925 4666 
Q 3281 4666 3915 4102 
Q 4550 3538 4550 2338 
Q 4550 1131 3912 565 
Q 3275 0 1925 0 
L 628 0 
L 628 4666 
z
" transform="scale(0.015625)"/>
     </defs>
     <use xlink:href="#DejaVuSans-46"/>
     <use xlink:href="#DejaVuSans-69" transform="translate(50.269531 0)"/>
     <use xlink:href="#DejaVuSans-6e" transform="translate(78.052734 0)"/>
     <use xlink:href="#DejaVuSans-61" transform="translate(141.431641 0)"/>
     <use xlink:href="#DejaVuSans-6c" transform="translate(202.710938 0)"/>
     <use xlink:href="#DejaVuSans-2d" transform="translate(230.494141 0)"/>
     <use xlink:href="#DejaVuSans-45" transform="translate(266.578125 0)"/>
     <use xlink:href="#DejaVuSans-6e" transform="translate(329.761719 0)"/>
     <use xlink:href="#DejaVuSans-67" transform="translate(393.140625 0)"/>
     <use xlink:href="#DejaVuSans-69" transform="translate(456.617188 0)"/>
     <use xlink:href="#DejaVuSans-6e" transform="translate(484.400391 0)"/>
     <use xlink:href="#DejaVuSans-65" transform="translate(547.779297 0)"/>
     <use xlink:href="#DejaVuSans-20" transform="translate(609.302734 0)"/>
     <use xlink:href="#DejaVuSans-52" transform="translate(641.089844 0)"/>
     <use xlink:href="#DejaVuSans-55" transform="translate(710.572266 0)"/>
     <use xlink:href="#DejaVuSans-4c" transform="translate(783.765625 0)"/>
     <use xlink:href="#DejaVuSans-20" transform="translate(839.478516 0)"/>
     <use xlink:href="#DejaVuSans-77" transform="translate(871.265625 0)"/>
     <use xlink:href="#DejaVuSans-69" transform="translate(953.052734 0)"/>
     <use xlink:href="#DejaVuSans-74" transform="translate(980.835938 0)"/>
     <use xlink:href="#DejaVuSans-68" transform="translate(1020.044922 0)"/>
     <use xlink:href="#DejaVuSans-20" transform="translate(1083.423828 0)"/>
     <use xlink:href="#DejaVuSans-50" transform="translate(1115.210938 0)"/>
     <use xlink:href="#DejaVuSans-72" transform="translate(1173.763672 0)"/>
     <use xlink:href="#DejaVuSans-65" transform="translate(1212.626953 0)"/>
     <use xlink:href="#DejaVuSans-64" transform="translate(1274.150391 0)"/>
     <use xlink:href="#DejaVuSans-69" transform="translate(1337.626953 0)"/>
     <use xlink:href="#DejaVuSans-63" transform="translate(1365.410156 0)"/>
     <use xlink:href="#DejaVuSans-74" transform="translate(1420.390625 0)"/>
     <use xlink:href="#DejaVuSans-69" transform="translate(1459.599609 0)"/>
     <use xlink:href="#DejaVuSans-6f" transform="translate(1487.382812 0)"/>
     <use xlink:href="#DejaVuSans-6e" transform="translate(1548.564453 0)"/>
     <use xlink:href="#DejaVuSans-20" transform="translate(1611.943359 0)"/>
     <use xlink:href="#DejaVuSans-42" transform="translate(1643.730469 0)"/>
     <use xlink:href="#DejaVuSans-61" transform="translate(1712.333984 0)"/>
     <use xlink:href="#DejaVuSans-6e" transform="translate(1773.613281 0)"/>
     <use xlink:href="#DejaVuSans-64" transform="translate(1836.992188 0)"/>
     <use xlink:href="#DejaVuSans-73" transform="translate(1900.46875 0)"/>
     <use xlink:href="#DejaVuSans-20" transform="translate(1952.568359 0)"/>
     <use xlink:href="#DejaVuSans-2013" transform="translate(1984.355469 0)"/>
     <use xlink:href="#DejaVuSans-20" transform="translate(2034.355469 0)"/>
     <use xlink:href="#DejaVuSans-46" transform="translate(2066.142578 0)"/>
     <use xlink:href="#DejaVuSans-44" transform="translate(2123.662109 0)"/>
     <use xlink:href="#DejaVuSans-30" transform="translate(2200.664062 0)"/>
     <use xlink:href="#DejaVuSans-30" transform="translate(2264.287109 0)"/>
     <use xlink:href="#DejaVuSans-32" transform="translate(2327.910156 0)"/>
    </g>
   </g>
   <g id="legend_1">
    <g id="patch_7">
     <path d="M 57.87 78.914375 
L 202.390312 78.914375 
Q 204.390312 78.914375 204.390312 76.914375 
L 204.390312 33.88 
Q 204.390312 31.88 202.390312 31.88 
L 57.87 31.88 
Q 55.87 31.88 55.87 33.88 
L 55.87 76.914375 
Q 55.87 78.914375 57.87 78.914375 
z
" style="fill: #ffffff; opacity: 0.8; stroke: #cccccc; stroke-linejoin: miter"/>
    </g>
    <g id="patch_8">
     <path d="M 59.87 43.478437 
L 79.87 43.478437 
L 79.87 36.478437 
L 59.87 36.478437 
z
" style="fill: #1f77b4; fill-opacity: 0.2"/>
    </g>
    <g id="text_17">
     <!-- Prediction Band (lohi) -->
     <g transform="translate(87.87 43.478437) scale(0.1 -0.1)">
      <use xlink:href="#DejaVuSans-50"/>
      <use xlink:href="#DejaVuSans-72" transform="translate(58.552734 0)"/>
      <use xlink:href="#DejaVuSans-65" transform="translate(97.416016 0)"/>
      <use xlink:href="#DejaVuSans-64" transform="translate(158.939453 0)"/>
      <use xlink:href="#DejaVuSans-69" transform="translate(222.416016 0)"/>
      <use xlink:href="#DejaVuSans-63" transform="translate(250.199219 0)"/>
      <use xlink:href="#DejaVuSans-74" transform="translate(305.179688 0)"/>
      <use xlink:href="#DejaVuSans-69" transform="translate(344.388672 0)"/>
      <use xlink:href="#DejaVuSans-6f" transform="translate(372.171875 0)"/>
      <use xlink:href="#DejaVuSans-6e" transform="translate(433.353516 0)"/>
      <use xlink:href="#DejaVuSans-20" transform="translate(496.732422 0)"/>
      <use xlink:href="#DejaVuSans-42" transform="translate(528.519531 0)"/>
      <use xlink:href="#DejaVuSans-61" transform="translate(597.123047 0)"/>
      <use xlink:href="#DejaVuSans-6e" transform="translate(658.402344 0)"/>
      <use xlink:href="#DejaVuSans-64" transform="translate(721.78125 0)"/>
      <use xlink:href="#DejaVuSans-20" transform="translate(785.257812 0)"/>
      <use xlink:href="#DejaVuSans-28" transform="translate(817.044922 0)"/>
      <use xlink:href="#DejaVuSans-6c" transform="translate(856.058594 0)"/>
      <use xlink:href="#DejaVuSans-6f" transform="translate(883.841797 0)"/>
      <use xlink:href="#DejaVuSans-2013" transform="translate(945.023438 0)"/>
      <use xlink:href="#DejaVuSans-68" transform="translate(995.023438 0)"/>
      <use xlink:href="#DejaVuSans-69" transform="translate(1058.402344 0)"/>
      <use xlink:href="#DejaVuSans-29" transform="translate(1086.185547 0)"/>
     </g>
    </g>
    <g id="line2d_16">
     <path d="M 59.87 54.656563 
L 69.87 54.656563 
L 79.87 54.656563 
" style="fill: none; stroke: #1f77b4; stroke-width: 1.5; stroke-linecap: square"/>
    </g>
    <g id="text_18">
     <!-- RUL Actual -->
     <g transform="translate(87.87 58.156563) scale(0.1 -0.1)">
      <defs>
       <path id="DejaVuSans-41" d="M 2188 4044 
L 1331 1722 
L 3047 1722 
L 2188 4044 
z
M 1831 4666 
L 2547 4666 
L 4325 0 
L 3669 0 
L 3244 1197 
L 1141 1197 
L 716 0 
L 50 0 
L 1831 4666 
z
" transform="scale(0.015625)"/>
       <path id="DejaVuSans-75" d="M 544 1381 
L 544 3500 
L 1119 3500 
L 1119 1403 
Q 1119 906 1312 657 
Q 1506 409 1894 409 
Q 2359 409 2629 706 
Q 2900 1003 2900 1516 
L 2900 3500 
L 3475 3500 
L 3475 0 
L 2900 0 
L 2900 538 
Q 2691 219 2414 64 
Q 2138 -91 1772 -91 
Q 1169 -91 856 284 
Q 544 659 544 1381 
z
M 1991 3584 
L 1991 3584 
z
" transform="scale(0.015625)"/>
      </defs>
      <use xlink:href="#DejaVuSans-52"/>
      <use xlink:href="#DejaVuSans-55" transform="translate(69.482422 0)"/>
      <use xlink:href="#DejaVuSans-4c" transform="translate(142.675781 0)"/>
      <use xlink:href="#DejaVuSans-20" transform="translate(198.388672 0)"/>
      <use xlink:href="#DejaVuSans-41" transform="translate(230.175781 0)"/>
      <use xlink:href="#DejaVuSans-63" transform="translate(296.833984 0)"/>
      <use xlink:href="#DejaVuSans-74" transform="translate(351.814453 0)"/>
      <use xlink:href="#DejaVuSans-75" transform="translate(391.023438 0)"/>
      <use xlink:href="#DejaVuSans-61" transform="translate(454.402344 0)"/>
      <use xlink:href="#DejaVuSans-6c" transform="translate(515.681641 0)"/>
     </g>
    </g>
    <g id="line2d_17">
     <path d="M 59.87 69.334687 
L 69.87 69.334687 
L 79.87 69.334687 
" style="fill: none; stroke-dasharray: 5.55,2.4; stroke-dashoffset: 0; stroke: #ff7f0e; stroke-width: 1.5"/>
     <g>
      <use xlink:href="#m0403be39af" x="69.87" y="69.334687" style="fill: #ff7f0e; stroke: #ff7f0e"/>
     </g>
    </g>
    <g id="text_19">
     <!-- RUL Prediction -->
     <g transform="translate(87.87 72.834687) scale(0.1 -0.1)">
      <use xlink:href="#DejaVuSans-52"/>
      <use xlink:href="#DejaVuSans-55" transform="translate(69.482422 0)"/>
      <use xlink:href="#DejaVuSans-4c" transform="translate(142.675781 0)"/>
      <use xlink:href="#DejaVuSans-20" transform="translate(198.388672 0)"/>
      <use xlink:href="#DejaVuSans-50" transform="translate(230.175781 0)"/>
      <use xlink:href="#DejaVuSans-72" transform="translate(288.728516 0)"/>
      <use xlink:href="#DejaVuSans-65" transform="translate(327.591797 0)"/>
      <use xlink:href="#DejaVuSans-64" transform="translate(389.115234 0)"/>
      <use xlink:href="#DejaVuSans-69" transform="translate(452.591797 0)"/>
      <use xlink:href="#DejaVuSans-63" transform="translate(480.375 0)"/>
      <use xlink:href="#DejaVuSans-74" transform="translate(535.355469 0)"/>
      <use xlink:href="#DejaVuSans-69" transform="translate(574.564453 0)"/>
      <use xlink:href="#DejaVuSans-6f" transform="translate(602.347656 0)"/>
      <use xlink:href="#DejaVuSans-6e" transform="translate(663.529297 0)"/>
     </g>
    </g>
   </g>
  </g>
 </g>
 <defs>
  <clipPath id="p5df2638768">
   <rect x="50.87" y="26.88" width="802.33" height="363.16"/>
  </clipPath>
 </defs>
</svg>
