<?xml version="1.0" encoding="utf-8" standalone="no"?>
<!DOCTYPE svg PUBLIC "-//W3C//DTD SVG 1.1//EN"
  "http://www.w3.org/Graphics/SVG/1.1/DTD/svg11.dtd">
<svg xmlns:xlink="http://www.w3.org/1999/xlink" width="864pt" height="432pt" viewBox="0 0 864 432" xmlns="http://www.w3.org/2000/svg" version="1.1">
 <metadata>
  <rdf:RDF xmlns:dc="http://purl.org/dc/elements/1.1/" xmlns:cc="http://creativecommons.org/ns#" xmlns:rdf="http://www.w3.org/1999/02/22-rdf-syntax-ns#">
   <cc:Work>
    <dc:type rdf:resource="http://purl.org/dc/dcmitype/StillImage"/>
    <dc:date>2025-10-29T21:52:58.425986</dc:date>
    <dc:format>image/svg+xml</dc:format>
    <dc:creator>
     <cc:Agent>
      <dc:title>Matplotlib v3.10.7, https://matplotlib.org/</dc:title>
     </cc:Agent>
    </dc:creator>
   </cc:Work>
  </rdf:RDF>
 </metadata>
 <defs>
  <style type="text/css">*{stroke-linejoin: round; stroke-linecap: butt}</style>
 </defs>
 <g id="figure_1">
  <g id="patch_1">
   <path d="M 0 432 
L 864 432 
L 864 0 
L 0 0 
z
" style="fill: #ffffff"/>
  </g>
  <g id="axes_1">
   <g id="patch_2">
    <path d="M 50.87 390.04 
L 848.777727 390.04 
L 848.777727 26.88 
L 50.87 26.88 
z
" style="fill: #ffffff"/>
   </g>
   <g id="FillBetweenPolyCollection_1">
    <path d="M 87.138533 188.989842 
L 87.138533 290.621512 
L 94.694477 296.313111 
L 102.250422 318.569405 
L 109.806366 153.205422 
L 117.362311 160.702637 
L 124.918255 183.837486 
L 132.474199 275.82769 
L 140.030144 299.618196 
L 147.586088 313.388412 
L 155.142033 265.074633 
L 162.697977 198.87188 
L 170.253921 185.571335 
L 177.809866 175.53291 
L 185.36581 349.383873 
L 192.921754 182.445237 
L 200.477699 171.474565 
L 208.033643 166.448033 
L 215.589588 174.817082 
L 223.145532 173.898832 
L 230.701476 287.525456 
L 238.257421 373.067987 
L 245.813365 148.67313 
L 253.36931 276.057864 
L 260.925254 373.532727 
L 268.481198 313.633078 
L 276.037143 373.532727 
L 283.593087 172.979992 
L 291.149032 149.195609 
L 298.704976 172.053105 
L 306.26092 252.982007 
L 313.816865 220.737147 
L 321.372809 269.005368 
L 328.928753 265.346297 
L 336.484698 177.53825 
L 344.040642 171.667082 
L 351.596587 149.228444 
L 359.152531 361.974344 
L 366.708475 373.532727 
L 374.26442 323.952559 
L 381.820364 154.177963 
L 389.376309 167.942932 
L 396.932253 154.620046 
L 404.488197 255.274934 
L 412.044142 149.810123 
L 419.600086 373.532727 
L 427.15603 178.167057 
L 434.711975 291.980266 
L 442.267919 163.250264 
L 449.823864 373.532727 
L 457.379808 232.96774 
L 464.935752 207.631114 
L 472.491697 151.693421 
L 480.047641 322.606883 
L 487.603586 196.401648 
L 495.15953 283.960971 
L 502.715474 320.051728 
L 510.271419 309.061889 
L 517.827363 165.373067 
L 525.383308 149.27186 
L 532.939252 285.485079 
L 540.495196 150.618299 
L 548.051141 341.711157 
L 555.607085 147.101305 
L 563.163029 186.454009 
L 570.718974 187.677538 
L 578.274918 166.657878 
L 585.830863 155.744047 
L 593.386807 216.446287 
L 600.942751 329.207288 
L 608.498696 296.384704 
L 616.05464 167.731196 
L 623.610585 145.837777 
L 631.166529 317.563578 
L 638.722473 373.532727 
L 646.278418 273.26459 
L 653.834362 355.495215 
L 661.390306 373.532727 
L 668.946251 145.018934 
L 676.502195 367.848339 
L 684.05814 373.532727 
L 691.614084 162.177571 
L 699.170028 220.960903 
L 706.725973 236.104903 
L 714.281917 366.829053 
L 721.837862 280.855688 
L 729.393806 293.79014 
L 736.94975 298.544071 
L 744.505695 165.244711 
L 752.061639 373.532727 
L 759.617584 249.268645 
L 767.173528 373.532727 
L 774.729472 214.208536 
L 782.285417 218.621976 
L 789.841361 146.902145 
L 797.397305 373.532727 
L 804.95325 373.532727 
L 812.509194 351.999798 
L 812.509194 250.368137 
L 812.509194 250.368137 
L 804.95325 288.014476 
L 797.397305 278.018209 
L 789.841361 45.270466 
L 782.285417 116.990315 
L 774.729472 112.576874 
L 767.173528 293.709701 
L 759.617584 147.636984 
L 752.061639 276.740493 
L 744.505695 63.61305 
L 736.94975 196.912401 
L 729.393806 192.15847 
L 721.837862 179.224018 
L 714.281917 265.197387 
L 706.725973 134.473242 
L 699.170028 119.329242 
L 691.614084 60.545892 
L 684.05814 287.029923 
L 676.502195 266.216674 
L 668.946251 43.387273 
L 661.390306 276.600541 
L 653.834362 253.863553 
L 646.278418 171.632929 
L 638.722473 272.05466 
L 631.166529 215.931908 
L 623.610585 44.206116 
L 616.05464 66.099552 
L 608.498696 194.753034 
L 600.942751 227.575618 
L 593.386807 114.814626 
L 585.830863 54.112403 
L 578.274918 65.026217 
L 570.718974 86.045877 
L 563.163029 84.822348 
L 555.607085 45.469661 
L 548.051141 240.079496 
L 540.495196 48.98662 
L 532.939252 183.853409 
L 525.383308 47.640199 
L 517.827363 63.741406 
L 510.271419 207.430219 
L 502.715474 218.420075 
L 495.15953 182.329301 
L 487.603586 94.769987 
L 480.047641 220.975231 
L 472.491697 50.061759 
L 464.935752 105.999453 
L 457.379808 131.336078 
L 449.823864 283.264213 
L 442.267919 61.618603 
L 434.711975 190.348613 
L 427.15603 76.535395 
L 419.600086 284.66059 
L 412.044142 48.178462 
L 404.488197 153.643273 
L 396.932253 52.988384 
L 389.376309 66.31127 
L 381.820364 52.546319 
L 374.26442 222.320889 
L 366.708475 292.525467 
L 359.152531 260.342679 
L 351.596587 47.596766 
L 344.040642 70.035438 
L 336.484698 75.906589 
L 328.928753 163.714636 
L 321.372809 167.373707 
L 313.816865 119.105486 
L 306.26092 151.350345 
L 298.704976 70.421444 
L 291.149032 47.563948 
L 283.593087 71.348349 
L 276.037143 304.339882 
L 268.481198 212.001416 
L 260.925254 300.872934 
L 253.36931 174.426202 
L 245.813365 47.041469 
L 238.257421 271.43633 
L 230.701476 185.893786 
L 223.145532 72.267171 
L 215.589588 73.185438 
L 208.033643 64.816372 
L 200.477699 69.842904 
L 192.921754 80.813576 
L 185.36581 247.752212 
L 177.809866 73.901249 
L 170.253921 83.939674 
L 162.697977 97.240219 
L 155.142033 163.442972 
L 147.586088 211.756759 
L 140.030144 197.986535 
L 132.474199 174.196029 
L 124.918255 82.205825 
L 117.362311 59.070976 
L 109.806366 51.573761 
L 102.250422 216.937735 
L 94.694477 194.68145 
L 87.138533 188.989842 
z
" clip-path="url(#pde7db2b9b5)" style="fill: #1f77b4; fill-opacity: 0.2"/>
   </g>
   <g id="matplotlib.axis_1">
    <g id="xtick_1">
     <g id="line2d_1">
      <defs>
       <path id="md4e0976e9e" d="M 0 0 
L 0 3.5 
" style="stroke: #000000; stroke-width: 0.8"/>
      </defs>
      <g>
       <use xlink:href="#md4e0976e9e" x="87.138533" y="390.04" style="stroke: #000000; stroke-width: 0.8"/>
      </g>
     </g>
     <g id="text_1">
      <!-- 0 -->
      <g transform="translate(83.957283 404.638438) scale(0.1 -0.1)">
       <defs>
        <path id="DejaVuSans-30" d="M 2034 4250 
Q 1547 4250 1301 3770 
Q 1056 3291 1056 2328 
Q 1056 1369 1301 889 
Q 1547 409 2034 409 
Q 2525 409 2770 889 
Q 3016 1369 3016 2328 
Q 3016 3291 2770 3770 
Q 2525 4250 2034 4250 
z
M 2034 4750 
Q 2819 4750 3233 4129 
Q 3647 3509 3647 2328 
Q 3647 1150 3233 529 
Q 2819 -91 2034 -91 
Q 1250 -91 836 529 
Q 422 1150 422 2328 
Q 422 3509 836 4129 
Q 1250 4750 2034 4750 
z
" transform="scale(0.015625)"/>
       </defs>
       <use xlink:href="#DejaVuSans-30"/>
      </g>
     </g>
    </g>
    <g id="xtick_2">
     <g id="line2d_2">
      <g>
       <use xlink:href="#md4e0976e9e" x="238.257421" y="390.04" style="stroke: #000000; stroke-width: 0.8"/>
      </g>
     </g>
     <g id="text_2">
      <!-- 20 -->
      <g transform="translate(231.894921 404.638438) scale(0.1 -0.1)">
       <defs>
        <path id="DejaVuSans-32" d="M 1228 531 
L 3431 531 
L 3431 0 
L 469 0 
L 469 531 
Q 828 903 1448 1529 
Q 2069 2156 2228 2338 
Q 2531 2678 2651 2914 
Q 2772 3150 2772 3378 
Q 2772 3750 2511 3984 
Q 2250 4219 1831 4219 
Q 1534 4219 1204 4116 
Q 875 4013 500 3803 
L 500 4441 
Q 881 4594 1212 4672 
Q 1544 4750 1819 4750 
Q 2544 4750 2975 4387 
Q 3406 4025 3406 3419 
Q 3406 3131 3298 2873 
Q 3191 2616 2906 2266 
Q 2828 2175 2409 1742 
Q 1991 1309 1228 531 
z
" transform="scale(0.015625)"/>
       </defs>
       <use xlink:href="#DejaVuSans-32"/>
       <use xlink:href="#DejaVuSans-30" transform="translate(63.623047 0)"/>
      </g>
     </g>
    </g>
    <g id="xtick_3">
     <g id="line2d_3">
      <g>
       <use xlink:href="#md4e0976e9e" x="389.376309" y="390.04" style="stroke: #000000; stroke-width: 0.8"/>
      </g>
     </g>
     <g id="text_3">
      <!-- 40 -->
      <g transform="translate(383.013809 404.638438) scale(0.1 -0.1)">
       <defs>
        <path id="DejaVuSans-34" d="M 2419 4116 
L 825 1625 
L 2419 1625 
L 2419 4116 
z
M 2253 4666 
L 3047 4666 
L 3047 1625 
L 3713 1625 
L 3713 1100 
L 3047 1100 
L 3047 0 
L 2419 0 
L 2419 1100 
L 313 1100 
L 313 1709 
L 2253 4666 
z
" transform="scale(0.015625)"/>
       </defs>
       <use xlink:href="#DejaVuSans-34"/>
       <use xlink:href="#DejaVuSans-30" transform="translate(63.623047 0)"/>
      </g>
     </g>
    </g>
    <g id="xtick_4">
     <g id="line2d_4">
      <g>
       <use xlink:href="#md4e0976e9e" x="540.495196" y="390.04" style="stroke: #000000; stroke-width: 0.8"/>
      </g>
     </g>
     <g id="text_4">
      <!-- 60 -->
      <g transform="translate(534.132696 404.638438) scale(0.1 -0.1)">
       <defs>
        <path id="DejaVuSans-36" d="M 2113 2584 
Q 1688 2584 1439 2293 
Q 1191 2003 1191 1497 
Q 1191 994 1439 701 
Q 1688 409 2113 409 
Q 2538 409 2786 701 
Q 3034 994 3034 1497 
Q 3034 2003 2786 2293 
Q 2538 2584 2113 2584 
z
M 3366 4563 
L 3366 3988 
Q 3128 4100 2886 4159 
Q 2644 4219 2406 4219 
Q 1781 4219 1451 3797 
Q 1122 3375 1075 2522 
Q 1259 2794 1537 2939 
Q 1816 3084 2150 3084 
Q 2853 3084 3261 2657 
Q 3669 2231 3669 1497 
Q 3669 778 3244 343 
Q 2819 -91 2113 -91 
Q 1303 -91 875 529 
Q 447 1150 447 2328 
Q 447 3434 972 4092 
Q 1497 4750 2381 4750 
Q 2619 4750 2861 4703 
Q 3103 4656 3366 4563 
z
" transform="scale(0.015625)"/>
       </defs>
       <use xlink:href="#DejaVuSans-36"/>
       <use xlink:href="#DejaVuSans-30" transform="translate(63.623047 0)"/>
      </g>
     </g>
    </g>
    <g id="xtick_5">
     <g id="line2d_5">
      <g>
       <use xlink:href="#md4e0976e9e" x="691.614084" y="390.04" style="stroke: #000000; stroke-width: 0.8"/>
      </g>
     </g>
     <g id="text_5">
      <!-- 80 -->
      <g transform="translate(685.251584 404.638438) scale(0.1 -0.1)">
       <defs>
        <path id="DejaVuSans-38" d="M 2034 2216 
Q 1584 2216 1326 1975 
Q 1069 1734 1069 1313 
Q 1069 891 1326 650 
Q 1584 409 2034 409 
Q 2484 409 2743 651 
Q 3003 894 3003 1313 
Q 3003 1734 2745 1975 
Q 2488 2216 2034 2216 
z
M 1403 2484 
Q 997 2584 770 2862 
Q 544 3141 544 3541 
Q 544 4100 942 4425 
Q 1341 4750 2034 4750 
Q 2731 4750 3128 4425 
Q 3525 4100 3525 3541 
Q 3525 3141 3298 2862 
Q 3072 2584 2669 2484 
Q 3125 2378 3379 2068 
Q 3634 1759 3634 1313 
Q 3634 634 3220 271 
Q 2806 -91 2034 -91 
Q 1263 -91 848 271 
Q 434 634 434 1313 
Q 434 1759 690 2068 
Q 947 2378 1403 2484 
z
M 1172 3481 
Q 1172 3119 1398 2916 
Q 1625 2713 2034 2713 
Q 2441 2713 2670 2916 
Q 2900 3119 2900 3481 
Q 2900 3844 2670 4047 
Q 2441 4250 2034 4250 
Q 1625 4250 1398 4047 
Q 1172 3844 1172 3481 
z
" transform="scale(0.015625)"/>
       </defs>
       <use xlink:href="#DejaVuSans-38"/>
       <use xlink:href="#DejaVuSans-30" transform="translate(63.623047 0)"/>
      </g>
     </g>
    </g>
    <g id="xtick_6">
     <g id="line2d_6">
      <g>
       <use xlink:href="#md4e0976e9e" x="842.732972" y="390.04" style="stroke: #000000; stroke-width: 0.8"/>
      </g>
     </g>
     <g id="text_6">
      <!-- 100 -->
      <g transform="translate(833.189222 404.638438) scale(0.1 -0.1)">
       <defs>
        <path id="DejaVuSans-31" d="M 794 531 
L 1825 531 
L 1825 4091 
L 703 3866 
L 703 4441 
L 1819 4666 
L 2450 4666 
L 2450 531 
L 3481 531 
L 3481 0 
L 794 0 
L 794 531 
z
" transform="scale(0.015625)"/>
       </defs>
       <use xlink:href="#DejaVuSans-31"/>
       <use xlink:href="#DejaVuSans-30" transform="translate(63.623047 0)"/>
       <use xlink:href="#DejaVuSans-30" transform="translate(127.246094 0)"/>
      </g>
     </g>
    </g>
    <g id="text_7">
     <!-- Engine (sorted) -->
     <g transform="translate(411.266051 418.316562) scale(0.1 -0.1)">
      <defs>
       <path id="DejaVuSans-45" d="M 628 4666 
L 3578 4666 
L 3578 4134 
L 1259 4134 
L 1259 2753 
L 3481 2753 
L 3481 2222 
L 1259 2222 
L 1259 531 
L 3634 531 
L 3634 0 
L 628 0 
L 628 4666 
z
" transform="scale(0.015625)"/>
       <path id="DejaVuSans-6e" d="M 3513 2113 
L 3513 0 
L 2938 0 
L 2938 2094 
Q 2938 2591 2744 2837 
Q 2550 3084 2163 3084 
Q 1697 3084 1428 2787 
Q 1159 2491 1159 1978 
L 1159 0 
L 581 0 
L 581 3500 
L 1159 3500 
L 1159 2956 
Q 1366 3272 1645 3428 
Q 1925 3584 2291 3584 
Q 2894 3584 3203 3211 
Q 3513 2838 3513 2113 
z
" transform="scale(0.015625)"/>
       <path id="DejaVuSans-67" d="M 2906 1791 
Q 2906 2416 2648 2759 
Q 2391 3103 1925 3103 
Q 1463 3103 1205 2759 
Q 947 2416 947 1791 
Q 947 1169 1205 825 
Q 1463 481 1925 481 
Q 2391 481 2648 825 
Q 2906 1169 2906 1791 
z
M 3481 434 
Q 3481 -459 3084 -895 
Q 2688 -1331 1869 -1331 
Q 1566 -1331 1297 -1286 
Q 1028 -1241 775 -1147 
L 775 -588 
Q 1028 -725 1275 -790 
Q 1522 -856 1778 -856 
Q 2344 -856 2625 -561 
Q 2906 -266 2906 331 
L 2906 616 
Q 2728 306 2450 153 
Q 2172 0 1784 0 
Q 1141 0 747 490 
Q 353 981 353 1791 
Q 353 2603 747 3093 
Q 1141 3584 1784 3584 
Q 2172 3584 2450 3431 
Q 2728 3278 2906 2969 
L 2906 3500 
L 3481 3500 
L 3481 434 
z
" transform="scale(0.015625)"/>
       <path id="DejaVuSans-69" d="M 603 3500 
L 1178 3500 
L 1178 0 
L 603 0 
L 603 3500 
z
M 603 4863 
L 1178 4863 
L 1178 4134 
L 603 4134 
L 603 4863 
z
" transform="scale(0.015625)"/>
       <path id="DejaVuSans-65" d="M 3597 1894 
L 3597 1613 
L 953 1613 
Q 991 1019 1311 708 
Q 1631 397 2203 397 
Q 2534 397 2845 478 
Q 3156 559 3463 722 
L 3463 178 
Q 3153 47 2828 -22 
Q 2503 -91 2169 -91 
Q 1331 -91 842 396 
Q 353 884 353 1716 
Q 353 2575 817 3079 
Q 1281 3584 2069 3584 
Q 2775 3584 3186 3129 
Q 3597 2675 3597 1894 
z
M 3022 2063 
Q 3016 2534 2758 2815 
Q 2500 3097 2075 3097 
Q 1594 3097 1305 2825 
Q 1016 2553 972 2059 
L 3022 2063 
z
" transform="scale(0.015625)"/>
       <path id="DejaVuSans-20" transform="scale(0.015625)"/>
       <path id="DejaVuSans-28" d="M 1984 4856 
Q 1566 4138 1362 3434 
Q 1159 2731 1159 2009 
Q 1159 1288 1364 580 
Q 1569 -128 1984 -844 
L 1484 -844 
Q 1016 -109 783 600 
Q 550 1309 550 2009 
Q 550 2706 781 3412 
Q 1013 4119 1484 4856 
L 1984 4856 
z
" transform="scale(0.015625)"/>
       <path id="DejaVuSans-73" d="M 2834 3397 
L 2834 2853 
Q 2591 2978 2328 3040 
Q 2066 3103 1784 3103 
Q 1356 3103 1142 2972 
Q 928 2841 928 2578 
Q 928 2378 1081 2264 
Q 1234 2150 1697 2047 
L 1894 2003 
Q 2506 1872 2764 1633 
Q 3022 1394 3022 966 
Q 3022 478 2636 193 
Q 2250 -91 1575 -91 
Q 1294 -91 989 -36 
Q 684 19 347 128 
L 347 722 
Q 666 556 975 473 
Q 1284 391 1588 391 
Q 1994 391 2212 530 
Q 2431 669 2431 922 
Q 2431 1156 2273 1281 
Q 2116 1406 1581 1522 
L 1381 1569 
Q 847 1681 609 1914 
Q 372 2147 372 2553 
Q 372 3047 722 3315 
Q 1072 3584 1716 3584 
Q 2034 3584 2315 3537 
Q 2597 3491 2834 3397 
z
" transform="scale(0.015625)"/>
       <path id="DejaVuSans-6f" d="M 1959 3097 
Q 1497 3097 1228 2736 
Q 959 2375 959 1747 
Q 959 1119 1226 758 
Q 1494 397 1959 397 
Q 2419 397 2687 759 
Q 2956 1122 2956 1747 
Q 2956 2369 2687 2733 
Q 2419 3097 1959 3097 
z
M 1959 3584 
Q 2709 3584 3137 3096 
Q 3566 2609 3566 1747 
Q 3566 888 3137 398 
Q 2709 -91 1959 -91 
Q 1206 -91 779 398 
Q 353 888 353 1747 
Q 353 2609 779 3096 
Q 1206 3584 1959 3584 
z
" transform="scale(0.015625)"/>
       <path id="DejaVuSans-72" d="M 2631 2963 
Q 2534 3019 2420 3045 
Q 2306 3072 2169 3072 
Q 1681 3072 1420 2755 
Q 1159 2438 1159 1844 
L 1159 0 
L 581 0 
L 581 3500 
L 1159 3500 
L 1159 2956 
Q 1341 3275 1631 3429 
Q 1922 3584 2338 3584 
Q 2397 3584 2469 3576 
Q 2541 3569 2628 3553 
L 2631 2963 
z
" transform="scale(0.015625)"/>
       <path id="DejaVuSans-74" d="M 1172 4494 
L 1172 3500 
L 2356 3500 
L 2356 3053 
L 1172 3053 
L 1172 1153 
Q 1172 725 1289 603 
Q 1406 481 1766 481 
L 2356 481 
L 2356 0 
L 1766 0 
Q 1100 0 847 248 
Q 594 497 594 1153 
L 594 3053 
L 172 3053 
L 172 3500 
L 594 3500 
L 594 4494 
L 1172 4494 
z
" transform="scale(0.015625)"/>
       <path id="DejaVuSans-64" d="M 2906 2969 
L 2906 4863 
L 3481 4863 
L 3481 0 
L 2906 0 
L 2906 525 
Q 2725 213 2448 61 
Q 2172 -91 1784 -91 
Q 1150 -91 751 415 
Q 353 922 353 1747 
Q 353 2572 751 3078 
Q 1150 3584 1784 3584 
Q 2172 3584 2448 3432 
Q 2725 3281 2906 2969 
z
M 947 1747 
Q 947 1113 1208 752 
Q 1469 391 1925 391 
Q 2381 391 2643 752 
Q 2906 1113 2906 1747 
Q 2906 2381 2643 2742 
Q 2381 3103 1925 3103 
Q 1469 3103 1208 2742 
Q 947 2381 947 1747 
z
" transform="scale(0.015625)"/>
       <path id="DejaVuSans-29" d="M 513 4856 
L 1013 4856 
Q 1481 4119 1714 3412 
Q 1947 2706 1947 2009 
Q 1947 1309 1714 600 
Q 1481 -109 1013 -844 
L 513 -844 
Q 928 -128 1133 580 
Q 1338 1288 1338 2009 
Q 1338 2731 1133 3434 
Q 928 4138 513 4856 
z
" transform="scale(0.015625)"/>
      </defs>
      <use xlink:href="#DejaVuSans-45"/>
      <use xlink:href="#DejaVuSans-6e" transform="translate(63.183594 0)"/>
      <use xlink:href="#DejaVuSans-67" transform="translate(126.5625 0)"/>
      <use xlink:href="#DejaVuSans-69" transform="translate(190.039062 0)"/>
      <use xlink:href="#DejaVuSans-6e" transform="translate(217.822266 0)"/>
      <use xlink:href="#DejaVuSans-65" transform="translate(281.201172 0)"/>
      <use xlink:href="#DejaVuSans-20" transform="translate(342.724609 0)"/>
      <use xlink:href="#DejaVuSans-28" transform="translate(374.511719 0)"/>
      <use xlink:href="#DejaVuSans-73" transform="translate(413.525391 0)"/>
      <use xlink:href="#DejaVuSans-6f" transform="translate(465.625 0)"/>
      <use xlink:href="#DejaVuSans-72" transform="translate(526.806641 0)"/>
      <use xlink:href="#DejaVuSans-74" transform="translate(567.919922 0)"/>
      <use xlink:href="#DejaVuSans-65" transform="translate(607.128906 0)"/>
      <use xlink:href="#DejaVuSans-64" transform="translate(668.652344 0)"/>
      <use xlink:href="#DejaVuSans-29" transform="translate(732.128906 0)"/>
     </g>
    </g>
   </g>
   <g id="matplotlib.axis_2">
    <g id="ytick_1">
     <g id="line2d_7">
      <defs>
       <path id="m4f0cb925ef" d="M 0 0 
L -3.5 0 
" style="stroke: #000000; stroke-width: 0.8"/>
      </defs>
      <g>
       <use xlink:href="#m4f0cb925ef" x="50.87" y="373.532727" style="stroke: #000000; stroke-width: 0.8"/>
      </g>
     </g>
     <g id="text_8">
      <!-- 0 -->
      <g transform="translate(37.5075 377.331946) scale(0.1 -0.1)">
       <use xlink:href="#DejaVuSans-30"/>
      </g>
     </g>
    </g>
    <g id="ytick_2">
     <g id="line2d_8">
      <g>
       <use xlink:href="#m4f0cb925ef" x="50.87" y="328.062723" style="stroke: #000000; stroke-width: 0.8"/>
      </g>
     </g>
     <g id="text_9">
      <!-- 20 -->
      <g transform="translate(31.145 331.861942) scale(0.1 -0.1)">
       <use xlink:href="#DejaVuSans-32"/>
       <use xlink:href="#DejaVuSans-30" transform="translate(63.623047 0)"/>
      </g>
     </g>
    </g>
    <g id="ytick_3">
     <g id="line2d_9">
      <g>
       <use xlink:href="#m4f0cb925ef" x="50.87" y="282.59272" style="stroke: #000000; stroke-width: 0.8"/>
      </g>
     </g>
     <g id="text_10">
      <!-- 40 -->
      <g transform="translate(31.145 286.391938) scale(0.1 -0.1)">
       <use xlink:href="#DejaVuSans-34"/>
       <use xlink:href="#DejaVuSans-30" transform="translate(63.623047 0)"/>
      </g>
     </g>
    </g>
    <g id="ytick_4">
     <g id="line2d_10">
      <g>
       <use xlink:href="#m4f0cb925ef" x="50.87" y="237.122716" style="stroke: #000000; stroke-width: 0.8"/>
      </g>
     </g>
     <g id="text_11">
      <!-- 60 -->
      <g transform="translate(31.145 240.921935) scale(0.1 -0.1)">
       <use xlink:href="#DejaVuSans-36"/>
       <use xlink:href="#DejaVuSans-30" transform="translate(63.623047 0)"/>
      </g>
     </g>
    </g>
    <g id="ytick_5">
     <g id="line2d_11">
      <g>
       <use xlink:href="#m4f0cb925ef" x="50.87" y="191.652712" style="stroke: #000000; stroke-width: 0.8"/>
      </g>
     </g>
     <g id="text_12">
      <!-- 80 -->
      <g transform="translate(31.145 195.451931) scale(0.1 -0.1)">
       <use xlink:href="#DejaVuSans-38"/>
       <use xlink:href="#DejaVuSans-30" transform="translate(63.623047 0)"/>
      </g>
     </g>
    </g>
    <g id="ytick_6">
     <g id="line2d_12">
      <g>
       <use xlink:href="#m4f0cb925ef" x="50.87" y="146.182708" style="stroke: #000000; stroke-width: 0.8"/>
      </g>
     </g>
     <g id="text_13">
      <!-- 100 -->
      <g transform="translate(24.7825 149.981927) scale(0.1 -0.1)">
       <use xlink:href="#DejaVuSans-31"/>
       <use xlink:href="#DejaVuSans-30" transform="translate(63.623047 0)"/>
       <use xlink:href="#DejaVuSans-30" transform="translate(127.246094 0)"/>
      </g>
     </g>
    </g>
    <g id="ytick_7">
     <g id="line2d_13">
      <g>
       <use xlink:href="#m4f0cb925ef" x="50.87" y="100.712704" style="stroke: #000000; stroke-width: 0.8"/>
      </g>
     </g>
     <g id="text_14">
      <!-- 120 -->
      <g transform="translate(24.7825 104.511923) scale(0.1 -0.1)">
       <use xlink:href="#DejaVuSans-31"/>
       <use xlink:href="#DejaVuSans-32" transform="translate(63.623047 0)"/>
       <use xlink:href="#DejaVuSans-30" transform="translate(127.246094 0)"/>
      </g>
     </g>
    </g>
    <g id="ytick_8">
     <g id="line2d_14">
      <g>
       <use xlink:href="#m4f0cb925ef" x="50.87" y="55.242701" style="stroke: #000000; stroke-width: 0.8"/>
      </g>
     </g>
     <g id="text_15">
      <!-- 140 -->
      <g transform="translate(24.7825 59.041919) scale(0.1 -0.1)">
       <use xlink:href="#DejaVuSans-31"/>
       <use xlink:href="#DejaVuSans-34" transform="translate(63.623047 0)"/>
       <use xlink:href="#DejaVuSans-30" transform="translate(127.246094 0)"/>
      </g>
     </g>
    </g>
    <g id="text_16">
     <!-- RUL -->
     <g transform="translate(18.702813 218.379531) rotate(-90) scale(0.1 -0.1)">
      <defs>
       <path id="DejaVuSans-52" d="M 2841 2188 
Q 3044 2119 3236 1894 
Q 3428 1669 3622 1275 
L 4263 0 
L 3584 0 
L 2988 1197 
Q 2756 1666 2539 1819 
Q 2322 1972 1947 1972 
L 1259 1972 
L 1259 0 
L 628 0 
L 628 4666 
L 2053 4666 
Q 2853 4666 3247 4331 
Q 3641 3997 3641 3322 
Q 3641 2881 3436 2590 
Q 3231 2300 2841 2188 
z
M 1259 4147 
L 1259 2491 
L 2053 2491 
Q 2509 2491 2742 2702 
Q 2975 2913 2975 3322 
Q 2975 3731 2742 3939 
Q 2509 4147 2053 4147 
L 1259 4147 
z
" transform="scale(0.015625)"/>
       <path id="DejaVuSans-55" d="M 556 4666 
L 1191 4666 
L 1191 1831 
Q 1191 1081 1462 751 
Q 1734 422 2344 422 
Q 2950 422 3222 751 
Q 3494 1081 3494 1831 
L 3494 4666 
L 4128 4666 
L 4128 1753 
Q 4128 841 3676 375 
Q 3225 -91 2344 -91 
Q 1459 -91 1007 375 
Q 556 841 556 1753 
L 556 4666 
z
" transform="scale(0.015625)"/>
       <path id="DejaVuSans-4c" d="M 628 4666 
L 1259 4666 
L 1259 531 
L 3531 531 
L 3531 0 
L 628 0 
L 628 4666 
z
" transform="scale(0.015625)"/>
      </defs>
      <use xlink:href="#DejaVuSans-52"/>
      <use xlink:href="#DejaVuSans-55" transform="translate(69.482422 0)"/>
      <use xlink:href="#DejaVuSans-4c" transform="translate(142.675781 0)"/>
     </g>
    </g>
   </g>
   <g id="line2d_15">
    <path d="M 87.138533 273.498719 
L 94.694477 257.584218 
L 102.250422 312.148222 
L 109.806366 100.712704 
L 117.362311 143.909208 
L 124.918255 148.456208 
L 132.474199 212.114214 
L 140.030144 248.490217 
L 147.586088 248.490217 
L 155.142033 223.481715 
L 162.697977 198.473213 
L 170.253921 112.080205 
L 177.809866 112.080205 
L 185.36581 303.054221 
L 192.921754 127.994707 
L 200.477699 246.216717 
L 208.033643 89.345203 
L 215.589588 89.345203 
L 223.145532 180.285211 
L 230.701476 246.216717 
L 238.257421 332.609724 
L 245.813365 102.986205 
L 253.36931 196.199712 
L 260.925254 353.071226 
L 268.481198 241.669716 
L 276.037143 348.524225 
L 283.593087 173.464711 
L 291.149032 89.345203 
L 298.704976 91.618704 
L 306.26092 171.19121 
L 313.816865 193.926212 
L 321.372809 248.490217 
L 328.928753 212.114214 
L 336.484698 225.755215 
L 344.040642 175.738211 
L 351.596587 89.345203 
L 359.152531 323.515723 
L 366.708475 355.344726 
L 374.26442 280.319219 
L 381.820364 89.345203 
L 389.376309 112.080205 
L 396.932253 89.345203 
L 404.488197 216.661214 
L 412.044142 121.174206 
L 419.600086 357.618226 
L 427.15603 89.345203 
L 434.711975 248.490217 
L 442.267919 89.345203 
L 449.823864 348.524225 
L 457.379808 196.199712 
L 464.935752 175.738211 
L 472.491697 175.738211 
L 480.047641 248.490217 
L 487.603586 162.09721 
L 495.15953 173.464711 
L 502.715474 282.59272 
L 510.271419 262.131218 
L 517.827363 89.345203 
L 525.383308 89.345203 
L 532.939252 241.669716 
L 540.495196 107.533205 
L 548.051141 309.874722 
L 555.607085 112.080205 
L 563.163029 175.738211 
L 570.718974 164.37071 
L 578.274918 139.362208 
L 585.830863 146.182708 
L 593.386807 230.302215 
L 600.942751 293.960221 
L 608.498696 271.225219 
L 616.05464 148.456208 
L 623.610585 107.533205 
L 631.166529 271.225219 
L 638.722473 312.148222 
L 646.278418 178.011711 
L 653.834362 328.062723 
L 661.390306 332.609724 
L 668.946251 89.345203 
L 676.502195 339.430224 
L 684.05814 359.891726 
L 691.614084 89.345203 
L 699.170028 137.088707 
L 706.725973 246.216717 
L 714.281917 316.695223 
L 721.837862 218.934714 
L 729.393806 280.319219 
L 736.94975 257.584218 
L 744.505695 189.379212 
L 752.061639 341.703725 
L 759.617584 221.208215 
L 767.173528 350.797725 
L 774.729472 89.345203 
L 782.285417 116.627206 
L 789.841361 93.892204 
L 797.397305 334.883224 
L 804.95325 355.344726 
L 812.509194 309.874722 
" clip-path="url(#pde7db2b9b5)" style="fill: none; stroke: #1f77b4; stroke-width: 1.5; stroke-linecap: square"/>
   </g>
   <g id="line2d_16">
    <path d="M 87.138533 239.805681 
L 94.694477 245.49728 
L 102.250422 267.753574 
L 109.806366 102.389591 
L 117.362311 109.886806 
L 124.918255 133.021655 
L 132.474199 225.011859 
L 140.030144 248.802365 
L 147.586088 262.572581 
L 155.142033 214.258803 
L 162.697977 148.056049 
L 170.253921 134.755504 
L 177.809866 124.71708 
L 185.36581 298.568043 
L 192.921754 131.629407 
L 200.477699 120.658735 
L 208.033643 115.632203 
L 215.589588 124.001251 
L 223.145532 123.083001 
L 230.701476 236.709626 
L 238.257421 322.252156 
L 245.813365 97.8573 
L 253.36931 225.242033 
L 260.925254 351.688764 
L 268.481198 262.817247 
L 276.037143 355.15571 
L 283.593087 122.164162 
L 291.149032 98.379779 
L 298.704976 121.237274 
L 306.26092 202.166176 
L 313.816865 169.921317 
L 321.372809 218.189537 
L 328.928753 214.530467 
L 336.484698 126.722419 
L 344.040642 120.851252 
L 351.596587 98.412614 
L 359.152531 311.158514 
L 366.708475 343.341296 
L 374.26442 273.136728 
L 381.820364 103.362132 
L 389.376309 117.127101 
L 396.932253 103.804215 
L 404.488197 204.459103 
L 412.044142 98.994293 
L 419.600086 335.476416 
L 427.15603 127.351226 
L 434.711975 241.164435 
L 442.267919 112.434434 
L 449.823864 334.08004 
L 457.379808 182.151909 
L 464.935752 156.815283 
L 472.491697 100.87759 
L 480.047641 271.791053 
L 487.603586 145.585817 
L 495.15953 233.14514 
L 502.715474 269.235897 
L 510.271419 258.246058 
L 517.827363 114.557237 
L 525.383308 98.456029 
L 532.939252 234.669248 
L 540.495196 99.802468 
L 548.051141 290.895327 
L 555.607085 96.285474 
L 563.163029 135.638179 
L 570.718974 136.861708 
L 578.274918 115.842048 
L 585.830863 104.928216 
L 593.386807 165.630456 
L 600.942751 278.391457 
L 608.498696 245.568873 
L 616.05464 116.915365 
L 623.610585 95.021946 
L 631.166529 266.747747 
L 638.722473 322.870495 
L 646.278418 222.44876 
L 653.834362 304.679384 
L 661.390306 327.416372 
L 668.946251 94.203103 
L 676.502195 317.032509 
L 684.05814 337.845754 
L 691.614084 111.36174 
L 699.170028 170.145073 
L 706.725973 185.289073 
L 714.281917 316.013222 
L 721.837862 230.039857 
L 729.393806 242.974309 
L 736.94975 247.728241 
L 744.505695 114.428881 
L 752.061639 327.556324 
L 759.617584 198.452814 
L 767.173528 344.525527 
L 774.729472 163.392705 
L 782.285417 167.806146 
L 789.841361 96.086314 
L 797.397305 328.834036 
L 804.95325 338.830309 
L 812.509194 301.183968 
" clip-path="url(#pde7db2b9b5)" style="fill: none; stroke-dasharray: 5.55,2.4; stroke-dashoffset: 0; stroke: #ff7f0e; stroke-width: 1.5"/>
    <defs>
     <path id="mbaefbb5cb0" d="M 0 1.5 
C 0.397805 1.5 0.77937 1.341951 1.06066 1.06066 
C 1.341951 0.77937 1.5 0.397805 1.5 0 
C 1.5 -0.397805 1.341951 -0.77937 1.06066 -1.06066 
C 0.77937 -1.341951 0.397805 -1.5 0 -1.5 
C -0.397805 -1.5 -0.77937 -1.341951 -1.06066 -1.06066 
C -1.341951 -0.77937 -1.5 -0.397805 -1.5 0 
C -1.5 0.397805 -1.341951 0.77937 -1.06066 1.06066 
C -0.77937 1.341951 -0.397805 1.5 0 1.5 
z
" style="stroke: #ff7f0e"/>
    </defs>
    <g clip-path="url(#pde7db2b9b5)">
     <use xlink:href="#mbaefbb5cb0" x="87.138533" y="239.805681" style="fill: #ff7f0e; stroke: #ff7f0e"/>
     <use xlink:href="#mbaefbb5cb0" x="94.694477" y="245.49728" style="fill: #ff7f0e; stroke: #ff7f0e"/>
     <use xlink:href="#mbaefbb5cb0" x="102.250422" y="267.753574" style="fill: #ff7f0e; stroke: #ff7f0e"/>
     <use xlink:href="#mbaefbb5cb0" x="109.806366" y="102.389591" style="fill: #ff7f0e; stroke: #ff7f0e"/>
     <use xlink:href="#mbaefbb5cb0" x="117.362311" y="109.886806" style="fill: #ff7f0e; stroke: #ff7f0e"/>
     <use xlink:href="#mbaefbb5cb0" x="124.918255" y="133.021655" style="fill: #ff7f0e; stroke: #ff7f0e"/>
     <use xlink:href="#mbaefbb5cb0" x="132.474199" y="225.011859" style="fill: #ff7f0e; stroke: #ff7f0e"/>
     <use xlink:href="#mbaefbb5cb0" x="140.030144" y="248.802365" style="fill: #ff7f0e; stroke: #ff7f0e"/>
     <use xlink:href="#mbaefbb5cb0" x="147.586088" y="262.572581" style="fill: #ff7f0e; stroke: #ff7f0e"/>
     <use xlink:href="#mbaefbb5cb0" x="155.142033" y="214.258803" style="fill: #ff7f0e; stroke: #ff7f0e"/>
     <use xlink:href="#mbaefbb5cb0" x="162.697977" y="148.056049" style="fill: #ff7f0e; stroke: #ff7f0e"/>
     <use xlink:href="#mbaefbb5cb0" x="170.253921" y="134.755504" style="fill: #ff7f0e; stroke: #ff7f0e"/>
     <use xlink:href="#mbaefbb5cb0" x="177.809866" y="124.71708" style="fill: #ff7f0e; stroke: #ff7f0e"/>
     <use xlink:href="#mbaefbb5cb0" x="185.36581" y="298.568043" style="fill: #ff7f0e; stroke: #ff7f0e"/>
     <use xlink:href="#mbaefbb5cb0" x="192.921754" y="131.629407" style="fill: #ff7f0e; stroke: #ff7f0e"/>
     <use xlink:href="#mbaefbb5cb0" x="200.477699" y="120.658735" style="fill: #ff7f0e; stroke: #ff7f0e"/>
     <use xlink:href="#mbaefbb5cb0" x="208.033643" y="115.632203" style="fill: #ff7f0e; stroke: #ff7f0e"/>
     <use xlink:href="#mbaefbb5cb0" x="215.589588" y="124.001251" style="fill: #ff7f0e; stroke: #ff7f0e"/>
     <use xlink:href="#mbaefbb5cb0" x="223.145532" y="123.083001" style="fill: #ff7f0e; stroke: #ff7f0e"/>
     <use xlink:href="#mbaefbb5cb0" x="230.701476" y="236.709626" style="fill: #ff7f0e; stroke: #ff7f0e"/>
     <use xlink:href="#mbaefbb5cb0" x="238.257421" y="322.252156" style="fill: #ff7f0e; stroke: #ff7f0e"/>
     <use xlink:href="#mbaefbb5cb0" x="245.813365" y="97.8573" style="fill: #ff7f0e; stroke: #ff7f0e"/>
     <use xlink:href="#mbaefbb5cb0" x="253.36931" y="225.242033" style="fill: #ff7f0e; stroke: #ff7f0e"/>
     <use xlink:href="#mbaefbb5cb0" x="260.925254" y="351.688764" style="fill: #ff7f0e; stroke: #ff7f0e"/>
     <use xlink:href="#mbaefbb5cb0" x="268.481198" y="262.817247" style="fill: #ff7f0e; stroke: #ff7f0e"/>
     <use xlink:href="#mbaefbb5cb0" x="276.037143" y="355.15571" style="fill: #ff7f0e; stroke: #ff7f0e"/>
     <use xlink:href="#mbaefbb5cb0" x="283.593087" y="122.164162" style="fill: #ff7f0e; stroke: #ff7f0e"/>
     <use xlink:href="#mbaefbb5cb0" x="291.149032" y="98.379779" style="fill: #ff7f0e; stroke: #ff7f0e"/>
     <use xlink:href="#mbaefbb5cb0" x="298.704976" y="121.237274" style="fill: #ff7f0e; stroke: #ff7f0e"/>
     <use xlink:href="#mbaefbb5cb0" x="306.26092" y="202.166176" style="fill: #ff7f0e; stroke: #ff7f0e"/>
     <use xlink:href="#mbaefbb5cb0" x="313.816865" y="169.921317" style="fill: #ff7f0e; stroke: #ff7f0e"/>
     <use xlink:href="#mbaefbb5cb0" x="321.372809" y="218.189537" style="fill: #ff7f0e; stroke: #ff7f0e"/>
     <use xlink:href="#mbaefbb5cb0" x="328.928753" y="214.530467" style="fill: #ff7f0e; stroke: #ff7f0e"/>
     <use xlink:href="#mbaefbb5cb0" x="336.484698" y="126.722419" style="fill: #ff7f0e; stroke: #ff7f0e"/>
     <use xlink:href="#mbaefbb5cb0" x="344.040642" y="120.851252" style="fill: #ff7f0e; stroke: #ff7f0e"/>
     <use xlink:href="#mbaefbb5cb0" x="351.596587" y="98.412614" style="fill: #ff7f0e; stroke: #ff7f0e"/>
     <use xlink:href="#mbaefbb5cb0" x="359.152531" y="311.158514" style="fill: #ff7f0e; stroke: #ff7f0e"/>
     <use xlink:href="#mbaefbb5cb0" x="366.708475" y="343.341296" style="fill: #ff7f0e; stroke: #ff7f0e"/>
     <use xlink:href="#mbaefbb5cb0" x="374.26442" y="273.136728" style="fill: #ff7f0e; stroke: #ff7f0e"/>
     <use xlink:href="#mbaefbb5cb0" x="381.820364" y="103.362132" style="fill: #ff7f0e; stroke: #ff7f0e"/>
     <use xlink:href="#mbaefbb5cb0" x="389.376309" y="117.127101" style="fill: #ff7f0e; stroke: #ff7f0e"/>
     <use xlink:href="#mbaefbb5cb0" x="396.932253" y="103.804215" style="fill: #ff7f0e; stroke: #ff7f0e"/>
     <use xlink:href="#mbaefbb5cb0" x="404.488197" y="204.459103" style="fill: #ff7f0e; stroke: #ff7f0e"/>
     <use xlink:href="#mbaefbb5cb0" x="412.044142" y="98.994293" style="fill: #ff7f0e; stroke: #ff7f0e"/>
     <use xlink:href="#mbaefbb5cb0" x="419.600086" y="335.476416" style="fill: #ff7f0e; stroke: #ff7f0e"/>
     <use xlink:href="#mbaefbb5cb0" x="427.15603" y="127.351226" style="fill: #ff7f0e; stroke: #ff7f0e"/>
     <use xlink:href="#mbaefbb5cb0" x="434.711975" y="241.164435" style="fill: #ff7f0e; stroke: #ff7f0e"/>
     <use xlink:href="#mbaefbb5cb0" x="442.267919" y="112.434434" style="fill: #ff7f0e; stroke: #ff7f0e"/>
     <use xlink:href="#mbaefbb5cb0" x="449.823864" y="334.08004" style="fill: #ff7f0e; stroke: #ff7f0e"/>
     <use xlink:href="#mbaefbb5cb0" x="457.379808" y="182.151909" style="fill: #ff7f0e; stroke: #ff7f0e"/>
     <use xlink:href="#mbaefbb5cb0" x="464.935752" y="156.815283" style="fill: #ff7f0e; stroke: #ff7f0e"/>
     <use xlink:href="#mbaefbb5cb0" x="472.491697" y="100.87759" style="fill: #ff7f0e; stroke: #ff7f0e"/>
     <use xlink:href="#mbaefbb5cb0" x="480.047641" y="271.791053" style="fill: #ff7f0e; stroke: #ff7f0e"/>
     <use xlink:href="#mbaefbb5cb0" x="487.603586" y="145.585817" style="fill: #ff7f0e; stroke: #ff7f0e"/>
     <use xlink:href="#mbaefbb5cb0" x="495.15953" y="233.14514" style="fill: #ff7f0e; stroke: #ff7f0e"/>
     <use xlink:href="#mbaefbb5cb0" x="502.715474" y="269.235897" style="fill: #ff7f0e; stroke: #ff7f0e"/>
     <use xlink:href="#mbaefbb5cb0" x="510.271419" y="258.246058" style="fill: #ff7f0e; stroke: #ff7f0e"/>
     <use xlink:href="#mbaefbb5cb0" x="517.827363" y="114.557237" style="fill: #ff7f0e; stroke: #ff7f0e"/>
     <use xlink:href="#mbaefbb5cb0" x="525.383308" y="98.456029" style="fill: #ff7f0e; stroke: #ff7f0e"/>
     <use xlink:href="#mbaefbb5cb0" x="532.939252" y="234.669248" style="fill: #ff7f0e; stroke: #ff7f0e"/>
     <use xlink:href="#mbaefbb5cb0" x="540.495196" y="99.802468" style="fill: #ff7f0e; stroke: #ff7f0e"/>
     <use xlink:href="#mbaefbb5cb0" x="548.051141" y="290.895327" style="fill: #ff7f0e; stroke: #ff7f0e"/>
     <use xlink:href="#mbaefbb5cb0" x="555.607085" y="96.285474" style="fill: #ff7f0e; stroke: #ff7f0e"/>
     <use xlink:href="#mbaefbb5cb0" x="563.163029" y="135.638179" style="fill: #ff7f0e; stroke: #ff7f0e"/>
     <use xlink:href="#mbaefbb5cb0" x="570.718974" y="136.861708" style="fill: #ff7f0e; stroke: #ff7f0e"/>
     <use xlink:href="#mbaefbb5cb0" x="578.274918" y="115.842048" style="fill: #ff7f0e; stroke: #ff7f0e"/>
     <use xlink:href="#mbaefbb5cb0" x="585.830863" y="104.928216" style="fill: #ff7f0e; stroke: #ff7f0e"/>
     <use xlink:href="#mbaefbb5cb0" x="593.386807" y="165.630456" style="fill: #ff7f0e; stroke: #ff7f0e"/>
     <use xlink:href="#mbaefbb5cb0" x="600.942751" y="278.391457" style="fill: #ff7f0e; stroke: #ff7f0e"/>
     <use xlink:href="#mbaefbb5cb0" x="608.498696" y="245.568873" style="fill: #ff7f0e; stroke: #ff7f0e"/>
     <use xlink:href="#mbaefbb5cb0" x="616.05464" y="116.915365" style="fill: #ff7f0e; stroke: #ff7f0e"/>
     <use xlink:href="#mbaefbb5cb0" x="623.610585" y="95.021946" style="fill: #ff7f0e; stroke: #ff7f0e"/>
     <use xlink:href="#mbaefbb5cb0" x="631.166529" y="266.747747" style="fill: #ff7f0e; stroke: #ff7f0e"/>
     <use xlink:href="#mbaefbb5cb0" x="638.722473" y="322.870495" style="fill: #ff7f0e; stroke: #ff7f0e"/>
     <use xlink:href="#mbaefbb5cb0" x="646.278418" y="222.44876" style="fill: #ff7f0e; stroke: #ff7f0e"/>
     <use xlink:href="#mbaefbb5cb0" x="653.834362" y="304.679384" style="fill: #ff7f0e; stroke: #ff7f0e"/>
     <use xlink:href="#mbaefbb5cb0" x="661.390306" y="327.416372" style="fill: #ff7f0e; stroke: #ff7f0e"/>
     <use xlink:href="#mbaefbb5cb0" x="668.946251" y="94.203103" style="fill: #ff7f0e; stroke: #ff7f0e"/>
     <use xlink:href="#mbaefbb5cb0" x="676.502195" y="317.032509" style="fill: #ff7f0e; stroke: #ff7f0e"/>
     <use xlink:href="#mbaefbb5cb0" x="684.05814" y="337.845754" style="fill: #ff7f0e; stroke: #ff7f0e"/>
     <use xlink:href="#mbaefbb5cb0" x="691.614084" y="111.36174" style="fill: #ff7f0e; stroke: #ff7f0e"/>
     <use xlink:href="#mbaefbb5cb0" x="699.170028" y="170.145073" style="fill: #ff7f0e; stroke: #ff7f0e"/>
     <use xlink:href="#mbaefbb5cb0" x="706.725973" y="185.289073" style="fill: #ff7f0e; stroke: #ff7f0e"/>
     <use xlink:href="#mbaefbb5cb0" x="714.281917" y="316.013222" style="fill: #ff7f0e; stroke: #ff7f0e"/>
     <use xlink:href="#mbaefbb5cb0" x="721.837862" y="230.039857" style="fill: #ff7f0e; stroke: #ff7f0e"/>
     <use xlink:href="#mbaefbb5cb0" x="729.393806" y="242.974309" style="fill: #ff7f0e; stroke: #ff7f0e"/>
     <use xlink:href="#mbaefbb5cb0" x="736.94975" y="247.728241" style="fill: #ff7f0e; stroke: #ff7f0e"/>
     <use xlink:href="#mbaefbb5cb0" x="744.505695" y="114.428881" style="fill: #ff7f0e; stroke: #ff7f0e"/>
     <use xlink:href="#mbaefbb5cb0" x="752.061639" y="327.556324" style="fill: #ff7f0e; stroke: #ff7f0e"/>
     <use xlink:href="#mbaefbb5cb0" x="759.617584" y="198.452814" style="fill: #ff7f0e; stroke: #ff7f0e"/>
     <use xlink:href="#mbaefbb5cb0" x="767.173528" y="344.525527" style="fill: #ff7f0e; stroke: #ff7f0e"/>
     <use xlink:href="#mbaefbb5cb0" x="774.729472" y="163.392705" style="fill: #ff7f0e; stroke: #ff7f0e"/>
     <use xlink:href="#mbaefbb5cb0" x="782.285417" y="167.806146" style="fill: #ff7f0e; stroke: #ff7f0e"/>
     <use xlink:href="#mbaefbb5cb0" x="789.841361" y="96.086314" style="fill: #ff7f0e; stroke: #ff7f0e"/>
     <use xlink:href="#mbaefbb5cb0" x="797.397305" y="328.834036" style="fill: #ff7f0e; stroke: #ff7f0e"/>
     <use xlink:href="#mbaefbb5cb0" x="804.95325" y="338.830309" style="fill: #ff7f0e; stroke: #ff7f0e"/>
     <use xlink:href="#mbaefbb5cb0" x="812.509194" y="301.183968" style="fill: #ff7f0e; stroke: #ff7f0e"/>
    </g>
   </g>
   <g id="patch_3">
    <path d="M 50.87 390.04 
L 50.87 26.88 
" style="fill: none; stroke: #000000; stroke-width: 0.8; stroke-linejoin: miter; stroke-linecap: square"/>
   </g>
   <g id="patch_4">
    <path d="M 848.777727 390.04 
L 848.777727 26.88 
" style="fill: none; stroke: #000000; stroke-width: 0.8; stroke-linejoin: miter; stroke-linecap: square"/>
   </g>
   <g id="patch_5">
    <path d="M 50.87 390.04 
L 848.777727 390.04 
" style="fill: none; stroke: #000000; stroke-width: 0.8; stroke-linejoin: miter; stroke-linecap: square"/>
   </g>
   <g id="patch_6">
    <path d="M 50.87 26.88 
L 848.777727 26.88 
" style="fill: none; stroke: #000000; stroke-width: 0.8; stroke-linejoin: miter; stroke-linecap: square"/>
   </g>
   <g id="text_17">
    <!-- Final-Engine RUL with Prediction Bands – FD003 -->
    <g transform="translate(306.334801 20.88) scale(0.12 -0.12)">
     <defs>
      <path id="DejaVuSans-46" d="M 628 4666 
L 3309 4666 
L 3309 4134 
L 1259 4134 
L 1259 2759 
L 3109 2759 
L 3109 2228 
L 1259 2228 
L 1259 0 
L 628 0 
L 628 4666 
z
" transform="scale(0.015625)"/>
      <path id="DejaVuSans-61" d="M 2194 1759 
Q 1497 1759 1228 1600 
Q 959 1441 959 1056 
Q 959 750 1161 570 
Q 1363 391 1709 391 
Q 2188 391 2477 730 
Q 2766 1069 2766 1631 
L 2766 1759 
L 2194 1759 
z
M 3341 1997 
L 3341 0 
L 2766 0 
L 2766 531 
Q 2569 213 2275 61 
Q 1981 -91 1556 -91 
Q 1019 -91 701 211 
Q 384 513 384 1019 
Q 384 1609 779 1909 
Q 1175 2209 1959 2209 
L 2766 2209 
L 2766 2266 
Q 2766 2663 2505 2880 
Q 2244 3097 1772 3097 
Q 1472 3097 1187 3025 
Q 903 2953 641 2809 
L 641 3341 
Q 956 3463 1253 3523 
Q 1550 3584 1831 3584 
Q 2591 3584 2966 3190 
Q 3341 2797 3341 1997 
z
" transform="scale(0.015625)"/>
      <path id="DejaVuSans-6c" d="M 603 4863 
L 1178 4863 
L 1178 0 
L 603 0 
L 603 4863 
z
" transform="scale(0.015625)"/>
      <path id="DejaVuSans-2d" d="M 313 2009 
L 1997 2009 
L 1997 1497 
L 313 1497 
L 313 2009 
z
" transform="scale(0.015625)"/>
      <path id="DejaVuSans-77" d="M 269 3500 
L 844 3500 
L 1563 769 
L 2278 3500 
L 2956 3500 
L 3675 769 
L 4391 3500 
L 4966 3500 
L 4050 0 
L 3372 0 
L 2619 2869 
L 1863 0 
L 1184 0 
L 269 3500 
z
" transform="scale(0.015625)"/>
      <path id="DejaVuSans-68" d="M 3513 2113 
L 3513 0 
L 2938 0 
L 2938 2094 
Q 2938 2591 2744 2837 
Q 2550 3084 2163 3084 
Q 1697 3084 1428 2787 
Q 1159 2491 1159 1978 
L 1159 0 
L 581 0 
L 581 4863 
L 1159 4863 
L 1159 2956 
Q 1366 3272 1645 3428 
Q 1925 3584 2291 3584 
Q 2894 3584 3203 3211 
Q 3513 2838 3513 2113 
z
" transform="scale(0.015625)"/>
      <path id="DejaVuSans-50" d="M 1259 4147 
L 1259 2394 
L 2053 2394 
Q 2494 2394 2734 2622 
Q 2975 2850 2975 3272 
Q 2975 3691 2734 3919 
Q 2494 4147 2053 4147 
L 1259 4147 
z
M 628 4666 
L 2053 4666 
Q 2838 4666 3239 4311 
Q 3641 3956 3641 3272 
Q 3641 2581 3239 2228 
Q 2838 1875 2053 1875 
L 1259 1875 
L 1259 0 
L 628 0 
L 628 4666 
z
" transform="scale(0.015625)"/>
      <path id="DejaVuSans-63" d="M 3122 3366 
L 3122 2828 
Q 2878 2963 2633 3030 
Q 2388 3097 2138 3097 
Q 1578 3097 1268 2742 
Q 959 2388 959 1747 
Q 959 1106 1268 751 
Q 1578 397 2138 397 
Q 2388 397 2633 464 
Q 2878 531 3122 666 
L 3122 134 
Q 2881 22 2623 -34 
Q 2366 -91 2075 -91 
Q 1284 -91 818 406 
Q 353 903 353 1747 
Q 353 2603 823 3093 
Q 1294 3584 2113 3584 
Q 2378 3584 2631 3529 
Q 2884 3475 3122 3366 
z
" transform="scale(0.015625)"/>
      <path id="DejaVuSans-42" d="M 1259 2228 
L 1259 519 
L 2272 519 
Q 2781 519 3026 730 
Q 3272 941 3272 1375 
Q 3272 1813 3026 2020 
Q 2781 2228 2272 2228 
L 1259 2228 
z
M 1259 4147 
L 1259 2741 
L 2194 2741 
Q 2656 2741 2882 2914 
Q 3109 3088 3109 3444 
Q 3109 3797 2882 3972 
Q 2656 4147 2194 4147 
L 1259 4147 
z
M 628 4666 
L 2241 4666 
Q 2963 4666 3353 4366 
Q 3744 4066 3744 3513 
Q 3744 3084 3544 2831 
Q 3344 2578 2956 2516 
Q 3422 2416 3680 2098 
Q 3938 1781 3938 1306 
Q 3938 681 3513 340 
Q 3088 0 2303 0 
L 628 0 
L 628 4666 
z
" transform="scale(0.015625)"/>
      <path id="DejaVuSans-2013" d="M 313 1978 
L 2888 1978 
L 2888 1528 
L 313 1528 
L 313 1978 
z
" transform="scale(0.015625)"/>
      <path id="DejaVuSans-44" d="M 1259 4147 
L 1259 519 
L 2022 519 
Q 2988 519 3436 956 
Q 3884 1394 3884 2338 
Q 3884 3275 3436 3711 
Q 2988 4147 2022 4147 
L 1259 4147 
z
M 628 4666 
L 1925 4666 
Q 3281 4666 3915 4102 
Q 4550 3538 4550 2338 
Q 4550 1131 3912 565 
Q 3275 0 1925 0 
L 628 0 
L 628 4666 
z
" transform="scale(0.015625)"/>
      <path id="DejaVuSans-33" d="M 2597 2516 
Q 3050 2419 3304 2112 
Q 3559 1806 3559 1356 
Q 3559 666 3084 287 
Q 2609 -91 1734 -91 
Q 1441 -91 1130 -33 
Q 819 25 488 141 
L 488 750 
Q 750 597 1062 519 
Q 1375 441 1716 441 
Q 2309 441 2620 675 
Q 2931 909 2931 1356 
Q 2931 1769 2642 2001 
Q 2353 2234 1838 2234 
L 1294 2234 
L 1294 2753 
L 1863 2753 
Q 2328 2753 2575 2939 
Q 2822 3125 2822 3475 
Q 2822 3834 2567 4026 
Q 2313 4219 1838 4219 
Q 1578 4219 1281 4162 
Q 984 4106 628 3988 
L 628 4550 
Q 988 4650 1302 4700 
Q 1616 4750 1894 4750 
Q 2613 4750 3031 4423 
Q 3450 4097 3450 3541 
Q 3450 3153 3228 2886 
Q 3006 2619 2597 2516 
z
" transform="scale(0.015625)"/>
     </defs>
     <use xlink:href="#DejaVuSans-46"/>
     <use xlink:href="#DejaVuSans-69" transform="translate(50.269531 0)"/>
     <use xlink:href="#DejaVuSans-6e" transform="translate(78.052734 0)"/>
     <use xlink:href="#DejaVuSans-61" transform="translate(141.431641 0)"/>
     <use xlink:href="#DejaVuSans-6c" transform="translate(202.710938 0)"/>
     <use xlink:href="#DejaVuSans-2d" transform="translate(230.494141 0)"/>
     <use xlink:href="#DejaVuSans-45" transform="translate(266.578125 0)"/>
     <use xlink:href="#DejaVuSans-6e" transform="translate(329.761719 0)"/>
     <use xlink:href="#DejaVuSans-67" transform="translate(393.140625 0)"/>
     <use xlink:href="#DejaVuSans-69" transform="translate(456.617188 0)"/>
     <use xlink:href="#DejaVuSans-6e" transform="translate(484.400391 0)"/>
     <use xlink:href="#DejaVuSans-65" transform="translate(547.779297 0)"/>
     <use xlink:href="#DejaVuSans-20" transform="translate(609.302734 0)"/>
     <use xlink:href="#DejaVuSans-52" transform="translate(641.089844 0)"/>
     <use xlink:href="#DejaVuSans-55" transform="translate(710.572266 0)"/>
     <use xlink:href="#DejaVuSans-4c" transform="translate(783.765625 0)"/>
     <use xlink:href="#DejaVuSans-20" transform="translate(839.478516 0)"/>
     <use xlink:href="#DejaVuSans-77" transform="translate(871.265625 0)"/>
     <use xlink:href="#DejaVuSans-69" transform="translate(953.052734 0)"/>
     <use xlink:href="#DejaVuSans-74" transform="translate(980.835938 0)"/>
     <use xlink:href="#DejaVuSans-68" transform="translate(1020.044922 0)"/>
     <use xlink:href="#DejaVuSans-20" transform="translate(1083.423828 0)"/>
     <use xlink:href="#DejaVuSans-50" transform="translate(1115.210938 0)"/>
     <use xlink:href="#DejaVuSans-72" transform="translate(1173.763672 0)"/>
     <use xlink:href="#DejaVuSans-65" transform="translate(1212.626953 0)"/>
     <use xlink:href="#DejaVuSans-64" transform="translate(1274.150391 0)"/>
     <use xlink:href="#DejaVuSans-69" transform="translate(1337.626953 0)"/>
     <use xlink:href="#DejaVuSans-63" transform="translate(1365.410156 0)"/>
     <use xlink:href="#DejaVuSans-74" transform="translate(1420.390625 0)"/>
     <use xlink:href="#DejaVuSans-69" transform="translate(1459.599609 0)"/>
     <use xlink:href="#DejaVuSans-6f" transform="translate(1487.382812 0)"/>
     <use xlink:href="#DejaVuSans-6e" transform="translate(1548.564453 0)"/>
     <use xlink:href="#DejaVuSans-20" transform="translate(1611.943359 0)"/>
     <use xlink:href="#DejaVuSans-42" transform="translate(1643.730469 0)"/>
     <use xlink:href="#DejaVuSans-61" transform="translate(1712.333984 0)"/>
     <use xlink:href="#DejaVuSans-6e" transform="translate(1773.613281 0)"/>
     <use xlink:href="#DejaVuSans-64" transform="translate(1836.992188 0)"/>
     <use xlink:href="#DejaVuSans-73" transform="translate(1900.46875 0)"/>
     <use xlink:href="#DejaVuSans-20" transform="translate(1952.568359 0)"/>
     <use xlink:href="#DejaVuSans-2013" transform="translate(1984.355469 0)"/>
     <use xlink:href="#DejaVuSans-20" transform="translate(2034.355469 0)"/>
     <use xlink:href="#DejaVuSans-46" transform="translate(2066.142578 0)"/>
     <use xlink:href="#DejaVuSans-44" transform="translate(2123.662109 0)"/>
     <use xlink:href="#DejaVuSans-30" transform="translate(2200.664062 0)"/>
     <use xlink:href="#DejaVuSans-30" transform="translate(2264.287109 0)"/>
     <use xlink:href="#DejaVuSans-33" transform="translate(2327.910156 0)"/>
    </g>
   </g>
   <g id="legend_1">
    <g id="patch_7">
     <path d="M 57.87 385.04 
L 202.390312 385.04 
Q 204.390312 385.04 204.390312 383.04 
L 204.390312 340.005625 
Q 204.390312 338.005625 202.390312 338.005625 
L 57.87 338.005625 
Q 55.87 338.005625 55.87 340.005625 
L 55.87 383.04 
Q 55.87 385.04 57.87 385.04 
z
" style="fill: #ffffff; opacity: 0.8; stroke: #cccccc; stroke-linejoin: miter"/>
    </g>
    <g id="patch_8">
     <path d="M 59.87 349.604062 
L 79.87 349.604062 
L 79.87 342.604062 
L 59.87 342.604062 
z
" style="fill: #1f77b4; fill-opacity: 0.2"/>
    </g>
    <g id="text_18">
     <!-- Prediction Band (lo–hi) -->
     <g transform="translate(87.87 349.604062) scale(0.1 -0.1)">
      <use xlink:href="#DejaVuSans-50"/>
      <use xlink:href="#DejaVuSans-72" transform="translate(58.552734 0)"/>
      <use xlink:href="#DejaVuSans-65" transform="translate(97.416016 0)"/>
      <use xlink:href="#DejaVuSans-64" transform="translate(158.939453 0)"/>
      <use xlink:href="#DejaVuSans-69" transform="translate(222.416016 0)"/>
      <use xlink:href="#DejaVuSans-63" transform="translate(250.199219 0)"/>
      <use xlink:href="#DejaVuSans-74" transform="translate(305.179688 0)"/>
      <use xlink:href="#DejaVuSans-69" transform="translate(344.388672 0)"/>
      <use xlink:href="#DejaVuSans-6f" transform="translate(372.171875 0)"/>
      <use xlink:href="#DejaVuSans-6e" transform="translate(433.353516 0)"/>
      <use xlink:href="#DejaVuSans-20" transform="translate(496.732422 0)"/>
      <use xlink:href="#DejaVuSans-42" transform="translate(528.519531 0)"/>
      <use xlink:href="#DejaVuSans-61" transform="translate(597.123047 0)"/>
      <use xlink:href="#DejaVuSans-6e" transform="translate(658.402344 0)"/>
      <use xlink:href="#DejaVuSans-64" transform="translate(721.78125 0)"/>
      <use xlink:href="#DejaVuSans-20" transform="translate(785.257812 0)"/>
      <use xlink:href="#DejaVuSans-28" transform="translate(817.044922 0)"/>
      <use xlink:href="#DejaVuSans-6c" transform="translate(856.058594 0)"/>
      <use xlink:href="#DejaVuSans-6f" transform="translate(883.841797 0)"/>
      <use xlink:href="#DejaVuSans-2013" transform="translate(945.023438 0)"/>
      <use xlink:href="#DejaVuSans-68" transform="translate(995.023438 0)"/>
      <use xlink:href="#DejaVuSans-69" transform="translate(1058.402344 0)"/>
      <use xlink:href="#DejaVuSans-29" transform="translate(1086.185547 0)"/>
     </g>
    </g>
    <g id="line2d_17">
     <path d="M 59.87 360.782187 
L 69.87 360.782187 
L 79.87 360.782187 
" style="fill: none; stroke: #1f77b4; stroke-width: 1.5; stroke-linecap: square"/>
    </g>
    <g id="text_19">
     <!-- RUL Actual -->
     <g transform="translate(87.87 364.282187) scale(0.1 -0.1)">
      <defs>
       <path id="DejaVuSans-41" d="M 2188 4044 
L 1331 1722 
L 3047 1722 
L 2188 4044 
z
M 1831 4666 
L 2547 4666 
L 4325 0 
L 3669 0 
L 3244 1197 
L 1141 1197 
L 716 0 
L 50 0 
L 1831 4666 
z
" transform="scale(0.015625)"/>
       <path id="DejaVuSans-75" d="M 544 1381 
L 544 3500 
L 1119 3500 
L 1119 1403 
Q 1119 906 1312 657 
Q 1506 409 1894 409 
Q 2359 409 2629 706 
Q 2900 1003 2900 1516 
L 2900 3500 
L 3475 3500 
L 3475 0 
L 2900 0 
L 2900 538 
Q 2691 219 2414 64 
Q 2138 -91 1772 -91 
Q 1169 -91 856 284 
Q 544 659 544 1381 
z
M 1991 3584 
L 1991 3584 
z
" transform="scale(0.015625)"/>
      </defs>
      <use xlink:href="#DejaVuSans-52"/>
      <use xlink:href="#DejaVuSans-55" transform="translate(69.482422 0)"/>
      <use xlink:href="#DejaVuSans-4c" transform="translate(142.675781 0)"/>
      <use xlink:href="#DejaVuSans-20" transform="translate(198.388672 0)"/>
      <use xlink:href="#DejaVuSans-41" transform="translate(230.175781 0)"/>
      <use xlink:href="#DejaVuSans-63" transform="translate(296.833984 0)"/>
      <use xlink:href="#DejaVuSans-74" transform="translate(351.814453 0)"/>
      <use xlink:href="#DejaVuSans-75" transform="translate(391.023438 0)"/>
      <use xlink:href="#DejaVuSans-61" transform="translate(454.402344 0)"/>
      <use xlink:href="#DejaVuSans-6c" transform="translate(515.681641 0)"/>
     </g>
    </g>
    <g id="line2d_18">
     <path d="M 59.87 375.460312 
L 69.87 375.460312 
L 79.87 375.460312 
" style="fill: none; stroke-dasharray: 5.55,2.4; stroke-dashoffset: 0; stroke: #ff7f0e; stroke-width: 1.5"/>
     <g>
      <use xlink:href="#mbaefbb5cb0" x="69.87" y="375.460312" style="fill: #ff7f0e; stroke: #ff7f0e"/>
     </g>
    </g>
    <g id="text_20">
     <!-- RUL Prediction -->
     <g transform="translate(87.87 378.960312) scale(0.1 -0.1)">
      <use xlink:href="#DejaVuSans-52"/>
      <use xlink:href="#DejaVuSans-55" transform="translate(69.482422 0)"/>
      <use xlink:href="#DejaVuSans-4c" transform="translate(142.675781 0)"/>
      <use xlink:href="#DejaVuSans-20" transform="translate(198.388672 0)"/>
      <use xlink:href="#DejaVuSans-50" transform="translate(230.175781 0)"/>
      <use xlink:href="#DejaVuSans-72" transform="translate(288.728516 0)"/>
      <use xlink:href="#DejaVuSans-65" transform="translate(327.591797 0)"/>
      <use xlink:href="#DejaVuSans-64" transform="translate(389.115234 0)"/>
      <use xlink:href="#DejaVuSans-69" transform="translate(452.591797 0)"/>
      <use xlink:href="#DejaVuSans-63" transform="translate(480.375 0)"/>
      <use xlink:href="#DejaVuSans-74" transform="translate(535.355469 0)"/>
      <use xlink:href="#DejaVuSans-69" transform="translate(574.564453 0)"/>
      <use xlink:href="#DejaVuSans-6f" transform="translate(602.347656 0)"/>
      <use xlink:href="#DejaVuSans-6e" transform="translate(663.529297 0)"/>
     </g>
    </g>
   </g>
  </g>
 </g>
 <defs>
  <clipPath id="pde7db2b9b5">
   <rect x="50.87" y="26.88" width="797.907727" height="363.16"/>
  </clipPath>
 </defs>
</svg>
