<?xml version="1.0" encoding="utf-8" standalone="no"?>
<!DOCTYPE svg PUBLIC "-//W3C//DTD SVG 1.1//EN"
  "http://www.w3.org/Graphics/SVG/1.1/DTD/svg11.dtd">
<svg xmlns:xlink="http://www.w3.org/1999/xlink" width="864pt" height="432pt" viewBox="0 0 864 432" xmlns="http://www.w3.org/2000/svg" version="1.1">
 <metadata>
  <rdf:RDF xmlns:dc="http://purl.org/dc/elements/1.1/" xmlns:cc="http://creativecommons.org/ns#" xmlns:rdf="http://www.w3.org/1999/02/22-rdf-syntax-ns#">
   <cc:Work>
    <dc:type rdf:resource="http://purl.org/dc/dcmitype/StillImage"/>
    <dc:date>2025-10-29T21:52:58.707067</dc:date>
    <dc:format>image/svg+xml</dc:format>
    <dc:creator>
     <cc:Agent>
      <dc:title>Matplotlib v3.10.7, https://matplotlib.org/</dc:title>
     </cc:Agent>
    </dc:creator>
   </cc:Work>
  </rdf:RDF>
 </metadata>
 <defs>
  <style type="text/css">*{stroke-linejoin: round; stroke-linecap: butt}</style>
 </defs>
 <g id="figure_1">
  <g id="patch_1">
   <path d="M 0 432 
L 864 432 
L 864 0 
L 0 0 
z
" style="fill: #ffffff"/>
  </g>
  <g id="axes_1">
   <g id="patch_2">
    <path d="M 50.87 390.04 
L 853.2 390.04 
L 853.2 26.88 
L 50.87 26.88 
z
" style="fill: #ffffff"/>
   </g>
   <g id="FillBetweenPolyCollection_1">
    <path d="M 87.339545 242.533478 
L 87.339545 343.87028 
L 90.552721 332.098365 
L 93.765897 163.776554 
L 96.979073 213.616709 
L 100.192249 168.197805 
L 103.405425 197.016174 
L 106.6186 178.855897 
L 109.831776 373.532727 
L 113.044952 187.045753 
L 116.258128 150.553424 
L 119.471304 373.532727 
L 122.684479 253.997116 
L 125.897655 164.484062 
L 129.110831 352.51993 
L 132.324007 158.581674 
L 135.537183 182.78583 
L 138.750358 212.441645 
L 141.963534 198.852326 
L 145.17671 193.371057 
L 148.389886 373.532727 
L 151.603062 353.785119 
L 154.816237 168.126947 
L 158.029413 340.560022 
L 161.242589 222.988685 
L 164.455765 276.834214 
L 167.668941 266.966474 
L 170.882117 190.885975 
L 174.095292 373.532727 
L 177.308468 359.473704 
L 180.521644 149.272376 
L 183.73482 218.988742 
L 186.947996 334.90946 
L 190.161171 258.428572 
L 193.374347 273.415715 
L 196.587523 373.532727 
L 199.800699 226.058203 
L 203.013875 373.532727 
L 206.22705 250.577112 
L 209.440226 360.796788 
L 212.653402 283.957757 
L 215.866578 312.014008 
L 219.079754 188.716391 
L 222.29293 338.588752 
L 225.506105 311.649592 
L 228.719281 350.096258 
L 231.932457 251.660357 
L 235.145633 149.73962 
L 238.358809 144.724057 
L 241.571984 150.617261 
L 244.78516 158.064827 
L 247.998336 149.51494 
L 251.211512 259.284506 
L 254.424688 151.332776 
L 257.637863 373.532727 
L 260.851039 171.324778 
L 264.064215 321.031469 
L 267.277391 331.873391 
L 270.490567 153.590739 
L 273.703742 276.326827 
L 276.916918 373.532727 
L 280.130094 162.282135 
L 283.34327 294.622084 
L 286.556446 318.044293 
L 289.769622 373.532727 
L 292.982797 321.056227 
L 296.195973 363.939854 
L 299.409149 150.390453 
L 302.622325 335.418455 
L 305.835501 182.772374 
L 309.048676 169.334007 
L 312.261852 343.811027 
L 315.475028 250.134565 
L 318.688204 213.304844 
L 321.90138 194.801466 
L 325.114555 149.863903 
L 328.327731 373.532727 
L 331.540907 161.397646 
L 334.754083 149.414161 
L 337.967259 173.510603 
L 341.180435 254.29262 
L 344.39361 168.136356 
L 347.606786 291.538911 
L 350.819962 238.67865 
L 354.033138 201.22883 
L 357.246314 314.003741 
L 360.459489 211.169901 
L 363.672665 149.157363 
L 366.885841 153.166784 
L 370.099017 151.367903 
L 373.312193 236.212091 
L 376.525368 157.592221 
L 379.738544 160.177131 
L 382.95172 315.547917 
L 386.164896 373.532727 
L 389.378072 373.532727 
L 392.591247 373.532727 
L 395.804423 373.532727 
L 399.017599 148.019103 
L 402.230775 219.942947 
L 405.443951 211.86359 
L 408.657127 291.108419 
L 411.870302 152.949765 
L 415.083478 150.193652 
L 418.296654 293.961108 
L 421.50983 367.255698 
L 424.723006 186.841377 
L 427.936181 373.532727 
L 431.149357 357.37202 
L 434.362533 162.667194 
L 437.575709 373.532727 
L 440.788885 190.268004 
L 444.00206 373.532727 
L 447.215236 232.457462 
L 450.428412 195.987392 
L 453.641588 333.822013 
L 456.854764 145.836149 
L 460.06794 344.880115 
L 463.281115 271.526813 
L 466.494291 366.423738 
L 469.707467 157.767974 
L 472.920643 150.984124 
L 476.133819 201.849845 
L 479.346994 202.239262 
L 482.56017 212.721774 
L 485.773346 193.412151 
L 488.986522 148.172303 
L 492.199698 316.163121 
L 495.412873 373.532727 
L 498.626049 159.770644 
L 501.839225 187.989927 
L 505.052401 207.893654 
L 508.265577 148.928515 
L 511.478753 183.781111 
L 514.691928 152.095076 
L 517.905104 287.688969 
L 521.11828 277.772093 
L 524.331456 160.722376 
L 527.544632 246.502956 
L 530.757807 171.391468 
L 533.970983 279.427312 
L 537.184159 284.650668 
L 540.397335 352.074183 
L 543.610511 218.511985 
L 546.823686 184.547509 
L 550.036862 320.071331 
L 553.250038 373.532727 
L 556.463214 158.274565 
L 559.67639 373.532727 
L 562.889565 366.869018 
L 566.102741 177.162309 
L 569.315917 235.504877 
L 572.529093 176.23984 
L 575.742269 175.293313 
L 578.955445 161.406519 
L 582.16862 171.823534 
L 585.381796 154.34567 
L 588.594972 220.822577 
L 591.808148 230.835146 
L 595.021324 373.532727 
L 598.234499 373.532727 
L 601.447675 373.532727 
L 604.660851 184.247923 
L 607.874027 210.035584 
L 611.087203 373.532727 
L 614.300378 186.047635 
L 617.513554 373.532727 
L 620.72673 361.96394 
L 623.939906 367.477758 
L 627.153082 166.564698 
L 630.366258 373.532727 
L 633.579433 373.532727 
L 636.792609 330.859456 
L 640.005785 343.121574 
L 643.218961 168.929855 
L 646.432137 198.950476 
L 649.645312 291.790667 
L 652.858488 150.716033 
L 656.071664 228.840277 
L 659.28484 202.01446 
L 662.498016 368.385682 
L 665.711191 168.300556 
L 668.924367 171.438095 
L 672.137543 333.188407 
L 675.350719 373.532727 
L 678.563895 240.290934 
L 681.77707 204.745772 
L 684.990246 229.404235 
L 688.203422 373.532727 
L 691.416598 144.902179 
L 694.629774 184.541024 
L 697.84295 201.460757 
L 701.056125 153.831158 
L 704.269301 208.157353 
L 707.482477 373.532727 
L 710.695653 249.020847 
L 713.908829 165.685397 
L 717.122004 256.62848 
L 720.33518 365.440317 
L 723.548356 237.297687 
L 726.761532 158.652705 
L 729.974708 373.532727 
L 733.187883 249.980223 
L 736.401059 162.642531 
L 739.614235 306.547976 
L 742.827411 152.411922 
L 746.040587 253.099015 
L 749.253763 313.749745 
L 752.466938 301.367348 
L 755.680114 373.532727 
L 758.89329 209.383247 
L 762.106466 146.128973 
L 765.319642 148.002465 
L 768.532817 199.598299 
L 771.745993 331.308204 
L 774.959169 158.238211 
L 778.172345 162.494329 
L 781.385521 296.253566 
L 784.598696 344.649908 
L 787.811872 249.069221 
L 791.025048 373.532727 
L 794.238224 373.532727 
L 797.4514 331.417699 
L 800.664575 187.863708 
L 803.877751 175.904972 
L 807.090927 311.653734 
L 810.304103 149.8684 
L 813.517279 186.260814 
L 816.730455 344.295523 
L 816.730455 242.958722 
L 816.730455 242.958722 
L 813.517279 84.924013 
L 810.304103 48.531598 
L 807.090927 210.316941 
L 803.877751 74.56817 
L 800.664575 86.526906 
L 797.4514 230.080898 
L 794.238224 279.817447 
L 791.025048 279.400617 
L 787.811872 147.73242 
L 784.598696 243.313107 
L 781.385521 194.916756 
L 778.172345 61.15751 
L 774.959169 56.901392 
L 771.745993 229.971402 
L 768.532817 98.261497 
L 765.319642 46.665664 
L 762.106466 44.792189 
L 758.89329 108.046446 
L 755.680114 283.900839 
L 752.466938 200.030538 
L 749.253763 212.412935 
L 746.040587 151.762214 
L 742.827411 51.07512 
L 739.614235 205.211183 
L 736.401059 61.305729 
L 733.187883 148.643422 
L 729.974708 278.781185 
L 726.761532 57.315921 
L 723.548356 135.960886 
L 720.33518 264.103511 
L 717.122004 155.291678 
L 713.908829 64.348596 
L 710.695653 147.684045 
L 707.482477 285.379242 
L 704.269301 106.820552 
L 701.056125 52.494357 
L 697.84295 100.123956 
L 694.629774 83.204205 
L 691.416598 43.565378 
L 688.203422 290.558408 
L 684.990246 128.067434 
L 681.77707 103.408971 
L 678.563895 138.954133 
L 675.350719 292.371169 
L 672.137543 231.851605 
L 668.924367 70.101294 
L 665.711191 66.963754 
L 662.498016 267.048885 
L 659.28484 100.677658 
L 656.071664 127.503475 
L 652.858488 49.379231 
L 649.645312 190.453857 
L 646.432137 97.613675 
L 643.218961 67.593054 
L 640.005785 241.784773 
L 636.792609 229.522655 
L 633.579433 298.806194 
L 630.366258 274.556812 
L 627.153082 65.227879 
L 623.939906 266.140961 
L 620.72673 260.627143 
L 617.513554 275.286907 
L 614.300378 84.710833 
L 611.087203 274.455791 
L 607.874027 108.698783 
L 604.660851 82.911122 
L 601.447675 295.178718 
L 598.234499 299.335528 
L 595.021324 272.677802 
L 591.808148 129.498345 
L 588.594972 119.485775 
L 585.381796 53.008886 
L 582.16862 70.486733 
L 578.955445 60.069717 
L 575.742269 73.956512 
L 572.529093 74.903038 
L 569.315917 134.168075 
L 566.102741 75.82549 
L 562.889565 265.532216 
L 559.67639 299.788962 
L 556.463214 56.937781 
L 553.250038 296.533357 
L 550.036862 218.734538 
L 546.823686 83.210708 
L 543.610511 117.175184 
L 540.397335 250.737386 
L 537.184159 183.313867 
L 533.970983 178.09052 
L 530.757807 70.054666 
L 527.544632 145.166154 
L 524.331456 59.385592 
L 521.11828 176.435292 
L 517.905104 186.352167 
L 514.691928 50.758274 
L 511.478753 82.444327 
L 508.265577 47.591713 
L 505.052401 106.556853 
L 501.839225 86.653126 
L 498.626049 58.433842 
L 495.412873 298.493221 
L 492.199698 214.826329 
L 488.986522 46.835502 
L 485.773346 92.075349 
L 482.56017 111.384972 
L 479.346994 100.90246 
L 476.133819 100.513044 
L 472.920643 49.64734 
L 469.707467 56.431173 
L 466.494291 265.086937 
L 463.281115 170.190011 
L 460.06794 243.543313 
L 456.854764 44.499348 
L 453.641588 232.485212 
L 450.428412 94.650591 
L 447.215236 131.12066 
L 444.00206 280.372819 
L 440.788885 88.931203 
L 437.575709 288.920346 
L 434.362533 61.330392 
L 431.149357 256.035223 
L 427.936181 283.096928 
L 424.723006 85.504575 
L 421.50983 265.918892 
L 418.296654 192.624307 
L 415.083478 48.85685 
L 411.870302 51.612964 
L 408.657127 189.771617 
L 405.443951 110.526789 
L 402.230775 118.606146 
L 399.017599 46.682302 
L 395.804423 298.510482 
L 392.591247 285.067273 
L 389.378072 284.14259 
L 386.164896 283.580412 
L 382.95172 214.211107 
L 379.738544 58.840312 
L 376.525368 56.25542 
L 373.312193 134.875289 
L 370.099017 50.031084 
L 366.885841 51.829983 
L 363.672665 47.820562 
L 360.459489 109.8331 
L 357.246314 212.666931 
L 354.033138 99.892028 
L 350.819962 137.341848 
L 347.606786 190.20211 
L 344.39361 66.799554 
L 341.180435 152.955818 
L 337.967259 72.173801 
L 334.754083 48.07736 
L 331.540907 60.060862 
L 328.327731 284.136433 
L 325.114555 48.527102 
L 321.90138 93.464665 
L 318.688204 111.968042 
L 315.475028 148.797764 
L 312.261852 242.474225 
L 309.048676 67.997206 
L 305.835501 81.435573 
L 302.622325 234.081654 
L 299.409149 49.053634 
L 296.195973 262.603057 
L 292.982797 219.719426 
L 289.769622 287.180683 
L 286.556446 216.707483 
L 283.34327 193.285274 
L 280.130094 60.945334 
L 276.916918 277.844387 
L 273.703742 174.990026 
L 270.490567 52.25392 
L 267.277391 230.536589 
L 264.064215 219.694659 
L 260.851039 69.987976 
L 257.637863 302.127667 
L 254.424688 49.995975 
L 251.211512 157.947705 
L 247.998336 48.178156 
L 244.78516 56.728026 
L 241.571984 49.280476 
L 238.358809 43.387273 
L 235.145633 48.402819 
L 231.932457 150.323555 
L 228.719281 248.759457 
L 225.506105 210.31279 
L 222.29293 237.25195 
L 219.079754 87.379589 
L 215.866578 210.677198 
L 212.653402 182.620955 
L 209.440226 259.459982 
L 206.22705 149.240311 
L 203.013875 279.107811 
L 199.800699 124.721402 
L 196.587523 287.215463 
L 193.374347 172.078914 
L 190.161171 157.09177 
L 186.947996 233.572659 
L 183.73482 117.65194 
L 180.521644 47.935574 
L 177.308468 258.136907 
L 174.095292 295.626488 
L 170.882117 89.549174 
L 167.668941 165.629672 
L 164.455765 175.497413 
L 161.242589 121.651883 
L 158.029413 239.223221 
L 154.816237 66.790146 
L 151.603062 252.448322 
L 148.389886 284.239425 
L 145.17671 92.034256 
L 141.963534 97.515525 
L 138.750358 111.104843 
L 135.537183 81.449028 
L 132.324007 57.244873 
L 129.110831 251.183133 
L 125.897655 63.147278 
L 122.684479 152.660314 
L 119.471304 287.975177 
L 116.258128 49.216623 
L 113.044952 85.708951 
L 109.831776 284.773844 
L 106.6186 77.519096 
L 103.405425 95.679373 
L 100.192249 66.861021 
L 96.979073 112.279907 
L 93.765897 62.439769 
L 90.552721 230.761564 
L 87.339545 242.533478 
z
" clip-path="url(#ped6aa366c8)" style="fill: #1f77b4; fill-opacity: 0.2"/>
   </g>
   <g id="matplotlib.axis_1">
    <g id="xtick_1">
     <g id="line2d_1">
      <defs>
       <path id="m19eb18c6d6" d="M 0 0 
L 0 3.5 
" style="stroke: #000000; stroke-width: 0.8"/>
      </defs>
      <g>
       <use xlink:href="#m19eb18c6d6" x="87.339545" y="390.04" style="stroke: #000000; stroke-width: 0.8"/>
      </g>
     </g>
     <g id="text_1">
      <!-- 0 -->
      <g transform="translate(84.158295 404.638438) scale(0.1 -0.1)">
       <defs>
        <path id="DejaVuSans-30" d="M 2034 4250 
Q 1547 4250 1301 3770 
Q 1056 3291 1056 2328 
Q 1056 1369 1301 889 
Q 1547 409 2034 409 
Q 2525 409 2770 889 
Q 3016 1369 3016 2328 
Q 3016 3291 2770 3770 
Q 2525 4250 2034 4250 
z
M 2034 4750 
Q 2819 4750 3233 4129 
Q 3647 3509 3647 2328 
Q 3647 1150 3233 529 
Q 2819 -91 2034 -91 
Q 1250 -91 836 529 
Q 422 1150 422 2328 
Q 422 3509 836 4129 
Q 1250 4750 2034 4750 
z
" transform="scale(0.015625)"/>
       </defs>
       <use xlink:href="#DejaVuSans-30"/>
      </g>
     </g>
    </g>
    <g id="xtick_2">
     <g id="line2d_2">
      <g>
       <use xlink:href="#m19eb18c6d6" x="247.998336" y="390.04" style="stroke: #000000; stroke-width: 0.8"/>
      </g>
     </g>
     <g id="text_2">
      <!-- 50 -->
      <g transform="translate(241.635836 404.638438) scale(0.1 -0.1)">
       <defs>
        <path id="DejaVuSans-35" d="M 691 4666 
L 3169 4666 
L 3169 4134 
L 1269 4134 
L 1269 2991 
Q 1406 3038 1543 3061 
Q 1681 3084 1819 3084 
Q 2600 3084 3056 2656 
Q 3513 2228 3513 1497 
Q 3513 744 3044 326 
Q 2575 -91 1722 -91 
Q 1428 -91 1123 -41 
Q 819 9 494 109 
L 494 744 
Q 775 591 1075 516 
Q 1375 441 1709 441 
Q 2250 441 2565 725 
Q 2881 1009 2881 1497 
Q 2881 1984 2565 2268 
Q 2250 2553 1709 2553 
Q 1456 2553 1204 2497 
Q 953 2441 691 2322 
L 691 4666 
z
" transform="scale(0.015625)"/>
       </defs>
       <use xlink:href="#DejaVuSans-35"/>
       <use xlink:href="#DejaVuSans-30" transform="translate(63.623047 0)"/>
      </g>
     </g>
    </g>
    <g id="xtick_3">
     <g id="line2d_3">
      <g>
       <use xlink:href="#m19eb18c6d6" x="408.657127" y="390.04" style="stroke: #000000; stroke-width: 0.8"/>
      </g>
     </g>
     <g id="text_3">
      <!-- 100 -->
      <g transform="translate(399.113377 404.638438) scale(0.1 -0.1)">
       <defs>
        <path id="DejaVuSans-31" d="M 794 531 
L 1825 531 
L 1825 4091 
L 703 3866 
L 703 4441 
L 1819 4666 
L 2450 4666 
L 2450 531 
L 3481 531 
L 3481 0 
L 794 0 
L 794 531 
z
" transform="scale(0.015625)"/>
       </defs>
       <use xlink:href="#DejaVuSans-31"/>
       <use xlink:href="#DejaVuSans-30" transform="translate(63.623047 0)"/>
       <use xlink:href="#DejaVuSans-30" transform="translate(127.246094 0)"/>
      </g>
     </g>
    </g>
    <g id="xtick_4">
     <g id="line2d_4">
      <g>
       <use xlink:href="#m19eb18c6d6" x="569.315917" y="390.04" style="stroke: #000000; stroke-width: 0.8"/>
      </g>
     </g>
     <g id="text_4">
      <!-- 150 -->
      <g transform="translate(559.772167 404.638438) scale(0.1 -0.1)">
       <use xlink:href="#DejaVuSans-31"/>
       <use xlink:href="#DejaVuSans-35" transform="translate(63.623047 0)"/>
       <use xlink:href="#DejaVuSans-30" transform="translate(127.246094 0)"/>
      </g>
     </g>
    </g>
    <g id="xtick_5">
     <g id="line2d_5">
      <g>
       <use xlink:href="#m19eb18c6d6" x="729.974708" y="390.04" style="stroke: #000000; stroke-width: 0.8"/>
      </g>
     </g>
     <g id="text_5">
      <!-- 200 -->
      <g transform="translate(720.430958 404.638438) scale(0.1 -0.1)">
       <defs>
        <path id="DejaVuSans-32" d="M 1228 531 
L 3431 531 
L 3431 0 
L 469 0 
L 469 531 
Q 828 903 1448 1529 
Q 2069 2156 2228 2338 
Q 2531 2678 2651 2914 
Q 2772 3150 2772 3378 
Q 2772 3750 2511 3984 
Q 2250 4219 1831 4219 
Q 1534 4219 1204 4116 
Q 875 4013 500 3803 
L 500 4441 
Q 881 4594 1212 4672 
Q 1544 4750 1819 4750 
Q 2544 4750 2975 4387 
Q 3406 4025 3406 3419 
Q 3406 3131 3298 2873 
Q 3191 2616 2906 2266 
Q 2828 2175 2409 1742 
Q 1991 1309 1228 531 
z
" transform="scale(0.015625)"/>
       </defs>
       <use xlink:href="#DejaVuSans-32"/>
       <use xlink:href="#DejaVuSans-30" transform="translate(63.623047 0)"/>
       <use xlink:href="#DejaVuSans-30" transform="translate(127.246094 0)"/>
      </g>
     </g>
    </g>
    <g id="text_6">
     <!-- Engine (sorted) -->
     <g transform="translate(413.477188 418.316562) scale(0.1 -0.1)">
      <defs>
       <path id="DejaVuSans-45" d="M 628 4666 
L 3578 4666 
L 3578 4134 
L 1259 4134 
L 1259 2753 
L 3481 2753 
L 3481 2222 
L 1259 2222 
L 1259 531 
L 3634 531 
L 3634 0 
L 628 0 
L 628 4666 
z
" transform="scale(0.015625)"/>
       <path id="DejaVuSans-6e" d="M 3513 2113 
L 3513 0 
L 2938 0 
L 2938 2094 
Q 2938 2591 2744 2837 
Q 2550 3084 2163 3084 
Q 1697 3084 1428 2787 
Q 1159 2491 1159 1978 
L 1159 0 
L 581 0 
L 581 3500 
L 1159 3500 
L 1159 2956 
Q 1366 3272 1645 3428 
Q 1925 3584 2291 3584 
Q 2894 3584 3203 3211 
Q 3513 2838 3513 2113 
z
" transform="scale(0.015625)"/>
       <path id="DejaVuSans-67" d="M 2906 1791 
Q 2906 2416 2648 2759 
Q 2391 3103 1925 3103 
Q 1463 3103 1205 2759 
Q 947 2416 947 1791 
Q 947 1169 1205 825 
Q 1463 481 1925 481 
Q 2391 481 2648 825 
Q 2906 1169 2906 1791 
z
M 3481 434 
Q 3481 -459 3084 -895 
Q 2688 -1331 1869 -1331 
Q 1566 -1331 1297 -1286 
Q 1028 -1241 775 -1147 
L 775 -588 
Q 1028 -725 1275 -790 
Q 1522 -856 1778 -856 
Q 2344 -856 2625 -561 
Q 2906 -266 2906 331 
L 2906 616 
Q 2728 306 2450 153 
Q 2172 0 1784 0 
Q 1141 0 747 490 
Q 353 981 353 1791 
Q 353 2603 747 3093 
Q 1141 3584 1784 3584 
Q 2172 3584 2450 3431 
Q 2728 3278 2906 2969 
L 2906 3500 
L 3481 3500 
L 3481 434 
z
" transform="scale(0.015625)"/>
       <path id="DejaVuSans-69" d="M 603 3500 
L 1178 3500 
L 1178 0 
L 603 0 
L 603 3500 
z
M 603 4863 
L 1178 4863 
L 1178 4134 
L 603 4134 
L 603 4863 
z
" transform="scale(0.015625)"/>
       <path id="DejaVuSans-65" d="M 3597 1894 
L 3597 1613 
L 953 1613 
Q 991 1019 1311 708 
Q 1631 397 2203 397 
Q 2534 397 2845 478 
Q 3156 559 3463 722 
L 3463 178 
Q 3153 47 2828 -22 
Q 2503 -91 2169 -91 
Q 1331 -91 842 396 
Q 353 884 353 1716 
Q 353 2575 817 3079 
Q 1281 3584 2069 3584 
Q 2775 3584 3186 3129 
Q 3597 2675 3597 1894 
z
M 3022 2063 
Q 3016 2534 2758 2815 
Q 2500 3097 2075 3097 
Q 1594 3097 1305 2825 
Q 1016 2553 972 2059 
L 3022 2063 
z
" transform="scale(0.015625)"/>
       <path id="DejaVuSans-20" transform="scale(0.015625)"/>
       <path id="DejaVuSans-28" d="M 1984 4856 
Q 1566 4138 1362 3434 
Q 1159 2731 1159 2009 
Q 1159 1288 1364 580 
Q 1569 -128 1984 -844 
L 1484 -844 
Q 1016 -109 783 600 
Q 550 1309 550 2009 
Q 550 2706 781 3412 
Q 1013 4119 1484 4856 
L 1984 4856 
z
" transform="scale(0.015625)"/>
       <path id="DejaVuSans-73" d="M 2834 3397 
L 2834 2853 
Q 2591 2978 2328 3040 
Q 2066 3103 1784 3103 
Q 1356 3103 1142 2972 
Q 928 2841 928 2578 
Q 928 2378 1081 2264 
Q 1234 2150 1697 2047 
L 1894 2003 
Q 2506 1872 2764 1633 
Q 3022 1394 3022 966 
Q 3022 478 2636 193 
Q 2250 -91 1575 -91 
Q 1294 -91 989 -36 
Q 684 19 347 128 
L 347 722 
Q 666 556 975 473 
Q 1284 391 1588 391 
Q 1994 391 2212 530 
Q 2431 669 2431 922 
Q 2431 1156 2273 1281 
Q 2116 1406 1581 1522 
L 1381 1569 
Q 847 1681 609 1914 
Q 372 2147 372 2553 
Q 372 3047 722 3315 
Q 1072 3584 1716 3584 
Q 2034 3584 2315 3537 
Q 2597 3491 2834 3397 
z
" transform="scale(0.015625)"/>
       <path id="DejaVuSans-6f" d="M 1959 3097 
Q 1497 3097 1228 2736 
Q 959 2375 959 1747 
Q 959 1119 1226 758 
Q 1494 397 1959 397 
Q 2419 397 2687 759 
Q 2956 1122 2956 1747 
Q 2956 2369 2687 2733 
Q 2419 3097 1959 3097 
z
M 1959 3584 
Q 2709 3584 3137 3096 
Q 3566 2609 3566 1747 
Q 3566 888 3137 398 
Q 2709 -91 1959 -91 
Q 1206 -91 779 398 
Q 353 888 353 1747 
Q 353 2609 779 3096 
Q 1206 3584 1959 3584 
z
" transform="scale(0.015625)"/>
       <path id="DejaVuSans-72" d="M 2631 2963 
Q 2534 3019 2420 3045 
Q 2306 3072 2169 3072 
Q 1681 3072 1420 2755 
Q 1159 2438 1159 1844 
L 1159 0 
L 581 0 
L 581 3500 
L 1159 3500 
L 1159 2956 
Q 1341 3275 1631 3429 
Q 1922 3584 2338 3584 
Q 2397 3584 2469 3576 
Q 2541 3569 2628 3553 
L 2631 2963 
z
" transform="scale(0.015625)"/>
       <path id="DejaVuSans-74" d="M 1172 4494 
L 1172 3500 
L 2356 3500 
L 2356 3053 
L 1172 3053 
L 1172 1153 
Q 1172 725 1289 603 
Q 1406 481 1766 481 
L 2356 481 
L 2356 0 
L 1766 0 
Q 1100 0 847 248 
Q 594 497 594 1153 
L 594 3053 
L 172 3053 
L 172 3500 
L 594 3500 
L 594 4494 
L 1172 4494 
z
" transform="scale(0.015625)"/>
       <path id="DejaVuSans-64" d="M 2906 2969 
L 2906 4863 
L 3481 4863 
L 3481 0 
L 2906 0 
L 2906 525 
Q 2725 213 2448 61 
Q 2172 -91 1784 -91 
Q 1150 -91 751 415 
Q 353 922 353 1747 
Q 353 2572 751 3078 
Q 1150 3584 1784 3584 
Q 2172 3584 2448 3432 
Q 2725 3281 2906 2969 
z
M 947 1747 
Q 947 1113 1208 752 
Q 1469 391 1925 391 
Q 2381 391 2643 752 
Q 2906 1113 2906 1747 
Q 2906 2381 2643 2742 
Q 2381 3103 1925 3103 
Q 1469 3103 1208 2742 
Q 947 2381 947 1747 
z
" transform="scale(0.015625)"/>
       <path id="DejaVuSans-29" d="M 513 4856 
L 1013 4856 
Q 1481 4119 1714 3412 
Q 1947 2706 1947 2009 
Q 1947 1309 1714 600 
Q 1481 -109 1013 -844 
L 513 -844 
Q 928 -128 1133 580 
Q 1338 1288 1338 2009 
Q 1338 2731 1133 3434 
Q 928 4138 513 4856 
z
" transform="scale(0.015625)"/>
      </defs>
      <use xlink:href="#DejaVuSans-45"/>
      <use xlink:href="#DejaVuSans-6e" transform="translate(63.183594 0)"/>
      <use xlink:href="#DejaVuSans-67" transform="translate(126.5625 0)"/>
      <use xlink:href="#DejaVuSans-69" transform="translate(190.039062 0)"/>
      <use xlink:href="#DejaVuSans-6e" transform="translate(217.822266 0)"/>
      <use xlink:href="#DejaVuSans-65" transform="translate(281.201172 0)"/>
      <use xlink:href="#DejaVuSans-20" transform="translate(342.724609 0)"/>
      <use xlink:href="#DejaVuSans-28" transform="translate(374.511719 0)"/>
      <use xlink:href="#DejaVuSans-73" transform="translate(413.525391 0)"/>
      <use xlink:href="#DejaVuSans-6f" transform="translate(465.625 0)"/>
      <use xlink:href="#DejaVuSans-72" transform="translate(526.806641 0)"/>
      <use xlink:href="#DejaVuSans-74" transform="translate(567.919922 0)"/>
      <use xlink:href="#DejaVuSans-65" transform="translate(607.128906 0)"/>
      <use xlink:href="#DejaVuSans-64" transform="translate(668.652344 0)"/>
      <use xlink:href="#DejaVuSans-29" transform="translate(732.128906 0)"/>
     </g>
    </g>
   </g>
   <g id="matplotlib.axis_2">
    <g id="ytick_1">
     <g id="line2d_6">
      <defs>
       <path id="m1dfa60b97d" d="M 0 0 
L -3.5 0 
" style="stroke: #000000; stroke-width: 0.8"/>
      </defs>
      <g>
       <use xlink:href="#m1dfa60b97d" x="50.87" y="373.532727" style="stroke: #000000; stroke-width: 0.8"/>
      </g>
     </g>
     <g id="text_7">
      <!-- 0 -->
      <g transform="translate(37.5075 377.331946) scale(0.1 -0.1)">
       <use xlink:href="#DejaVuSans-30"/>
      </g>
     </g>
    </g>
    <g id="ytick_2">
     <g id="line2d_7">
      <g>
       <use xlink:href="#m1dfa60b97d" x="50.87" y="328.194644" style="stroke: #000000; stroke-width: 0.8"/>
      </g>
     </g>
     <g id="text_8">
      <!-- 20 -->
      <g transform="translate(31.145 331.993862) scale(0.1 -0.1)">
       <use xlink:href="#DejaVuSans-32"/>
       <use xlink:href="#DejaVuSans-30" transform="translate(63.623047 0)"/>
      </g>
     </g>
    </g>
    <g id="ytick_3">
     <g id="line2d_8">
      <g>
       <use xlink:href="#m1dfa60b97d" x="50.87" y="282.85656" style="stroke: #000000; stroke-width: 0.8"/>
      </g>
     </g>
     <g id="text_9">
      <!-- 40 -->
      <g transform="translate(31.145 286.655779) scale(0.1 -0.1)">
       <defs>
        <path id="DejaVuSans-34" d="M 2419 4116 
L 825 1625 
L 2419 1625 
L 2419 4116 
z
M 2253 4666 
L 3047 4666 
L 3047 1625 
L 3713 1625 
L 3713 1100 
L 3047 1100 
L 3047 0 
L 2419 0 
L 2419 1100 
L 313 1100 
L 313 1709 
L 2253 4666 
z
" transform="scale(0.015625)"/>
       </defs>
       <use xlink:href="#DejaVuSans-34"/>
       <use xlink:href="#DejaVuSans-30" transform="translate(63.623047 0)"/>
      </g>
     </g>
    </g>
    <g id="ytick_4">
     <g id="line2d_9">
      <g>
       <use xlink:href="#m1dfa60b97d" x="50.87" y="237.518477" style="stroke: #000000; stroke-width: 0.8"/>
      </g>
     </g>
     <g id="text_10">
      <!-- 60 -->
      <g transform="translate(31.145 241.317695) scale(0.1 -0.1)">
       <defs>
        <path id="DejaVuSans-36" d="M 2113 2584 
Q 1688 2584 1439 2293 
Q 1191 2003 1191 1497 
Q 1191 994 1439 701 
Q 1688 409 2113 409 
Q 2538 409 2786 701 
Q 3034 994 3034 1497 
Q 3034 2003 2786 2293 
Q 2538 2584 2113 2584 
z
M 3366 4563 
L 3366 3988 
Q 3128 4100 2886 4159 
Q 2644 4219 2406 4219 
Q 1781 4219 1451 3797 
Q 1122 3375 1075 2522 
Q 1259 2794 1537 2939 
Q 1816 3084 2150 3084 
Q 2853 3084 3261 2657 
Q 3669 2231 3669 1497 
Q 3669 778 3244 343 
Q 2819 -91 2113 -91 
Q 1303 -91 875 529 
Q 447 1150 447 2328 
Q 447 3434 972 4092 
Q 1497 4750 2381 4750 
Q 2619 4750 2861 4703 
Q 3103 4656 3366 4563 
z
" transform="scale(0.015625)"/>
       </defs>
       <use xlink:href="#DejaVuSans-36"/>
       <use xlink:href="#DejaVuSans-30" transform="translate(63.623047 0)"/>
      </g>
     </g>
    </g>
    <g id="ytick_5">
     <g id="line2d_10">
      <g>
       <use xlink:href="#m1dfa60b97d" x="50.87" y="192.180393" style="stroke: #000000; stroke-width: 0.8"/>
      </g>
     </g>
     <g id="text_11">
      <!-- 80 -->
      <g transform="translate(31.145 195.979612) scale(0.1 -0.1)">
       <defs>
        <path id="DejaVuSans-38" d="M 2034 2216 
Q 1584 2216 1326 1975 
Q 1069 1734 1069 1313 
Q 1069 891 1326 650 
Q 1584 409 2034 409 
Q 2484 409 2743 651 
Q 3003 894 3003 1313 
Q 3003 1734 2745 1975 
Q 2488 2216 2034 2216 
z
M 1403 2484 
Q 997 2584 770 2862 
Q 544 3141 544 3541 
Q 544 4100 942 4425 
Q 1341 4750 2034 4750 
Q 2731 4750 3128 4425 
Q 3525 4100 3525 3541 
Q 3525 3141 3298 2862 
Q 3072 2584 2669 2484 
Q 3125 2378 3379 2068 
Q 3634 1759 3634 1313 
Q 3634 634 3220 271 
Q 2806 -91 2034 -91 
Q 1263 -91 848 271 
Q 434 634 434 1313 
Q 434 1759 690 2068 
Q 947 2378 1403 2484 
z
M 1172 3481 
Q 1172 3119 1398 2916 
Q 1625 2713 2034 2713 
Q 2441 2713 2670 2916 
Q 2900 3119 2900 3481 
Q 2900 3844 2670 4047 
Q 2441 4250 2034 4250 
Q 1625 4250 1398 4047 
Q 1172 3844 1172 3481 
z
" transform="scale(0.015625)"/>
       </defs>
       <use xlink:href="#DejaVuSans-38"/>
       <use xlink:href="#DejaVuSans-30" transform="translate(63.623047 0)"/>
      </g>
     </g>
    </g>
    <g id="ytick_6">
     <g id="line2d_11">
      <g>
       <use xlink:href="#m1dfa60b97d" x="50.87" y="146.84231" style="stroke: #000000; stroke-width: 0.8"/>
      </g>
     </g>
     <g id="text_12">
      <!-- 100 -->
      <g transform="translate(24.7825 150.641528) scale(0.1 -0.1)">
       <use xlink:href="#DejaVuSans-31"/>
       <use xlink:href="#DejaVuSans-30" transform="translate(63.623047 0)"/>
       <use xlink:href="#DejaVuSans-30" transform="translate(127.246094 0)"/>
      </g>
     </g>
    </g>
    <g id="ytick_7">
     <g id="line2d_12">
      <g>
       <use xlink:href="#m1dfa60b97d" x="50.87" y="101.504226" style="stroke: #000000; stroke-width: 0.8"/>
      </g>
     </g>
     <g id="text_13">
      <!-- 120 -->
      <g transform="translate(24.7825 105.303445) scale(0.1 -0.1)">
       <use xlink:href="#DejaVuSans-31"/>
       <use xlink:href="#DejaVuSans-32" transform="translate(63.623047 0)"/>
       <use xlink:href="#DejaVuSans-30" transform="translate(127.246094 0)"/>
      </g>
     </g>
    </g>
    <g id="ytick_8">
     <g id="line2d_13">
      <g>
       <use xlink:href="#m1dfa60b97d" x="50.87" y="56.166143" style="stroke: #000000; stroke-width: 0.8"/>
      </g>
     </g>
     <g id="text_14">
      <!-- 140 -->
      <g transform="translate(24.7825 59.965361) scale(0.1 -0.1)">
       <use xlink:href="#DejaVuSans-31"/>
       <use xlink:href="#DejaVuSans-34" transform="translate(63.623047 0)"/>
       <use xlink:href="#DejaVuSans-30" transform="translate(127.246094 0)"/>
      </g>
     </g>
    </g>
    <g id="text_15">
     <!-- RUL -->
     <g transform="translate(18.702813 218.379531) rotate(-90) scale(0.1 -0.1)">
      <defs>
       <path id="DejaVuSans-52" d="M 2841 2188 
Q 3044 2119 3236 1894 
Q 3428 1669 3622 1275 
L 4263 0 
L 3584 0 
L 2988 1197 
Q 2756 1666 2539 1819 
Q 2322 1972 1947 1972 
L 1259 1972 
L 1259 0 
L 628 0 
L 628 4666 
L 2053 4666 
Q 2853 4666 3247 4331 
Q 3641 3997 3641 3322 
Q 3641 2881 3436 2590 
Q 3231 2300 2841 2188 
z
M 1259 4147 
L 1259 2491 
L 2053 2491 
Q 2509 2491 2742 2702 
Q 2975 2913 2975 3322 
Q 2975 3731 2742 3939 
Q 2509 4147 2053 4147 
L 1259 4147 
z
" transform="scale(0.015625)"/>
       <path id="DejaVuSans-55" d="M 556 4666 
L 1191 4666 
L 1191 1831 
Q 1191 1081 1462 751 
Q 1734 422 2344 422 
Q 2950 422 3222 751 
Q 3494 1081 3494 1831 
L 3494 4666 
L 4128 4666 
L 4128 1753 
Q 4128 841 3676 375 
Q 3225 -91 2344 -91 
Q 1459 -91 1007 375 
Q 556 841 556 1753 
L 556 4666 
z
" transform="scale(0.015625)"/>
       <path id="DejaVuSans-4c" d="M 628 4666 
L 1259 4666 
L 1259 531 
L 3531 531 
L 3531 0 
L 628 0 
L 628 4666 
z
" transform="scale(0.015625)"/>
      </defs>
      <use xlink:href="#DejaVuSans-52"/>
      <use xlink:href="#DejaVuSans-55" transform="translate(69.482422 0)"/>
      <use xlink:href="#DejaVuSans-4c" transform="translate(142.675781 0)"/>
     </g>
    </g>
   </g>
   <g id="line2d_14">
    <path d="M 87.339545 323.660835 
L 90.552721 285.123464 
L 93.765897 130.97398 
L 96.979073 203.514914 
L 100.192249 90.169705 
L 103.405425 196.714201 
L 106.6186 160.443735 
L 109.831776 341.796069 
L 113.044952 149.109214 
L 116.258128 90.169705 
L 119.471304 357.664398 
L 122.684479 212.582531 
L 125.897655 135.507789 
L 129.110831 346.329877 
L 132.324007 90.169705 
L 135.537183 90.169705 
L 138.750358 137.774693 
L 141.963534 187.646585 
L 145.17671 167.244447 
L 148.389886 348.596781 
L 151.603062 314.593219 
L 154.816237 90.169705 
L 158.029413 285.123464 
L 161.242589 164.977543 
L 164.455765 201.24801 
L 167.668941 228.45086 
L 170.882117 106.038034 
L 174.095292 359.931302 
L 177.308468 323.660835 
L 180.521644 90.169705 
L 183.73482 90.169705 
L 186.947996 291.924177 
L 190.161171 208.048722 
L 193.374347 171.778256 
L 196.587523 348.596781 
L 199.800699 90.169705 
L 203.013875 350.863686 
L 206.22705 153.643022 
L 209.440226 305.525602 
L 212.653402 278.322752 
L 215.866578 237.518477 
L 219.079754 180.845872 
L 222.29293 296.457985 
L 225.506105 271.522039 
L 228.719281 319.127027 
L 231.932457 178.578968 
L 235.145633 103.77113 
L 238.358809 90.169705 
L 247.998336 90.169705 
L 251.211512 221.650147 
L 254.424688 153.643022 
L 257.637863 355.397494 
L 260.851039 90.169705 
L 264.064215 257.920614 
L 267.277391 298.724889 
L 270.490567 90.169705 
L 273.703742 269.255135 
L 276.916918 346.329877 
L 280.130094 90.169705 
L 283.34327 269.255135 
L 286.556446 269.255135 
L 289.769622 346.329877 
L 292.982797 298.724889 
L 296.195973 339.529165 
L 299.409149 90.169705 
L 302.622325 321.393931 
L 305.835501 171.778256 
L 309.048676 92.436609 
L 312.261852 316.860123 
L 315.475028 205.781818 
L 318.688204 196.714201 
L 321.90138 115.105651 
L 325.114555 155.909926 
L 328.327731 350.863686 
L 331.540907 90.169705 
L 334.754083 90.169705 
L 337.967259 112.838747 
L 341.180435 214.849435 
L 344.39361 160.443735 
L 347.606786 246.586093 
L 350.819962 178.578968 
L 354.033138 155.909926 
L 357.246314 260.187518 
L 360.459489 208.048722 
L 363.672665 90.169705 
L 370.099017 90.169705 
L 373.312193 212.582531 
L 376.525368 135.507789 
L 379.738544 117.372555 
L 382.95172 289.657273 
L 386.164896 357.664398 
L 389.378072 344.062973 
L 392.591247 323.660835 
L 395.804423 353.13059 
L 399.017599 101.504226 
L 402.230775 146.84231 
L 405.443951 130.97398 
L 408.657127 280.589656 
L 411.870302 90.169705 
L 415.083478 90.169705 
L 418.296654 239.785381 
L 421.50983 332.728452 
L 424.723006 223.917052 
L 427.936181 344.062973 
L 431.149357 341.796069 
L 434.362533 90.169705 
L 437.575709 344.062973 
L 440.788885 203.514914 
L 444.00206 355.397494 
L 447.215236 126.440172 
L 450.428412 90.169705 
L 453.641588 280.589656 
L 456.854764 90.169705 
L 460.06794 321.393931 
L 463.281115 178.578968 
L 466.494291 339.529165 
L 469.707467 90.169705 
L 472.920643 90.169705 
L 476.133819 101.504226 
L 479.346994 90.169705 
L 482.56017 144.575405 
L 485.773346 110.571843 
L 488.986522 90.169705 
L 492.199698 291.924177 
L 495.412873 357.664398 
L 498.626049 96.970418 
L 501.839225 90.169705 
L 505.052401 174.04516 
L 508.265577 90.169705 
L 511.478753 90.169705 
L 514.691928 128.707076 
L 517.905104 253.386806 
L 521.11828 239.785381 
L 524.331456 146.84231 
L 527.544632 246.586093 
L 530.757807 90.169705 
L 533.970983 201.24801 
L 537.184159 244.319189 
L 540.397335 303.258698 
L 543.610511 174.04516 
L 546.823686 90.169705 
L 550.036862 296.457985 
L 553.250038 357.664398 
L 556.463214 90.169705 
L 559.67639 359.931302 
L 562.889565 323.660835 
L 566.102741 185.379681 
L 569.315917 187.646585 
L 572.529093 183.112776 
L 575.742269 158.17683 
L 578.955445 121.906364 
L 582.16862 210.315627 
L 585.381796 126.440172 
L 588.594972 176.312064 
L 591.808148 90.169705 
L 595.021324 346.329877 
L 598.234499 355.397494 
L 601.447675 350.863686 
L 604.660851 94.703514 
L 607.874027 140.041597 
L 611.087203 346.329877 
L 614.300378 133.240885 
L 617.513554 346.329877 
L 620.72673 300.991794 
L 623.939906 289.657273 
L 627.153082 110.571843 
L 630.366258 339.529165 
L 633.579433 350.863686 
L 636.792609 269.255135 
L 640.005785 319.127027 
L 643.218961 90.169705 
L 646.432137 246.586093 
L 649.645312 276.055848 
L 652.858488 90.169705 
L 656.071664 212.582531 
L 659.28484 137.774693 
L 662.498016 339.529165 
L 665.711191 90.169705 
L 668.924367 171.778256 
L 672.137543 291.924177 
L 675.350719 348.596781 
L 678.563895 164.977543 
L 681.77707 155.909926 
L 684.990246 239.785381 
L 688.203422 344.062973 
L 691.416598 90.169705 
L 694.629774 90.169705 
L 697.84295 126.440172 
L 701.056125 110.571843 
L 704.269301 167.244447 
L 707.482477 348.596781 
L 710.695653 174.04516 
L 713.908829 128.707076 
L 717.122004 201.24801 
L 720.33518 341.796069 
L 723.548356 171.778256 
L 726.761532 90.169705 
L 729.974708 334.995356 
L 733.187883 223.917052 
L 736.401059 90.169705 
L 739.614235 280.589656 
L 742.827411 90.169705 
L 746.040587 208.048722 
L 749.253763 285.123464 
L 752.466938 242.052285 
L 755.680114 341.796069 
L 758.89329 174.04516 
L 762.106466 90.169705 
L 765.319642 90.169705 
L 768.532817 151.376118 
L 771.745993 298.724889 
L 774.959169 90.169705 
L 778.172345 124.173268 
L 781.385521 219.383243 
L 784.598696 319.127027 
L 787.811872 203.514914 
L 791.025048 332.728452 
L 794.238224 337.26226 
L 797.4514 151.376118 
L 800.664575 189.913489 
L 803.877751 106.038034 
L 807.090927 294.191081 
L 810.304103 90.169705 
L 813.517279 119.639459 
L 816.730455 314.593219 
L 816.730455 314.593219 
" clip-path="url(#ped6aa366c8)" style="fill: none; stroke: #1f77b4; stroke-width: 1.5; stroke-linecap: square"/>
   </g>
   <g id="line2d_15">
    <path d="M 87.339545 293.201879 
L 90.552721 281.429965 
L 93.765897 113.108153 
L 96.979073 162.948308 
L 100.192249 117.529405 
L 103.405425 146.347773 
L 106.6186 128.187497 
L 109.831776 335.442245 
L 113.044952 136.377352 
L 116.258128 99.885024 
L 119.471304 338.643575 
L 122.684479 203.328715 
L 125.897655 113.815661 
L 129.110831 301.851529 
L 132.324007 107.913274 
L 135.537183 132.117429 
L 138.750358 161.773244 
L 141.963534 148.183926 
L 145.17671 142.702657 
L 148.389886 334.90783 
L 151.603062 303.116718 
L 154.816237 117.458547 
L 158.029413 289.891621 
L 161.242589 172.320284 
L 164.455765 226.165813 
L 167.668941 216.298073 
L 170.882117 140.217575 
L 174.095292 346.294893 
L 177.308468 308.805303 
L 180.521644 98.603975 
L 183.73482 168.320341 
L 186.947996 284.241059 
L 190.161171 207.760171 
L 193.374347 222.747314 
L 196.587523 337.883864 
L 199.800699 175.389802 
L 203.013875 329.776208 
L 206.22705 199.908711 
L 209.440226 310.128388 
L 212.653402 233.289356 
L 215.866578 261.345607 
L 219.079754 138.04799 
L 222.29293 287.920351 
L 225.506105 260.981191 
L 228.719281 299.427858 
L 231.932457 200.991956 
L 235.145633 99.07122 
L 238.358809 94.055656 
L 241.571984 99.94886 
L 244.78516 107.396427 
L 247.998336 98.846539 
L 251.211512 208.616106 
L 254.424688 100.664376 
L 257.637863 352.79607 
L 260.851039 120.656377 
L 264.064215 270.363068 
L 267.277391 281.20499 
L 270.490567 102.922338 
L 273.703742 225.658427 
L 276.916918 328.512783 
L 280.130094 111.613735 
L 283.34327 243.953683 
L 286.556446 267.375892 
L 289.769622 337.849088 
L 292.982797 270.387826 
L 296.195973 313.271453 
L 299.409149 99.722052 
L 302.622325 284.750054 
L 305.835501 132.103973 
L 309.048676 118.665607 
L 312.261852 293.142626 
L 315.475028 199.466164 
L 318.688204 162.636443 
L 321.90138 144.133066 
L 325.114555 99.195502 
L 328.327731 334.804829 
L 331.540907 110.729246 
L 334.754083 98.74576 
L 337.967259 122.842202 
L 341.180435 203.624219 
L 344.39361 117.467955 
L 347.606786 240.87051 
L 350.819962 188.010249 
L 354.033138 150.560429 
L 357.246314 263.33534 
L 360.459489 160.5015 
L 363.672665 98.488963 
L 366.885841 102.498383 
L 370.099017 100.699502 
L 373.312193 185.54369 
L 376.525368 106.923821 
L 379.738544 109.50873 
L 382.95172 264.879516 
L 386.164896 334.248813 
L 389.378072 334.81099 
L 392.591247 335.735669 
L 395.804423 349.178881 
L 399.017599 97.350703 
L 402.230775 169.274547 
L 405.443951 161.19519 
L 408.657127 240.440018 
L 411.870302 102.281364 
L 415.083478 99.525251 
L 418.296654 243.292707 
L 421.50983 316.587297 
L 424.723006 136.172976 
L 427.936181 333.765333 
L 431.149357 306.703619 
L 434.362533 111.998793 
L 437.575709 339.588744 
L 440.788885 139.599603 
L 444.00206 331.041219 
L 447.215236 181.789061 
L 450.428412 145.318991 
L 453.641588 283.153612 
L 456.854764 95.167749 
L 460.06794 294.211714 
L 463.281115 220.858412 
L 466.494291 315.755337 
L 469.707467 107.099573 
L 472.920643 100.315724 
L 476.133819 151.181444 
L 479.346994 151.570861 
L 482.56017 162.053373 
L 485.773346 142.74375 
L 488.986522 97.503903 
L 492.199698 265.494721 
L 495.412873 349.161622 
L 498.626049 109.102243 
L 501.839225 137.321527 
L 505.052401 157.225254 
L 508.265577 98.260114 
L 511.478753 133.112711 
L 514.691928 101.426675 
L 517.905104 237.020568 
L 521.11828 227.103692 
L 524.331456 110.053975 
L 527.544632 195.834555 
L 530.757807 120.723067 
L 533.970983 228.758912 
L 537.184159 233.982267 
L 540.397335 301.405782 
L 543.610511 167.843584 
L 546.823686 133.879109 
L 550.036862 269.40293 
L 553.250038 347.201762 
L 556.463214 107.606164 
L 559.67639 350.457363 
L 562.889565 316.200617 
L 566.102741 126.493908 
L 569.315917 184.836476 
L 572.529093 125.571439 
L 575.742269 124.624912 
L 578.955445 110.738118 
L 582.16862 121.155133 
L 585.381796 103.67727 
L 588.594972 170.154176 
L 591.808148 180.166745 
L 595.021324 323.346207 
L 598.234499 350.003931 
L 601.447675 345.847119 
L 604.660851 133.579523 
L 607.874027 159.367183 
L 611.087203 325.124196 
L 614.300378 135.379234 
L 617.513554 325.955304 
L 620.72673 311.295539 
L 623.939906 316.809357 
L 627.153082 115.896297 
L 630.366258 325.225208 
L 633.579433 349.474599 
L 636.792609 280.191056 
L 640.005785 292.453174 
L 643.218961 118.261455 
L 646.432137 148.282075 
L 649.645312 241.122267 
L 652.858488 100.047632 
L 656.071664 178.171876 
L 659.28484 151.346059 
L 662.498016 317.717281 
L 665.711191 117.632155 
L 668.924367 120.769695 
L 672.137543 282.520006 
L 675.350719 343.039572 
L 678.563895 189.622533 
L 681.77707 154.077371 
L 684.990246 178.735835 
L 688.203422 341.226809 
L 691.416598 94.233778 
L 694.629774 133.872623 
L 697.84295 150.792356 
L 701.056125 103.162758 
L 704.269301 157.488952 
L 707.482477 336.047638 
L 710.695653 198.352446 
L 713.908829 115.016996 
L 717.122004 205.960079 
L 720.33518 314.771916 
L 723.548356 186.629287 
L 726.761532 107.984305 
L 729.974708 329.449585 
L 733.187883 199.311823 
L 736.401059 111.97413 
L 739.614235 255.879576 
L 742.827411 101.743521 
L 746.040587 202.430615 
L 749.253763 263.081344 
L 752.466938 250.698947 
L 755.680114 334.569244 
L 758.89329 158.714847 
L 762.106466 95.460572 
L 765.319642 97.334065 
L 768.532817 148.929898 
L 771.745993 280.639803 
L 774.959169 107.56981 
L 778.172345 111.825928 
L 781.385521 245.585165 
L 784.598696 293.981508 
L 787.811872 198.40082 
L 791.025048 330.069023 
L 794.238224 330.485848 
L 797.4514 280.749299 
L 800.664575 137.195307 
L 803.877751 125.236571 
L 807.090927 260.985333 
L 810.304103 99.199999 
L 813.517279 135.592414 
L 816.730455 293.627122 
L 816.730455 293.627122 
" clip-path="url(#ped6aa366c8)" style="fill: none; stroke-dasharray: 5.55,2.4; stroke-dashoffset: 0; stroke: #ff7f0e; stroke-width: 1.5"/>
    <defs>
     <path id="m44c52eee97" d="M 0 1.5 
C 0.397805 1.5 0.77937 1.341951 1.06066 1.06066 
C 1.341951 0.77937 1.5 0.397805 1.5 0 
C 1.5 -0.397805 1.341951 -0.77937 1.06066 -1.06066 
C 0.77937 -1.341951 0.397805 -1.5 0 -1.5 
C -0.397805 -1.5 -0.77937 -1.341951 -1.06066 -1.06066 
C -1.341951 -0.77937 -1.5 -0.397805 -1.5 0 
C -1.5 0.397805 -1.341951 0.77937 -1.06066 1.06066 
C -0.77937 1.341951 -0.397805 1.5 0 1.5 
z
" style="stroke: #ff7f0e"/>
    </defs>
    <g clip-path="url(#ped6aa366c8)">
     <use xlink:href="#m44c52eee97" x="87.339545" y="293.201879" style="fill: #ff7f0e; stroke: #ff7f0e"/>
     <use xlink:href="#m44c52eee97" x="90.552721" y="281.429965" style="fill: #ff7f0e; stroke: #ff7f0e"/>
     <use xlink:href="#m44c52eee97" x="93.765897" y="113.108153" style="fill: #ff7f0e; stroke: #ff7f0e"/>
     <use xlink:href="#m44c52eee97" x="96.979073" y="162.948308" style="fill: #ff7f0e; stroke: #ff7f0e"/>
     <use xlink:href="#m44c52eee97" x="100.192249" y="117.529405" style="fill: #ff7f0e; stroke: #ff7f0e"/>
     <use xlink:href="#m44c52eee97" x="103.405425" y="146.347773" style="fill: #ff7f0e; stroke: #ff7f0e"/>
     <use xlink:href="#m44c52eee97" x="106.6186" y="128.187497" style="fill: #ff7f0e; stroke: #ff7f0e"/>
     <use xlink:href="#m44c52eee97" x="109.831776" y="335.442245" style="fill: #ff7f0e; stroke: #ff7f0e"/>
     <use xlink:href="#m44c52eee97" x="113.044952" y="136.377352" style="fill: #ff7f0e; stroke: #ff7f0e"/>
     <use xlink:href="#m44c52eee97" x="116.258128" y="99.885024" style="fill: #ff7f0e; stroke: #ff7f0e"/>
     <use xlink:href="#m44c52eee97" x="119.471304" y="338.643575" style="fill: #ff7f0e; stroke: #ff7f0e"/>
     <use xlink:href="#m44c52eee97" x="122.684479" y="203.328715" style="fill: #ff7f0e; stroke: #ff7f0e"/>
     <use xlink:href="#m44c52eee97" x="125.897655" y="113.815661" style="fill: #ff7f0e; stroke: #ff7f0e"/>
     <use xlink:href="#m44c52eee97" x="129.110831" y="301.851529" style="fill: #ff7f0e; stroke: #ff7f0e"/>
     <use xlink:href="#m44c52eee97" x="132.324007" y="107.913274" style="fill: #ff7f0e; stroke: #ff7f0e"/>
     <use xlink:href="#m44c52eee97" x="135.537183" y="132.117429" style="fill: #ff7f0e; stroke: #ff7f0e"/>
     <use xlink:href="#m44c52eee97" x="138.750358" y="161.773244" style="fill: #ff7f0e; stroke: #ff7f0e"/>
     <use xlink:href="#m44c52eee97" x="141.963534" y="148.183926" style="fill: #ff7f0e; stroke: #ff7f0e"/>
     <use xlink:href="#m44c52eee97" x="145.17671" y="142.702657" style="fill: #ff7f0e; stroke: #ff7f0e"/>
     <use xlink:href="#m44c52eee97" x="148.389886" y="334.90783" style="fill: #ff7f0e; stroke: #ff7f0e"/>
     <use xlink:href="#m44c52eee97" x="151.603062" y="303.116718" style="fill: #ff7f0e; stroke: #ff7f0e"/>
     <use xlink:href="#m44c52eee97" x="154.816237" y="117.458547" style="fill: #ff7f0e; stroke: #ff7f0e"/>
     <use xlink:href="#m44c52eee97" x="158.029413" y="289.891621" style="fill: #ff7f0e; stroke: #ff7f0e"/>
     <use xlink:href="#m44c52eee97" x="161.242589" y="172.320284" style="fill: #ff7f0e; stroke: #ff7f0e"/>
     <use xlink:href="#m44c52eee97" x="164.455765" y="226.165813" style="fill: #ff7f0e; stroke: #ff7f0e"/>
     <use xlink:href="#m44c52eee97" x="167.668941" y="216.298073" style="fill: #ff7f0e; stroke: #ff7f0e"/>
     <use xlink:href="#m44c52eee97" x="170.882117" y="140.217575" style="fill: #ff7f0e; stroke: #ff7f0e"/>
     <use xlink:href="#m44c52eee97" x="174.095292" y="346.294893" style="fill: #ff7f0e; stroke: #ff7f0e"/>
     <use xlink:href="#m44c52eee97" x="177.308468" y="308.805303" style="fill: #ff7f0e; stroke: #ff7f0e"/>
     <use xlink:href="#m44c52eee97" x="180.521644" y="98.603975" style="fill: #ff7f0e; stroke: #ff7f0e"/>
     <use xlink:href="#m44c52eee97" x="183.73482" y="168.320341" style="fill: #ff7f0e; stroke: #ff7f0e"/>
     <use xlink:href="#m44c52eee97" x="186.947996" y="284.241059" style="fill: #ff7f0e; stroke: #ff7f0e"/>
     <use xlink:href="#m44c52eee97" x="190.161171" y="207.760171" style="fill: #ff7f0e; stroke: #ff7f0e"/>
     <use xlink:href="#m44c52eee97" x="193.374347" y="222.747314" style="fill: #ff7f0e; stroke: #ff7f0e"/>
     <use xlink:href="#m44c52eee97" x="196.587523" y="337.883864" style="fill: #ff7f0e; stroke: #ff7f0e"/>
     <use xlink:href="#m44c52eee97" x="199.800699" y="175.389802" style="fill: #ff7f0e; stroke: #ff7f0e"/>
     <use xlink:href="#m44c52eee97" x="203.013875" y="329.776208" style="fill: #ff7f0e; stroke: #ff7f0e"/>
     <use xlink:href="#m44c52eee97" x="206.22705" y="199.908711" style="fill: #ff7f0e; stroke: #ff7f0e"/>
     <use xlink:href="#m44c52eee97" x="209.440226" y="310.128388" style="fill: #ff7f0e; stroke: #ff7f0e"/>
     <use xlink:href="#m44c52eee97" x="212.653402" y="233.289356" style="fill: #ff7f0e; stroke: #ff7f0e"/>
     <use xlink:href="#m44c52eee97" x="215.866578" y="261.345607" style="fill: #ff7f0e; stroke: #ff7f0e"/>
     <use xlink:href="#m44c52eee97" x="219.079754" y="138.04799" style="fill: #ff7f0e; stroke: #ff7f0e"/>
     <use xlink:href="#m44c52eee97" x="222.29293" y="287.920351" style="fill: #ff7f0e; stroke: #ff7f0e"/>
     <use xlink:href="#m44c52eee97" x="225.506105" y="260.981191" style="fill: #ff7f0e; stroke: #ff7f0e"/>
     <use xlink:href="#m44c52eee97" x="228.719281" y="299.427858" style="fill: #ff7f0e; stroke: #ff7f0e"/>
     <use xlink:href="#m44c52eee97" x="231.932457" y="200.991956" style="fill: #ff7f0e; stroke: #ff7f0e"/>
     <use xlink:href="#m44c52eee97" x="235.145633" y="99.07122" style="fill: #ff7f0e; stroke: #ff7f0e"/>
     <use xlink:href="#m44c52eee97" x="238.358809" y="94.055656" style="fill: #ff7f0e; stroke: #ff7f0e"/>
     <use xlink:href="#m44c52eee97" x="241.571984" y="99.94886" style="fill: #ff7f0e; stroke: #ff7f0e"/>
     <use xlink:href="#m44c52eee97" x="244.78516" y="107.396427" style="fill: #ff7f0e; stroke: #ff7f0e"/>
     <use xlink:href="#m44c52eee97" x="247.998336" y="98.846539" style="fill: #ff7f0e; stroke: #ff7f0e"/>
     <use xlink:href="#m44c52eee97" x="251.211512" y="208.616106" style="fill: #ff7f0e; stroke: #ff7f0e"/>
     <use xlink:href="#m44c52eee97" x="254.424688" y="100.664376" style="fill: #ff7f0e; stroke: #ff7f0e"/>
     <use xlink:href="#m44c52eee97" x="257.637863" y="352.79607" style="fill: #ff7f0e; stroke: #ff7f0e"/>
     <use xlink:href="#m44c52eee97" x="260.851039" y="120.656377" style="fill: #ff7f0e; stroke: #ff7f0e"/>
     <use xlink:href="#m44c52eee97" x="264.064215" y="270.363068" style="fill: #ff7f0e; stroke: #ff7f0e"/>
     <use xlink:href="#m44c52eee97" x="267.277391" y="281.20499" style="fill: #ff7f0e; stroke: #ff7f0e"/>
     <use xlink:href="#m44c52eee97" x="270.490567" y="102.922338" style="fill: #ff7f0e; stroke: #ff7f0e"/>
     <use xlink:href="#m44c52eee97" x="273.703742" y="225.658427" style="fill: #ff7f0e; stroke: #ff7f0e"/>
     <use xlink:href="#m44c52eee97" x="276.916918" y="328.512783" style="fill: #ff7f0e; stroke: #ff7f0e"/>
     <use xlink:href="#m44c52eee97" x="280.130094" y="111.613735" style="fill: #ff7f0e; stroke: #ff7f0e"/>
     <use xlink:href="#m44c52eee97" x="283.34327" y="243.953683" style="fill: #ff7f0e; stroke: #ff7f0e"/>
     <use xlink:href="#m44c52eee97" x="286.556446" y="267.375892" style="fill: #ff7f0e; stroke: #ff7f0e"/>
     <use xlink:href="#m44c52eee97" x="289.769622" y="337.849088" style="fill: #ff7f0e; stroke: #ff7f0e"/>
     <use xlink:href="#m44c52eee97" x="292.982797" y="270.387826" style="fill: #ff7f0e; stroke: #ff7f0e"/>
     <use xlink:href="#m44c52eee97" x="296.195973" y="313.271453" style="fill: #ff7f0e; stroke: #ff7f0e"/>
     <use xlink:href="#m44c52eee97" x="299.409149" y="99.722052" style="fill: #ff7f0e; stroke: #ff7f0e"/>
     <use xlink:href="#m44c52eee97" x="302.622325" y="284.750054" style="fill: #ff7f0e; stroke: #ff7f0e"/>
     <use xlink:href="#m44c52eee97" x="305.835501" y="132.103973" style="fill: #ff7f0e; stroke: #ff7f0e"/>
     <use xlink:href="#m44c52eee97" x="309.048676" y="118.665607" style="fill: #ff7f0e; stroke: #ff7f0e"/>
     <use xlink:href="#m44c52eee97" x="312.261852" y="293.142626" style="fill: #ff7f0e; stroke: #ff7f0e"/>
     <use xlink:href="#m44c52eee97" x="315.475028" y="199.466164" style="fill: #ff7f0e; stroke: #ff7f0e"/>
     <use xlink:href="#m44c52eee97" x="318.688204" y="162.636443" style="fill: #ff7f0e; stroke: #ff7f0e"/>
     <use xlink:href="#m44c52eee97" x="321.90138" y="144.133066" style="fill: #ff7f0e; stroke: #ff7f0e"/>
     <use xlink:href="#m44c52eee97" x="325.114555" y="99.195502" style="fill: #ff7f0e; stroke: #ff7f0e"/>
     <use xlink:href="#m44c52eee97" x="328.327731" y="334.804829" style="fill: #ff7f0e; stroke: #ff7f0e"/>
     <use xlink:href="#m44c52eee97" x="331.540907" y="110.729246" style="fill: #ff7f0e; stroke: #ff7f0e"/>
     <use xlink:href="#m44c52eee97" x="334.754083" y="98.74576" style="fill: #ff7f0e; stroke: #ff7f0e"/>
     <use xlink:href="#m44c52eee97" x="337.967259" y="122.842202" style="fill: #ff7f0e; stroke: #ff7f0e"/>
     <use xlink:href="#m44c52eee97" x="341.180435" y="203.624219" style="fill: #ff7f0e; stroke: #ff7f0e"/>
     <use xlink:href="#m44c52eee97" x="344.39361" y="117.467955" style="fill: #ff7f0e; stroke: #ff7f0e"/>
     <use xlink:href="#m44c52eee97" x="347.606786" y="240.87051" style="fill: #ff7f0e; stroke: #ff7f0e"/>
     <use xlink:href="#m44c52eee97" x="350.819962" y="188.010249" style="fill: #ff7f0e; stroke: #ff7f0e"/>
     <use xlink:href="#m44c52eee97" x="354.033138" y="150.560429" style="fill: #ff7f0e; stroke: #ff7f0e"/>
     <use xlink:href="#m44c52eee97" x="357.246314" y="263.33534" style="fill: #ff7f0e; stroke: #ff7f0e"/>
     <use xlink:href="#m44c52eee97" x="360.459489" y="160.5015" style="fill: #ff7f0e; stroke: #ff7f0e"/>
     <use xlink:href="#m44c52eee97" x="363.672665" y="98.488963" style="fill: #ff7f0e; stroke: #ff7f0e"/>
     <use xlink:href="#m44c52eee97" x="366.885841" y="102.498383" style="fill: #ff7f0e; stroke: #ff7f0e"/>
     <use xlink:href="#m44c52eee97" x="370.099017" y="100.699502" style="fill: #ff7f0e; stroke: #ff7f0e"/>
     <use xlink:href="#m44c52eee97" x="373.312193" y="185.54369" style="fill: #ff7f0e; stroke: #ff7f0e"/>
     <use xlink:href="#m44c52eee97" x="376.525368" y="106.923821" style="fill: #ff7f0e; stroke: #ff7f0e"/>
     <use xlink:href="#m44c52eee97" x="379.738544" y="109.50873" style="fill: #ff7f0e; stroke: #ff7f0e"/>
     <use xlink:href="#m44c52eee97" x="382.95172" y="264.879516" style="fill: #ff7f0e; stroke: #ff7f0e"/>
     <use xlink:href="#m44c52eee97" x="386.164896" y="334.248813" style="fill: #ff7f0e; stroke: #ff7f0e"/>
     <use xlink:href="#m44c52eee97" x="389.378072" y="334.81099" style="fill: #ff7f0e; stroke: #ff7f0e"/>
     <use xlink:href="#m44c52eee97" x="392.591247" y="335.735669" style="fill: #ff7f0e; stroke: #ff7f0e"/>
     <use xlink:href="#m44c52eee97" x="395.804423" y="349.178881" style="fill: #ff7f0e; stroke: #ff7f0e"/>
     <use xlink:href="#m44c52eee97" x="399.017599" y="97.350703" style="fill: #ff7f0e; stroke: #ff7f0e"/>
     <use xlink:href="#m44c52eee97" x="402.230775" y="169.274547" style="fill: #ff7f0e; stroke: #ff7f0e"/>
     <use xlink:href="#m44c52eee97" x="405.443951" y="161.19519" style="fill: #ff7f0e; stroke: #ff7f0e"/>
     <use xlink:href="#m44c52eee97" x="408.657127" y="240.440018" style="fill: #ff7f0e; stroke: #ff7f0e"/>
     <use xlink:href="#m44c52eee97" x="411.870302" y="102.281364" style="fill: #ff7f0e; stroke: #ff7f0e"/>
     <use xlink:href="#m44c52eee97" x="415.083478" y="99.525251" style="fill: #ff7f0e; stroke: #ff7f0e"/>
     <use xlink:href="#m44c52eee97" x="418.296654" y="243.292707" style="fill: #ff7f0e; stroke: #ff7f0e"/>
     <use xlink:href="#m44c52eee97" x="421.50983" y="316.587297" style="fill: #ff7f0e; stroke: #ff7f0e"/>
     <use xlink:href="#m44c52eee97" x="424.723006" y="136.172976" style="fill: #ff7f0e; stroke: #ff7f0e"/>
     <use xlink:href="#m44c52eee97" x="427.936181" y="333.765333" style="fill: #ff7f0e; stroke: #ff7f0e"/>
     <use xlink:href="#m44c52eee97" x="431.149357" y="306.703619" style="fill: #ff7f0e; stroke: #ff7f0e"/>
     <use xlink:href="#m44c52eee97" x="434.362533" y="111.998793" style="fill: #ff7f0e; stroke: #ff7f0e"/>
     <use xlink:href="#m44c52eee97" x="437.575709" y="339.588744" style="fill: #ff7f0e; stroke: #ff7f0e"/>
     <use xlink:href="#m44c52eee97" x="440.788885" y="139.599603" style="fill: #ff7f0e; stroke: #ff7f0e"/>
     <use xlink:href="#m44c52eee97" x="444.00206" y="331.041219" style="fill: #ff7f0e; stroke: #ff7f0e"/>
     <use xlink:href="#m44c52eee97" x="447.215236" y="181.789061" style="fill: #ff7f0e; stroke: #ff7f0e"/>
     <use xlink:href="#m44c52eee97" x="450.428412" y="145.318991" style="fill: #ff7f0e; stroke: #ff7f0e"/>
     <use xlink:href="#m44c52eee97" x="453.641588" y="283.153612" style="fill: #ff7f0e; stroke: #ff7f0e"/>
     <use xlink:href="#m44c52eee97" x="456.854764" y="95.167749" style="fill: #ff7f0e; stroke: #ff7f0e"/>
     <use xlink:href="#m44c52eee97" x="460.06794" y="294.211714" style="fill: #ff7f0e; stroke: #ff7f0e"/>
     <use xlink:href="#m44c52eee97" x="463.281115" y="220.858412" style="fill: #ff7f0e; stroke: #ff7f0e"/>
     <use xlink:href="#m44c52eee97" x="466.494291" y="315.755337" style="fill: #ff7f0e; stroke: #ff7f0e"/>
     <use xlink:href="#m44c52eee97" x="469.707467" y="107.099573" style="fill: #ff7f0e; stroke: #ff7f0e"/>
     <use xlink:href="#m44c52eee97" x="472.920643" y="100.315724" style="fill: #ff7f0e; stroke: #ff7f0e"/>
     <use xlink:href="#m44c52eee97" x="476.133819" y="151.181444" style="fill: #ff7f0e; stroke: #ff7f0e"/>
     <use xlink:href="#m44c52eee97" x="479.346994" y="151.570861" style="fill: #ff7f0e; stroke: #ff7f0e"/>
     <use xlink:href="#m44c52eee97" x="482.56017" y="162.053373" style="fill: #ff7f0e; stroke: #ff7f0e"/>
     <use xlink:href="#m44c52eee97" x="485.773346" y="142.74375" style="fill: #ff7f0e; stroke: #ff7f0e"/>
     <use xlink:href="#m44c52eee97" x="488.986522" y="97.503903" style="fill: #ff7f0e; stroke: #ff7f0e"/>
     <use xlink:href="#m44c52eee97" x="492.199698" y="265.494721" style="fill: #ff7f0e; stroke: #ff7f0e"/>
     <use xlink:href="#m44c52eee97" x="495.412873" y="349.161622" style="fill: #ff7f0e; stroke: #ff7f0e"/>
     <use xlink:href="#m44c52eee97" x="498.626049" y="109.102243" style="fill: #ff7f0e; stroke: #ff7f0e"/>
     <use xlink:href="#m44c52eee97" x="501.839225" y="137.321527" style="fill: #ff7f0e; stroke: #ff7f0e"/>
     <use xlink:href="#m44c52eee97" x="505.052401" y="157.225254" style="fill: #ff7f0e; stroke: #ff7f0e"/>
     <use xlink:href="#m44c52eee97" x="508.265577" y="98.260114" style="fill: #ff7f0e; stroke: #ff7f0e"/>
     <use xlink:href="#m44c52eee97" x="511.478753" y="133.112711" style="fill: #ff7f0e; stroke: #ff7f0e"/>
     <use xlink:href="#m44c52eee97" x="514.691928" y="101.426675" style="fill: #ff7f0e; stroke: #ff7f0e"/>
     <use xlink:href="#m44c52eee97" x="517.905104" y="237.020568" style="fill: #ff7f0e; stroke: #ff7f0e"/>
     <use xlink:href="#m44c52eee97" x="521.11828" y="227.103692" style="fill: #ff7f0e; stroke: #ff7f0e"/>
     <use xlink:href="#m44c52eee97" x="524.331456" y="110.053975" style="fill: #ff7f0e; stroke: #ff7f0e"/>
     <use xlink:href="#m44c52eee97" x="527.544632" y="195.834555" style="fill: #ff7f0e; stroke: #ff7f0e"/>
     <use xlink:href="#m44c52eee97" x="530.757807" y="120.723067" style="fill: #ff7f0e; stroke: #ff7f0e"/>
     <use xlink:href="#m44c52eee97" x="533.970983" y="228.758912" style="fill: #ff7f0e; stroke: #ff7f0e"/>
     <use xlink:href="#m44c52eee97" x="537.184159" y="233.982267" style="fill: #ff7f0e; stroke: #ff7f0e"/>
     <use xlink:href="#m44c52eee97" x="540.397335" y="301.405782" style="fill: #ff7f0e; stroke: #ff7f0e"/>
     <use xlink:href="#m44c52eee97" x="543.610511" y="167.843584" style="fill: #ff7f0e; stroke: #ff7f0e"/>
     <use xlink:href="#m44c52eee97" x="546.823686" y="133.879109" style="fill: #ff7f0e; stroke: #ff7f0e"/>
     <use xlink:href="#m44c52eee97" x="550.036862" y="269.40293" style="fill: #ff7f0e; stroke: #ff7f0e"/>
     <use xlink:href="#m44c52eee97" x="553.250038" y="347.201762" style="fill: #ff7f0e; stroke: #ff7f0e"/>
     <use xlink:href="#m44c52eee97" x="556.463214" y="107.606164" style="fill: #ff7f0e; stroke: #ff7f0e"/>
     <use xlink:href="#m44c52eee97" x="559.67639" y="350.457363" style="fill: #ff7f0e; stroke: #ff7f0e"/>
     <use xlink:href="#m44c52eee97" x="562.889565" y="316.200617" style="fill: #ff7f0e; stroke: #ff7f0e"/>
     <use xlink:href="#m44c52eee97" x="566.102741" y="126.493908" style="fill: #ff7f0e; stroke: #ff7f0e"/>
     <use xlink:href="#m44c52eee97" x="569.315917" y="184.836476" style="fill: #ff7f0e; stroke: #ff7f0e"/>
     <use xlink:href="#m44c52eee97" x="572.529093" y="125.571439" style="fill: #ff7f0e; stroke: #ff7f0e"/>
     <use xlink:href="#m44c52eee97" x="575.742269" y="124.624912" style="fill: #ff7f0e; stroke: #ff7f0e"/>
     <use xlink:href="#m44c52eee97" x="578.955445" y="110.738118" style="fill: #ff7f0e; stroke: #ff7f0e"/>
     <use xlink:href="#m44c52eee97" x="582.16862" y="121.155133" style="fill: #ff7f0e; stroke: #ff7f0e"/>
     <use xlink:href="#m44c52eee97" x="585.381796" y="103.67727" style="fill: #ff7f0e; stroke: #ff7f0e"/>
     <use xlink:href="#m44c52eee97" x="588.594972" y="170.154176" style="fill: #ff7f0e; stroke: #ff7f0e"/>
     <use xlink:href="#m44c52eee97" x="591.808148" y="180.166745" style="fill: #ff7f0e; stroke: #ff7f0e"/>
     <use xlink:href="#m44c52eee97" x="595.021324" y="323.346207" style="fill: #ff7f0e; stroke: #ff7f0e"/>
     <use xlink:href="#m44c52eee97" x="598.234499" y="350.003931" style="fill: #ff7f0e; stroke: #ff7f0e"/>
     <use xlink:href="#m44c52eee97" x="601.447675" y="345.847119" style="fill: #ff7f0e; stroke: #ff7f0e"/>
     <use xlink:href="#m44c52eee97" x="604.660851" y="133.579523" style="fill: #ff7f0e; stroke: #ff7f0e"/>
     <use xlink:href="#m44c52eee97" x="607.874027" y="159.367183" style="fill: #ff7f0e; stroke: #ff7f0e"/>
     <use xlink:href="#m44c52eee97" x="611.087203" y="325.124196" style="fill: #ff7f0e; stroke: #ff7f0e"/>
     <use xlink:href="#m44c52eee97" x="614.300378" y="135.379234" style="fill: #ff7f0e; stroke: #ff7f0e"/>
     <use xlink:href="#m44c52eee97" x="617.513554" y="325.955304" style="fill: #ff7f0e; stroke: #ff7f0e"/>
     <use xlink:href="#m44c52eee97" x="620.72673" y="311.295539" style="fill: #ff7f0e; stroke: #ff7f0e"/>
     <use xlink:href="#m44c52eee97" x="623.939906" y="316.809357" style="fill: #ff7f0e; stroke: #ff7f0e"/>
     <use xlink:href="#m44c52eee97" x="627.153082" y="115.896297" style="fill: #ff7f0e; stroke: #ff7f0e"/>
     <use xlink:href="#m44c52eee97" x="630.366258" y="325.225208" style="fill: #ff7f0e; stroke: #ff7f0e"/>
     <use xlink:href="#m44c52eee97" x="633.579433" y="349.474599" style="fill: #ff7f0e; stroke: #ff7f0e"/>
     <use xlink:href="#m44c52eee97" x="636.792609" y="280.191056" style="fill: #ff7f0e; stroke: #ff7f0e"/>
     <use xlink:href="#m44c52eee97" x="640.005785" y="292.453174" style="fill: #ff7f0e; stroke: #ff7f0e"/>
     <use xlink:href="#m44c52eee97" x="643.218961" y="118.261455" style="fill: #ff7f0e; stroke: #ff7f0e"/>
     <use xlink:href="#m44c52eee97" x="646.432137" y="148.282075" style="fill: #ff7f0e; stroke: #ff7f0e"/>
     <use xlink:href="#m44c52eee97" x="649.645312" y="241.122267" style="fill: #ff7f0e; stroke: #ff7f0e"/>
     <use xlink:href="#m44c52eee97" x="652.858488" y="100.047632" style="fill: #ff7f0e; stroke: #ff7f0e"/>
     <use xlink:href="#m44c52eee97" x="656.071664" y="178.171876" style="fill: #ff7f0e; stroke: #ff7f0e"/>
     <use xlink:href="#m44c52eee97" x="659.28484" y="151.346059" style="fill: #ff7f0e; stroke: #ff7f0e"/>
     <use xlink:href="#m44c52eee97" x="662.498016" y="317.717281" style="fill: #ff7f0e; stroke: #ff7f0e"/>
     <use xlink:href="#m44c52eee97" x="665.711191" y="117.632155" style="fill: #ff7f0e; stroke: #ff7f0e"/>
     <use xlink:href="#m44c52eee97" x="668.924367" y="120.769695" style="fill: #ff7f0e; stroke: #ff7f0e"/>
     <use xlink:href="#m44c52eee97" x="672.137543" y="282.520006" style="fill: #ff7f0e; stroke: #ff7f0e"/>
     <use xlink:href="#m44c52eee97" x="675.350719" y="343.039572" style="fill: #ff7f0e; stroke: #ff7f0e"/>
     <use xlink:href="#m44c52eee97" x="678.563895" y="189.622533" style="fill: #ff7f0e; stroke: #ff7f0e"/>
     <use xlink:href="#m44c52eee97" x="681.77707" y="154.077371" style="fill: #ff7f0e; stroke: #ff7f0e"/>
     <use xlink:href="#m44c52eee97" x="684.990246" y="178.735835" style="fill: #ff7f0e; stroke: #ff7f0e"/>
     <use xlink:href="#m44c52eee97" x="688.203422" y="341.226809" style="fill: #ff7f0e; stroke: #ff7f0e"/>
     <use xlink:href="#m44c52eee97" x="691.416598" y="94.233778" style="fill: #ff7f0e; stroke: #ff7f0e"/>
     <use xlink:href="#m44c52eee97" x="694.629774" y="133.872623" style="fill: #ff7f0e; stroke: #ff7f0e"/>
     <use xlink:href="#m44c52eee97" x="697.84295" y="150.792356" style="fill: #ff7f0e; stroke: #ff7f0e"/>
     <use xlink:href="#m44c52eee97" x="701.056125" y="103.162758" style="fill: #ff7f0e; stroke: #ff7f0e"/>
     <use xlink:href="#m44c52eee97" x="704.269301" y="157.488952" style="fill: #ff7f0e; stroke: #ff7f0e"/>
     <use xlink:href="#m44c52eee97" x="707.482477" y="336.047638" style="fill: #ff7f0e; stroke: #ff7f0e"/>
     <use xlink:href="#m44c52eee97" x="710.695653" y="198.352446" style="fill: #ff7f0e; stroke: #ff7f0e"/>
     <use xlink:href="#m44c52eee97" x="713.908829" y="115.016996" style="fill: #ff7f0e; stroke: #ff7f0e"/>
     <use xlink:href="#m44c52eee97" x="717.122004" y="205.960079" style="fill: #ff7f0e; stroke: #ff7f0e"/>
     <use xlink:href="#m44c52eee97" x="720.33518" y="314.771916" style="fill: #ff7f0e; stroke: #ff7f0e"/>
     <use xlink:href="#m44c52eee97" x="723.548356" y="186.629287" style="fill: #ff7f0e; stroke: #ff7f0e"/>
     <use xlink:href="#m44c52eee97" x="726.761532" y="107.984305" style="fill: #ff7f0e; stroke: #ff7f0e"/>
     <use xlink:href="#m44c52eee97" x="729.974708" y="329.449585" style="fill: #ff7f0e; stroke: #ff7f0e"/>
     <use xlink:href="#m44c52eee97" x="733.187883" y="199.311823" style="fill: #ff7f0e; stroke: #ff7f0e"/>
     <use xlink:href="#m44c52eee97" x="736.401059" y="111.97413" style="fill: #ff7f0e; stroke: #ff7f0e"/>
     <use xlink:href="#m44c52eee97" x="739.614235" y="255.879576" style="fill: #ff7f0e; stroke: #ff7f0e"/>
     <use xlink:href="#m44c52eee97" x="742.827411" y="101.743521" style="fill: #ff7f0e; stroke: #ff7f0e"/>
     <use xlink:href="#m44c52eee97" x="746.040587" y="202.430615" style="fill: #ff7f0e; stroke: #ff7f0e"/>
     <use xlink:href="#m44c52eee97" x="749.253763" y="263.081344" style="fill: #ff7f0e; stroke: #ff7f0e"/>
     <use xlink:href="#m44c52eee97" x="752.466938" y="250.698947" style="fill: #ff7f0e; stroke: #ff7f0e"/>
     <use xlink:href="#m44c52eee97" x="755.680114" y="334.569244" style="fill: #ff7f0e; stroke: #ff7f0e"/>
     <use xlink:href="#m44c52eee97" x="758.89329" y="158.714847" style="fill: #ff7f0e; stroke: #ff7f0e"/>
     <use xlink:href="#m44c52eee97" x="762.106466" y="95.460572" style="fill: #ff7f0e; stroke: #ff7f0e"/>
     <use xlink:href="#m44c52eee97" x="765.319642" y="97.334065" style="fill: #ff7f0e; stroke: #ff7f0e"/>
     <use xlink:href="#m44c52eee97" x="768.532817" y="148.929898" style="fill: #ff7f0e; stroke: #ff7f0e"/>
     <use xlink:href="#m44c52eee97" x="771.745993" y="280.639803" style="fill: #ff7f0e; stroke: #ff7f0e"/>
     <use xlink:href="#m44c52eee97" x="774.959169" y="107.56981" style="fill: #ff7f0e; stroke: #ff7f0e"/>
     <use xlink:href="#m44c52eee97" x="778.172345" y="111.825928" style="fill: #ff7f0e; stroke: #ff7f0e"/>
     <use xlink:href="#m44c52eee97" x="781.385521" y="245.585165" style="fill: #ff7f0e; stroke: #ff7f0e"/>
     <use xlink:href="#m44c52eee97" x="784.598696" y="293.981508" style="fill: #ff7f0e; stroke: #ff7f0e"/>
     <use xlink:href="#m44c52eee97" x="787.811872" y="198.40082" style="fill: #ff7f0e; stroke: #ff7f0e"/>
     <use xlink:href="#m44c52eee97" x="791.025048" y="330.069023" style="fill: #ff7f0e; stroke: #ff7f0e"/>
     <use xlink:href="#m44c52eee97" x="794.238224" y="330.485848" style="fill: #ff7f0e; stroke: #ff7f0e"/>
     <use xlink:href="#m44c52eee97" x="797.4514" y="280.749299" style="fill: #ff7f0e; stroke: #ff7f0e"/>
     <use xlink:href="#m44c52eee97" x="800.664575" y="137.195307" style="fill: #ff7f0e; stroke: #ff7f0e"/>
     <use xlink:href="#m44c52eee97" x="803.877751" y="125.236571" style="fill: #ff7f0e; stroke: #ff7f0e"/>
     <use xlink:href="#m44c52eee97" x="807.090927" y="260.985333" style="fill: #ff7f0e; stroke: #ff7f0e"/>
     <use xlink:href="#m44c52eee97" x="810.304103" y="99.199999" style="fill: #ff7f0e; stroke: #ff7f0e"/>
     <use xlink:href="#m44c52eee97" x="813.517279" y="135.592414" style="fill: #ff7f0e; stroke: #ff7f0e"/>
     <use xlink:href="#m44c52eee97" x="816.730455" y="293.627122" style="fill: #ff7f0e; stroke: #ff7f0e"/>
    </g>
   </g>
   <g id="patch_3">
    <path d="M 50.87 390.04 
L 50.87 26.88 
" style="fill: none; stroke: #000000; stroke-width: 0.8; stroke-linejoin: miter; stroke-linecap: square"/>
   </g>
   <g id="patch_4">
    <path d="M 853.2 390.04 
L 853.2 26.88 
" style="fill: none; stroke: #000000; stroke-width: 0.8; stroke-linejoin: miter; stroke-linecap: square"/>
   </g>
   <g id="patch_5">
    <path d="M 50.87 390.04 
L 853.2 390.04 
" style="fill: none; stroke: #000000; stroke-width: 0.8; stroke-linejoin: miter; stroke-linecap: square"/>
   </g>
   <g id="patch_6">
    <path d="M 50.87 26.88 
L 853.2 26.88 
" style="fill: none; stroke: #000000; stroke-width: 0.8; stroke-linejoin: miter; stroke-linecap: square"/>
   </g>
   <g id="text_16">
    <!-- Final-Engine RUL with Prediction Bands  FD004 -->
    <g transform="translate(308.545938 20.88) scale(0.12 -0.12)">
     <defs>
      <path id="DejaVuSans-46" d="M 628 4666 
L 3309 4666 
L 3309 4134 
L 1259 4134 
L 1259 2759 
L 3109 2759 
L 3109 2228 
L 1259 2228 
L 1259 0 
L 628 0 
L 628 4666 
z
" transform="scale(0.015625)"/>
      <path id="DejaVuSans-61" d="M 2194 1759 
Q 1497 1759 1228 1600 
Q 959 1441 959 1056 
Q 959 750 1161 570 
Q 1363 391 1709 391 
Q 2188 391 2477 730 
Q 2766 1069 2766 1631 
L 2766 1759 
L 2194 1759 
z
M 3341 1997 
L 3341 0 
L 2766 0 
L 2766 531 
Q 2569 213 2275 61 
Q 1981 -91 1556 -91 
Q 1019 -91 701 211 
Q 384 513 384 1019 
Q 384 1609 779 1909 
Q 1175 2209 1959 2209 
L 2766 2209 
L 2766 2266 
Q 2766 2663 2505 2880 
Q 2244 3097 1772 3097 
Q 1472 3097 1187 3025 
Q 903 2953 641 2809 
L 641 3341 
Q 956 3463 1253 3523 
Q 1550 3584 1831 3584 
Q 2591 3584 2966 3190 
Q 3341 2797 3341 1997 
z
" transform="scale(0.015625)"/>
      <path id="DejaVuSans-6c" d="M 603 4863 
L 1178 4863 
L 1178 0 
L 603 0 
L 603 4863 
z
" transform="scale(0.015625)"/>
      <path id="DejaVuSans-2d" d="M 313 2009 
L 1997 2009 
L 1997 1497 
L 313 1497 
L 313 2009 
z
" transform="scale(0.015625)"/>
      <path id="DejaVuSans-77" d="M 269 3500 
L 844 3500 
L 1563 769 
L 2278 3500 
L 2956 3500 
L 3675 769 
L 4391 3500 
L 4966 3500 
L 4050 0 
L 3372 0 
L 2619 2869 
L 1863 0 
L 1184 0 
L 269 3500 
z
" transform="scale(0.015625)"/>
      <path id="DejaVuSans-68" d="M 3513 2113 
L 3513 0 
L 2938 0 
L 2938 2094 
Q 2938 2591 2744 2837 
Q 2550 3084 2163 3084 
Q 1697 3084 1428 2787 
Q 1159 2491 1159 1978 
L 1159 0 
L 581 0 
L 581 4863 
L 1159 4863 
L 1159 2956 
Q 1366 3272 1645 3428 
Q 1925 3584 2291 3584 
Q 2894 3584 3203 3211 
Q 3513 2838 3513 2113 
z
" transform="scale(0.015625)"/>
      <path id="DejaVuSans-50" d="M 1259 4147 
L 1259 2394 
L 2053 2394 
Q 2494 2394 2734 2622 
Q 2975 2850 2975 3272 
Q 2975 3691 2734 3919 
Q 2494 4147 2053 4147 
L 1259 4147 
z
M 628 4666 
L 2053 4666 
Q 2838 4666 3239 4311 
Q 3641 3956 3641 3272 
Q 3641 2581 3239 2228 
Q 2838 1875 2053 1875 
L 1259 1875 
L 1259 0 
L 628 0 
L 628 4666 
z
" transform="scale(0.015625)"/>
      <path id="DejaVuSans-63" d="M 3122 3366 
L 3122 2828 
Q 2878 2963 2633 3030 
Q 2388 3097 2138 3097 
Q 1578 3097 1268 2742 
Q 959 2388 959 1747 
Q 959 1106 1268 751 
Q 1578 397 2138 397 
Q 2388 397 2633 464 
Q 2878 531 3122 666 
L 3122 134 
Q 2881 22 2623 -34 
Q 2366 -91 2075 -91 
Q 1284 -91 818 406 
Q 353 903 353 1747 
Q 353 2603 823 3093 
Q 1294 3584 2113 3584 
Q 2378 3584 2631 3529 
Q 2884 3475 3122 3366 
z
" transform="scale(0.015625)"/>
      <path id="DejaVuSans-42" d="M 1259 2228 
L 1259 519 
L 2272 519 
Q 2781 519 3026 730 
Q 3272 941 3272 1375 
Q 3272 1813 3026 2020 
Q 2781 2228 2272 2228 
L 1259 2228 
z
M 1259 4147 
L 1259 2741 
L 2194 2741 
Q 2656 2741 2882 2914 
Q 3109 3088 3109 3444 
Q 3109 3797 2882 3972 
Q 2656 4147 2194 4147 
L 1259 4147 
z
M 628 4666 
L 2241 4666 
Q 2963 4666 3353 4366 
Q 3744 4066 3744 3513 
Q 3744 3084 3544 2831 
Q 3344 2578 2956 2516 
Q 3422 2416 3680 2098 
Q 3938 1781 3938 1306 
Q 3938 681 3513 340 
Q 3088 0 2303 0 
L 628 0 
L 628 4666 
z
" transform="scale(0.015625)"/>
      <path id="DejaVuSans-2013" d="M 313 1978 
L 2888 1978 
L 2888 1528 
L 313 1528 
L 313 1978 
z
" transform="scale(0.015625)"/>
      <path id="DejaVuSans-44" d="M 1259 4147 
L 1259 519 
L 2022 519 
Q 2988 519 3436 956 
Q 3884 1394 3884 2338 
Q 3884 3275 3436 3711 
Q 2988 4147 2022 4147 
L 1259 4147 
z
M 628 4666 
L 1925 4666 
Q 3281 4666 3915 4102 
Q 4550 3538 4550 2338 
Q 4550 1131 3912 565 
Q 3275 0 1925 0 
L 628 0 
L 628 4666 
z
" transform="scale(0.015625)"/>
     </defs>
     <use xlink:href="#DejaVuSans-46"/>
     <use xlink:href="#DejaVuSans-69" transform="translate(50.269531 0)"/>
     <use xlink:href="#DejaVuSans-6e" transform="translate(78.052734 0)"/>
     <use xlink:href="#DejaVuSans-61" transform="translate(141.431641 0)"/>
     <use xlink:href="#DejaVuSans-6c" transform="translate(202.710938 0)"/>
     <use xlink:href="#DejaVuSans-2d" transform="translate(230.494141 0)"/>
     <use xlink:href="#DejaVuSans-45" transform="translate(266.578125 0)"/>
     <use xlink:href="#DejaVuSans-6e" transform="translate(329.761719 0)"/>
     <use xlink:href="#DejaVuSans-67" transform="translate(393.140625 0)"/>
     <use xlink:href="#DejaVuSans-69" transform="translate(456.617188 0)"/>
     <use xlink:href="#DejaVuSans-6e" transform="translate(484.400391 0)"/>
     <use xlink:href="#DejaVuSans-65" transform="translate(547.779297 0)"/>
     <use xlink:href="#DejaVuSans-20" transform="translate(609.302734 0)"/>
     <use xlink:href="#DejaVuSans-52" transform="translate(641.089844 0)"/>
     <use xlink:href="#DejaVuSans-55" transform="translate(710.572266 0)"/>
     <use xlink:href="#DejaVuSans-4c" transform="translate(783.765625 0)"/>
     <use xlink:href="#DejaVuSans-20" transform="translate(839.478516 0)"/>
     <use xlink:href="#DejaVuSans-77" transform="translate(871.265625 0)"/>
     <use xlink:href="#DejaVuSans-69" transform="translate(953.052734 0)"/>
     <use xlink:href="#DejaVuSans-74" transform="translate(980.835938 0)"/>
     <use xlink:href="#DejaVuSans-68" transform="translate(1020.044922 0)"/>
     <use xlink:href="#DejaVuSans-20" transform="translate(1083.423828 0)"/>
     <use xlink:href="#DejaVuSans-50" transform="translate(1115.210938 0)"/>
     <use xlink:href="#DejaVuSans-72" transform="translate(1173.763672 0)"/>
     <use xlink:href="#DejaVuSans-65" transform="translate(1212.626953 0)"/>
     <use xlink:href="#DejaVuSans-64" transform="translate(1274.150391 0)"/>
     <use xlink:href="#DejaVuSans-69" transform="translate(1337.626953 0)"/>
     <use xlink:href="#DejaVuSans-63" transform="translate(1365.410156 0)"/>
     <use xlink:href="#DejaVuSans-74" transform="translate(1420.390625 0)"/>
     <use xlink:href="#DejaVuSans-69" transform="translate(1459.599609 0)"/>
     <use xlink:href="#DejaVuSans-6f" transform="translate(1487.382812 0)"/>
     <use xlink:href="#DejaVuSans-6e" transform="translate(1548.564453 0)"/>
     <use xlink:href="#DejaVuSans-20" transform="translate(1611.943359 0)"/>
     <use xlink:href="#DejaVuSans-42" transform="translate(1643.730469 0)"/>
     <use xlink:href="#DejaVuSans-61" transform="translate(1712.333984 0)"/>
     <use xlink:href="#DejaVuSans-6e" transform="translate(1773.613281 0)"/>
     <use xlink:href="#DejaVuSans-64" transform="translate(1836.992188 0)"/>
     <use xlink:href="#DejaVuSans-73" transform="translate(1900.46875 0)"/>
     <use xlink:href="#DejaVuSans-20" transform="translate(1952.568359 0)"/>
     <use xlink:href="#DejaVuSans-2013" transform="translate(1984.355469 0)"/>
     <use xlink:href="#DejaVuSans-20" transform="translate(2034.355469 0)"/>
     <use xlink:href="#DejaVuSans-46" transform="translate(2066.142578 0)"/>
     <use xlink:href="#DejaVuSans-44" transform="translate(2123.662109 0)"/>
     <use xlink:href="#DejaVuSans-30" transform="translate(2200.664062 0)"/>
     <use xlink:href="#DejaVuSans-30" transform="translate(2264.287109 0)"/>
     <use xlink:href="#DejaVuSans-34" transform="translate(2327.910156 0)"/>
    </g>
   </g>
   <g id="legend_1">
    <g id="patch_7">
     <path d="M 57.87 78.914375 
L 202.390312 78.914375 
Q 204.390312 78.914375 204.390312 76.914375 
L 204.390312 33.88 
Q 204.390312 31.88 202.390312 31.88 
L 57.87 31.88 
Q 55.87 31.88 55.87 33.88 
L 55.87 76.914375 
Q 55.87 78.914375 57.87 78.914375 
z
" style="fill: #ffffff; opacity: 0.8; stroke: #cccccc; stroke-linejoin: miter"/>
    </g>
    <g id="patch_8">
     <path d="M 59.87 43.478437 
L 79.87 43.478437 
L 79.87 36.478437 
L 59.87 36.478437 
z
" style="fill: #1f77b4; fill-opacity: 0.2"/>
    </g>
    <g id="text_17">
     <!-- Prediction Band (lohi) -->
     <g transform="translate(87.87 43.478437) scale(0.1 -0.1)">
      <use xlink:href="#DejaVuSans-50"/>
      <use xlink:href="#DejaVuSans-72" transform="translate(58.552734 0)"/>
      <use xlink:href="#DejaVuSans-65" transform="translate(97.416016 0)"/>
      <use xlink:href="#DejaVuSans-64" transform="translate(158.939453 0)"/>
      <use xlink:href="#DejaVuSans-69" transform="translate(222.416016 0)"/>
      <use xlink:href="#DejaVuSans-63" transform="translate(250.199219 0)"/>
      <use xlink:href="#DejaVuSans-74" transform="translate(305.179688 0)"/>
      <use xlink:href="#DejaVuSans-69" transform="translate(344.388672 0)"/>
      <use xlink:href="#DejaVuSans-6f" transform="translate(372.171875 0)"/>
      <use xlink:href="#DejaVuSans-6e" transform="translate(433.353516 0)"/>
      <use xlink:href="#DejaVuSans-20" transform="translate(496.732422 0)"/>
      <use xlink:href="#DejaVuSans-42" transform="translate(528.519531 0)"/>
      <use xlink:href="#DejaVuSans-61" transform="translate(597.123047 0)"/>
      <use xlink:href="#DejaVuSans-6e" transform="translate(658.402344 0)"/>
      <use xlink:href="#DejaVuSans-64" transform="translate(721.78125 0)"/>
      <use xlink:href="#DejaVuSans-20" transform="translate(785.257812 0)"/>
      <use xlink:href="#DejaVuSans-28" transform="translate(817.044922 0)"/>
      <use xlink:href="#DejaVuSans-6c" transform="translate(856.058594 0)"/>
      <use xlink:href="#DejaVuSans-6f" transform="translate(883.841797 0)"/>
      <use xlink:href="#DejaVuSans-2013" transform="translate(945.023438 0)"/>
      <use xlink:href="#DejaVuSans-68" transform="translate(995.023438 0)"/>
      <use xlink:href="#DejaVuSans-69" transform="translate(1058.402344 0)"/>
      <use xlink:href="#DejaVuSans-29" transform="translate(1086.185547 0)"/>
     </g>
    </g>
    <g id="line2d_16">
     <path d="M 59.87 54.656563 
L 69.87 54.656563 
L 79.87 54.656563 
" style="fill: none; stroke: #1f77b4; stroke-width: 1.5; stroke-linecap: square"/>
    </g>
    <g id="text_18">
     <!-- RUL Actual -->
     <g transform="translate(87.87 58.156563) scale(0.1 -0.1)">
      <defs>
       <path id="DejaVuSans-41" d="M 2188 4044 
L 1331 1722 
L 3047 1722 
L 2188 4044 
z
M 1831 4666 
L 2547 4666 
L 4325 0 
L 3669 0 
L 3244 1197 
L 1141 1197 
L 716 0 
L 50 0 
L 1831 4666 
z
" transform="scale(0.015625)"/>
       <path id="DejaVuSans-75" d="M 544 1381 
L 544 3500 
L 1119 3500 
L 1119 1403 
Q 1119 906 1312 657 
Q 1506 409 1894 409 
Q 2359 409 2629 706 
Q 2900 1003 2900 1516 
L 2900 3500 
L 3475 3500 
L 3475 0 
L 2900 0 
L 2900 538 
Q 2691 219 2414 64 
Q 2138 -91 1772 -91 
Q 1169 -91 856 284 
Q 544 659 544 1381 
z
M 1991 3584 
L 1991 3584 
z
" transform="scale(0.015625)"/>
      </defs>
      <use xlink:href="#DejaVuSans-52"/>
      <use xlink:href="#DejaVuSans-55" transform="translate(69.482422 0)"/>
      <use xlink:href="#DejaVuSans-4c" transform="translate(142.675781 0)"/>
      <use xlink:href="#DejaVuSans-20" transform="translate(198.388672 0)"/>
      <use xlink:href="#DejaVuSans-41" transform="translate(230.175781 0)"/>
      <use xlink:href="#DejaVuSans-63" transform="translate(296.833984 0)"/>
      <use xlink:href="#DejaVuSans-74" transform="translate(351.814453 0)"/>
      <use xlink:href="#DejaVuSans-75" transform="translate(391.023438 0)"/>
      <use xlink:href="#DejaVuSans-61" transform="translate(454.402344 0)"/>
      <use xlink:href="#DejaVuSans-6c" transform="translate(515.681641 0)"/>
     </g>
    </g>
    <g id="line2d_17">
     <path d="M 59.87 69.334687 
L 69.87 69.334687 
L 79.87 69.334687 
" style="fill: none; stroke-dasharray: 5.55,2.4; stroke-dashoffset: 0; stroke: #ff7f0e; stroke-width: 1.5"/>
     <g>
      <use xlink:href="#m44c52eee97" x="69.87" y="69.334687" style="fill: #ff7f0e; stroke: #ff7f0e"/>
     </g>
    </g>
    <g id="text_19">
     <!-- RUL Prediction -->
     <g transform="translate(87.87 72.834687) scale(0.1 -0.1)">
      <use xlink:href="#DejaVuSans-52"/>
      <use xlink:href="#DejaVuSans-55" transform="translate(69.482422 0)"/>
      <use xlink:href="#DejaVuSans-4c" transform="translate(142.675781 0)"/>
      <use xlink:href="#DejaVuSans-20" transform="translate(198.388672 0)"/>
      <use xlink:href="#DejaVuSans-50" transform="translate(230.175781 0)"/>
      <use xlink:href="#DejaVuSans-72" transform="translate(288.728516 0)"/>
      <use xlink:href="#DejaVuSans-65" transform="translate(327.591797 0)"/>
      <use xlink:href="#DejaVuSans-64" transform="translate(389.115234 0)"/>
      <use xlink:href="#DejaVuSans-69" transform="translate(452.591797 0)"/>
      <use xlink:href="#DejaVuSans-63" transform="translate(480.375 0)"/>
      <use xlink:href="#DejaVuSans-74" transform="translate(535.355469 0)"/>
      <use xlink:href="#DejaVuSans-69" transform="translate(574.564453 0)"/>
      <use xlink:href="#DejaVuSans-6f" transform="translate(602.347656 0)"/>
      <use xlink:href="#DejaVuSans-6e" transform="translate(663.529297 0)"/>
     </g>
    </g>
   </g>
  </g>
 </g>
 <defs>
  <clipPath id="ped6aa366c8">
   <rect x="50.87" y="26.88" width="802.33" height="363.16"/>
  </clipPath>
 </defs>
</svg>
