<?xml version="1.0" encoding="utf-8" standalone="no"?>
<!DOCTYPE svg PUBLIC "-//W3C//DTD SVG 1.1//EN"
  "http://www.w3.org/Graphics/SVG/1.1/DTD/svg11.dtd">
<svg xmlns:xlink="http://www.w3.org/1999/xlink" width="864pt" height="432pt" viewBox="0 0 864 432" xmlns="http://www.w3.org/2000/svg" version="1.1">
 <metadata>
  <rdf:RDF xmlns:dc="http://purl.org/dc/elements/1.1/" xmlns:cc="http://creativecommons.org/ns#" xmlns:rdf="http://www.w3.org/1999/02/22-rdf-syntax-ns#">
   <cc:Work>
    <dc:type rdf:resource="http://purl.org/dc/dcmitype/StillImage"/>
    <dc:date>2025-10-29T21:52:57.865512</dc:date>
    <dc:format>image/svg+xml</dc:format>
    <dc:creator>
     <cc:Agent>
      <dc:title>Matplotlib v3.10.7, https://matplotlib.org/</dc:title>
     </cc:Agent>
    </dc:creator>
   </cc:Work>
  </rdf:RDF>
 </metadata>
 <defs>
  <style type="text/css">*{stroke-linejoin: round; stroke-linecap: butt}</style>
 </defs>
 <g id="figure_1">
  <g id="patch_1">
   <path d="M 0 432 
L 864 432 
L 864 0 
L 0 0 
z
" style="fill: #ffffff"/>
  </g>
  <g id="axes_1">
   <g id="patch_2">
    <path d="M 50.87 390.04 
L 853.2 390.04 
L 853.2 26.88 
L 50.87 26.88 
z
" style="fill: #ffffff"/>
   </g>
   <g id="FillBetweenPolyCollection_1">
    <path d="M 87.339545 182.722055 
L 87.339545 284.656944 
L 95.267708 234.011273 
L 103.19587 184.992822 
L 111.124032 165.405284 
L 119.052194 217.658533 
L 126.980356 211.698798 
L 134.908518 158.77508 
L 142.83668 249.245497 
L 150.764842 204.315609 
L 158.693004 224.530263 
L 166.621166 263.718177 
L 174.549328 174.966983 
L 182.47749 177.598603 
L 190.405652 299.526436 
L 198.333814 353.194097 
L 206.261976 255.331135 
L 214.190138 373.532727 
L 222.1183 286.841917 
L 230.046462 153.98153 
L 237.974625 368.149661 
L 245.902787 163.490029 
L 253.830949 251.516856 
L 261.759111 167.458969 
L 269.687273 196.833517 
L 277.615435 211.25992 
L 285.543597 373.532727 
L 293.471759 309.620854 
L 301.399921 166.887455 
L 309.328083 373.532727 
L 317.256245 373.532727 
L 325.184407 362.501154 
L 333.112569 367.912303 
L 341.040731 304.660083 
L 348.968893 348.658926 
L 356.897055 373.532727 
L 364.825217 373.532727 
L 372.753379 309.536052 
L 380.681542 180.351689 
L 388.609704 211.728269 
L 396.537866 322.355451 
L 404.466028 154.461536 
L 412.39419 202.453693 
L 420.322352 373.532727 
L 428.250514 241.54601 
L 436.178676 193.958372 
L 444.106838 354.966835 
L 452.035 351.130813 
L 459.963162 184.910377 
L 467.891324 168.753337 
L 475.819486 373.532727 
L 483.747648 215.204991 
L 491.67581 345.691254 
L 499.603972 169.132943 
L 507.532134 168.850396 
L 515.460296 373.401566 
L 523.388458 325.86722 
L 531.316621 217.558482 
L 539.244783 362.685772 
L 547.172945 151.025628 
L 555.101107 373.532727 
L 563.029269 152.419733 
L 570.957431 373.532727 
L 578.885593 153.900981 
L 586.813755 244.50059 
L 594.741917 171.848782 
L 602.670079 286.786359 
L 610.598241 200.011077 
L 618.526403 166.401395 
L 626.454565 177.947225 
L 634.382727 373.532727 
L 642.310889 353.461783 
L 650.239051 145.322171 
L 658.167213 237.313624 
L 666.095375 215.468732 
L 674.023538 373.532727 
L 681.9517 373.532727 
L 689.879862 166.775051 
L 697.808024 270.624544 
L 705.736186 165.074112 
L 713.664348 152.510251 
L 721.59251 176.11217 
L 729.520672 162.857885 
L 737.448834 368.428577 
L 745.376996 354.466709 
L 753.305158 367.667655 
L 761.23332 294.122889 
L 769.161482 286.887263 
L 777.089644 191.172718 
L 785.017806 164.991318 
L 792.945968 210.099006 
L 800.87413 264.140754 
L 808.802292 163.480286 
L 816.730455 373.532727 
L 816.730455 276.378853 
L 816.730455 276.378853 
L 808.802292 61.545406 
L 800.87413 162.205873 
L 792.945968 108.164125 
L 785.017806 63.056455 
L 777.089644 89.237837 
L 769.161482 184.952373 
L 761.23332 192.188 
L 753.305158 265.73277 
L 745.376996 252.531824 
L 737.448834 266.493697 
L 729.520672 60.923004 
L 721.59251 74.177289 
L 713.664348 50.57537 
L 705.736186 63.139231 
L 697.808024 168.689663 
L 689.879862 64.840153 
L 681.9517 297.213542 
L 674.023538 294.802536 
L 666.095375 113.533852 
L 658.167213 135.378743 
L 650.239051 43.387273 
L 642.310889 251.526902 
L 634.382727 296.678196 
L 626.454565 76.012344 
L 618.526403 64.466531 
L 610.598241 98.076196 
L 602.670079 184.85147 
L 594.741917 69.913902 
L 586.813755 142.565709 
L 578.885593 51.966101 
L 570.957431 294.041653 
L 563.029269 50.484835 
L 555.101107 278.321283 
L 547.172945 49.090764 
L 539.244783 260.750896 
L 531.316621 115.623601 
L 523.388458 223.932339 
L 515.460296 271.466689 
L 507.532134 66.915498 
L 499.603972 67.198063 
L 491.67581 243.756374 
L 483.747648 113.27011 
L 475.819486 281.842655 
L 467.891324 66.818456 
L 459.963162 82.975496 
L 452.035 249.195932 
L 444.106838 253.031959 
L 436.178676 92.023491 
L 428.250514 139.611129 
L 420.322352 283.526971 
L 412.39419 100.518812 
L 404.466028 52.526638 
L 396.537866 220.420561 
L 388.609704 109.793388 
L 380.681542 78.416808 
L 372.753379 207.601171 
L 364.825217 303.528588 
L 356.897055 279.530648 
L 348.968893 246.724045 
L 341.040731 202.725194 
L 333.112569 265.977427 
L 325.184407 260.566277 
L 317.256245 290.803638 
L 309.328083 304.563076 
L 301.399921 64.952574 
L 293.471759 207.685965 
L 285.543597 287.829242 
L 277.615435 109.325039 
L 269.687273 94.898636 
L 261.759111 65.524071 
L 253.830949 149.581975 
L 245.902787 61.555148 
L 237.974625 266.214776 
L 230.046462 52.04665 
L 222.1183 184.907036 
L 214.190138 287.518554 
L 206.261976 153.396254 
L 198.333814 251.259221 
L 190.405652 197.591564 
L 182.47749 75.663705 
L 174.549328 73.032103 
L 166.621166 161.783296 
L 158.693004 122.595382 
L 150.764842 102.380728 
L 142.83668 147.310616 
L 134.908518 56.840199 
L 126.980356 109.763918 
L 119.052194 115.723652 
L 111.124032 63.470404 
L 103.19587 83.057941 
L 95.267708 132.076393 
L 87.339545 182.722055 
z
" clip-path="url(#pb5955ea19d)" style="fill: #1f77b4; fill-opacity: 0.2"/>
   </g>
   <g id="matplotlib.axis_1">
    <g id="xtick_1">
     <g id="line2d_1">
      <defs>
       <path id="m9637ebcd99" d="M 0 0 
L 0 3.5 
" style="stroke: #000000; stroke-width: 0.8"/>
      </defs>
      <g>
       <use xlink:href="#m9637ebcd99" x="87.339545" y="390.04" style="stroke: #000000; stroke-width: 0.8"/>
      </g>
     </g>
     <g id="text_1">
      <!-- 0 -->
      <g transform="translate(84.158295 404.638438) scale(0.1 -0.1)">
       <defs>
        <path id="DejaVuSans-30" d="M 2034 4250 
Q 1547 4250 1301 3770 
Q 1056 3291 1056 2328 
Q 1056 1369 1301 889 
Q 1547 409 2034 409 
Q 2525 409 2770 889 
Q 3016 1369 3016 2328 
Q 3016 3291 2770 3770 
Q 2525 4250 2034 4250 
z
M 2034 4750 
Q 2819 4750 3233 4129 
Q 3647 3509 3647 2328 
Q 3647 1150 3233 529 
Q 2819 -91 2034 -91 
Q 1250 -91 836 529 
Q 422 1150 422 2328 
Q 422 3509 836 4129 
Q 1250 4750 2034 4750 
z
" transform="scale(0.015625)"/>
       </defs>
       <use xlink:href="#DejaVuSans-30"/>
      </g>
     </g>
    </g>
    <g id="xtick_2">
     <g id="line2d_2">
      <g>
       <use xlink:href="#m9637ebcd99" x="245.902787" y="390.04" style="stroke: #000000; stroke-width: 0.8"/>
      </g>
     </g>
     <g id="text_2">
      <!-- 20 -->
      <g transform="translate(239.540287 404.638438) scale(0.1 -0.1)">
       <defs>
        <path id="DejaVuSans-32" d="M 1228 531 
L 3431 531 
L 3431 0 
L 469 0 
L 469 531 
Q 828 903 1448 1529 
Q 2069 2156 2228 2338 
Q 2531 2678 2651 2914 
Q 2772 3150 2772 3378 
Q 2772 3750 2511 3984 
Q 2250 4219 1831 4219 
Q 1534 4219 1204 4116 
Q 875 4013 500 3803 
L 500 4441 
Q 881 4594 1212 4672 
Q 1544 4750 1819 4750 
Q 2544 4750 2975 4387 
Q 3406 4025 3406 3419 
Q 3406 3131 3298 2873 
Q 3191 2616 2906 2266 
Q 2828 2175 2409 1742 
Q 1991 1309 1228 531 
z
" transform="scale(0.015625)"/>
       </defs>
       <use xlink:href="#DejaVuSans-32"/>
       <use xlink:href="#DejaVuSans-30" transform="translate(63.623047 0)"/>
      </g>
     </g>
    </g>
    <g id="xtick_3">
     <g id="line2d_3">
      <g>
       <use xlink:href="#m9637ebcd99" x="404.466028" y="390.04" style="stroke: #000000; stroke-width: 0.8"/>
      </g>
     </g>
     <g id="text_3">
      <!-- 40 -->
      <g transform="translate(398.103528 404.638438) scale(0.1 -0.1)">
       <defs>
        <path id="DejaVuSans-34" d="M 2419 4116 
L 825 1625 
L 2419 1625 
L 2419 4116 
z
M 2253 4666 
L 3047 4666 
L 3047 1625 
L 3713 1625 
L 3713 1100 
L 3047 1100 
L 3047 0 
L 2419 0 
L 2419 1100 
L 313 1100 
L 313 1709 
L 2253 4666 
z
" transform="scale(0.015625)"/>
       </defs>
       <use xlink:href="#DejaVuSans-34"/>
       <use xlink:href="#DejaVuSans-30" transform="translate(63.623047 0)"/>
      </g>
     </g>
    </g>
    <g id="xtick_4">
     <g id="line2d_4">
      <g>
       <use xlink:href="#m9637ebcd99" x="563.029269" y="390.04" style="stroke: #000000; stroke-width: 0.8"/>
      </g>
     </g>
     <g id="text_4">
      <!-- 60 -->
      <g transform="translate(556.666769 404.638438) scale(0.1 -0.1)">
       <defs>
        <path id="DejaVuSans-36" d="M 2113 2584 
Q 1688 2584 1439 2293 
Q 1191 2003 1191 1497 
Q 1191 994 1439 701 
Q 1688 409 2113 409 
Q 2538 409 2786 701 
Q 3034 994 3034 1497 
Q 3034 2003 2786 2293 
Q 2538 2584 2113 2584 
z
M 3366 4563 
L 3366 3988 
Q 3128 4100 2886 4159 
Q 2644 4219 2406 4219 
Q 1781 4219 1451 3797 
Q 1122 3375 1075 2522 
Q 1259 2794 1537 2939 
Q 1816 3084 2150 3084 
Q 2853 3084 3261 2657 
Q 3669 2231 3669 1497 
Q 3669 778 3244 343 
Q 2819 -91 2113 -91 
Q 1303 -91 875 529 
Q 447 1150 447 2328 
Q 447 3434 972 4092 
Q 1497 4750 2381 4750 
Q 2619 4750 2861 4703 
Q 3103 4656 3366 4563 
z
" transform="scale(0.015625)"/>
       </defs>
       <use xlink:href="#DejaVuSans-36"/>
       <use xlink:href="#DejaVuSans-30" transform="translate(63.623047 0)"/>
      </g>
     </g>
    </g>
    <g id="xtick_5">
     <g id="line2d_5">
      <g>
       <use xlink:href="#m9637ebcd99" x="721.59251" y="390.04" style="stroke: #000000; stroke-width: 0.8"/>
      </g>
     </g>
     <g id="text_5">
      <!-- 80 -->
      <g transform="translate(715.23001 404.638438) scale(0.1 -0.1)">
       <defs>
        <path id="DejaVuSans-38" d="M 2034 2216 
Q 1584 2216 1326 1975 
Q 1069 1734 1069 1313 
Q 1069 891 1326 650 
Q 1584 409 2034 409 
Q 2484 409 2743 651 
Q 3003 894 3003 1313 
Q 3003 1734 2745 1975 
Q 2488 2216 2034 2216 
z
M 1403 2484 
Q 997 2584 770 2862 
Q 544 3141 544 3541 
Q 544 4100 942 4425 
Q 1341 4750 2034 4750 
Q 2731 4750 3128 4425 
Q 3525 4100 3525 3541 
Q 3525 3141 3298 2862 
Q 3072 2584 2669 2484 
Q 3125 2378 3379 2068 
Q 3634 1759 3634 1313 
Q 3634 634 3220 271 
Q 2806 -91 2034 -91 
Q 1263 -91 848 271 
Q 434 634 434 1313 
Q 434 1759 690 2068 
Q 947 2378 1403 2484 
z
M 1172 3481 
Q 1172 3119 1398 2916 
Q 1625 2713 2034 2713 
Q 2441 2713 2670 2916 
Q 2900 3119 2900 3481 
Q 2900 3844 2670 4047 
Q 2441 4250 2034 4250 
Q 1625 4250 1398 4047 
Q 1172 3844 1172 3481 
z
" transform="scale(0.015625)"/>
       </defs>
       <use xlink:href="#DejaVuSans-38"/>
       <use xlink:href="#DejaVuSans-30" transform="translate(63.623047 0)"/>
      </g>
     </g>
    </g>
    <g id="text_6">
     <!-- Engine (sorted) -->
     <g transform="translate(413.477187 418.316562) scale(0.1 -0.1)">
      <defs>
       <path id="DejaVuSans-45" d="M 628 4666 
L 3578 4666 
L 3578 4134 
L 1259 4134 
L 1259 2753 
L 3481 2753 
L 3481 2222 
L 1259 2222 
L 1259 531 
L 3634 531 
L 3634 0 
L 628 0 
L 628 4666 
z
" transform="scale(0.015625)"/>
       <path id="DejaVuSans-6e" d="M 3513 2113 
L 3513 0 
L 2938 0 
L 2938 2094 
Q 2938 2591 2744 2837 
Q 2550 3084 2163 3084 
Q 1697 3084 1428 2787 
Q 1159 2491 1159 1978 
L 1159 0 
L 581 0 
L 581 3500 
L 1159 3500 
L 1159 2956 
Q 1366 3272 1645 3428 
Q 1925 3584 2291 3584 
Q 2894 3584 3203 3211 
Q 3513 2838 3513 2113 
z
" transform="scale(0.015625)"/>
       <path id="DejaVuSans-67" d="M 2906 1791 
Q 2906 2416 2648 2759 
Q 2391 3103 1925 3103 
Q 1463 3103 1205 2759 
Q 947 2416 947 1791 
Q 947 1169 1205 825 
Q 1463 481 1925 481 
Q 2391 481 2648 825 
Q 2906 1169 2906 1791 
z
M 3481 434 
Q 3481 -459 3084 -895 
Q 2688 -1331 1869 -1331 
Q 1566 -1331 1297 -1286 
Q 1028 -1241 775 -1147 
L 775 -588 
Q 1028 -725 1275 -790 
Q 1522 -856 1778 -856 
Q 2344 -856 2625 -561 
Q 2906 -266 2906 331 
L 2906 616 
Q 2728 306 2450 153 
Q 2172 0 1784 0 
Q 1141 0 747 490 
Q 353 981 353 1791 
Q 353 2603 747 3093 
Q 1141 3584 1784 3584 
Q 2172 3584 2450 3431 
Q 2728 3278 2906 2969 
L 2906 3500 
L 3481 3500 
L 3481 434 
z
" transform="scale(0.015625)"/>
       <path id="DejaVuSans-69" d="M 603 3500 
L 1178 3500 
L 1178 0 
L 603 0 
L 603 3500 
z
M 603 4863 
L 1178 4863 
L 1178 4134 
L 603 4134 
L 603 4863 
z
" transform="scale(0.015625)"/>
       <path id="DejaVuSans-65" d="M 3597 1894 
L 3597 1613 
L 953 1613 
Q 991 1019 1311 708 
Q 1631 397 2203 397 
Q 2534 397 2845 478 
Q 3156 559 3463 722 
L 3463 178 
Q 3153 47 2828 -22 
Q 2503 -91 2169 -91 
Q 1331 -91 842 396 
Q 353 884 353 1716 
Q 353 2575 817 3079 
Q 1281 3584 2069 3584 
Q 2775 3584 3186 3129 
Q 3597 2675 3597 1894 
z
M 3022 2063 
Q 3016 2534 2758 2815 
Q 2500 3097 2075 3097 
Q 1594 3097 1305 2825 
Q 1016 2553 972 2059 
L 3022 2063 
z
" transform="scale(0.015625)"/>
       <path id="DejaVuSans-20" transform="scale(0.015625)"/>
       <path id="DejaVuSans-28" d="M 1984 4856 
Q 1566 4138 1362 3434 
Q 1159 2731 1159 2009 
Q 1159 1288 1364 580 
Q 1569 -128 1984 -844 
L 1484 -844 
Q 1016 -109 783 600 
Q 550 1309 550 2009 
Q 550 2706 781 3412 
Q 1013 4119 1484 4856 
L 1984 4856 
z
" transform="scale(0.015625)"/>
       <path id="DejaVuSans-73" d="M 2834 3397 
L 2834 2853 
Q 2591 2978 2328 3040 
Q 2066 3103 1784 3103 
Q 1356 3103 1142 2972 
Q 928 2841 928 2578 
Q 928 2378 1081 2264 
Q 1234 2150 1697 2047 
L 1894 2003 
Q 2506 1872 2764 1633 
Q 3022 1394 3022 966 
Q 3022 478 2636 193 
Q 2250 -91 1575 -91 
Q 1294 -91 989 -36 
Q 684 19 347 128 
L 347 722 
Q 666 556 975 473 
Q 1284 391 1588 391 
Q 1994 391 2212 530 
Q 2431 669 2431 922 
Q 2431 1156 2273 1281 
Q 2116 1406 1581 1522 
L 1381 1569 
Q 847 1681 609 1914 
Q 372 2147 372 2553 
Q 372 3047 722 3315 
Q 1072 3584 1716 3584 
Q 2034 3584 2315 3537 
Q 2597 3491 2834 3397 
z
" transform="scale(0.015625)"/>
       <path id="DejaVuSans-6f" d="M 1959 3097 
Q 1497 3097 1228 2736 
Q 959 2375 959 1747 
Q 959 1119 1226 758 
Q 1494 397 1959 397 
Q 2419 397 2687 759 
Q 2956 1122 2956 1747 
Q 2956 2369 2687 2733 
Q 2419 3097 1959 3097 
z
M 1959 3584 
Q 2709 3584 3137 3096 
Q 3566 2609 3566 1747 
Q 3566 888 3137 398 
Q 2709 -91 1959 -91 
Q 1206 -91 779 398 
Q 353 888 353 1747 
Q 353 2609 779 3096 
Q 1206 3584 1959 3584 
z
" transform="scale(0.015625)"/>
       <path id="DejaVuSans-72" d="M 2631 2963 
Q 2534 3019 2420 3045 
Q 2306 3072 2169 3072 
Q 1681 3072 1420 2755 
Q 1159 2438 1159 1844 
L 1159 0 
L 581 0 
L 581 3500 
L 1159 3500 
L 1159 2956 
Q 1341 3275 1631 3429 
Q 1922 3584 2338 3584 
Q 2397 3584 2469 3576 
Q 2541 3569 2628 3553 
L 2631 2963 
z
" transform="scale(0.015625)"/>
       <path id="DejaVuSans-74" d="M 1172 4494 
L 1172 3500 
L 2356 3500 
L 2356 3053 
L 1172 3053 
L 1172 1153 
Q 1172 725 1289 603 
Q 1406 481 1766 481 
L 2356 481 
L 2356 0 
L 1766 0 
Q 1100 0 847 248 
Q 594 497 594 1153 
L 594 3053 
L 172 3053 
L 172 3500 
L 594 3500 
L 594 4494 
L 1172 4494 
z
" transform="scale(0.015625)"/>
       <path id="DejaVuSans-64" d="M 2906 2969 
L 2906 4863 
L 3481 4863 
L 3481 0 
L 2906 0 
L 2906 525 
Q 2725 213 2448 61 
Q 2172 -91 1784 -91 
Q 1150 -91 751 415 
Q 353 922 353 1747 
Q 353 2572 751 3078 
Q 1150 3584 1784 3584 
Q 2172 3584 2448 3432 
Q 2725 3281 2906 2969 
z
M 947 1747 
Q 947 1113 1208 752 
Q 1469 391 1925 391 
Q 2381 391 2643 752 
Q 2906 1113 2906 1747 
Q 2906 2381 2643 2742 
Q 2381 3103 1925 3103 
Q 1469 3103 1208 2742 
Q 947 2381 947 1747 
z
" transform="scale(0.015625)"/>
       <path id="DejaVuSans-29" d="M 513 4856 
L 1013 4856 
Q 1481 4119 1714 3412 
Q 1947 2706 1947 2009 
Q 1947 1309 1714 600 
Q 1481 -109 1013 -844 
L 513 -844 
Q 928 -128 1133 580 
Q 1338 1288 1338 2009 
Q 1338 2731 1133 3434 
Q 928 4138 513 4856 
z
" transform="scale(0.015625)"/>
      </defs>
      <use xlink:href="#DejaVuSans-45"/>
      <use xlink:href="#DejaVuSans-6e" transform="translate(63.183594 0)"/>
      <use xlink:href="#DejaVuSans-67" transform="translate(126.5625 0)"/>
      <use xlink:href="#DejaVuSans-69" transform="translate(190.039062 0)"/>
      <use xlink:href="#DejaVuSans-6e" transform="translate(217.822266 0)"/>
      <use xlink:href="#DejaVuSans-65" transform="translate(281.201172 0)"/>
      <use xlink:href="#DejaVuSans-20" transform="translate(342.724609 0)"/>
      <use xlink:href="#DejaVuSans-28" transform="translate(374.511719 0)"/>
      <use xlink:href="#DejaVuSans-73" transform="translate(413.525391 0)"/>
      <use xlink:href="#DejaVuSans-6f" transform="translate(465.625 0)"/>
      <use xlink:href="#DejaVuSans-72" transform="translate(526.806641 0)"/>
      <use xlink:href="#DejaVuSans-74" transform="translate(567.919922 0)"/>
      <use xlink:href="#DejaVuSans-65" transform="translate(607.128906 0)"/>
      <use xlink:href="#DejaVuSans-64" transform="translate(668.652344 0)"/>
      <use xlink:href="#DejaVuSans-29" transform="translate(732.128906 0)"/>
     </g>
    </g>
   </g>
   <g id="matplotlib.axis_2">
    <g id="ytick_1">
     <g id="line2d_6">
      <defs>
       <path id="ma3b8153f9c" d="M 0 0 
L -3.5 0 
" style="stroke: #000000; stroke-width: 0.8"/>
      </defs>
      <g>
       <use xlink:href="#ma3b8153f9c" x="50.87" y="373.532727" style="stroke: #000000; stroke-width: 0.8"/>
      </g>
     </g>
     <g id="text_7">
      <!-- 0 -->
      <g transform="translate(37.5075 377.331946) scale(0.1 -0.1)">
       <use xlink:href="#DejaVuSans-30"/>
      </g>
     </g>
    </g>
    <g id="ytick_2">
     <g id="line2d_7">
      <g>
       <use xlink:href="#ma3b8153f9c" x="50.87" y="327.927063" style="stroke: #000000; stroke-width: 0.8"/>
      </g>
     </g>
     <g id="text_8">
      <!-- 20 -->
      <g transform="translate(31.145 331.726282) scale(0.1 -0.1)">
       <use xlink:href="#DejaVuSans-32"/>
       <use xlink:href="#DejaVuSans-30" transform="translate(63.623047 0)"/>
      </g>
     </g>
    </g>
    <g id="ytick_3">
     <g id="line2d_8">
      <g>
       <use xlink:href="#ma3b8153f9c" x="50.87" y="282.321399" style="stroke: #000000; stroke-width: 0.8"/>
      </g>
     </g>
     <g id="text_9">
      <!-- 40 -->
      <g transform="translate(31.145 286.120618) scale(0.1 -0.1)">
       <use xlink:href="#DejaVuSans-34"/>
       <use xlink:href="#DejaVuSans-30" transform="translate(63.623047 0)"/>
      </g>
     </g>
    </g>
    <g id="ytick_4">
     <g id="line2d_9">
      <g>
       <use xlink:href="#ma3b8153f9c" x="50.87" y="236.715735" style="stroke: #000000; stroke-width: 0.8"/>
      </g>
     </g>
     <g id="text_10">
      <!-- 60 -->
      <g transform="translate(31.145 240.514953) scale(0.1 -0.1)">
       <use xlink:href="#DejaVuSans-36"/>
       <use xlink:href="#DejaVuSans-30" transform="translate(63.623047 0)"/>
      </g>
     </g>
    </g>
    <g id="ytick_5">
     <g id="line2d_10">
      <g>
       <use xlink:href="#ma3b8153f9c" x="50.87" y="191.11007" style="stroke: #000000; stroke-width: 0.8"/>
      </g>
     </g>
     <g id="text_11">
      <!-- 80 -->
      <g transform="translate(31.145 194.909289) scale(0.1 -0.1)">
       <use xlink:href="#DejaVuSans-38"/>
       <use xlink:href="#DejaVuSans-30" transform="translate(63.623047 0)"/>
      </g>
     </g>
    </g>
    <g id="ytick_6">
     <g id="line2d_11">
      <g>
       <use xlink:href="#ma3b8153f9c" x="50.87" y="145.504406" style="stroke: #000000; stroke-width: 0.8"/>
      </g>
     </g>
     <g id="text_12">
      <!-- 100 -->
      <g transform="translate(24.7825 149.303625) scale(0.1 -0.1)">
       <defs>
        <path id="DejaVuSans-31" d="M 794 531 
L 1825 531 
L 1825 4091 
L 703 3866 
L 703 4441 
L 1819 4666 
L 2450 4666 
L 2450 531 
L 3481 531 
L 3481 0 
L 794 0 
L 794 531 
z
" transform="scale(0.015625)"/>
       </defs>
       <use xlink:href="#DejaVuSans-31"/>
       <use xlink:href="#DejaVuSans-30" transform="translate(63.623047 0)"/>
       <use xlink:href="#DejaVuSans-30" transform="translate(127.246094 0)"/>
      </g>
     </g>
    </g>
    <g id="ytick_7">
     <g id="line2d_12">
      <g>
       <use xlink:href="#ma3b8153f9c" x="50.87" y="99.898742" style="stroke: #000000; stroke-width: 0.8"/>
      </g>
     </g>
     <g id="text_13">
      <!-- 120 -->
      <g transform="translate(24.7825 103.697961) scale(0.1 -0.1)">
       <use xlink:href="#DejaVuSans-31"/>
       <use xlink:href="#DejaVuSans-32" transform="translate(63.623047 0)"/>
       <use xlink:href="#DejaVuSans-30" transform="translate(127.246094 0)"/>
      </g>
     </g>
    </g>
    <g id="ytick_8">
     <g id="line2d_13">
      <g>
       <use xlink:href="#ma3b8153f9c" x="50.87" y="54.293078" style="stroke: #000000; stroke-width: 0.8"/>
      </g>
     </g>
     <g id="text_14">
      <!-- 140 -->
      <g transform="translate(24.7825 58.092297) scale(0.1 -0.1)">
       <use xlink:href="#DejaVuSans-31"/>
       <use xlink:href="#DejaVuSans-34" transform="translate(63.623047 0)"/>
       <use xlink:href="#DejaVuSans-30" transform="translate(127.246094 0)"/>
      </g>
     </g>
    </g>
    <g id="text_15">
     <!-- RUL -->
     <g transform="translate(18.702813 218.379531) rotate(-90) scale(0.1 -0.1)">
      <defs>
       <path id="DejaVuSans-52" d="M 2841 2188 
Q 3044 2119 3236 1894 
Q 3428 1669 3622 1275 
L 4263 0 
L 3584 0 
L 2988 1197 
Q 2756 1666 2539 1819 
Q 2322 1972 1947 1972 
L 1259 1972 
L 1259 0 
L 628 0 
L 628 4666 
L 2053 4666 
Q 2853 4666 3247 4331 
Q 3641 3997 3641 3322 
Q 3641 2881 3436 2590 
Q 3231 2300 2841 2188 
z
M 1259 4147 
L 1259 2491 
L 2053 2491 
Q 2509 2491 2742 2702 
Q 2975 2913 2975 3322 
Q 2975 3731 2742 3939 
Q 2509 4147 2053 4147 
L 1259 4147 
z
" transform="scale(0.015625)"/>
       <path id="DejaVuSans-55" d="M 556 4666 
L 1191 4666 
L 1191 1831 
Q 1191 1081 1462 751 
Q 1734 422 2344 422 
Q 2950 422 3222 751 
Q 3494 1081 3494 1831 
L 3494 4666 
L 4128 4666 
L 4128 1753 
Q 4128 841 3676 375 
Q 3225 -91 2344 -91 
Q 1459 -91 1007 375 
Q 556 841 556 1753 
L 556 4666 
z
" transform="scale(0.015625)"/>
       <path id="DejaVuSans-4c" d="M 628 4666 
L 1259 4666 
L 1259 531 
L 3531 531 
L 3531 0 
L 628 0 
L 628 4666 
z
" transform="scale(0.015625)"/>
      </defs>
      <use xlink:href="#DejaVuSans-52"/>
      <use xlink:href="#DejaVuSans-55" transform="translate(69.482422 0)"/>
      <use xlink:href="#DejaVuSans-4c" transform="translate(142.675781 0)"/>
     </g>
    </g>
   </g>
   <g id="line2d_14">
    <path d="M 87.339545 216.193186 
L 95.267708 186.549504 
L 103.19587 166.026955 
L 111.124032 161.466389 
L 119.052194 166.026955 
L 126.980356 156.905822 
L 134.908518 120.421291 
L 142.83668 154.625539 
L 150.764842 152.345256 
L 158.693004 90.777609 
L 166.621166 156.905822 
L 174.549328 184.269221 
L 182.47749 181.988938 
L 190.405652 259.518567 
L 198.333814 309.684797 
L 206.261976 175.148088 
L 214.190138 337.048196 
L 222.1183 243.556584 
L 230.046462 115.860725 
L 237.974625 327.927063 
L 245.902787 102.179025 
L 253.830949 223.034035 
L 261.759111 152.345256 
L 269.687273 168.307238 
L 277.615435 111.300158 
L 285.543597 355.290462 
L 293.471759 264.079133 
L 301.399921 131.822707 
L 309.328083 357.570745 
L 317.256245 348.449612 
L 325.184407 330.207346 
L 333.112569 325.64678 
L 341.040731 259.518567 
L 348.968893 309.684797 
L 356.897055 332.487629 
L 364.825217 350.729895 
L 372.753379 238.996018 
L 380.681542 124.981857 
L 388.609704 113.580441 
L 396.537866 266.359416 
L 404.466028 88.497326 
L 412.39419 163.746672 
L 420.322352 325.64678 
L 428.250514 193.390354 
L 436.178676 113.580441 
L 444.106838 307.404514 
L 452.035 314.245364 
L 459.963162 152.345256 
L 467.891324 88.497326 
L 475.819486 339.328479 
L 483.747648 138.663557 
L 491.67581 289.162249 
L 499.603972 113.580441 
L 507.532134 145.504406 
L 515.460296 325.64678 
L 523.388458 250.397434 
L 531.316621 209.352336 
L 539.244783 309.684797 
L 547.172945 88.497326 
L 555.101107 341.608762 
L 563.029269 197.95092 
L 570.957431 355.290462 
L 578.885593 97.618459 
L 586.813755 159.186106 
L 594.741917 104.459309 
L 602.670079 259.518567 
L 610.598241 88.497326 
L 618.526403 88.497326 
L 626.454565 115.860725 
L 634.382727 350.729895 
L 642.310889 296.003098 
L 650.239051 129.542424 
L 658.167213 229.874885 
L 666.095375 168.307238 
L 674.023538 355.290462 
L 681.9517 353.010178 
L 689.879862 88.497326 
L 697.808024 241.276301 
L 705.736186 170.587522 
L 713.664348 109.019875 
L 721.59251 111.300158 
L 729.520672 88.497326 
L 737.448834 309.684797 
L 745.376996 286.881965 
L 753.305158 327.927063 
L 761.23332 179.708654 
L 769.161482 248.117151 
L 777.089644 88.497326 
L 785.017806 88.497326 
L 792.945968 186.549504 
L 800.87413 238.996018 
L 808.802292 106.739592 
L 816.730455 327.927063 
" clip-path="url(#pb5955ea19d)" style="fill: none; stroke: #1f77b4; stroke-width: 1.5; stroke-linecap: square"/>
   </g>
   <g id="line2d_15">
    <path d="M 87.339545 233.689504 
L 95.267708 183.043833 
L 103.19587 134.025381 
L 111.124032 114.437844 
L 119.052194 166.691093 
L 126.980356 160.731358 
L 134.908518 107.807639 
L 142.83668 198.278057 
L 150.764842 153.348169 
L 158.693004 173.562822 
L 166.621166 212.750736 
L 174.549328 123.999543 
L 182.47749 126.631162 
L 190.405652 248.558996 
L 198.333814 302.226657 
L 206.261976 204.363695 
L 214.190138 338.485995 
L 222.1183 235.874477 
L 230.046462 103.01409 
L 237.974625 317.182221 
L 245.902787 112.522588 
L 253.830949 200.549415 
L 261.759111 116.491529 
L 269.687273 145.866076 
L 277.615435 160.292479 
L 285.543597 338.796678 
L 293.471759 258.653414 
L 301.399921 115.920014 
L 309.328083 355.530514 
L 317.256245 341.771074 
L 325.184407 311.533713 
L 333.112569 316.944863 
L 341.040731 253.692643 
L 348.968893 297.691486 
L 356.897055 330.498084 
L 364.825217 354.49603 
L 372.753379 258.568611 
L 380.681542 129.384249 
L 388.609704 160.760829 
L 396.537866 271.38801 
L 404.466028 103.494096 
L 412.39419 151.486253 
L 420.322352 334.494416 
L 428.250514 190.578569 
L 436.178676 142.990931 
L 444.106838 303.999395 
L 452.035 300.163373 
L 459.963162 133.942936 
L 467.891324 117.785897 
L 475.819486 332.810095 
L 483.747648 164.237551 
L 491.67581 294.723814 
L 499.603972 118.165503 
L 507.532134 117.882955 
L 515.460296 322.434125 
L 523.388458 274.899779 
L 531.316621 166.591041 
L 539.244783 311.718332 
L 547.172945 100.058187 
L 555.101107 329.288719 
L 563.029269 101.452293 
L 570.957431 345.009096 
L 578.885593 102.933541 
L 586.813755 193.53315 
L 594.741917 120.881342 
L 602.670079 235.818919 
L 610.598241 149.043636 
L 618.526403 115.433954 
L 626.454565 126.979784 
L 634.382727 347.645636 
L 642.310889 302.494343 
L 650.239051 94.35473 
L 658.167213 186.346183 
L 666.095375 164.501292 
L 674.023538 345.769979 
L 681.9517 348.180982 
L 689.879862 115.807611 
L 697.808024 219.657104 
L 705.736186 114.106671 
L 713.664348 101.54281 
L 721.59251 125.14473 
L 729.520672 111.890444 
L 737.448834 317.461137 
L 745.376996 303.499269 
L 753.305158 316.700215 
L 761.23332 243.155449 
L 769.161482 235.919822 
L 777.089644 140.205277 
L 785.017806 114.023878 
L 792.945968 159.131565 
L 800.87413 213.173314 
L 808.802292 112.512846 
L 816.730455 327.346289 
" clip-path="url(#pb5955ea19d)" style="fill: none; stroke-dasharray: 5.55,2.4; stroke-dashoffset: 0; stroke: #ff7f0e; stroke-width: 1.5"/>
    <defs>
     <path id="me29aa27402" d="M 0 1.5 
C 0.397805 1.5 0.77937 1.341951 1.06066 1.06066 
C 1.341951 0.77937 1.5 0.397805 1.5 0 
C 1.5 -0.397805 1.341951 -0.77937 1.06066 -1.06066 
C 0.77937 -1.341951 0.397805 -1.5 0 -1.5 
C -0.397805 -1.5 -0.77937 -1.341951 -1.06066 -1.06066 
C -1.341951 -0.77937 -1.5 -0.397805 -1.5 0 
C -1.5 0.397805 -1.341951 0.77937 -1.06066 1.06066 
C -0.77937 1.341951 -0.397805 1.5 0 1.5 
z
" style="stroke: #ff7f0e"/>
    </defs>
    <g clip-path="url(#pb5955ea19d)">
     <use xlink:href="#me29aa27402" x="87.339545" y="233.689504" style="fill: #ff7f0e; stroke: #ff7f0e"/>
     <use xlink:href="#me29aa27402" x="95.267708" y="183.043833" style="fill: #ff7f0e; stroke: #ff7f0e"/>
     <use xlink:href="#me29aa27402" x="103.19587" y="134.025381" style="fill: #ff7f0e; stroke: #ff7f0e"/>
     <use xlink:href="#me29aa27402" x="111.124032" y="114.437844" style="fill: #ff7f0e; stroke: #ff7f0e"/>
     <use xlink:href="#me29aa27402" x="119.052194" y="166.691093" style="fill: #ff7f0e; stroke: #ff7f0e"/>
     <use xlink:href="#me29aa27402" x="126.980356" y="160.731358" style="fill: #ff7f0e; stroke: #ff7f0e"/>
     <use xlink:href="#me29aa27402" x="134.908518" y="107.807639" style="fill: #ff7f0e; stroke: #ff7f0e"/>
     <use xlink:href="#me29aa27402" x="142.83668" y="198.278057" style="fill: #ff7f0e; stroke: #ff7f0e"/>
     <use xlink:href="#me29aa27402" x="150.764842" y="153.348169" style="fill: #ff7f0e; stroke: #ff7f0e"/>
     <use xlink:href="#me29aa27402" x="158.693004" y="173.562822" style="fill: #ff7f0e; stroke: #ff7f0e"/>
     <use xlink:href="#me29aa27402" x="166.621166" y="212.750736" style="fill: #ff7f0e; stroke: #ff7f0e"/>
     <use xlink:href="#me29aa27402" x="174.549328" y="123.999543" style="fill: #ff7f0e; stroke: #ff7f0e"/>
     <use xlink:href="#me29aa27402" x="182.47749" y="126.631162" style="fill: #ff7f0e; stroke: #ff7f0e"/>
     <use xlink:href="#me29aa27402" x="190.405652" y="248.558996" style="fill: #ff7f0e; stroke: #ff7f0e"/>
     <use xlink:href="#me29aa27402" x="198.333814" y="302.226657" style="fill: #ff7f0e; stroke: #ff7f0e"/>
     <use xlink:href="#me29aa27402" x="206.261976" y="204.363695" style="fill: #ff7f0e; stroke: #ff7f0e"/>
     <use xlink:href="#me29aa27402" x="214.190138" y="338.485995" style="fill: #ff7f0e; stroke: #ff7f0e"/>
     <use xlink:href="#me29aa27402" x="222.1183" y="235.874477" style="fill: #ff7f0e; stroke: #ff7f0e"/>
     <use xlink:href="#me29aa27402" x="230.046462" y="103.01409" style="fill: #ff7f0e; stroke: #ff7f0e"/>
     <use xlink:href="#me29aa27402" x="237.974625" y="317.182221" style="fill: #ff7f0e; stroke: #ff7f0e"/>
     <use xlink:href="#me29aa27402" x="245.902787" y="112.522588" style="fill: #ff7f0e; stroke: #ff7f0e"/>
     <use xlink:href="#me29aa27402" x="253.830949" y="200.549415" style="fill: #ff7f0e; stroke: #ff7f0e"/>
     <use xlink:href="#me29aa27402" x="261.759111" y="116.491529" style="fill: #ff7f0e; stroke: #ff7f0e"/>
     <use xlink:href="#me29aa27402" x="269.687273" y="145.866076" style="fill: #ff7f0e; stroke: #ff7f0e"/>
     <use xlink:href="#me29aa27402" x="277.615435" y="160.292479" style="fill: #ff7f0e; stroke: #ff7f0e"/>
     <use xlink:href="#me29aa27402" x="285.543597" y="338.796678" style="fill: #ff7f0e; stroke: #ff7f0e"/>
     <use xlink:href="#me29aa27402" x="293.471759" y="258.653414" style="fill: #ff7f0e; stroke: #ff7f0e"/>
     <use xlink:href="#me29aa27402" x="301.399921" y="115.920014" style="fill: #ff7f0e; stroke: #ff7f0e"/>
     <use xlink:href="#me29aa27402" x="309.328083" y="355.530514" style="fill: #ff7f0e; stroke: #ff7f0e"/>
     <use xlink:href="#me29aa27402" x="317.256245" y="341.771074" style="fill: #ff7f0e; stroke: #ff7f0e"/>
     <use xlink:href="#me29aa27402" x="325.184407" y="311.533713" style="fill: #ff7f0e; stroke: #ff7f0e"/>
     <use xlink:href="#me29aa27402" x="333.112569" y="316.944863" style="fill: #ff7f0e; stroke: #ff7f0e"/>
     <use xlink:href="#me29aa27402" x="341.040731" y="253.692643" style="fill: #ff7f0e; stroke: #ff7f0e"/>
     <use xlink:href="#me29aa27402" x="348.968893" y="297.691486" style="fill: #ff7f0e; stroke: #ff7f0e"/>
     <use xlink:href="#me29aa27402" x="356.897055" y="330.498084" style="fill: #ff7f0e; stroke: #ff7f0e"/>
     <use xlink:href="#me29aa27402" x="364.825217" y="354.49603" style="fill: #ff7f0e; stroke: #ff7f0e"/>
     <use xlink:href="#me29aa27402" x="372.753379" y="258.568611" style="fill: #ff7f0e; stroke: #ff7f0e"/>
     <use xlink:href="#me29aa27402" x="380.681542" y="129.384249" style="fill: #ff7f0e; stroke: #ff7f0e"/>
     <use xlink:href="#me29aa27402" x="388.609704" y="160.760829" style="fill: #ff7f0e; stroke: #ff7f0e"/>
     <use xlink:href="#me29aa27402" x="396.537866" y="271.38801" style="fill: #ff7f0e; stroke: #ff7f0e"/>
     <use xlink:href="#me29aa27402" x="404.466028" y="103.494096" style="fill: #ff7f0e; stroke: #ff7f0e"/>
     <use xlink:href="#me29aa27402" x="412.39419" y="151.486253" style="fill: #ff7f0e; stroke: #ff7f0e"/>
     <use xlink:href="#me29aa27402" x="420.322352" y="334.494416" style="fill: #ff7f0e; stroke: #ff7f0e"/>
     <use xlink:href="#me29aa27402" x="428.250514" y="190.578569" style="fill: #ff7f0e; stroke: #ff7f0e"/>
     <use xlink:href="#me29aa27402" x="436.178676" y="142.990931" style="fill: #ff7f0e; stroke: #ff7f0e"/>
     <use xlink:href="#me29aa27402" x="444.106838" y="303.999395" style="fill: #ff7f0e; stroke: #ff7f0e"/>
     <use xlink:href="#me29aa27402" x="452.035" y="300.163373" style="fill: #ff7f0e; stroke: #ff7f0e"/>
     <use xlink:href="#me29aa27402" x="459.963162" y="133.942936" style="fill: #ff7f0e; stroke: #ff7f0e"/>
     <use xlink:href="#me29aa27402" x="467.891324" y="117.785897" style="fill: #ff7f0e; stroke: #ff7f0e"/>
     <use xlink:href="#me29aa27402" x="475.819486" y="332.810095" style="fill: #ff7f0e; stroke: #ff7f0e"/>
     <use xlink:href="#me29aa27402" x="483.747648" y="164.237551" style="fill: #ff7f0e; stroke: #ff7f0e"/>
     <use xlink:href="#me29aa27402" x="491.67581" y="294.723814" style="fill: #ff7f0e; stroke: #ff7f0e"/>
     <use xlink:href="#me29aa27402" x="499.603972" y="118.165503" style="fill: #ff7f0e; stroke: #ff7f0e"/>
     <use xlink:href="#me29aa27402" x="507.532134" y="117.882955" style="fill: #ff7f0e; stroke: #ff7f0e"/>
     <use xlink:href="#me29aa27402" x="515.460296" y="322.434125" style="fill: #ff7f0e; stroke: #ff7f0e"/>
     <use xlink:href="#me29aa27402" x="523.388458" y="274.899779" style="fill: #ff7f0e; stroke: #ff7f0e"/>
     <use xlink:href="#me29aa27402" x="531.316621" y="166.591041" style="fill: #ff7f0e; stroke: #ff7f0e"/>
     <use xlink:href="#me29aa27402" x="539.244783" y="311.718332" style="fill: #ff7f0e; stroke: #ff7f0e"/>
     <use xlink:href="#me29aa27402" x="547.172945" y="100.058187" style="fill: #ff7f0e; stroke: #ff7f0e"/>
     <use xlink:href="#me29aa27402" x="555.101107" y="329.288719" style="fill: #ff7f0e; stroke: #ff7f0e"/>
     <use xlink:href="#me29aa27402" x="563.029269" y="101.452293" style="fill: #ff7f0e; stroke: #ff7f0e"/>
     <use xlink:href="#me29aa27402" x="570.957431" y="345.009096" style="fill: #ff7f0e; stroke: #ff7f0e"/>
     <use xlink:href="#me29aa27402" x="578.885593" y="102.933541" style="fill: #ff7f0e; stroke: #ff7f0e"/>
     <use xlink:href="#me29aa27402" x="586.813755" y="193.53315" style="fill: #ff7f0e; stroke: #ff7f0e"/>
     <use xlink:href="#me29aa27402" x="594.741917" y="120.881342" style="fill: #ff7f0e; stroke: #ff7f0e"/>
     <use xlink:href="#me29aa27402" x="602.670079" y="235.818919" style="fill: #ff7f0e; stroke: #ff7f0e"/>
     <use xlink:href="#me29aa27402" x="610.598241" y="149.043636" style="fill: #ff7f0e; stroke: #ff7f0e"/>
     <use xlink:href="#me29aa27402" x="618.526403" y="115.433954" style="fill: #ff7f0e; stroke: #ff7f0e"/>
     <use xlink:href="#me29aa27402" x="626.454565" y="126.979784" style="fill: #ff7f0e; stroke: #ff7f0e"/>
     <use xlink:href="#me29aa27402" x="634.382727" y="347.645636" style="fill: #ff7f0e; stroke: #ff7f0e"/>
     <use xlink:href="#me29aa27402" x="642.310889" y="302.494343" style="fill: #ff7f0e; stroke: #ff7f0e"/>
     <use xlink:href="#me29aa27402" x="650.239051" y="94.35473" style="fill: #ff7f0e; stroke: #ff7f0e"/>
     <use xlink:href="#me29aa27402" x="658.167213" y="186.346183" style="fill: #ff7f0e; stroke: #ff7f0e"/>
     <use xlink:href="#me29aa27402" x="666.095375" y="164.501292" style="fill: #ff7f0e; stroke: #ff7f0e"/>
     <use xlink:href="#me29aa27402" x="674.023538" y="345.769979" style="fill: #ff7f0e; stroke: #ff7f0e"/>
     <use xlink:href="#me29aa27402" x="681.9517" y="348.180982" style="fill: #ff7f0e; stroke: #ff7f0e"/>
     <use xlink:href="#me29aa27402" x="689.879862" y="115.807611" style="fill: #ff7f0e; stroke: #ff7f0e"/>
     <use xlink:href="#me29aa27402" x="697.808024" y="219.657104" style="fill: #ff7f0e; stroke: #ff7f0e"/>
     <use xlink:href="#me29aa27402" x="705.736186" y="114.106671" style="fill: #ff7f0e; stroke: #ff7f0e"/>
     <use xlink:href="#me29aa27402" x="713.664348" y="101.54281" style="fill: #ff7f0e; stroke: #ff7f0e"/>
     <use xlink:href="#me29aa27402" x="721.59251" y="125.14473" style="fill: #ff7f0e; stroke: #ff7f0e"/>
     <use xlink:href="#me29aa27402" x="729.520672" y="111.890444" style="fill: #ff7f0e; stroke: #ff7f0e"/>
     <use xlink:href="#me29aa27402" x="737.448834" y="317.461137" style="fill: #ff7f0e; stroke: #ff7f0e"/>
     <use xlink:href="#me29aa27402" x="745.376996" y="303.499269" style="fill: #ff7f0e; stroke: #ff7f0e"/>
     <use xlink:href="#me29aa27402" x="753.305158" y="316.700215" style="fill: #ff7f0e; stroke: #ff7f0e"/>
     <use xlink:href="#me29aa27402" x="761.23332" y="243.155449" style="fill: #ff7f0e; stroke: #ff7f0e"/>
     <use xlink:href="#me29aa27402" x="769.161482" y="235.919822" style="fill: #ff7f0e; stroke: #ff7f0e"/>
     <use xlink:href="#me29aa27402" x="777.089644" y="140.205277" style="fill: #ff7f0e; stroke: #ff7f0e"/>
     <use xlink:href="#me29aa27402" x="785.017806" y="114.023878" style="fill: #ff7f0e; stroke: #ff7f0e"/>
     <use xlink:href="#me29aa27402" x="792.945968" y="159.131565" style="fill: #ff7f0e; stroke: #ff7f0e"/>
     <use xlink:href="#me29aa27402" x="800.87413" y="213.173314" style="fill: #ff7f0e; stroke: #ff7f0e"/>
     <use xlink:href="#me29aa27402" x="808.802292" y="112.512846" style="fill: #ff7f0e; stroke: #ff7f0e"/>
     <use xlink:href="#me29aa27402" x="816.730455" y="327.346289" style="fill: #ff7f0e; stroke: #ff7f0e"/>
    </g>
   </g>
   <g id="patch_3">
    <path d="M 50.87 390.04 
L 50.87 26.88 
" style="fill: none; stroke: #000000; stroke-width: 0.8; stroke-linejoin: miter; stroke-linecap: square"/>
   </g>
   <g id="patch_4">
    <path d="M 853.2 390.04 
L 853.2 26.88 
" style="fill: none; stroke: #000000; stroke-width: 0.8; stroke-linejoin: miter; stroke-linecap: square"/>
   </g>
   <g id="patch_5">
    <path d="M 50.87 390.04 
L 853.2 390.04 
" style="fill: none; stroke: #000000; stroke-width: 0.8; stroke-linejoin: miter; stroke-linecap: square"/>
   </g>
   <g id="patch_6">
    <path d="M 50.87 26.88 
L 853.2 26.88 
" style="fill: none; stroke: #000000; stroke-width: 0.8; stroke-linejoin: miter; stroke-linecap: square"/>
   </g>
   <g id="text_16">
    <!-- Final-Engine RUL with Prediction Bands – FD001 -->
    <g transform="translate(308.545937 20.88) scale(0.12 -0.12)">
     <defs>
      <path id="DejaVuSans-46" d="M 628 4666 
L 3309 4666 
L 3309 4134 
L 1259 4134 
L 1259 2759 
L 3109 2759 
L 3109 2228 
L 1259 2228 
L 1259 0 
L 628 0 
L 628 4666 
z
" transform="scale(0.015625)"/>
      <path id="DejaVuSans-61" d="M 2194 1759 
Q 1497 1759 1228 1600 
Q 959 1441 959 1056 
Q 959 750 1161 570 
Q 1363 391 1709 391 
Q 2188 391 2477 730 
Q 2766 1069 2766 1631 
L 2766 1759 
L 2194 1759 
z
M 3341 1997 
L 3341 0 
L 2766 0 
L 2766 531 
Q 2569 213 2275 61 
Q 1981 -91 1556 -91 
Q 1019 -91 701 211 
Q 384 513 384 1019 
Q 384 1609 779 1909 
Q 1175 2209 1959 2209 
L 2766 2209 
L 2766 2266 
Q 2766 2663 2505 2880 
Q 2244 3097 1772 3097 
Q 1472 3097 1187 3025 
Q 903 2953 641 2809 
L 641 3341 
Q 956 3463 1253 3523 
Q 1550 3584 1831 3584 
Q 2591 3584 2966 3190 
Q 3341 2797 3341 1997 
z
" transform="scale(0.015625)"/>
      <path id="DejaVuSans-6c" d="M 603 4863 
L 1178 4863 
L 1178 0 
L 603 0 
L 603 4863 
z
" transform="scale(0.015625)"/>
      <path id="DejaVuSans-2d" d="M 313 2009 
L 1997 2009 
L 1997 1497 
L 313 1497 
L 313 2009 
z
" transform="scale(0.015625)"/>
      <path id="DejaVuSans-77" d="M 269 3500 
L 844 3500 
L 1563 769 
L 2278 3500 
L 2956 3500 
L 3675 769 
L 4391 3500 
L 4966 3500 
L 4050 0 
L 3372 0 
L 2619 2869 
L 1863 0 
L 1184 0 
L 269 3500 
z
" transform="scale(0.015625)"/>
      <path id="DejaVuSans-68" d="M 3513 2113 
L 3513 0 
L 2938 0 
L 2938 2094 
Q 2938 2591 2744 2837 
Q 2550 3084 2163 3084 
Q 1697 3084 1428 2787 
Q 1159 2491 1159 1978 
L 1159 0 
L 581 0 
L 581 4863 
L 1159 4863 
L 1159 2956 
Q 1366 3272 1645 3428 
Q 1925 3584 2291 3584 
Q 2894 3584 3203 3211 
Q 3513 2838 3513 2113 
z
" transform="scale(0.015625)"/>
      <path id="DejaVuSans-50" d="M 1259 4147 
L 1259 2394 
L 2053 2394 
Q 2494 2394 2734 2622 
Q 2975 2850 2975 3272 
Q 2975 3691 2734 3919 
Q 2494 4147 2053 4147 
L 1259 4147 
z
M 628 4666 
L 2053 4666 
Q 2838 4666 3239 4311 
Q 3641 3956 3641 3272 
Q 3641 2581 3239 2228 
Q 2838 1875 2053 1875 
L 1259 1875 
L 1259 0 
L 628 0 
L 628 4666 
z
" transform="scale(0.015625)"/>
      <path id="DejaVuSans-63" d="M 3122 3366 
L 3122 2828 
Q 2878 2963 2633 3030 
Q 2388 3097 2138 3097 
Q 1578 3097 1268 2742 
Q 959 2388 959 1747 
Q 959 1106 1268 751 
Q 1578 397 2138 397 
Q 2388 397 2633 464 
Q 2878 531 3122 666 
L 3122 134 
Q 2881 22 2623 -34 
Q 2366 -91 2075 -91 
Q 1284 -91 818 406 
Q 353 903 353 1747 
Q 353 2603 823 3093 
Q 1294 3584 2113 3584 
Q 2378 3584 2631 3529 
Q 2884 3475 3122 3366 
z
" transform="scale(0.015625)"/>
      <path id="DejaVuSans-42" d="M 1259 2228 
L 1259 519 
L 2272 519 
Q 2781 519 3026 730 
Q 3272 941 3272 1375 
Q 3272 1813 3026 2020 
Q 2781 2228 2272 2228 
L 1259 2228 
z
M 1259 4147 
L 1259 2741 
L 2194 2741 
Q 2656 2741 2882 2914 
Q 3109 3088 3109 3444 
Q 3109 3797 2882 3972 
Q 2656 4147 2194 4147 
L 1259 4147 
z
M 628 4666 
L 2241 4666 
Q 2963 4666 3353 4366 
Q 3744 4066 3744 3513 
Q 3744 3084 3544 2831 
Q 3344 2578 2956 2516 
Q 3422 2416 3680 2098 
Q 3938 1781 3938 1306 
Q 3938 681 3513 340 
Q 3088 0 2303 0 
L 628 0 
L 628 4666 
z
" transform="scale(0.015625)"/>
      <path id="DejaVuSans-2013" d="M 313 1978 
L 2888 1978 
L 2888 1528 
L 313 1528 
L 313 1978 
z
" transform="scale(0.015625)"/>
      <path id="DejaVuSans-44" d="M 1259 4147 
L 1259 519 
L 2022 519 
Q 2988 519 3436 956 
Q 3884 1394 3884 2338 
Q 3884 3275 3436 3711 
Q 2988 4147 2022 4147 
L 1259 4147 
z
M 628 4666 
L 1925 4666 
Q 3281 4666 3915 4102 
Q 4550 3538 4550 2338 
Q 4550 1131 3912 565 
Q 3275 0 1925 0 
L 628 0 
L 628 4666 
z
" transform="scale(0.015625)"/>
     </defs>
     <use xlink:href="#DejaVuSans-46"/>
     <use xlink:href="#DejaVuSans-69" transform="translate(50.269531 0)"/>
     <use xlink:href="#DejaVuSans-6e" transform="translate(78.052734 0)"/>
     <use xlink:href="#DejaVuSans-61" transform="translate(141.431641 0)"/>
     <use xlink:href="#DejaVuSans-6c" transform="translate(202.710938 0)"/>
     <use xlink:href="#DejaVuSans-2d" transform="translate(230.494141 0)"/>
     <use xlink:href="#DejaVuSans-45" transform="translate(266.578125 0)"/>
     <use xlink:href="#DejaVuSans-6e" transform="translate(329.761719 0)"/>
     <use xlink:href="#DejaVuSans-67" transform="translate(393.140625 0)"/>
     <use xlink:href="#DejaVuSans-69" transform="translate(456.617188 0)"/>
     <use xlink:href="#DejaVuSans-6e" transform="translate(484.400391 0)"/>
     <use xlink:href="#DejaVuSans-65" transform="translate(547.779297 0)"/>
     <use xlink:href="#DejaVuSans-20" transform="translate(609.302734 0)"/>
     <use xlink:href="#DejaVuSans-52" transform="translate(641.089844 0)"/>
     <use xlink:href="#DejaVuSans-55" transform="translate(710.572266 0)"/>
     <use xlink:href="#DejaVuSans-4c" transform="translate(783.765625 0)"/>
     <use xlink:href="#DejaVuSans-20" transform="translate(839.478516 0)"/>
     <use xlink:href="#DejaVuSans-77" transform="translate(871.265625 0)"/>
     <use xlink:href="#DejaVuSans-69" transform="translate(953.052734 0)"/>
     <use xlink:href="#DejaVuSans-74" transform="translate(980.835938 0)"/>
     <use xlink:href="#DejaVuSans-68" transform="translate(1020.044922 0)"/>
     <use xlink:href="#DejaVuSans-20" transform="translate(1083.423828 0)"/>
     <use xlink:href="#DejaVuSans-50" transform="translate(1115.210938 0)"/>
     <use xlink:href="#DejaVuSans-72" transform="translate(1173.763672 0)"/>
     <use xlink:href="#DejaVuSans-65" transform="translate(1212.626953 0)"/>
     <use xlink:href="#DejaVuSans-64" transform="translate(1274.150391 0)"/>
     <use xlink:href="#DejaVuSans-69" transform="translate(1337.626953 0)"/>
     <use xlink:href="#DejaVuSans-63" transform="translate(1365.410156 0)"/>
     <use xlink:href="#DejaVuSans-74" transform="translate(1420.390625 0)"/>
     <use xlink:href="#DejaVuSans-69" transform="translate(1459.599609 0)"/>
     <use xlink:href="#DejaVuSans-6f" transform="translate(1487.382812 0)"/>
     <use xlink:href="#DejaVuSans-6e" transform="translate(1548.564453 0)"/>
     <use xlink:href="#DejaVuSans-20" transform="translate(1611.943359 0)"/>
     <use xlink:href="#DejaVuSans-42" transform="translate(1643.730469 0)"/>
     <use xlink:href="#DejaVuSans-61" transform="translate(1712.333984 0)"/>
     <use xlink:href="#DejaVuSans-6e" transform="translate(1773.613281 0)"/>
     <use xlink:href="#DejaVuSans-64" transform="translate(1836.992188 0)"/>
     <use xlink:href="#DejaVuSans-73" transform="translate(1900.46875 0)"/>
     <use xlink:href="#DejaVuSans-20" transform="translate(1952.568359 0)"/>
     <use xlink:href="#DejaVuSans-2013" transform="translate(1984.355469 0)"/>
     <use xlink:href="#DejaVuSans-20" transform="translate(2034.355469 0)"/>
     <use xlink:href="#DejaVuSans-46" transform="translate(2066.142578 0)"/>
     <use xlink:href="#DejaVuSans-44" transform="translate(2123.662109 0)"/>
     <use xlink:href="#DejaVuSans-30" transform="translate(2200.664062 0)"/>
     <use xlink:href="#DejaVuSans-30" transform="translate(2264.287109 0)"/>
     <use xlink:href="#DejaVuSans-31" transform="translate(2327.910156 0)"/>
    </g>
   </g>
   <g id="legend_1">
    <g id="patch_7">
     <path d="M 57.87 385.04 
L 202.390312 385.04 
Q 204.390312 385.04 204.390312 383.04 
L 204.390312 340.005625 
Q 204.390312 338.005625 202.390312 338.005625 
L 57.87 338.005625 
Q 55.87 338.005625 55.87 340.005625 
L 55.87 383.04 
Q 55.87 385.04 57.87 385.04 
z
" style="fill: #ffffff; opacity: 0.8; stroke: #cccccc; stroke-linejoin: miter"/>
    </g>
    <g id="patch_8">
     <path d="M 59.87 349.604062 
L 79.87 349.604062 
L 79.87 342.604062 
L 59.87 342.604062 
z
" style="fill: #1f77b4; fill-opacity: 0.2"/>
    </g>
    <g id="text_17">
     <!-- Prediction Band (lo–hi) -->
     <g transform="translate(87.87 349.604062) scale(0.1 -0.1)">
      <use xlink:href="#DejaVuSans-50"/>
      <use xlink:href="#DejaVuSans-72" transform="translate(58.552734 0)"/>
      <use xlink:href="#DejaVuSans-65" transform="translate(97.416016 0)"/>
      <use xlink:href="#DejaVuSans-64" transform="translate(158.939453 0)"/>
      <use xlink:href="#DejaVuSans-69" transform="translate(222.416016 0)"/>
      <use xlink:href="#DejaVuSans-63" transform="translate(250.199219 0)"/>
      <use xlink:href="#DejaVuSans-74" transform="translate(305.179688 0)"/>
      <use xlink:href="#DejaVuSans-69" transform="translate(344.388672 0)"/>
      <use xlink:href="#DejaVuSans-6f" transform="translate(372.171875 0)"/>
      <use xlink:href="#DejaVuSans-6e" transform="translate(433.353516 0)"/>
      <use xlink:href="#DejaVuSans-20" transform="translate(496.732422 0)"/>
      <use xlink:href="#DejaVuSans-42" transform="translate(528.519531 0)"/>
      <use xlink:href="#DejaVuSans-61" transform="translate(597.123047 0)"/>
      <use xlink:href="#DejaVuSans-6e" transform="translate(658.402344 0)"/>
      <use xlink:href="#DejaVuSans-64" transform="translate(721.78125 0)"/>
      <use xlink:href="#DejaVuSans-20" transform="translate(785.257812 0)"/>
      <use xlink:href="#DejaVuSans-28" transform="translate(817.044922 0)"/>
      <use xlink:href="#DejaVuSans-6c" transform="translate(856.058594 0)"/>
      <use xlink:href="#DejaVuSans-6f" transform="translate(883.841797 0)"/>
      <use xlink:href="#DejaVuSans-2013" transform="translate(945.023438 0)"/>
      <use xlink:href="#DejaVuSans-68" transform="translate(995.023438 0)"/>
      <use xlink:href="#DejaVuSans-69" transform="translate(1058.402344 0)"/>
      <use xlink:href="#DejaVuSans-29" transform="translate(1086.185547 0)"/>
     </g>
    </g>
    <g id="line2d_16">
     <path d="M 59.87 360.782187 
L 69.87 360.782187 
L 79.87 360.782187 
" style="fill: none; stroke: #1f77b4; stroke-width: 1.5; stroke-linecap: square"/>
    </g>
    <g id="text_18">
     <!-- RUL Actual -->
     <g transform="translate(87.87 364.282187) scale(0.1 -0.1)">
      <defs>
       <path id="DejaVuSans-41" d="M 2188 4044 
L 1331 1722 
L 3047 1722 
L 2188 4044 
z
M 1831 4666 
L 2547 4666 
L 4325 0 
L 3669 0 
L 3244 1197 
L 1141 1197 
L 716 0 
L 50 0 
L 1831 4666 
z
" transform="scale(0.015625)"/>
       <path id="DejaVuSans-75" d="M 544 1381 
L 544 3500 
L 1119 3500 
L 1119 1403 
Q 1119 906 1312 657 
Q 1506 409 1894 409 
Q 2359 409 2629 706 
Q 2900 1003 2900 1516 
L 2900 3500 
L 3475 3500 
L 3475 0 
L 2900 0 
L 2900 538 
Q 2691 219 2414 64 
Q 2138 -91 1772 -91 
Q 1169 -91 856 284 
Q 544 659 544 1381 
z
M 1991 3584 
L 1991 3584 
z
" transform="scale(0.015625)"/>
      </defs>
      <use xlink:href="#DejaVuSans-52"/>
      <use xlink:href="#DejaVuSans-55" transform="translate(69.482422 0)"/>
      <use xlink:href="#DejaVuSans-4c" transform="translate(142.675781 0)"/>
      <use xlink:href="#DejaVuSans-20" transform="translate(198.388672 0)"/>
      <use xlink:href="#DejaVuSans-41" transform="translate(230.175781 0)"/>
      <use xlink:href="#DejaVuSans-63" transform="translate(296.833984 0)"/>
      <use xlink:href="#DejaVuSans-74" transform="translate(351.814453 0)"/>
      <use xlink:href="#DejaVuSans-75" transform="translate(391.023438 0)"/>
      <use xlink:href="#DejaVuSans-61" transform="translate(454.402344 0)"/>
      <use xlink:href="#DejaVuSans-6c" transform="translate(515.681641 0)"/>
     </g>
    </g>
    <g id="line2d_17">
     <path d="M 59.87 375.460312 
L 69.87 375.460312 
L 79.87 375.460312 
" style="fill: none; stroke-dasharray: 5.55,2.4; stroke-dashoffset: 0; stroke: #ff7f0e; stroke-width: 1.5"/>
     <g>
      <use xlink:href="#me29aa27402" x="69.87" y="375.460312" style="fill: #ff7f0e; stroke: #ff7f0e"/>
     </g>
    </g>
    <g id="text_19">
     <!-- RUL Prediction -->
     <g transform="translate(87.87 378.960312) scale(0.1 -0.1)">
      <use xlink:href="#DejaVuSans-52"/>
      <use xlink:href="#DejaVuSans-55" transform="translate(69.482422 0)"/>
      <use xlink:href="#DejaVuSans-4c" transform="translate(142.675781 0)"/>
      <use xlink:href="#DejaVuSans-20" transform="translate(198.388672 0)"/>
      <use xlink:href="#DejaVuSans-50" transform="translate(230.175781 0)"/>
      <use xlink:href="#DejaVuSans-72" transform="translate(288.728516 0)"/>
      <use xlink:href="#DejaVuSans-65" transform="translate(327.591797 0)"/>
      <use xlink:href="#DejaVuSans-64" transform="translate(389.115234 0)"/>
      <use xlink:href="#DejaVuSans-69" transform="translate(452.591797 0)"/>
      <use xlink:href="#DejaVuSans-63" transform="translate(480.375 0)"/>
      <use xlink:href="#DejaVuSans-74" transform="translate(535.355469 0)"/>
      <use xlink:href="#DejaVuSans-69" transform="translate(574.564453 0)"/>
      <use xlink:href="#DejaVuSans-6f" transform="translate(602.347656 0)"/>
      <use xlink:href="#DejaVuSans-6e" transform="translate(663.529297 0)"/>
     </g>
    </g>
   </g>
  </g>
 </g>
 <defs>
  <clipPath id="pb5955ea19d">
   <rect x="50.87" y="26.88" width="802.33" height="363.16"/>
  </clipPath>
 </defs>
</svg>
